<svg width="1440" height="1677" viewBox="0 0 1440 1677" fill="none" xmlns="http://www.w3.org/2000/svg">
<g clip-path="url(#clip0_3202_717)">
<path d="M158.249 1102.31C159.936 1092.26 174.01 1085.51 182.283 1082.42C189.982 1079.55 197.976 1077.69 205.692 1074.82C211.874 1072.5 217.549 1069.14 223.132 1065.67C233.167 1059.45 243.851 1054.76 253.524 1047.81C264.562 1039.89 268.703 1028.75 275.879 1017.94C279.455 1012.56 286.581 1007.41 292.585 1005.36" stroke="url(#paint0_linear_3202_717)" stroke-opacity="0.5" stroke-width="9" stroke-linecap="round" stroke-linejoin="round"/>
<path d="M200.287 833.466C207.784 824.435 212.456 811.398 222.457 804.069C231.91 797.138 245.462 794.802 256.459 792.634C285.24 786.951 309.063 772.134 334.631 758.06C363.176 742.358 398.038 739.904 427.519 725.559C440.27 719.353 451.393 712.042 465.408 707.825C483.724 702.318 499.148 696.441 514.344 684.247C528.933 672.542 544.264 662.271 556.348 648.12C564.258 638.853 576.3 629.501 581.638 618.395" stroke="url(#paint1_linear_3202_717)" stroke-opacity="0.5" stroke-width="9" stroke-linecap="round" stroke-linejoin="round"/>
<path d="M198.069 1041.88C217.254 1029.53 230.4 1008.24 246.887 992.529C270.347 970.165 292.517 961.513 322.015 956.015C334.892 953.611 350.645 952.119 363.615 950.238C378.397 948.096 401.116 949.471 415.822 946.14C442.782 940.026 463.434 929.94 489.551 921.786C514.352 914.036 535.713 905.569 559.839 895.18C569.992 890.803 580.061 886.638 590.594 883.366C598.858 880.794 609.584 876.855 616.095 871.189C632.311 857.08 632.851 835.298 662.678 827.65C689.25 820.836 704.741 807.014 724.271 787.071C755.254 755.439 758.365 709.826 758.264 667.914C758.264 664.153 758.61 660.198 757.522 656.825" stroke="url(#paint2_linear_3202_717)" stroke-opacity="0.5" stroke-width="9" stroke-linecap="round" stroke-linejoin="round"/>
<path d="M-269.862 1157.02C-233.643 1157.02 -202.172 1151.82 -167.588 1145.93C-129.767 1139.49 -96.4994 1128.25 -57.5396 1134.39C-39.6197 1137.21 -18.841 1139.78 -0.204402 1139.33C18.1708 1138.88 36.6977 1132.59 51.6745 1122.82C84.6807 1101.3 114.424 1079 140.624 1049.62C153.046 1035.69 160.146 1018.96 169.532 1003.44C178.834 988.058 194.03 987.342 208.855 980.46C241.431 965.332 240.217 941.678 277.026 932.132C321.552 920.579 382.361 907.44 426.397 894.858" stroke="url(#paint3_linear_3202_717)" stroke-opacity="0.5" stroke-width="9" stroke-linecap="round" stroke-linejoin="round"/>
<path d="M659.322 803.253C680.809 783.596 708.866 757.732 714.305 725.932C719.98 692.765 706.344 668.411 714.305 636.198C724.593 594.564 734.131 566.854 745.287 528.746C758.333 484.153 771.387 464.353 788.438 434.298C804.688 405.66 827.12 373.05 848.446 347.836C871.434 320.657 869.798 292.111 902.273 268.238C929.478 248.244 953.005 213.829 974.307 188.286C993.551 165.214 1022.06 143.499 1052.9 133.329C1082.8 123.479 1124.31 124.677 1150.6 140.809C1164.08 149.081 1227.61 187.594 1224.27 198.245" stroke="url(#paint4_linear_3202_717)" stroke-opacity="0.5" stroke-width="9" stroke-linecap="round" stroke-linejoin="round"/>
<path d="M1410.52 750.867C1420.32 752.832 1436.44 752.807 1448.38 752.832C1461.44 752.866 1480.72 746.668 1492.56 741.094C1504.78 735.342 1514.41 725.316 1527.35 721.538C1541.53 717.397 1553.6 725.56 1567.79 729.102C1581.97 732.644 1594.69 731.303 1606.75 721.732" stroke="url(#paint5_linear_3202_717)" stroke-opacity="0.5" stroke-width="9" stroke-linecap="round" stroke-linejoin="round"/>
<path d="M1383.75 251.069C1393.22 257.807 1393.97 265.666 1396.4 274.504C1398.44 281.916 1398.33 289.388 1399.89 296.859C1404.58 319.392 1421.19 343.156 1428.08 365.199C1433.42 382.318 1433.08 402.219 1433.08 420.224C1433.08 435.47 1434.83 458.458 1434.24 473.747C1432.83 510.565 1433.13 534.354 1433.13 571.147C1433.13 583.922 1433.14 598.84 1434.38 611.413C1435.47 622.57 1431.69 630.843 1426.06 640.844C1421.52 648.906 1411.49 655.964 1410.51 665.51C1409.76 672.779 1412.52 685.623 1416.95 691.526C1427.25 705.263 1448.2 700.144 1459.57 692.496C1475.61 681.693 1476.97 669.406 1476.03 650.567C1475.6 642.016 1476.03 634.233 1481.3 626.905C1486.74 619.324 1492.67 616.574 1495.08 607.34C1497.61 597.626 1496.16 587.54 1490.83 580.128C1484.98 572.007 1484.59 566.416 1483.62 556.364C1481.1 530.348 1480.61 503.414 1481.43 477.381C1482.26 451.248 1479.69 425.671 1477.16 399.824C1475.66 384.443 1471.93 368.901 1470.33 353.418C1468.44 335.043 1459.81 318.852 1455.75 297.348C1451.97 277.312 1450.31 259.434 1437.89 243.15C1426.5 228.216 1414.27 213.551 1392.5 214.116C1383.91 214.344 1374.22 220.044 1366.03 215.684C1354.39 209.478 1348.1 198.456 1340.04 189.146C1324.63 171.378 1314.49 153.205 1299.29 135.564C1289.26 123.918 1275.11 112.728 1262.57 103.114C1252.14 95.1198 1244.34 85.5569 1233.91 77.5879C1214.83 63.0075 1190.78 49.9112 1167.37 43.1986C1157.39 40.3399 1152.36 37.7847 1142.32 34.2345C1133.14 30.9794 1125.19 27.7159 1115.56 27.2606C1106.25 26.8221 1095.37 27.0497 1086.96 27.5473" stroke="url(#paint6_linear_3202_717)" stroke-opacity="0.5" stroke-width="9" stroke-linecap="round" stroke-linejoin="round"/>
<path d="M1294.6 198.161C1301.32 203.356 1311.9 213.602 1318.12 222.456C1323.6 230.248 1328.37 237.593 1333.37 245.47C1345.89 265.186 1352.58 294.802 1359.22 317.714C1366.66 343.443 1377.21 369.272 1380.75 395.052C1385.66 430.933 1386.77 467.482 1388.49 503.49C1390.79 551.692 1387.56 597.542 1370.74 641.291C1362.77 661.994 1356.32 688.735 1362.91 709.463C1370.58 733.597 1351.64 745.15 1333.89 759.436C1317.68 772.481 1299.06 784.717 1282.29 796.869C1265.74 808.861 1243.88 821.249 1225.26 829.572C1201.4 840.231 1186.56 840.45 1160.29 841.766C1134.45 843.056 1100.53 841.487 1075.38 835.323C1056.55 830.71 1037.97 826.435 1021.51 816.096C998.281 801.516 987.42 775.171 979.906 751.171C973.345 730.241 972.923 710.576 966.11 680.766C959.591 652.229 966.793 624.08 972.847 598.469C983.06 555.268 970.967 511.366 1018.73 488.26C1040.56 477.702 1070.97 472.659 1094.11 476.117C1116.92 479.532 1126.96 484.221 1134.19 506.146C1138.76 519.976 1142.43 530.492 1142.73 542.129" stroke="url(#paint7_linear_3202_717)" stroke-opacity="0.5" stroke-width="9" stroke-linecap="round" stroke-linejoin="round"/>
<path d="M1147.15 330.178C1140.56 326.501 1137.2 318.329 1130.1 315.808C1114.28 310.183 1116.34 310.807 1109.95 309.719C1105.39 308.944 1101.85 305.748 1097.37 307.51C1096.17 307.982 1091.64 312.232 1094.42 312.679" stroke="url(#paint8_linear_3202_717)" stroke-opacity="0.5" stroke-width="9" stroke-linecap="round" stroke-linejoin="round"/>
<path d="M1168.41 399.893C1169.17 376.509 1143.86 364.998 1125.86 359.441C1106.29 353.395 1100.6 350.266 1079.96 349.254C1073.52 348.942 1061.27 348.453 1054.71 349.094C1049.35 349.617 1043.56 351.303 1030.77 350.84C1027.94 350.738 1021.7 348.318 1019.29 346.766C1015.68 344.456 1015.26 339.438 1017.33 335.542C1022.66 325.49 1031.85 317.176 1040.43 311.441C1052.22 303.556 1060.77 290.452 1072.97 283.309C1087.03 275.079 1102.48 270.719 1117.54 273.982C1130.32 276.757 1145.34 283.63 1155.86 291.742C1157.17 292.754 1161.68 295.689 1166.03 298.016" stroke="url(#paint9_linear_3202_717)" stroke-opacity="0.5" stroke-width="9" stroke-linecap="round" stroke-linejoin="round"/>
<path d="M1044.76 689.266C1048.03 700.642 1063.13 709.842 1072.76 715.095C1084.53 721.521 1101 725.08 1114.74 725.029C1129.14 724.979 1143.17 726.767 1157.53 724.076C1170.23 721.698 1182.38 717.541 1194.82 714.311C1225.35 706.384 1248.15 685.134 1266.54 660.535C1285.5 635.16 1289.8 593.527 1292.78 563.287C1294.63 544.617 1294.34 525.55 1294.34 506.492C1294.34 484.22 1288.38 463.113 1287.34 441.221C1286.61 425.806 1284.92 410.07 1283.45 394.588C1282.69 386.475 1280.87 378.489 1280.34 370.47C1279.9 363.588 1281.91 357.095 1281.16 350.231C1278.66 327.327 1272.1 298.04 1254.03 281.36C1242.21 270.439 1233.41 254.282 1222.2 242.931C1211.42 232.027 1201.98 221.334 1191.58 210.785C1175.26 194.256 1151.55 184.854 1128.71 179.415C1103.5 173.402 1081.85 178.538 1056.37 184.559C1031.65 190.394 1012.27 207.69 995.202 226.091C983.227 238.993 974.078 246.76 964.844 261.703C959.615 270.169 957.49 275.929 951.756 283.864C948.568 288.266 939.781 302.644 936.771 306.987" stroke="url(#paint10_linear_3202_717)" stroke-opacity="0.5" stroke-width="9" stroke-linecap="round" stroke-linejoin="round"/>
<path d="M940.17 768.147C940.769 761.544 937.176 753.28 935.304 747.014C932.943 739.104 930.329 731.228 928.516 723.132C923.954 702.834 920.589 681.035 919.122 660.265C918.135 646.275 918.278 631.72 918.278 617.713C918.278 603.706 922.301 589.96 927.301 576.501C932.302 563.043 938.703 547.88 940.17 533.418" stroke="url(#paint11_linear_3202_717)" stroke-opacity="0.5" stroke-width="9" stroke-linecap="round" stroke-linejoin="round"/>
<path d="M637.893 904.312C647.793 898.417 656.1 889.63 666.582 884.292C680.032 877.436 695.279 873.818 709.573 868.75C724.87 863.336 733.884 858.428 746.896 848.334C758.019 839.699 772.262 833.45 779.582 821.442C810.767 770.322 796.87 694.747 787.855 640.625C782.981 611.379 786.067 579.14 795.411 549.693C804.974 519.545 817.581 492.139 833.021 465.297C851.169 433.758 866.98 415.754 885.364 384.08C890.753 374.795 898.604 366.396 907.694 359.852C914.019 355.298 920.478 350.905 927.958 349.918C951.368 346.823 957.018 340.592 969.279 330.177C1012.94 293.081 1028.87 234.363 1091.09 224.176C1120.46 219.369 1150.07 230.138 1170.13 253.902C1187.15 274.056 1202.43 280.33 1201.48 293.536C1200.3 309.972 1187.41 318.194 1191.39 337.606C1194.97 355.046 1199.86 372.898 1201.25 390.05C1202.89 410.137 1204.19 428.867 1207.69 448.507C1211.63 470.635 1210.23 493.016 1212.39 515.692C1214.21 534.86 1217.05 556.869 1211.56 575.177C1206.5 592.001 1196.55 611.008 1182.89 621.802C1172.97 629.645 1149.98 635.902 1136.27 632.2C1119.65 627.722 1112.12 617.249 1098.7 607.019C1094.84 604.076 1075.17 580.27 1070.48 580.372C1061.37 580.582 1060.84 599.793 1060.85 607.019C1060.87 621.777 1061.75 632.099 1070.25 648.223C1079.56 665.847 1101.64 677.434 1118.62 679.12C1158.3 683.067 1195.44 676.776 1220.05 643.298C1235.61 622.114 1242.22 596.495 1243.74 569.94C1244.96 548.588 1246 527.523 1249.66 506.162C1253.62 483.124 1248.64 464.142 1246.69 440.656C1245.21 422.939 1248.27 399.09 1246.69 381.322C1245.46 367.467 1238.92 356.1 1235.92 343.24" stroke="url(#paint12_linear_3202_717)" stroke-opacity="0.5" stroke-width="9" stroke-linecap="round" stroke-linejoin="round"/>
<path d="M1086.37 435.756C1071.02 398.964 992.057 436.507 973.226 452.259C943.888 476.791 915.233 503.944 898.553 539.008C889.766 557.476 884.504 582.438 881.628 602.381C877.825 628.692 875.27 657.161 876.417 683.978C877.606 711.747 880.81 741.886 887.7 768.155C895.146 796.548 910.123 817.892 932.47 837.835C967.5 869.087 1027.69 875.547 1071.74 886.687C1119.76 898.822 1173.69 910.004 1222.97 896.03C1246.21 889.444 1275.86 877.765 1294.36 862.813C1310.46 849.801 1319.89 840.593 1332.47 823.668C1338.93 814.982 1347.67 811.828 1354.96 806.305C1363.31 799.98 1376.97 787.685 1387.01 786.049C1411.63 782.043 1426.95 796.54 1448.67 792.281C1471.8 787.744 1483.74 779.151 1507.31 773.138C1530.91 767.126 1550.3 780.171 1572.22 783.814C1594.49 787.516 1614.86 790.375 1631.22 770.904C1649.3 749.383 1654.15 741.06 1683.57 735.123C1698.44 732.121 1753.66 728.242 1742.72 729.034" stroke="url(#paint13_linear_3202_717)" stroke-opacity="0.5" stroke-width="9" stroke-linecap="round" stroke-linejoin="round"/>
<path d="M898.714 208.467C904.962 199.848 920.099 182.384 925.303 173.049C928.456 167.399 933.82 161.521 938.576 157.212C948.569 148.163 953.713 139.73 960.366 133.195C998.744 95.4662 1047.28 81.8134 1097.33 79.722C1125.52 78.5414 1137.15 87.4466 1163.1 100.526C1171.9 104.962 1184.58 112.905 1193.01 117.763C1200.77 122.232 1209.89 127.393 1217.97 131.036C1226.68 134.966 1246.58 147.134 1251.17 154.412C1254.66 159.944 1255.04 178.479 1256.01 185.116C1258.38 201.13 1258.64 212.683 1263.97 228.225C1269.37 243.986 1281.35 248.354 1291.63 259.612C1304.38 273.585 1311.43 286.69 1318.21 304.112C1333.37 343.089 1328.39 381.838 1334.71 422.585C1341.3 465.07 1336.64 505.514 1338.44 549.483C1341.25 618.43 1329.14 722.804 1256.01 752.85C1237.13 760.6 1212.55 766.857 1192.14 770.424C1168.63 774.531 1149.18 778.225 1125.3 778.225C1081.83 778.225 1035.09 774.227 1017.05 725.637C1009.45 705.145 1008.19 690.869 1019.67 672.257C1027.78 659.119 1034.36 643.493 1030.89 627.647C1028.44 616.449 1020.6 608.336 1020.64 596.505C1020.69 578.492 1023.73 555.639 1035.03 540.941C1050.57 520.727 1073.98 510.785 1091.26 530.518C1104.77 545.941 1116.97 581.486 1139.37 587.06C1162.38 592.794 1174.83 562.073 1176.33 544.457C1178.11 523.586 1175.85 503.254 1172.91 483.353C1169.35 459.319 1158.85 440.539 1141.29 423.21C1120.52 402.709 1097.5 391.291 1067.08 386.974C1041.08 383.28 1016.13 382.26 992.327 391.004C982.983 394.437 970.722 398.687 961.252 401.621C951.233 404.725 943.214 401.554 934.191 407.786C926.121 413.36 918.843 426.557 912.872 434.004C901.901 447.673 892.642 458.99 882.877 473.689C855.757 514.512 828.67 564.258 826.056 614.534C824.909 636.637 833.764 650.399 838.073 671.102C840.485 682.672 840.19 699.327 839.034 711.2C838.157 720.223 839.667 751.982 841.775 761.19C853.623 812.833 867.47 832.473 899.565 865.606C929.333 896.335 959.945 911.177 998.997 928.127C1026.32 939.984 1055.18 941.426 1084.52 946.224C1106.2 949.766 1137.37 958.882 1159.92 954.429C1205.98 945.33 1254.1 942.935 1294.92 917.696C1317.1 903.984 1335.11 892.051 1353.82 874.688C1371.4 858.362 1404.96 838.933 1427.64 833.317C1464.63 824.15 1500.77 826.224 1538.88 832.802C1578.15 839.582 1621.12 837.786 1660.95 840.931C1709.94 844.802 1749.83 844.431 1793.27 819.664C1813.68 808.026 1835.4 799.762 1854.65 786.59C1873.27 773.831 1886.34 752.268 1897.18 732.535C1918.06 694.529 1917.79 649.843 1936.12 609.652C1952.16 574.487 1982.06 555.513 2000.54 523.948C2016.39 496.862 2023.44 452.961 2059.15 444.393C2078.51 439.746 2100.17 447.319 2119.49 445.97C2135.94 444.823 2144.35 430.765 2156.47 420.95C2179.8 402.051 2222.36 383.449 2211.41 346.386C2206.6 330.111 2195.62 317.773 2192.02 300.815C2188.67 285.037 2186.27 269.259 2188.63 252.942C2189.74 245.284 2192.19 238.8 2193.61 231.32" stroke="url(#paint14_linear_3202_717)" stroke-opacity="0.5" stroke-width="9" stroke-linecap="round" stroke-linejoin="round"/>
<path d="M1361.36 981.75C1365.08 975.451 1375.66 969.455 1381.61 965.019C1388.49 959.901 1394.71 953.998 1401.14 948.289C1413.54 937.275 1425.66 925.655 1440.36 917.526C1447.57 913.545 1457.74 912.896 1464.06 908.376" stroke="url(#paint15_linear_3202_717)" stroke-opacity="0.5" stroke-width="9" stroke-linecap="round" stroke-linejoin="round"/>
<path d="M808.289 952.135C823.426 986.448 857.073 983.294 887.347 992.275C906.641 998.001 924.628 999.485 943.451 1005.59C959.178 1010.68 998.247 1023.44 1014.64 1026.66C1058.59 1035.3 1080.22 1043.07 1124.07 1053.03C1159.71 1061.13 1195.83 1066.35 1232.98 1066.35C1256.97 1066.35 1268.76 1064.65 1292.04 1057.01C1310.67 1050.91 1328.1 1040.8 1340.93 1025.96C1350.37 1015.04 1359.05 1020.62 1375.1 1017.2C1389.1 1014.23 1407.04 1002.83 1419.69 994.729C1434.54 985.217 1447.83 975.536 1462.82 966.732C1467.42 964.033 1472.81 960.913 1478.54 957.877C1494.45 949.453 1512.2 945.026 1530.2 944.655C1539 944.469 1547.79 945.27 1556.41 947.066C1563.78 948.601 1571.18 950.423 1577.92 951.359C1613.37 956.301 1634.05 947.235 1668.13 953.29C1672.74 954.108 1689.05 956.469 1693.69 957.152C1704.22 958.704 1718.39 957.675 1725.91 952.211C1734.53 945.953 1741.23 938.752 1744.64 928.666" stroke="url(#paint16_linear_3202_717)" stroke-opacity="0.5" stroke-width="9" stroke-linecap="round" stroke-linejoin="round"/>
<path d="M234.608 1661.83C235.443 1638.93 214.656 1633.64 201.223 1617.47C171.244 1581.4 173.639 1508.67 160.036 1469.79C145.329 1427.75 123.21 1407.21 89.8496 1381.07C54.9966 1353.78 38.9573 1329.31 3.57302 1324.29C-39.3165 1318.2 -68.8316 1277.21 -70.7627 1243.13C-73.5793 1193.31 -11.5218 1191.34 26.8815 1185.02C51.3115 1181 62.3838 1176.9 85.2115 1166.12C104.43 1157.04 114.878 1140.49 134.434 1134.66C154.201 1128.75 165.492 1141.78 185.133 1134.93C203.676 1128.45 231.252 1120.72 248.008 1109.82C265.557 1098.4 281.562 1085.32 296.666 1070.68C303.404 1064.15 313.068 1053.4 317.714 1045C322.597 1036.17 323.938 1023.75 330.726 1016.99C358.394 989.45 428.168 978.58 465.812 968.646C507.934 957.523 528.823 947.749 576.645 944.334C595.316 943.002 606.38 948.019 623.035 951.123C647.11 955.609 653.089 947.412 683.608 954.496C705.609 959.598 710.121 975.392 745.168 985.158C762.784 990.074 797.536 1006.64 814.25 1013.47C858.193 1031.42 883.374 1038.67 926.803 1058.29C968.023 1076.9 1002.17 1078 1046.09 1086.7C1098.33 1097.04 1107.83 1088.86 1154.26 1108.16C1198.68 1126.61 1255.69 1109.85 1300.85 1102.1C1355.74 1092.68 1438.56 1032.84 1467.63 1011.3C1496.7 989.762 1528.59 999.94 1528.59 999.94C1539.32 1001.85 1555.36 1003.79 1565.48 1003.29C1588.93 1002.13 1604.03 995.657 1628.19 997.689C1644.31 999.047 1658.35 1003.99 1672.37 1012.04C1678.72 1015.69 1690.58 1021.44 1697.64 1023.38C1716.13 1028.43 1734.65 1028.11 1748.72 1019.87C1764.53 1010.6 1773.73 990.782 1777.5 973.259C1780.27 960.39 1784.27 946.974 1790.62 935.437" stroke="url(#paint17_linear_3202_717)" stroke-opacity="0.5" stroke-width="9" stroke-linecap="round" stroke-linejoin="round"/>
<path d="M-6.22549 1085.03C49.9543 1059.46 109.263 1028.76 130.969 969.421C136.484 954.352 143.289 950.346 150.575 936.828C157.861 923.31 150.896 909.422 155.989 895.499C166.066 867.923 209.184 876.862 229.852 861.177C257.689 840.061 281.993 845.112 311.086 830.439M549.686 720.433C577.059 706.189 590.922 667.516 611.777 642.884C631.906 619.103 652.499 602.482 663.31 573.861C688.018 508.464 710.888 444.695 745.438 385.015C780.131 325.083 825.255 278.104 847.307 211.686C865.336 157.362 915.807 98.0029 961.707 66.6916C973.201 58.8491 983.101 47.996 995.885 42.0677C1008.49 36.2237 1025.86 37.2188 1037.38 28.0101C1061.08 9.06146 1064.07 -10.6377 1098.2 -19.5344C1157.35 -34.9581 1226.37 5.29193 1276.33 34.6889C1304.42 51.2257 1316.94 67.6698 1333.79 93.7442C1349.67 118.309 1368.01 129.963 1388.51 150.32C1400.09 161.814 1407.6 180.004 1421.11 189.061C1435.06 198.413 1448.9 200.471 1462.85 211.804C1487.26 231.647 1508.22 241.716 1511.67 274.326C1515.02 305.999 1527.55 333.963 1533.44 364.33C1540.17 399.031 1536.28 439.922 1537.95 475.07C1539.52 508.211 1536.53 543.427 1551.47 572.857C1566.9 603.258 1591.89 649.537 1628.27 657.127C1663.04 664.379 1694.56 645.625 1723.59 630.589C1765.13 609.085 1784.8 597.33 1809 558.64C1831.32 522.969 1873.99 513.237 1901.12 482.322C1925.95 454.021 1931.77 415.323 1961.63 388.329C2022.43 333.356 2143.88 354.91 2143.59 246.253C2143.55 229.935 2141.08 211.248 2143.53 195.149C2146.39 176.395 2154.48 165.592 2147.51 146.61C2141.31 129.727 2124.59 120.923 2117.73 104.85C2109.77 86.1968 2113.48 59.0261 2115.99 39.6305C2120.92 1.33689 2134.28 -33.1535 2138.66 -70.9158C2144 -116.917 2135.71 -162.117 2136.21 -208.608C2136.81 -263.168 2165.91 -297.229 2186.43 -345.212C2195.61 -366.699 2205.12 -392.216 2219.72 -409.951C2225.13 -416.52 2232.64 -416.579 2237.81 -425.256C2244.51 -436.506 2242.47 -451.887 2246.84 -464.115C2258.9 -497.813 2299.73 -502.991 2320.44 -530.541C2306.02 -532.244 2296.4 -523.373 2283.93 -518.659C2265.23 -511.6 2240.52 -517.267 2223.36 -509.189C2192.85 -494.828 2195.13 -445.175 2183.02 -418.493C2166.32 -381.658 2126.81 -347.978 2101.23 -317.088C2079.22 -290.508 2046.9 -265.226 2055.04 -228.357C2061.55 -198.935 2076.42 -166.123 2064.89 -135.014" stroke="url(#paint18_linear_3202_717)" stroke-opacity="0.5" stroke-width="9" stroke-miterlimit="10" stroke-linecap="round"/>
<path d="M777.239 952.776C760.255 940.303 718.192 944.444 743.414 909.979C759.066 888.585 790.68 896.748 805.683 877.605C813.77 867.283 806.796 855.933 823.004 853.293C838.605 850.755 843.529 865.006 850.857 875.176C865.303 895.23 890.011 907.972 909.373 923.126C932.572 941.282 960.232 952.506 986.197 966.319C1014.07 981.144 1035.26 981.742 1066.18 986.6C1123.91 995.674 1188.38 995.033 1244.76 980.132C1271.14 973.158 1300.2 966.487 1324.44 955.204C1348.47 944.014 1376.49 916.152 1399.4 902.49C1448.75 873.051 1480.13 870.715 1538.47 872.545C1572.99 873.625 1611.96 896.705 1645.74 894.083C1681.51 891.3 1717.64 894.876 1753.74 893.13C1783.24 891.713 1802.45 876.897 1828.51 863.067C1840.51 856.7 1861.55 852.939 1871.83 844.793C1881.91 836.807 1905.39 820.481 1916.01 812.225C1942.4 791.716 1946.73 786.825 1957.63 753.709C1967.13 724.835 1960.98 714.159 1982.84 667.458C1997.2 636.805 1999.52 611.253 2010.6 579.47C2019.89 552.788 2024.67 519.09 2051.21 505.016C2060.73 499.964 2074.72 487.863 2086.47 489.17" stroke="url(#paint19_linear_3202_717)" stroke-opacity="0.5" stroke-width="9" stroke-linecap="round" stroke-linejoin="round"/>
<path d="M367.131 1035.06C395.238 1034.96 413.124 1022.78 442.951 1022.43C470.754 1022.1 494.931 1015.42 520.989 1009.91C575.574 998.355 625.084 996.205 678.363 1016.64C728.606 1035.91 754.857 1037.94 806.542 1053.4C834.885 1061.89 886.52 1088.13 913.319 1097.53C938.618 1106.41 966.058 1107.23 992.63 1112.53C1046.86 1123.33 1100.79 1158.08 1157.1 1160.41C1227.85 1163.33 1284.78 1154.71 1351.73 1133.8C1382.95 1124.04 1414.56 1116.55 1444.9 1103.7C1470.53 1092.84 1494.77 1086.32 1523.37 1087.73C1534.8 1088.3 1551.4 1093.67 1563.5 1089.94C1573.22 1086.95 1579.05 1078 1583.94 1069.25C1601.21 1038.34 1640.3 1052.36 1666.43 1062.99C1719.06 1084.41 1771.49 1115.82 1809.74 1058.78C1828.15 1031.34 1823.97 998.465 1832.91 969.726C1840.11 946.56 1860.45 929.889 1877.23 912.492C1884.8 904.641 1888.94 893.172 1900.9 898.687" stroke="url(#paint20_linear_3202_717)" stroke-opacity="0.5" stroke-width="9" stroke-linecap="round" stroke-linejoin="round"/>
<path d="M661.877 1775.96C637.953 1784.58 622.825 1795.29 595.392 1793.86C570.229 1792.55 552.604 1781.46 529.97 1773.66C507.657 1765.95 481.903 1758.33 457.878 1754.94C432.267 1751.32 415.174 1764.58 391.385 1771.4C329.243 1789.22 298.893 1758.43 292.585 1697.01C290.182 1673.57 293.487 1648.98 280.231 1628.21C266.587 1606.85 246.997 1594.1 236.7 1569.4C216.268 1520.38 234.187 1460.47 196.189 1415.81C178.219 1394.68 160.451 1392.68 147.321 1366.82C131.011 1334.7 103.773 1314.67 73.8534 1294.23C52.746 1279.81 20.4734 1272.84 -0.903953 1259.59C-29.4239 1241.91 2.78971 1233.03 30.2555 1231.3C92.2877 1227.39 146.688 1213.4 200.515 1182.68C223.486 1169.57 249.392 1164.02 269.631 1146.98C288.326 1131.23 302.333 1120.02 322.395 1104.08C356.186 1077.22 397.928 1054.93 481.591 1052.62C533.006 1051.2 594.102 1024.62 644.025 1046.62C687.412 1065.73 728.497 1079.44 770.054 1099.97C824.969 1127.11 880.701 1137.41 940.592 1153.94C992.8 1168.35 1075.52 1200.14 1131.4 1204.02C1184.54 1207.73 1205.2 1194.29 1257.68 1192.94C1296.98 1191.92 1343.03 1183.77 1381.36 1173.32C1407.68 1166.15 1428.06 1156.35 1453.87 1149.46C1487.64 1140.45 1503.86 1138.29 1540.53 1142.08C1571.77 1145.31 1612.31 1151.56 1642.53 1154.57C1670.65 1157.38 1694.59 1167.02 1721.8 1172.79C1749 1178.56 1769.74 1183.94 1793.65 1171.28C1815.73 1159.6 1807.03 1127.99 1821.5 1114.69C1831.79 1105.22 1851.7 1101.41 1860.21 1089.78C1868.61 1078.29 1874.46 1054.24 1876.13 1040.9C1879.51 1013.94 1873.41 1005.5 1889.42 981.734C1902.64 962.111 1921.89 952.439 1934.93 932.191C1942.11 921.035 1941.95 901.639 1945.54 888.627C1948.91 876.383 1943.35 865.007 1950.66 855.385" stroke="url(#paint21_linear_3202_717)" stroke-opacity="0.5" stroke-width="9" stroke-linecap="round" stroke-linejoin="round"/>
<path d="M12.9102 2166.62C9.86595 2139.64 -17.1529 2123.32 -35.7811 2103.58C-77.3636 2059.52 -79.7501 1991.26 -111.483 1939.64C-137.456 1897.4 -181.914 1868.31 -204.666 1824.25C-212.762 1808.57 -217.821 1791.5 -225.369 1775.55C-240.7 1743.18 -265.855 1716.32 -281.793 1684.25C-313.855 1619.72 -305.026 1542.99 -321.048 1472.73" stroke="url(#paint22_linear_3202_717)" stroke-opacity="0.5" stroke-width="9" stroke-linecap="round" stroke-linejoin="round"/>
<path d="M103.066 2308.87C97.0782 2236.59 71.535 2166.03 29.8682 2106.68C20.8113 2093.77 10.9449 2081.28 4.28291 2066.99C-5.44862 2046.12 -7.77605 2022.68 -13.6959 2000.41C-29.6172 1940.56 -70.7443 1891.23 -109.249 1842.72C-153.606 1786.83 -196.478 1728.24 -220.934 1661.2C-231.745 1631.58 -238.879 1600.48 -252.936 1572.26C-261.529 1555.01 -273.032 1536.87 -269.111 1517.99C-267.702 1511.21 -257.971 1504.66 -255.264 1511.03" stroke="url(#paint23_linear_3202_717)" stroke-opacity="0.5" stroke-width="9" stroke-linecap="round" stroke-linejoin="round"/>
<path d="M15.4769 2414.54C5.64422 2361.2 31.2969 2336.88 16.8936 2301.15C3.28296 2267.4 -25.1357 2240.94 -55.4603 2220.81C-104.11 2188.51 -125.622 2144.18 -153.383 2077.12C-170.763 2035.13 -198.752 1990.79 -228.714 1956.62C-244.196 1938.95 -265.582 1917.56 -280.525 1899.44C-326.864 1843.24 -363.201 1789.07 -365.646 1728.17C-366.473 1707.57 -396.384 1646.61 -395.6 1584.79C-394.731 1516.4 -420.435 1487.52 -418.495 1459.05C-416.573 1430.87 -423.74 1420.56 -427.645 1410.81C-438.152 1384.61 -457.995 1362.69 -466.571 1335.79C-476.48 1304.74 -470.206 1271.21 -467.187 1238.76C-465.112 1216.41 -472.508 1184.36 -487.206 1145.88" stroke="url(#paint24_linear_3202_717)" stroke-opacity="0.5" stroke-width="9" stroke-linecap="round" stroke-linejoin="round"/>
<path d="M79.9921 2505.42C79.9921 2473.13 96.5543 2440.68 98.9661 2405.96C101.15 2374.43 117.881 2353.13 135.295 2327.09C151.756 2302.45 137.234 2235.37 129.687 2209.87C114.516 2158.63 109.92 2144.93 87.1263 2104.91C67.8825 2071.12 69.2655 2055.33 58.3703 2017.81C47.0365 1978.78 32.6921 1935.78 6.4406 1906.21C-21.6999 1874.5 -45.0841 1852.42 -69.6828 1817.34C-78.5289 1804.72 -86.2871 1782.2 -92.7635 1768.57C-99.1557 1755.11 -111.366 1747.23 -119.15 1735.07C-128.19 1720.95 -138.419 1708.76 -147.898 1694.27C-154.576 1684.05 -162.301 1663.85 -166.366 1652.32C-173.964 1630.77 -179.597 1605.1 -180.212 1589.7C-181.326 1561.93 -172.918 1545.61 -195.063 1538.64C-201.43 1536.63 -211.566 1534.51 -218.346 1534.1" stroke="url(#paint25_linear_3202_717)" stroke-opacity="0.5" stroke-width="9" stroke-linecap="round" stroke-linejoin="round"/>
<path d="M-163.582 2911.89C-161.946 2902.38 -143.529 2888.28 -136.546 2880.09C-128.67 2870.85 -119.731 2862.29 -112.116 2852.78C-104.569 2843.36 -93.1676 2836.14 -87.3321 2825.99C-80.1894 2813.56 -82.2723 2805.85 -79.7087 2794.34C-73.6286 2767.04 -42.8233 2750.95 -22.2472 2735.54C-1.6541 2720.12 14.5623 2696.79 27.6248 2674.92C39.8693 2654.42 57.7385 2641.15 72.2852 2622.84C90.9219 2599.39 104.229 2575.46 115.63 2548.18C126.441 2522.32 132.336 2496.76 138.568 2469.6C145.154 2440.91 159.481 2410.22 166.202 2381.37C171.894 2356.94 174.458 2330.84 178.168 2307.03C183.017 2275.92 183.65 2241.5 177.283 2210.56C169.466 2172.53 161.834 2136.75 138.559 2105.01C131.535 2095.43 126.23 2080 122.579 2068.15C118.27 2054.15 120.892 2038.67 119.501 2024.05C116.069 1988.09 105.123 1957.04 84.9599 1929.87C64.7969 1902.7 50.3345 1864.61 21.4014 1841.64C-7.44745 1818.73 -29.0609 1801.34 -47.9168 1769.39C-56.2401 1755.28 -60.9118 1739.3 -66.7221 1723.8C-75.6019 1700.12 -91.4894 1666.99 -107.158 1647.19C-117.876 1633.65 -147.399 1597.9 -142.787 1578.59C-140.299 1568.2 -127.506 1566.48 -118.272 1566.04C-103.911 1565.35 -95.0818 1576.63 -86.1261 1586.53C-69.5977 1604.8 -58.6434 1627.2 -45.0834 1647.52C-31.5234 1667.83 -22.5676 1694.29 -16.5887 1718.06C-14.0504 1728.14 -10.5761 1735.86 -2.98651 1756.37" stroke="url(#paint26_linear_3202_717)" stroke-opacity="0.5" stroke-width="9" stroke-linecap="round" stroke-linejoin="round"/>
<path d="M596.042 2014.64C572.185 1989.78 556.82 1968.87 517.27 1957.03C480.402 1945.99 470.788 1932.92 433.886 1938.89C416.674 1941.68 393.577 1948.46 375.193 1945.44C356.995 1942.45 340.568 1932.55 326.831 1922.77C309.215 1910.23 298.817 1908.82 282.997 1894.3C260.329 1873.52 252.588 1857.12 246.474 1841.15C231.615 1802.36 226.227 1784.73 204.908 1754.49C182.907 1723.29 159.7 1696.39 137.648 1667.33C123.481 1648.67 106.657 1632.53 98.6037 1610.15C87.2699 1578.66 86.258 1573.12 69.6368 1549.44C48.3101 1519.07 54.3312 1495.37 21.3925 1471.35C8.97086 1462.29 -12.3221 1451.46 -27.0965 1442.64C-48.5413 1429.84 -74.8941 1422.89 -98.8518 1413.72C-125.213 1403.64 -147.855 1401.57 -173.584 1387.8C-196.732 1375.41 -203.529 1376.58 -214.23 1363.98C-225.665 1350.5 -232.917 1360.66 -229.308 1371.22" stroke="url(#paint27_linear_3202_717)" stroke-opacity="0.5" stroke-width="9" stroke-miterlimit="10" stroke-linecap="round"/>
<path d="M945.575 1828.97C910.098 1832.77 880.633 1850.46 863.574 1877.62C847.222 1903.64 820.043 1915.07 792.611 1926.48C738.514 1948.98 665.755 1936.19 648.19 1989.19C638.23 2019.23 633.272 2055.05 603.833 2063.28C568.55 2073.15 549.331 2051.6 524.842 2031.92C499.265 2011.36 469.801 2005.15 434.872 1997.78C401.579 1990.77 376.373 2010.42 330.54 1992.53C271.856 1969.63 237.509 1921.77 208.298 1857.98C194.35 1827.51 168.773 1804.27 157.827 1771.57C144.798 1732.66 122.906 1722.91 94.2684 1696.28C68.3036 1672.12 68.4301 1653.05 64.0788 1619.87C58.8167 1579.69 32.4134 1565.98 9.16396 1538.68C-0.904883 1526.87 -14.4144 1521.04 -28.2021 1511.41C-41.4923 1502.13 -62.5323 1493.28 -77.2814 1488.11C-104.646 1478.52 -120.862 1476.4 -146.397 1461.83C-176.68 1444.56 -217.183 1443.47 -245.02 1416.4C-268.556 1393.51 -281.154 1374.9 -277.081 1344.33C-272.123 1307.15 -291.476 1275.7 -302.481 1252.9C-318.832 1219.03 -355.903 1230.17 -385.663 1218.89C-396.727 1214.7 -413.795 1210.37 -422.843 1204.02" stroke="url(#paint28_linear_3202_717)" stroke-opacity="0.5" stroke-width="9" stroke-miterlimit="10" stroke-linecap="round"/>
<path d="M2865.32 2950.01C2900.82 2948.43 2922.32 2934.92 2969.15 2926.46C2984.29 2923.73 3000.5 2915.63 3014.65 2909.38C3033.79 2900.93 3033.06 2887.85 3039.79 2869.69C3051.73 2837.45 3076.24 2807.96 3082.79 2773.26C3089.46 2737.87 3094.96 2707.25 3085.37 2670.99C3075.02 2631.82 3084.12 2586.04 3060.37 2559.88C3048.53 2546.85 3038.11 2540.56 3026.71 2528.16C2999.85 2498.97 2994.05 2491.77 2983.93 2479.02C2960.98 2450.14 2931.54 2444.34 2898.85 2430.71C2882.79 2424.01 2867.37 2420.08 2850.16 2417.62C2824.75 2414 2813.19 2403.34 2794.15 2386.5C2770.27 2365.37 2738.36 2368 2706.85 2363.29C2665.29 2357.07 2624.46 2346.84 2583.41 2336.54C2509.66 2318.04 2427.59 2283.48 2370.57 2230.77C2343.74 2205.97 2336.99 2175.3 2304.67 2155.09C2266.71 2131.36 2218.65 2101.99 2177.68 2085.1C2140.79 2069.9 2091.07 2042.19 2061.51 2016.6C2026.73 1986.47 2012.67 2021.82 1970.89 2017.21C1926.58 2012.32 1909.33 2001.5 1874.18 1986.08C1833.58 1968.27 1785 1953.17 1765.75 1913.13C1744.23 1868.35 1694.8 1830.42 1660 1796.49C1633.53 1770.69 1604.55 1761.06 1574.16 1745.18C1558.25 1736.88 1542.92 1726.51 1526.42 1718.77C1497.71 1705.32 1456.93 1702.66 1429.53 1684.7C1389.15 1658.25 1321.26 1657.41 1280.38 1649.29C1185.52 1630.47 1128.59 1634.91 1034.22 1648.88C989.62 1655.48 954.776 1663.62 914.323 1679.32C879.377 1692.88 839.035 1711.17 804.038 1725.17C777.34 1735.86 741.905 1753.55 722.079 1774.72C696.14 1802.41 673.877 1843.86 632.522 1847.81C596.379 1851.27 562.319 1857.24 529.548 1840.84C487.266 1819.66 449.015 1803.99 405.687 1820.11C375.126 1831.49 336.141 1874.29 304.77 1849.78C290.553 1838.67 288.25 1818.8 284.43 1802.92C279 1780.28 261.704 1759.91 250.007 1739.53C230.814 1706.12 212.675 1685.24 185.336 1659.93C152.456 1629.49 136.442 1610.01 132.361 1566.21C124.113 1477.7 55.7058 1429.8 -17.7191 1391.97C-36.516 1382.29 -45.1765 1380.09 -67.8862 1379.04C-92.6873 1377.89 -101.626 1370.14 -123.079 1360.38C-163.591 1341.95 -193.814 1346.55 -220.96 1306.44C-242.101 1275.2 -255.644 1223.92 -285.269 1200.07C-293.988 1193.05 -319.961 1181.97 -331.582 1177.43C-347.478 1171.23 -365.819 1177.27 -382.803 1172.37C-399.517 1167.55 -404.813 1152.25 -425.71 1156.1" stroke="url(#paint29_linear_3202_717)" stroke-opacity="0.5" stroke-width="9" stroke-miterlimit="10" stroke-linecap="round"/>
<path d="M-446.683 3062.5C-478.829 3062.5 -529.991 3051.32 -558.705 3057.31C-598.567 3065.63 -575.731 3097.09 -544.606 3114.34C-485.339 3147.17 -400.977 3115.95 -341.854 3098.21C-315.367 3090.27 -271.819 3081.85 -249.413 3063.2C-235.676 3051.76 -237.143 3035.49 -227.85 3021.44C-219.055 3008.14 -210.15 2997.17 -198.951 2987.49C-163.727 2957.05 -141.515 2944.01 -123.932 2917.09C-106.721 2890.73 -74.4649 2868.47 -48.8036 2849.97C-20.8824 2829.84 19.4351 2834.08 48.5453 2819.05C76.3822 2804.68 88.2135 2764.58 106.344 2738.86C128.556 2707.37 156.191 2667.47 180.174 2637.41C203.44 2608.25 202.344 2590.06 203.634 2554.28C205.068 2514.62 219.108 2488.25 236.64 2454.3C243.598 2440.83 238.799 2427.02 245.883 2413.44C253.759 2398.34 267.918 2389.91 276.528 2376.37C286.538 2360.63 284.033 2347.01 285.568 2328.97C287.263 2309 306.583 2298.19 312.924 2280.88C323.878 2250.98 305.798 2211.65 300.992 2181.7C298.58 2166.67 296.412 2142.47 290.122 2127.94C282.827 2111.08 270.068 2113.33 260.042 2101.75C229.734 2066.75 236.91 2042.63 211.882 2020.39C199.477 2009.37 183.901 2006.36 173.63 1994.15C163.148 1981.7 158.999 1961.46 152 1946.48C135.083 1910.24 112.407 1889.22 90.3554 1859.8C63.404 1823.85 37.5658 1814.92 34.6733 1767C32.0507 1723.58 43.8566 1696.43 16.8883 1660.71C-3.51922 1633.69 -15.595 1607.29 -35.0328 1580.1C-64.9695 1538.23 -101.627 1521.51 -148.092 1507.27C-187.845 1495.08 -253.891 1491.64 -275.884 1454.27C-302.641 1408.81 -349.359 1396.39 -336.702 1362.48C-322.467 1324.33 -317.837 1284.56 -369.91 1271.34C-411.645 1260.75 -424.134 1288.01 -416.924 1326.05C-409.857 1363.38 -376.108 1416.47 -364.589 1454.52C-354.571 1487.59 -357.649 1522.72 -347.521 1555.08C-339.046 1582.15 -334.973 1602.17 -336.567 1633.35C-337.435 1650.34 -341.433 1667.7 -339.13 1685.08C-332.747 1733.2 -292.429 1762.82 -270.639 1803.5C-253.242 1835.98 -256.649 1874.71 -231.662 1904.69C-210.074 1930.6 -184.674 1942.15 -164.326 1972.73C-154.383 1987.67 -138.816 1997.84 -128.68 2012.67C-112.733 2035.99 -113.071 2053.88 -104.68 2080.43C-92.2919 2119.62 -46.7798 2170.66 -14.3049 2191.56C22.8756 2215.49 38.8222 2246.99 55.7891 2284.05C71.7525 2318.93 54.4567 2372.09 50.2319 2409.53C46.1504 2445.67 20.3121 2462.65 34.6733 2512.04C44.4554 2545.71 75.9184 2546.94 45.1047 2579.93C39.927 2585.47 23.9382 2591.45 18.9629 2599.12C14.173 2606.52 13.7176 2617.15 9.64449 2623.8C-1.52062 2641.99 -1.73143 2650.76 -11.7412 2662.37" stroke="url(#paint30_linear_3202_717)" stroke-opacity="0.5" stroke-width="9" stroke-linecap="round" stroke-linejoin="round"/>
</g>
<defs>
<linearGradient id="paint0_linear_3202_717" x1="225.417" y1="1005.36" x2="225.417" y2="1102.31" gradientUnits="userSpaceOnUse">
<stop stop-color="#BDC0C0"/>
<stop offset="1" stop-color="#BDC0C0" stop-opacity="0"/>
</linearGradient>
<linearGradient id="paint1_linear_3202_717" x1="390.963" y1="618.395" x2="390.963" y2="833.466" gradientUnits="userSpaceOnUse">
<stop stop-color="#BDC0C0"/>
<stop offset="1" stop-color="#BDC0C0" stop-opacity="0"/>
</linearGradient>
<linearGradient id="paint2_linear_3202_717" x1="478.193" y1="656.825" x2="478.193" y2="1041.88" gradientUnits="userSpaceOnUse">
<stop stop-color="#BDC0C0"/>
<stop offset="1" stop-color="#BDC0C0" stop-opacity="0"/>
</linearGradient>
<linearGradient id="paint3_linear_3202_717" x1="196.196" y1="670.738" x2="196.196" y2="1157.02" gradientUnits="userSpaceOnUse">
<stop stop-color="#BDC0C0"/>
<stop offset="1" stop-color="#BDC0C0" stop-opacity="0"/>
</linearGradient>
<linearGradient id="paint4_linear_3202_717" x1="941.862" y1="127.052" x2="941.862" y2="803.253" gradientUnits="userSpaceOnUse">
<stop stop-color="#BDC0C0"/>
<stop offset="1" stop-color="#BDC0C0" stop-opacity="0"/>
</linearGradient>
<linearGradient id="paint5_linear_3202_717" x1="1508.63" y1="720.394" x2="1508.63" y2="752.832" gradientUnits="userSpaceOnUse">
<stop stop-color="#BDC0C0"/>
<stop offset="1" stop-color="#BDC0C0" stop-opacity="0"/>
</linearGradient>
<linearGradient id="paint6_linear_3202_717" x1="1291.63" y1="27.0273" x2="1291.63" y2="700.104" gradientUnits="userSpaceOnUse">
<stop stop-color="#BDC0C0"/>
<stop offset="1" stop-color="#BDC0C0" stop-opacity="0"/>
</linearGradient>
<linearGradient id="paint7_linear_3202_717" x1="1176.34" y1="198.161" x2="1176.34" y2="842.184" gradientUnits="userSpaceOnUse">
<stop stop-color="#BDC0C0"/>
<stop offset="1" stop-color="#BDC0C0" stop-opacity="0"/>
</linearGradient>
<linearGradient id="paint8_linear_3202_717" x1="1120.34" y1="306.987" x2="1120.34" y2="330.178" gradientUnits="userSpaceOnUse">
<stop stop-color="#BDC0C0"/>
<stop offset="1" stop-color="#BDC0C0" stop-opacity="0"/>
</linearGradient>
<linearGradient id="paint9_linear_3202_717" x1="1092.26" y1="272.895" x2="1092.26" y2="399.893" gradientUnits="userSpaceOnUse">
<stop stop-color="#BDC0C0"/>
<stop offset="1" stop-color="#BDC0C0" stop-opacity="0"/>
</linearGradient>
<linearGradient id="paint10_linear_3202_717" x1="1115.56" y1="176.73" x2="1115.56" y2="725.565" gradientUnits="userSpaceOnUse">
<stop stop-color="#BDC0C0"/>
<stop offset="1" stop-color="#BDC0C0" stop-opacity="0"/>
</linearGradient>
<linearGradient id="paint11_linear_3202_717" x1="929.254" y1="533.418" x2="929.254" y2="768.147" gradientUnits="userSpaceOnUse">
<stop stop-color="#BDC0C0"/>
<stop offset="1" stop-color="#BDC0C0" stop-opacity="0"/>
</linearGradient>
<linearGradient id="paint12_linear_3202_717" x1="944.521" y1="223.054" x2="944.521" y2="904.312" gradientUnits="userSpaceOnUse">
<stop stop-color="#BDC0C0"/>
<stop offset="1" stop-color="#BDC0C0" stop-opacity="0"/>
</linearGradient>
<linearGradient id="paint13_linear_3202_717" x1="1310.14" y1="420.106" x2="1310.14" y2="902.516" gradientUnits="userSpaceOnUse">
<stop stop-color="#BDC0C0"/>
<stop offset="1" stop-color="#BDC0C0" stop-opacity="0"/>
</linearGradient>
<linearGradient id="paint14_linear_3202_717" x1="1519.57" y1="79.6172" x2="1519.57" y2="955.629" gradientUnits="userSpaceOnUse">
<stop stop-color="#BDC0C0"/>
<stop offset="1" stop-color="#BDC0C0" stop-opacity="0"/>
</linearGradient>
<linearGradient id="paint15_linear_3202_717" x1="1412.71" y1="908.376" x2="1412.71" y2="981.75" gradientUnits="userSpaceOnUse">
<stop stop-color="#BDC0C0"/>
<stop offset="1" stop-color="#BDC0C0" stop-opacity="0"/>
</linearGradient>
<linearGradient id="paint16_linear_3202_717" x1="1275.59" y1="923.128" x2="1275.59" y2="1066.35" gradientUnits="userSpaceOnUse">
<stop stop-color="#BDC0C0"/>
<stop offset="1" stop-color="#BDC0C0" stop-opacity="0"/>
</linearGradient>
<linearGradient id="paint17_linear_3202_717" x1="859.88" y1="935.437" x2="859.88" y2="1661.83" gradientUnits="userSpaceOnUse">
<stop stop-color="#BDC0C0"/>
<stop offset="1" stop-color="#BDC0C0" stop-opacity="0"/>
</linearGradient>
<linearGradient id="paint18_linear_3202_717" x1="1157.11" y1="-530.755" x2="1157.11" y2="1085.03" gradientUnits="userSpaceOnUse">
<stop stop-color="#BDC0C0"/>
<stop offset="1" stop-color="#BDC0C0" stop-opacity="0"/>
</linearGradient>
<linearGradient id="paint19_linear_3202_717" x1="1411.01" y1="489.072" x2="1411.01" y2="992.556" gradientUnits="userSpaceOnUse">
<stop stop-color="#BDC0C0"/>
<stop offset="1" stop-color="#BDC0C0" stop-opacity="0"/>
</linearGradient>
<linearGradient id="paint20_linear_3202_717" x1="1134.02" y1="897.239" x2="1134.02" y2="1160.96" gradientUnits="userSpaceOnUse">
<stop stop-color="#BDC0C0"/>
<stop offset="1" stop-color="#BDC0C0" stop-opacity="0"/>
</linearGradient>
<linearGradient id="paint21_linear_3202_717" x1="969.324" y1="855.385" x2="969.324" y2="1793.99" gradientUnits="userSpaceOnUse">
<stop stop-color="#BDC0C0"/>
<stop offset="1" stop-color="#BDC0C0" stop-opacity="0"/>
</linearGradient>
<linearGradient id="paint22_linear_3202_717" x1="-154.069" y1="1472.73" x2="-154.069" y2="2166.62" gradientUnits="userSpaceOnUse">
<stop stop-color="#BDC0C0" stop-opacity="0.6"/>
<stop offset="1" stop-color="#BDC0C0" stop-opacity="0"/>
</linearGradient>
<linearGradient id="paint23_linear_3202_717" x1="-83.4177" y1="1508.44" x2="-83.4177" y2="2308.87" gradientUnits="userSpaceOnUse">
<stop stop-color="#BDC0C0" stop-opacity="0.6"/>
<stop offset="1" stop-color="#BDC0C0" stop-opacity="0"/>
</linearGradient>
<linearGradient id="paint24_linear_3202_717" x1="-232.906" y1="1145.88" x2="-232.906" y2="2414.54" gradientUnits="userSpaceOnUse">
<stop stop-color="#BDC0C0" stop-opacity="0.4"/>
<stop offset="0.6875" stop-color="#BDC0C0" stop-opacity="0"/>
</linearGradient>
<linearGradient id="paint25_linear_3202_717" x1="-37.7558" y1="1534.1" x2="-37.7558" y2="2505.42" gradientUnits="userSpaceOnUse">
<stop stop-color="#BDC0C0" stop-opacity="0.6"/>
<stop offset="1" stop-color="#BDC0C0" stop-opacity="0"/>
</linearGradient>
<linearGradient id="paint26_linear_3202_717" x1="9.17498" y1="1566.01" x2="9.175" y2="2911.89" gradientUnits="userSpaceOnUse">
<stop stop-color="#BDC0C0" stop-opacity="0.6"/>
<stop offset="1" stop-color="#BDC0C0" stop-opacity="0"/>
</linearGradient>
<linearGradient id="paint27_linear_3202_717" x1="182.9" y1="1357.51" x2="182.9" y2="2014.64" gradientUnits="userSpaceOnUse">
<stop stop-color="#BDC0C0" stop-opacity="0.6"/>
<stop offset="1" stop-color="#BDC0C0" stop-opacity="0"/>
</linearGradient>
<linearGradient id="paint28_linear_3202_717" x1="261.366" y1="1204.02" x2="261.366" y2="2065.75" gradientUnits="userSpaceOnUse">
<stop stop-color="#BDC0C0" stop-opacity="0.3"/>
<stop offset="1" stop-color="#BDC0C0" stop-opacity="0"/>
</linearGradient>
<linearGradient id="paint29_linear_3202_717" x1="1332.41" y1="1155.48" x2="1332.41" y2="2950.01" gradientUnits="userSpaceOnUse">
<stop stop-color="#BDC0C0" stop-opacity="0.38"/>
<stop offset="1" stop-color="#BDC0C0" stop-opacity="0"/>
</linearGradient>
<linearGradient id="paint30_linear_3202_717" x1="-131.791" y1="1269.04" x2="-131.791" y2="3128.72" gradientUnits="userSpaceOnUse">
<stop stop-color="#BDC0C0" stop-opacity="0.34"/>
<stop offset="0.34375" stop-color="#BDC0C0" stop-opacity="0"/>
</linearGradient>
<clipPath id="clip0_3202_717">
<rect width="1440" height="1677" fill="white"/>
</clipPath>
</defs>
</svg>
