<svg width="390" height="1432" viewBox="0 0 390 1432" fill="none" xmlns="http://www.w3.org/2000/svg">
<g clip-path="url(#clip0_3201_5600)">
<path d="M508.363 1158.96C558.119 1138.47 576.775 1080.36 580.854 1027.88C583.255 996.979 573.735 956.923 566.136 921.247C560.83 896.346 561.551 873.921 555.008 855.912C545.666 830.194 537.31 827.452 551.883 802.959C554.573 798.439 553.723 791.063 550.999 786.29C549.144 783.046 549.737 777.806 552.023 774.848C556.342 769.253 559.782 771.139 562.806 764.078C565.34 758.164 560.802 750.367 558.547 744.259C552.836 728.787 558.352 725.509 552.644 709.638C543.258 683.544 543.391 658.479 551.508 632.05C559.138 607.212 571.557 598.277 567.554 577.616C566.315 571.208 561.755 566.933 560.93 560.456C559.263 547.385 561.002 537.899 567.075 526.203C570.103 520.364 576.874 510.392 582.311 506.691C592.302 499.89 610.162 503.481 615.684 502.986C631.743 501.54 635.65 486.926 654.24 482.775C670.699 479.096 679.504 469.625 689.353 459.195C702.296 445.483 706.8 428.728 724.976 423.704C739.269 419.75 739.812 419.297 750.015 420.555C751.843 420.778 752.764 418.398 751.257 417.346C734.814 405.841 721.269 404.506 702.67 412.248C689.301 417.815 680.31 426.817 662.796 436.573C651.052 443.112 645.418 442.672 630.741 463.484C628.229 467.042 625.263 470.291 621.751 472.864C597.807 490.401 590.053 452.598 556.409 462.885C550.91 464.567 540.007 468.736 536.389 473.208C523.075 489.676 536.955 493.916 531.208 509.86C527.514 520.106 524.332 537.567 536.373 554.537C545.852 567.891 537.848 587.444 537.39 597.722C536.035 627.932 523.99 653.179 528.729 683.048C532.401 706.18 545.022 733.228 537.483 755.398" stroke="url(#paint0_linear_3201_5600)" stroke-width="6" stroke-miterlimit="10" stroke-linecap="round"/>
<path d="M398.913 395.042C400.721 402.124 401.455 407.26 400.096 413.897C399.164 418.43 398.532 422.984 397.95 427.57C397.349 432.314 398.197 436.653 399.121 441.259C401.146 451.354 402.59 457.917 406.022 467.57C407.561 471.9 408.979 480.051 409.906 484.541C410.852 489.118 410.873 493.204 408.974 497.358C406.866 501.961 404.317 506.777 403.562 511.848C403.19 514.332 402.088 518.905 404.565 520.447" stroke="url(#paint1_linear_3201_5600)" stroke-width="6" stroke-miterlimit="10" stroke-linecap="round"/>
<path d="M401.048 93.8045C402.837 97.8557 399.351 103.678 397.078 106.778C394.969 109.664 392.508 112.251 390.397 115.148C388.706 117.465 387.451 120.05 386.251 122.641C384.097 127.3 381.341 131.566 379.493 136.403C377.383 141.927 378.546 146.962 378.525 152.605C378.514 155.418 377.159 158.992 375.47 161.176" stroke="url(#paint2_linear_3201_5600)" stroke-width="6" stroke-linecap="round" stroke-linejoin="round"/>
<path d="M427.146 166.625C421.013 177.286 419.72 191.601 410.461 200.734C400.119 210.934 389.312 221.383 380.933 233.218C371.107 247.096 359.443 260.138 351.963 275.702C346.292 287.492 337.111 297.008 334.493 310.528C332.979 318.325 331.72 325.796 329.556 333.44C328.271 337.989 326.609 342.989 326.192 347.579" stroke="url(#paint3_linear_3201_5600)" stroke-width="6" stroke-linecap="round" stroke-linejoin="round"/>
<path d="M450.157 201.506C449.6 206.581 451.022 212.435 449.142 217.492C447.367 222.273 443.006 226.365 439.536 229.786C430.443 238.744 425.344 249.826 419.423 261.062C412.816 273.602 400.742 282.84 393.473 295.107C390.328 300.415 388.041 305.733 383.961 310.62C378.63 317.009 374.433 322.831 371.832 330.901C369.336 338.645 366.231 346.049 365.233 354.076C364.58 359.336 362.444 365.615 363.168 370.927" stroke="url(#paint4_linear_3201_5600)" stroke-width="6" stroke-linecap="round" stroke-linejoin="round"/>
<path d="M401.053 125.285C397.043 134.363 397.364 145.245 395.143 154.897C391.983 168.637 386 177.088 376.601 186.151C372.498 190.105 367.137 194.422 362.876 198.209C358.021 202.526 349.443 207.465 344.901 212.201C336.576 220.877 331.491 229.486 323.958 238.702C316.425 247.919 311.078 255.648 304.804 265.196C302.164 269.216 299.504 273.142 296.465 276.851C294.077 279.766 291.125 283.761 290.122 287.378C287.61 296.384 292.628 304.425 283.63 314.347C275.613 323.186 273.296 331.912 270.978 343.832C267.302 362.739 277.099 380.044 287.168 395.244C288.074 396.609 288.889 398.131 290.089 399.094" stroke="url(#paint5_linear_3201_5600)" stroke-width="6" stroke-linecap="round" stroke-linejoin="round"/>
<path d="M508.929 -0.0668945C496.737 11.3273 487.344 23.3791 471.729 30.4804C464.545 33.743 456.385 37.7857 449.724 42.4123C443.16 46.9767 437.935 53.6947 434.834 60.8281C428.002 76.5506 422.54 91.7736 420.062 108.711C418.885 116.743 420.313 124.519 420.623 132.406C420.927 140.218 415.58 144.117 411.845 150.167C403.635 163.461 409.74 171.762 398.659 184.044C385.254 198.898 366.318 218.238 353.341 233.347C342.241 246.268 332.94 256.153 326.824 272.359C324.165 279.401 321.076 286.481 318.431 293.509C314.504 303.932 312.183 317.417 310.574 328.536C308.564 342.45 308.56 351.539 316.213 363.422C318.048 366.273 320.153 368.833 322.732 370.314" stroke="url(#paint6_linear_3201_5600)" stroke-width="6" stroke-linecap="round" stroke-linejoin="round"/>
<path d="M549.418 -8.60986C529.133 6.11964 510.863 26.3994 491.301 43.2753C475.662 56.7684 468.811 82.7151 463.514 102.661C460.362 114.536 463.806 124.669 467.266 136.278C470.625 147.531 473.853 159.838 473.249 171.772C472.083 194.81 470.085 217.717 457.818 237.818C452.161 247.09 442.939 256.714 437.931 267.483C433.909 276.13 431.791 282.252 427.526 290.768C422.569 300.671 411.184 306.662 406.887 316.82C401.923 328.554 389.885 339.777 384.525 350.48C374.253 371.007 376.431 389.525 373.646 411.16C370.738 433.734 385.348 461.333 385.064 484.143C384.781 506.648 378.5 511.952 386.202 533.419C397.028 563.61 382.328 581.89 387.462 608.741C391.556 630.128 385.683 648.365 378.629 669.692C375.139 680.244 368.512 691.813 368.526 705.615C368.539 719.417 363.412 721.908 353.433 734.709C336.657 756.232 306.761 766.979 280.838 770.484C254.527 774.042 231.465 769.939 203.852 778.272C179.445 785.634 172.443 769.441 152.719 764.803C143.488 762.631 130.407 745.038 120.009 746.114" stroke="url(#paint7_linear_3201_5600)" stroke-width="6" stroke-linecap="round" stroke-linejoin="round"/>
<path d="M399.88 737.918C398.682 745.491 391.586 750.405 385.877 755.529C375.674 764.688 369.598 778.405 359.974 788.168C334.761 813.757 294.371 815.375 259.1 821.046C227.083 826.192 198.342 821.067 165.963 814.328C140.381 809.006 122.933 794.972 106.668 774.522C92.5673 756.79 88.6509 755.049 81.7674 748.932C76.273 744.052 72.6083 741.112 66.6076 736.87C58.3759 731.052 51.6284 723.427 44.6966 716.111C36.3672 707.317 28.0783 696.539 19.031 688.488C12.3769 682.565 4.77526 676.913 -3.88654 674.832C-12.5495 672.756 -25.0155 684.085 -32.0429 691.474" stroke="url(#paint8_linear_3201_5600)" stroke-width="6" stroke-linecap="round" stroke-linejoin="round"/>
<path d="M428.945 32.3037C421.035 39.6162 417.996 43.7536 412.292 53.1375C407.486 61.0356 407.653 69.5459 401.954 76.3488C396.188 83.226 388.969 81.2001 383.478 88.393C378.297 95.1873 370.133 104.599 366.655 112.566C363.015 120.914 360.335 129.5 358.356 138.428C357.473 142.41 356.538 148.63 356.864 152.794C357.204 157.172 359.694 161.999 358.844 166.083C355.39 182.712 332.657 203.363 321.362 215.987C308.728 230.11 303.483 238.667 286.937 251.356C280.477 256.31 275.259 257.138 268.464 259.997C258.645 264.132 258.435 268.539 245.657 273.28C236.446 276.698 231.024 272.046 215.96 276.885C208.386 279.318 191.799 281.626 184.097 283.148C163.841 287.15 152.957 290.546 132.493 293.826C113.065 296.938 100.405 304.714 82.3677 312.073C60.9213 320.824 59.4273 326.071 37.9476 330.183C17.4011 334.116 0.709541 353.859 -13.8317 367.487C-31.51 384.054 -47.257 425.615 -52.6568 440.402C-58.0554 455.183 -72.0736 459.125 -72.0736 459.125C-76.4328 461.002 -82.7175 464.139 -86.2751 466.742C-94.5161 472.777 -98.4449 478.746 -107.707 483.791C-113.881 487.158 -120.167 488.73 -127.191 489.156C-130.371 489.354 -136.055 490.102 -139.081 491.093C-147.006 493.683 -153.657 498.239 -156.789 504.6C-160.311 511.752 -158.91 521.149 -156.078 528.422C-153.999 533.758 -152.238 539.586 -151.785 545.299" stroke="url(#paint9_linear_3201_5600)" stroke-width="6" stroke-linecap="round" stroke-linejoin="round"/>
<path d="M729.827 365.711C718.089 352.705 695.333 344.421 681.59 363.883C673.733 375.01 663.205 370.444 654.164 380.157C649.378 385.3 650.207 390.207 643.11 393.583C635.031 397.433 626.043 399.273 618.717 404.758C608.719 412.247 604.913 427.766 593.302 434.179C581.04 440.954 563.025 436.474 549.783 441.713C534.03 447.946 521.084 460.885 515.268 476.608C513.179 482.264 509.975 489.031 509.35 495.102C508.737 501.07 507.888 509.813 507.13 515.883C505.317 530.339 502.985 536.547 505.877 551.657C507.274 558.943 513.237 568.906 515.187 575.847C516.987 582.255 516.402 590.628 516.352 597.292C516.248 610.746 512.217 621.996 512.59 635.171C513.028 650.609 509.886 659.55 509.162 674.794C508.398 690.852 517.901 707.338 522.117 721.3C526.517 735.863 523.717 753.457 524.269 768.882C524.839 784.755 525.194 793.528 523.459 812.089C522.123 826.4 514.988 831.9 521.836 844.867C529.559 859.497 534.28 872.647 535.46 888.854C536.723 906.15 539.036 927.352 545.025 942.924C550.442 957.004 553.079 970.742 555.309 985.374C557.219 997.92 557.873 1024.31 554.63 1037.39C552.249 1046.99 550.123 1055.63 547.382 1064.9C544.648 1074.13 542.366 1076.26 542.413 1085.17C542.451 1092.65 537.89 1100.08 534.533 1105.47" stroke="url(#paint10_linear_3201_5600)" stroke-width="6" stroke-miterlimit="10" stroke-linecap="round"/>
<path d="M-11.5011 1256.97C-0.890857 1236.52 9.88518 1228.3 24.5836 1210.55C39.8858 1192.08 58.9129 1184.67 62.6908 1162.64C64.2128 1153.76 61.8756 1105.35 61.2793 1096.36C59.3655 1067.39 68.5272 1066.63 59.6009 1038.99C55.0142 1024.8 42.5875 1016 34.4411 1004.65C23.9912 990.099 17.869 973.132 15.4967 954.154C11.1908 919.672 25.6666 896.94 62.2543 887.587C71.6782 885.176 90.5997 870.208 100.261 871.326C113.822 872.892 127.847 882.456 140.234 888.19C166.282 900.255 174.454 892.356 208.93 907.062C222.199 912.723 251.775 907.57 266.207 908.455C284.321 909.57 296.847 903.746 313.377 902.381C350.31 899.334 392.632 875.617 412.9 846.119C432.293 817.895 450.847 792.341 448.66 756.907C447.797 742.952 436.377 720.816 439.346 707.162C440.987 699.62 444.08 694.4 447.033 688.018C450.161 681.245 448.763 668.234 449.243 660.899C451.283 629.411 454.421 606.372 453.795 582.463C453.38 566.718 447.452 548.739 444.316 533.22C441.234 517.963 445.611 503.641 445.037 487.684C444.42 470.452 443.193 461.021 440.301 444.595C437.083 426.309 442.069 417.212 449.721 401.092C457.646 384.382 453.949 371.4 466.814 355.567C479.131 340.408 482.061 324.019 493.889 307.997C504.195 294.03 517.927 290.736 518.338 273.301C518.742 255.921 513.45 260.609 513.287 249.289C513.179 241.825 510.565 238.826 515.915 229.009C526.522 209.538 520.519 196.917 517.338 176.336C515.206 162.57 511.196 147.442 510.677 133.696C510.427 127.028 507.568 113.669 508.139 107.109" stroke="url(#paint11_linear_3201_5600)" stroke-width="6" stroke-miterlimit="10" stroke-linecap="round"/>
<path d="M508.363 1158.96C558.119 1138.47 576.775 1080.36 580.854 1027.88C583.255 996.979 573.735 956.923 566.136 921.247C560.83 896.346 561.551 873.921 555.008 855.912C545.666 830.194 537.31 827.452 551.883 802.959C554.573 798.439 553.723 791.063 550.999 786.29C549.144 783.046 549.737 777.806 552.023 774.848C556.342 769.253 559.782 771.139 562.806 764.078C565.34 758.164 560.802 750.367 558.547 744.259C552.836 728.787 558.352 725.509 552.644 709.638C543.258 683.544 543.391 658.479 551.508 632.05C559.138 607.212 571.557 598.277 567.554 577.616C566.315 571.208 561.755 566.933 560.93 560.456C559.263 547.385 561.002 537.899 567.075 526.203C570.103 520.364 576.874 510.392 582.311 506.691C592.302 499.89 610.162 503.481 615.684 502.986C631.743 501.54 635.65 486.926 654.24 482.775C670.699 479.096 679.504 469.625 689.353 459.195C702.296 445.483 706.8 428.728 724.976 423.704C739.269 419.75 739.812 419.297 750.015 420.555C751.843 420.778 752.764 418.398 751.257 417.346C734.814 405.841 721.269 404.506 702.67 412.248C689.301 417.815 680.31 426.817 662.796 436.573C651.052 443.112 645.418 442.672 630.741 463.484C628.229 467.042 625.263 470.291 621.751 472.864C597.807 490.401 590.053 452.598 556.409 462.885C550.91 464.567 540.007 468.736 536.389 473.208C523.075 489.676 536.955 493.916 531.208 509.86C527.514 520.106 524.332 537.567 536.373 554.537C545.852 567.891 537.848 587.444 537.39 597.722C536.035 627.932 523.99 653.179 528.729 683.048C532.401 706.18 545.022 733.228 537.483 755.398" stroke="url(#paint12_linear_3201_5600)" stroke-width="6" stroke-miterlimit="10" stroke-linecap="round"/>
<path d="M729.827 365.711C718.089 352.705 695.333 344.421 681.59 363.883C673.733 375.01 663.205 370.444 654.164 380.157C649.378 385.3 650.207 390.207 643.11 393.583C635.031 397.433 626.043 399.273 618.717 404.758C608.719 412.247 604.913 427.766 593.302 434.179C581.04 440.954 563.025 436.474 549.783 441.713C534.03 447.946 521.084 460.885 515.268 476.608C513.179 482.264 509.975 489.031 509.35 495.102C508.737 501.07 507.888 509.813 507.13 515.883C505.317 530.339 502.985 536.547 505.877 551.657C507.274 558.943 513.237 568.906 515.187 575.847C516.987 582.255 516.402 590.628 516.352 597.292C516.248 610.746 512.217 621.996 512.59 635.171C513.028 650.609 509.886 659.55 509.162 674.794C508.398 690.852 517.901 707.338 522.117 721.3C526.517 735.863 523.717 753.457 524.269 768.882C524.839 784.755 525.194 793.528 523.459 812.089C522.123 826.4 514.988 831.9 521.836 844.867C529.559 859.497 534.28 872.647 535.46 888.854C536.723 906.15 539.036 927.352 545.025 942.924C550.442 957.004 553.079 970.742 555.309 985.374C557.219 997.92 557.873 1024.31 554.63 1037.39C552.249 1046.99 550.123 1055.63 547.382 1064.9C544.648 1074.13 542.366 1076.26 542.413 1085.17C542.451 1092.65 537.89 1100.08 534.533 1105.47" stroke="url(#paint13_linear_3201_5600)" stroke-width="6" stroke-miterlimit="10" stroke-linecap="round"/>
<path d="M499.035 1039.08C497.93 1028.59 497.111 1018.52 499.226 1007.85C501.044 998.665 503.481 989.721 501.958 980.325C497.814 954.785 484.806 904.491 488.434 875.284C490.62 857.678 474.418 849.158 474.663 831.465C475.113 798.641 484.224 806.984 480.53 782.736C478.594 770.007 480.842 758.983 480.054 745.928C479.484 736.469 478.156 726.916 476.18 718.22C474.372 710.25 468.395 703.215 466.344 695.697C464.514 688.972 469.095 678.553 468.999 671.263C468.721 650.707 476.187 612.196 474.605 591.032C471.203 545.531 460.389 536.698 464.046 505.937C466.539 484.955 456.025 443.148 467.535 423.992C478.101 406.406 485.42 392.239 488.6 371.285C491.732 350.654 508.47 341.117 517.147 321.662C522.156 310.432 533.536 281.124 549.89 289.738C557.661 293.828 556.571 300.353 565.827 302.303C575.95 304.432 582.282 298.368 590.176 307.299C599.511 317.862 599.874 326.776 615.39 328.949C626.44 330.498 632.267 332.008 641.931 337.346C650.42 342.038 658.303 344.331 667.776 344.102" stroke="url(#paint14_linear_3201_5600)" stroke-width="6" stroke-miterlimit="10" stroke-linecap="round"/>
<path d="M455.74 720.462C468.218 744.207 464.512 777.673 462.961 803.914C461.111 835.266 443.845 854.694 413.529 880.913C388.269 902.76 351.664 903.042 322.328 918.581C309.299 925.483 296.867 929.611 281.81 930.766C266.918 931.906 251.768 934.446 237.089 934.766C223.693 935.058 208.842 924.83 195.92 929.395C182.715 934.059 165.266 925.122 149.996 918.961C136.757 913.617 126.216 900.169 112.765 896.578C98.7536 892.836 81.2394 900.138 62.5778 905.783C27.1202 916.517 31.8666 955.072 47.0463 980.525C54.2908 992.674 62.8184 1007.74 75.2035 1015.07" stroke="url(#paint15_linear_3201_5600)" stroke-width="6" stroke-miterlimit="10" stroke-linecap="round"/>
<path d="M-25.4352 721.396C-22.426 714.048 -15.2408 706.294 -7.11718 704.292C1.99298 702.046 10.1907 709.894 15.7691 716.114C20.8521 721.781 24.8626 728.212 30.5067 733.397C34.778 737.32 38.4642 741.76 42.4413 745.885C50.6693 754.406 60.0916 763.129 69.0006 770.95C74.2122 775.523 80.7413 781.13 87.356 783.328" stroke="url(#paint16_linear_3201_5600)" stroke-width="6" stroke-miterlimit="10" stroke-linecap="round"/>
<path d="M477.207 473.465C488.162 455.803 492.506 419.601 497.936 403.738C505.586 381.37 515.157 359.051 528.282 339.593C543.525 316.984 556.764 310.667 581.28 326.861C589.871 332.536 595.047 342.949 604.454 347.281C613.462 351.431 630.404 349.629 636.09 357.738C645.639 371.358 625.411 375.738 613.872 381.162C602.365 386.57 605.12 387.146 594.508 392.978C584.382 398.545 566.631 396.105 556.109 400.768C545.309 405.554 534.801 409.493 524.63 416.2C513.928 423.256 510.249 432.85 505.634 444.383C501.964 453.557 497.84 464.598 494.823 474.06C487.489 497.068 481.855 513.736 484.495 538.181C486.896 560.424 491.654 555.003 494.78 583.696C497.691 610.399 497.214 636.404 489.743 662.493C483.519 684.234 485.673 693.363 495.763 719.59C505.114 743.894 498.726 775.056 496.015 800.711C493.07 828.596 490.398 828.299 505.56 862.828C516.185 887.023 523.503 929.834 523.507 960.381C523.508 991.321 533.97 1027.51 524.159 1056.63" stroke="url(#paint17_linear_3201_5600)" stroke-width="6" stroke-miterlimit="10" stroke-linecap="round"/>
<path d="M492.308 156.85C495.096 183.893 493.213 212.255 479.903 237.93C468.537 259.85 465.009 251.847 447.867 296.557C438.359 321.355 423.052 324.459 413.828 345.627C406.837 361.67 401.475 365.692 410.387 379.328C417.943 390.89 422.386 411.798 421.889 425.343C421.407 438.442 422.002 446.396 424.658 459.061C426.773 469.125 430.765 481.622 430.694 492.185C430.61 504.833 422.764 512.237 420.104 523.059C416.809 536.475 426.838 544.103 431.395 556.629C440.262 581.016 431.908 606.167 435.236 632.012C438.546 657.758 425.431 674.23 415.305 709.827C408.566 733.516 440.181 753.475 428.65 776.808C418.097 798.156 396.641 830.876 376.779 844.943C354.031 861.054 343.607 871.147 315.712 877.979C301.153 881.548 287.538 887.072 272.01 884.269C257.096 881.579 245.787 883.521 231.949 884.893C220.618 886.02 202.007 881.448 192.009 876.392C180.05 870.352 162.709 868.274 149.132 861.556C132.35 853.254 132.816 854.367 114.489 848.247C109.066 846.437 99.704 840.66 96.132 836.434C89.2099 828.238 85.9597 826.826 80.9298 824.769C73.3834 821.677 52.2242 828.23 44.0658 830.441C29.2964 834.441 19.7086 847.788 11.5558 860.111C4.40206 870.916 -10.3451 874.864 -16.681 884.876C-24.2946 896.918 -25.009 912.876 -22.5467 925.537C-19.9427 938.946 -9.61894 949.459 0.0128779 960.165" stroke="url(#paint18_linear_3201_5600)" stroke-width="6" stroke-miterlimit="10" stroke-linecap="round"/>
<path d="M405.945 763.411C401.101 772.239 399.255 782.035 392.619 790.199C385.99 798.353 377.798 805.459 370.26 812.948C353.622 829.481 331.269 842.192 308.617 847.952C281.207 854.929 256.288 856.793 227.915 854.608C211.326 853.328 189.359 850.487 173.466 846.283C159.914 842.697 150.362 840.576 137.685 834.417C126.996 829.221 119.782 821.394 109.881 815.615C97.5044 808.389 83.2388 804.564 69.8827 799.933C55.5825 794.973 45.7865 783.648 35.6881 772.157C27.7221 763.098 19.4435 751.234 9.39135 744.373C-0.511674 737.617 -10.8018 742.309 -20.3223 749.596C-30.7567 757.582 -27.9719 766.516 -29.5201 777.866C-31.1903 790.127 -35.7866 803.857 -41.4333 814.17C-44.1454 819.123 -43.4411 823.892 -46.4751 828.641C-50.497 834.934 -51.1259 840.466 -53.0626 847.404C-56.4197 859.407 -67.0003 871.254 -66.8703 884.043C-66.7339 897.638 -61.4976 905.394 -50.6167 911.97C-37.8627 919.679 -38.7749 938.897 -33.826 951.259C-29.509 962.044 -23.3745 969.097 -16.8656 979.002C-14.3999 982.752 -8.71466 987.546 -9.06486 992.033" stroke="url(#paint19_linear_3201_5600)" stroke-width="6" stroke-miterlimit="10" stroke-linecap="round"/>
<path d="M-53.6642 679.796C-52.0884 676.304 -51.694 669.688 -49.2194 666.732C-46.1674 663.092 -39.6606 661.475 -35.6976 658.872C-27.3208 653.383 -19.9453 646.509 -10.0824 642.778C0.471572 638.783 8.62369 645.344 16.5742 650.595C26.0091 656.827 38.0563 668.396 46.445 676.158C81.4559 708.572 94.6359 748.248 135.949 777.8C157.445 793.177 188.21 802.038 214.508 801.659C239.558 801.3 262.854 797.108 287.786 792.798C313.712 788.316 335.087 778.523 355.207 760.059C371.679 744.944 392.945 725.487 393.293 702.708C393.808 669.16 415.989 658.882 411.828 636.815C406.845 610.419 410.46 588.922 412.266 566.157C412.621 561.698 414.453 556.074 407.689 548.451" stroke="url(#paint20_linear_3201_5600)" stroke-width="6" stroke-miterlimit="10" stroke-linecap="round"/>
<path d="M464.913 60.6904C450.636 83.4275 436.447 108.777 442.775 135.529C444.379 142.321 442.871 145.406 443.462 152.06C444.061 158.805 449.91 162.091 451.395 168.363C454.336 180.791 436.543 187.87 432.79 198.515C427.739 212.85 417.704 216.832 410.651 229.13C403.528 241.54 398.304 255.35 389.328 266.865C381.883 276.417 369.971 283.569 364.097 294.11C360.791 300.049 361.71 305.509 359.694 311.72C357.608 318.148 353.363 320.799 350.344 326.213C343.815 337.943 348.04 355.305 346.364 369.242C344.688 383.178 341.252 393.665 344.176 406.649C350.864 436.317 357.829 464.952 359.575 494.898C361.326 524.972 356.187 552.838 364.089 582.233C370.548 606.282 366.437 639.925 357.267 662.287C354.969 667.886 353.974 674.199 350.75 679.412C347.575 684.552 341.024 688.347 339.047 694.456C334.98 707.013 338.61 714.877 328.347 726.289C310.557 746.052 275.854 747.966 250.674 749.252C236.511 749.974 228.028 747 215.665 741.565C204.02 736.448 194.568 736.604 182.246 734.121C175.29 732.719 168.208 727.913 161.128 727.861C153.822 727.804 148.307 730.372 140.525 729.594C126.908 728.232 116.88 729.6 107.822 718.581C99.0223 707.88 87.7731 700.728 78.364 691.11C67.6064 680.118 59.2302 664.34 50.2065 651.973C41.6996 640.314 34.3522 626.81 21.8777 619.702C8.99472 612.354 -11.1627 601.535 -26.1946 607.492C-40.5577 613.186 -47.5126 627.543 -54.4521 639.955C-64.3843 657.713 -68.7106 666.688 -68.2384 686.532C-67.7996 704.83 -80.9697 718.587 -83.4143 736.309C-85.6528 752.532 -78.5037 767.981 -82.878 784.93C-91.7977 819.458 -141.066 840.714 -114.935 880.101C-111.012 886.019 -105.638 892.211 -102.673 898.646C-99.2234 906.143 -99.5742 912.002 -92.4956 917.229C-86.2012 921.879 -78.0228 921.072 -71.6786 925.266C-64.3158 930.133 -59.1652 940.89 -55.4247 948.529C-48.0466 963.616 -44.6391 979.339 -37.1902 994.103C-28.115 1012.09 -14.2785 1026.52 -3.32761 1043.52C9.51942 1063.47 7.10906 1082.81 11.1499 1105.15C12.9565 1115.15 15.6191 1126.7 14.5638 1136.63C14.1741 1140.31 11.4585 1142.14 11.6593 1146.52C11.9234 1152.21 16.3476 1157.31 17.6836 1162.79C21.3776 1177.92 7.78413 1189.58 6.86037 1204.54C12.5076 1201.7 13.8725 1196.18 17.2791 1191.48C22.3754 1184.44 32.7109 1180.58 37.0083 1173.53C44.6499 1161.01 31.9321 1143.53 29.9377 1130.94C27.1872 1113.56 33.4665 1091.87 35.3563 1074.53C36.9826 1059.6 42.6714 1042.69 30.8793 1031.24C21.474 1022.12 8.21148 1013.76 4.95546 999.706" stroke="url(#paint21_linear_3201_5600)" stroke-width="6" stroke-miterlimit="10" stroke-linecap="round"/>
<path d="M341.298 168.243C331.115 175.007 327.535 183.718 316.791 190.987C306.771 197.765 299.591 205.976 291.449 214.221C274.394 231.491 256.929 244.123 232.687 249.462C209.827 254.498 199.806 260.043 177.335 266.803C165.011 270.511 139.975 273.344 127.989 276.349C116.678 279.185 106.514 285.459 95.5962 289.897C73.3153 298.958 45.409 299.252 24.4032 311.897C-1.98695 327.777 -20.5978 344.545 -39.9001 368.169C-48.8993 379.185 -58.5897 389.478 -66.529 401.41C-73.2354 411.49 -80.4781 419.66 -91.2016 426C-95.4878 428.532 -102.8 430.556 -106.303 434.808C-109.116 438.223 -109.09 442.865 -108.773 447.222C-107.639 462.579 -125.195 466.851 -137.23 469.245C-161.471 474.073 -188.033 475.223 -188.268 505.09C-188.38 519.464 -178.988 530.401 -175.352 542.98C-172.42 553.118 -175.813 564.041 -177.745 574.379C-178.617 579.041 -177.37 584.201 -183.035 585.064" stroke="url(#paint22_linear_3201_5600)" stroke-width="6" stroke-linecap="round" stroke-linejoin="round"/>
</g>
<defs>
<linearGradient id="paint0_linear_3201_5600" x1="658.874" y1="371.503" x2="487.356" y2="1154.36" gradientUnits="userSpaceOnUse">
<stop stop-color="#BDC0C0" stop-opacity="0.5"/>
<stop offset="1" stop-color="#BDC0C0" stop-opacity="0"/>
</linearGradient>
<linearGradient id="paint1_linear_3201_5600" x1="415.391" y1="395.433" x2="388.76" y2="516.984" gradientUnits="userSpaceOnUse">
<stop stop-color="#BDC0C0" stop-opacity="0.5"/>
<stop offset="1" stop-color="#BDC0C0" stop-opacity="0"/>
</linearGradient>
<linearGradient id="paint2_linear_3201_5600" x1="396.111" y1="90.8307" x2="380.46" y2="162.269" gradientUnits="userSpaceOnUse">
<stop stop-color="#BDC0C0" stop-opacity="0.5"/>
<stop offset="1" stop-color="#BDC0C0" stop-opacity="0"/>
</linearGradient>
<linearGradient id="paint3_linear_3201_5600" x1="398.874" y1="155.165" x2="355.32" y2="353.961" gradientUnits="userSpaceOnUse">
<stop stop-color="#BDC0C0" stop-opacity="0.5"/>
<stop offset="1" stop-color="#BDC0C0" stop-opacity="0"/>
</linearGradient>
<linearGradient id="paint4_linear_3201_5600" x1="427.762" y1="191.712" x2="387.337" y2="376.222" gradientUnits="userSpaceOnUse">
<stop stop-color="#BDC0C0" stop-opacity="0.5"/>
<stop offset="1" stop-color="#BDC0C0" stop-opacity="0"/>
</linearGradient>
<linearGradient id="paint5_linear_3201_5600" x1="363.7" y1="109.371" x2="299.759" y2="401.212" gradientUnits="userSpaceOnUse">
<stop stop-color="#BDC0C0" stop-opacity="0.5"/>
<stop offset="1" stop-color="#BDC0C0" stop-opacity="0"/>
</linearGradient>
<linearGradient id="paint6_linear_3201_5600" x1="471.679" y1="-55.8964" x2="375.754" y2="381.931" gradientUnits="userSpaceOnUse">
<stop stop-color="#BDC0C0" stop-opacity="0.5"/>
<stop offset="1" stop-color="#BDC0C0" stop-opacity="0"/>
</linearGradient>
<linearGradient id="paint7_linear_3201_5600" x1="428.142" y1="-57.6812" x2="242.024" y2="791.81" gradientUnits="userSpaceOnUse">
<stop stop-color="#BDC0C0" stop-opacity="0.5"/>
<stop offset="1" stop-color="#BDC0C0" stop-opacity="0"/>
</linearGradient>
<linearGradient id="paint8_linear_3201_5600" x1="189.66" y1="688.55" x2="162.278" y2="813.526" gradientUnits="userSpaceOnUse">
<stop stop-color="#BDC0C0" stop-opacity="0.5"/>
<stop offset="1" stop-color="#BDC0C0" stop-opacity="0"/>
</linearGradient>
<linearGradient id="paint9_linear_3201_5600" x1="202.065" y1="-34.005" x2="64.7493" y2="592.74" gradientUnits="userSpaceOnUse">
<stop stop-color="#BDC0C0" stop-opacity="0.5"/>
<stop offset="1" stop-color="#BDC0C0" stop-opacity="0"/>
</linearGradient>
<linearGradient id="paint10_linear_3201_5600" x1="644.054" y1="318.363" x2="474.486" y2="1092.32" gradientUnits="userSpaceOnUse">
<stop stop-color="#BDC0C0" stop-opacity="0.5"/>
<stop offset="1" stop-color="#BDC0C0" stop-opacity="0"/>
</linearGradient>
<linearGradient id="paint11_linear_3201_5600" x1="407.397" y1="52.2695" x2="136.357" y2="1289.37" gradientUnits="userSpaceOnUse">
<stop stop-color="#BDC0C0" stop-opacity="0.5"/>
<stop offset="1" stop-color="#BDC0C0" stop-opacity="0"/>
</linearGradient>
<linearGradient id="paint12_linear_3201_5600" x1="658.874" y1="371.503" x2="487.356" y2="1154.36" gradientUnits="userSpaceOnUse">
<stop stop-color="#BDC0C0" stop-opacity="0.5"/>
<stop offset="1" stop-color="#BDC0C0" stop-opacity="0"/>
</linearGradient>
<linearGradient id="paint13_linear_3201_5600" x1="644.054" y1="318.363" x2="474.486" y2="1092.32" gradientUnits="userSpaceOnUse">
<stop stop-color="#BDC0C0" stop-opacity="0.5"/>
<stop offset="1" stop-color="#BDC0C0" stop-opacity="0"/>
</linearGradient>
<linearGradient id="paint14_linear_3201_5600" x1="590.021" y1="278.263" x2="426.798" y2="1023.26" gradientUnits="userSpaceOnUse">
<stop stop-color="#BDC0C0" stop-opacity="0.5"/>
<stop offset="1" stop-color="#BDC0C0" stop-opacity="0"/>
</linearGradient>
<linearGradient id="paint15_linear_3201_5600" x1="292.666" y1="674.932" x2="211.596" y2="1044.96" gradientUnits="userSpaceOnUse">
<stop stop-color="#BDC0C0" stop-opacity="0.5"/>
<stop offset="1" stop-color="#BDC0C0" stop-opacity="0"/>
</linearGradient>
<linearGradient id="paint16_linear_3201_5600" x1="39.8893" y1="711.609" x2="27.0698" y2="770.12" gradientUnits="userSpaceOnUse">
<stop stop-color="#BDC0C0" stop-opacity="0.5"/>
<stop offset="1" stop-color="#BDC0C0" stop-opacity="0"/>
</linearGradient>
<linearGradient id="paint17_linear_3201_5600" x1="601.161" y1="307.404" x2="441.002" y2="1038.41" gradientUnits="userSpaceOnUse">
<stop stop-color="#BDC0C0" stop-opacity="0.5"/>
<stop offset="1" stop-color="#BDC0C0" stop-opacity="0"/>
</linearGradient>
<linearGradient id="paint18_linear_3201_5600" x1="408.838" y1="-92.2389" x2="170.099" y2="997.43" gradientUnits="userSpaceOnUse">
<stop stop-color="#BDC0C0" stop-opacity="0.5"/>
<stop offset="1" stop-color="#BDC0C0" stop-opacity="0"/>
</linearGradient>
<linearGradient id="paint19_linear_3201_5600" x1="194.4" y1="708.777" x2="125.864" y2="1021.6" gradientUnits="userSpaceOnUse">
<stop stop-color="#BDC0C0" stop-opacity="0.5"/>
<stop offset="1" stop-color="#BDC0C0" stop-opacity="0"/>
</linearGradient>
<linearGradient id="paint20_linear_3201_5600" x1="215.274" y1="498.542" x2="151.157" y2="791.188" gradientUnits="userSpaceOnUse">
<stop stop-color="#BDC0C0" stop-opacity="0.5"/>
<stop offset="1" stop-color="#BDC0C0" stop-opacity="0"/>
</linearGradient>
<linearGradient id="paint21_linear_3201_5600" x1="286.74" y1="-10.6074" x2="19.8843" y2="1207.39" gradientUnits="userSpaceOnUse">
<stop stop-color="#BDC0C0" stop-opacity="0.5"/>
<stop offset="1" stop-color="#BDC0C0" stop-opacity="0"/>
</linearGradient>
<linearGradient id="paint22_linear_3201_5600" x1="126.282" y1="107.348" x2="12.2436" y2="627.849" gradientUnits="userSpaceOnUse">
<stop stop-color="#BDC0C0" stop-opacity="0.5"/>
<stop offset="1" stop-color="#BDC0C0" stop-opacity="0"/>
</linearGradient>
<clipPath id="clip0_3201_5600">
<rect width="390" height="1432" fill="white"/>
</clipPath>
</defs>
</svg>
