<svg width="1259" height="1414" viewBox="0 0 1259 1414" fill="none" xmlns="http://www.w3.org/2000/svg">
<path d="M328.832 25.662C329.807 10.7673 324.315 -4.65097 331.477 -18.6706C337.63 -30.724 349.985 -40.3278 358.236 -50.9804C368.657 -64.4136 376.816 -67.5894 394.582 -66.3314C398.083 -66.0812 423.954 -63.797 421.709 -70.8219C425.057 -60.3718 441.488 -64.9877 438.123 -75.4585C432.699 -92.3482 417.837 -82.8777 405.034 -82.5852C387.636 -82.1961 370.926 -87.6331 356.302 -75.0121C349.302 -68.9742 344.724 -60.5939 338.678 -53.6659C332.246 -46.2832 324.636 -39.8315 319.325 -31.5233C307.229 -12.6266 313.14 5.08815 311.787 25.9343C311.065 36.9119 328.137 36.5665 328.849 25.6826L328.832 25.662Z" fill="url(#paint0_linear_2648_2510)" fill-opacity="0.5"/>
<path d="M1483.37 100.242C1464.98 104.93 1448.48 88.1242 1430.5 85.9169C1409.79 83.3832 1386.64 90.2176 1367.09 96.1366C1342.1 103.7 1317.48 108.399 1291.27 104.717C1271.05 101.871 1252.24 95.3938 1231.79 100.428C1221.11 103.052 1225.78 119.47 1236.42 116.843C1259.3 111.213 1283.96 122.361 1307.19 123.02C1329.68 123.663 1350.35 119.03 1371.72 112.57C1394.77 105.593 1420.47 97.7581 1443.54 107.651C1458.56 114.096 1471.29 120.941 1488 116.675C1498.66 113.954 1493.98 97.5358 1483.37 100.261L1483.37 100.242Z" fill="url(#paint1_linear_2648_2510)" fill-opacity="0.5"/>
<path d="M941.197 -85.4689C953.306 -83.726 962.955 -77.6013 975.579 -76.6606C993.263 -75.3348 1001.64 -65.9241 1014.43 -54.3541C1036.68 -34.2139 1066.54 -27.7843 1090.28 -9.63917C1111.89 6.87442 1132.28 21.5243 1155.87 35.0118C1173.67 45.199 1190.79 52.2494 1210.58 43.1509C1206.34 40.0417 1202.11 36.9344 1197.87 33.8065C1197.71 34.3022 1197.55 34.8166 1197.38 35.3123C1192.46 45.0987 1207.42 53.3007 1212.39 43.4617C1213.33 41.6025 1213.97 39.9219 1214.45 37.885C1216.34 30.0922 1208.18 25.5925 1201.75 28.5406C1182.71 37.2964 1153.68 15.1805 1137.83 5.39393C1113.54 -9.62196 1094.65 -30.2644 1068.48 -42.5846C1055.42 -48.7231 1041.67 -53.4325 1030.48 -62.8354C1021.73 -70.1981 1014.27 -78.9308 1004.8 -85.4742C996.496 -91.2199 989.358 -93.4015 979.591 -93.9092C966.712 -94.5719 957.645 -100.26 945.257 -102.05C934.475 -103.605 930.304 -87.054 941.18 -85.4895L941.197 -85.4689Z" fill="url(#paint2_linear_2648_2510)" fill-opacity="0.5"/>
<path d="M835.633 -0.829933C842.052 -0.197362 848.663 -0.929388 855.011 -0.152211C866.301 1.24465 873.853 9.22834 881.794 16.5303C894.567 28.2692 908.598 37.2326 923.205 46.518C953.558 65.8265 979.417 90.7377 1008.76 111.481C1034.77 129.869 1057.73 155.102 1085.85 170.172C1100.75 178.16 1118.08 183.506 1134.38 187.69C1148.11 191.223 1162.18 189.671 1176.16 191.049C1187.08 192.126 1186.7 175.051 1175.91 173.987C1159.73 172.393 1145.06 173.183 1129.28 168.274C1108.71 161.869 1090.73 154.829 1073.81 141.317C1061.52 131.501 1050.31 120.39 1037.64 111.049C1022.87 100.156 1007.46 90.2037 993.063 78.7974C980.389 68.7548 968.829 57.4007 955.744 47.8673C941.67 37.611 926.559 29.0151 912.17 19.2584C897.585 9.3687 886.225 -6.70359 869.905 -13.7889C858.927 -18.5473 846.996 -16.7098 835.38 -17.8735C824.456 -18.95 824.841 -1.89351 835.631 -0.811202L835.633 -0.829933Z" fill="url(#paint3_linear_2648_2510)" fill-opacity="0.5"/>
<path d="M756.607 43.3291C794.11 51.8196 822.32 79.4073 849.314 105.113C876.79 131.301 905.766 156.122 935.42 179.834C989.754 223.3 1055.31 254.094 1123.97 265.561C1134.75 267.362 1138.9 250.809 1128.05 249.001C1052.74 236.443 985.919 200.483 927.895 151.574C899.53 127.667 872.452 102.825 845.149 77.7529C820.628 55.2288 793.794 34.2581 760.684 26.7691C749.968 24.3487 745.873 40.9068 756.607 43.3291Z" fill="url(#paint4_linear_2648_2510)" fill-opacity="0.5"/>
<path d="M606.767 89.571C617.168 91.1456 625.658 101.344 634.608 106.68C647.442 114.331 660.077 122.664 672.965 130.151C682.233 135.536 692.935 139.434 703.56 141.049C713.735 142.602 727.364 138.733 736.014 144.797C744.985 151.082 753.08 136.056 744.164 129.795C735.122 123.465 724.67 125.296 714.237 124.818C700.69 124.203 688.444 119.812 676.994 112.544C664.562 104.648 651.703 97.4484 639.264 89.6274C629.949 83.7631 622.2 74.6987 610.848 72.9735C600.073 71.3432 595.903 87.8939 606.771 89.5335L606.767 89.571Z" fill="url(#paint5_linear_2648_2510)" fill-opacity="0.5"/>
<path d="M212.535 409.42C221.116 405.035 223.551 391.668 226.244 383.386C232.959 362.746 241.749 341.629 255.711 324.754C269.546 308.019 289.209 298.112 304.959 283.479C319.604 269.875 333.578 252.888 343.858 235.688C362.808 203.973 362.074 166.415 368.335 131.156C371.183 115.138 375.619 99.5424 374.436 83.0895C373.243 66.5409 363.597 50.9597 363.768 34.6024C363.944 19.9322 372.779 -1.25685 381.35 -13.034C396.364 -33.6521 425.155 -31.0043 442.247 -15.2011C453.849 -4.46829 461.77 9.57842 472.002 21.5218C485.123 36.839 500.225 50.7028 516.706 62.3144C530.581 72.0962 546.076 73.9074 560.234 82.1631C570.467 88.1368 570.048 98.3484 574.778 107.854C578.858 116.065 585.154 123.337 591.772 129.637C617.774 154.448 652.782 169.591 686.307 181.139C701.025 186.209 714.073 188.045 729.549 186.007C749.751 183.317 759.767 183.413 776.144 197.611C810.348 227.267 843.521 259.115 875.963 290.683C890.473 304.791 904.459 319.796 915.577 336.792C927.091 354.377 929.774 374.843 940.545 392.469C945.901 401.202 954.346 408.971 957.001 419.144C959.367 428.209 957.536 438.717 958.045 447.978C959.247 469.625 962.562 491.178 965.95 512.567C973.296 558.794 980.774 604.844 990.36 650.647C999.858 696.006 1012.81 739.014 1030.53 781.922C1038.35 800.849 1050.04 817.75 1053.71 838.163C1057.65 859.966 1063.86 877.502 1075.39 896.661C1096.24 931.293 1124.1 966.996 1156.12 991.964C1190.22 1018.58 1230.97 1033.21 1269.56 1051.77C1280.16 1056.87 1292.37 1061.81 1301.19 1069.88C1309.46 1077.44 1312.88 1087.39 1316.89 1097.51C1324.97 1117.96 1336.02 1134.07 1350.06 1150.86C1359.86 1162.59 1369.28 1174.13 1372.53 1189.39C1374.76 1199.84 1374.47 1210.73 1375.37 1221.34C1376.33 1232.4 1378.55 1242.91 1383.1 1252.52L1397.65 1243.7C1395.97 1240.06 1394.65 1236.11 1393.79 1231.79C1390.49 1215.45 1392.41 1198.49 1388.32 1182.21C1383.46 1162.78 1369.75 1148.2 1357.32 1133.21C1342.8 1115.73 1336.48 1097.48 1327.06 1077.38C1319.96 1062.24 1308.61 1052.85 1294.07 1045.02C1258.49 1025.87 1219.67 1013.2 1185.31 991.714C1146.73 967.577 1115.45 929.036 1091.71 890.67C1080.22 872.102 1073.92 854.898 1070.13 833.545C1066.03 810.475 1051.91 791.894 1044.14 770.131C1036.37 748.367 1026.84 726.864 1019.87 704.876C1013.15 683.632 1009.97 661.297 1005.35 639.54C994.888 590.278 986.752 540.334 979.669 490.476C976.795 470.217 975.011 450.237 974.828 429.789C974.651 410.233 964.874 399.642 955.096 383.669C945.464 367.937 943.028 349.011 933.293 332.985C922.969 316.01 909.73 300.738 895.908 286.565C864.736 254.611 830.778 224.77 797.958 194.53C786.213 183.707 774.753 171.15 758.532 167.675C745.892 164.97 733.563 169.118 721.007 169.985C702.173 171.294 683.355 162.636 666.366 155.409C645.612 146.579 624.584 135.921 607.522 120.974C599.463 113.907 592.401 106.331 588.41 96.2539C585.92 89.9819 584.675 83.1883 580.736 77.5883C570.861 63.5576 552.161 63.1172 537.965 55.8243C520.45 46.8208 504.809 31.8807 491.388 17.6899C478.43 3.9807 469.085 -12.727 455.642 -25.9344C435.187 -46.0678 402.875 -52.2274 378.521 -34.3302C364.855 -24.3059 359.442 -7.65021 353.644 7.52726C348.05 22.1752 344.957 34.7195 348.965 50.2C354.54 71.7099 359.388 88.0881 355.168 110.528C350.996 132.669 348.489 154.842 344.989 177.087C336.461 231.131 303.126 262.85 261.98 295.371C245.25 308.6 233.052 324.871 223.723 343.965C219.329 352.97 215.389 362.379 212.086 371.852C210.311 376.983 208.166 392.597 203.695 394.885C193.917 399.872 202.791 414.449 212.529 409.477L212.535 409.42Z" fill="url(#paint6_linear_2648_2510)" fill-opacity="0.5"/>
<path d="M1178.38 1065.47C1199.4 1082.36 1221.5 1098.68 1236.59 1121.49C1248.8 1139.92 1255.91 1162.24 1278.02 1171.3C1286.38 1174.72 1295.53 1174.26 1303.97 1177.04C1317.68 1181.56 1322.2 1199.02 1326.37 1211.5C1333.73 1233.53 1337.3 1255.34 1341.59 1277.65L1358.03 1267.71C1357.8 1265.83 1357.57 1263.95 1357.3 1262.06C1355.41 1248.93 1351.51 1236.33 1347.86 1223.59C1342.59 1205.16 1336.72 1177.82 1320.05 1165.76C1314.11 1161.46 1307.19 1160.3 1300.14 1159.02C1283.6 1156.04 1273.02 1150.11 1264.2 1135.41C1251.72 1114.58 1240.36 1096.01 1222.18 1079.45C1203.59 1062.54 1182.74 1048.33 1164.47 1031.03C1143.15 1010.83 1122.62 989.571 1103.16 967.565C1064.24 923.514 1022.97 869.415 1011.32 810.521C1006.31 785.182 1005.88 758.986 999.324 733.931C992.244 706.928 978.533 682.209 971.177 655.312C956.016 599.92 952.181 541.531 935.161 486.732C930.629 472.148 925.608 457.705 921.837 442.892C918.295 429.03 917.473 414.489 913.304 400.831C905.763 376.19 888.659 352.634 873.005 332.633C852.974 307.045 829.399 284.539 809.158 259.158C801.08 249.018 794.1 237.149 784.26 228.542C778.222 223.266 766.014 219.258 762.545 211.961C757.817 202.057 743.255 210.97 747.954 220.795C750.372 225.866 755.33 229.026 759.797 232.158C771.228 240.202 778.809 247.316 787.531 258.808C803.767 280.212 822.111 299.645 839.959 319.692C859.529 341.69 877.746 365.488 891.184 391.829C902.748 414.479 903.383 442.078 910.827 466.349C927.565 520.931 938.897 577.481 949.452 633.651C954.906 662.73 965.364 688.53 975.626 716.131C985.541 742.825 988.033 770.039 992.065 797.973C999.921 852.494 1028.29 900.167 1061.37 943.415C1095.28 987.749 1134.87 1030.44 1178.44 1065.44L1178.38 1065.47Z" fill="url(#paint7_linear_2648_2510)" fill-opacity="0.5"/>
<path d="M320.788 777.511C275.446 755.493 272.993 695.384 262.035 652.724C256.662 631.859 249.152 609.988 234.642 593.568C217.695 574.386 178.255 561.516 176.309 532.802C175.018 513.78 191.866 493.589 204.367 480.968C220.404 464.772 242.608 456.385 256.18 437.52C269.554 418.919 274.151 394.963 285.275 374.966C298.794 350.675 319.544 335.304 341.202 318.808C357.41 306.457 373.036 293.272 381.612 274.331C392.322 250.655 399.423 224.936 406.616 200.022C413.382 176.564 422.469 152.235 425.435 127.909C428.475 102.832 420.612 77.2305 417.285 52.5308C416.52 46.8268 410.597 26.9314 421.13 26.3964C428.043 26.0542 436.3 41.1195 439.506 45.6996C453.228 65.3023 467.214 83.9644 484.046 101.05C502.412 119.689 522.748 135.641 544.302 150.387C567.028 165.931 589.712 184.787 615.189 195.503C635.914 204.235 658.429 208.463 678.486 218.778C701.684 230.692 730.279 247.837 747.265 267.591C763.216 286.124 779.97 302.652 797.315 319.921C818.679 341.205 832.444 369.606 846.936 395.823C853.838 408.291 861.292 421.306 864.499 435.305C867.19 447.036 866.973 459.238 868.722 471.104C873.175 501.107 884.011 529.428 887.832 559.691C894.958 616.035 905.546 668.987 924.595 722.811C943.419 776.025 954.855 831.145 978.035 882.855C1000 931.849 1029.87 974.345 1067.07 1012.84C1085.99 1032.41 1103.76 1053.28 1123.04 1072.43C1143.74 1092.96 1170.4 1109.5 1188.7 1132.25C1208.75 1157.15 1220.16 1190.93 1234.82 1219.16C1243.9 1236.63 1252.37 1252.16 1257.66 1271.34C1262.19 1287.71 1264.5 1305.03 1269.05 1321.53L1284.47 1312.21C1284.43 1312.02 1284.36 1311.82 1284.32 1311.65C1279.4 1290.43 1275.72 1269.05 1268.53 1248.4C1263.58 1234.21 1255.26 1221.68 1248.39 1208.38C1233.6 1179.73 1221.85 1144.42 1200.4 1119.87C1181.01 1097.64 1155.65 1080.78 1134.74 1060.05C1114.64 1040.12 1096.05 1018.41 1076.4 998.014C1033.54 953.499 1002.94 902.423 980.579 844.918C970.087 817.92 964.197 789.993 956.302 762.228C947.684 731.984 935.177 702.931 926.369 672.688C917.477 642.152 910.885 611.919 907.272 580.312C904.197 553.439 900.571 527.345 893.309 501.234C889.166 486.347 885.698 471.924 884.185 456.5C883.018 444.692 882.232 433.054 878.226 421.781C869.424 397.053 854.169 374.741 841.301 352.039C827.192 327.129 810.436 309.085 789.699 289.511C770.955 271.821 757.364 249.729 735.852 235.139C715.049 221.036 693.594 205.674 670.032 196.682C647.458 188.051 623.432 183.201 602.845 169.991C551.209 136.835 499.846 101.11 463.55 50.7602C452.997 36.1129 420.462 -15.2873 401.167 20.6956C393.995 34.051 400.156 54.8037 402.233 68.7294C406.584 97.8509 411.014 121.162 402.994 150.05C395.033 178.716 387.305 207.519 377.852 235.754C373.344 249.183 369.297 263.907 361.616 275.886C353.758 288.131 341.528 297.425 330.066 306.037C311.423 320.024 292.968 333.632 279.251 352.824C266.044 371.27 259.29 392.304 250.343 412.895C239.143 438.664 215.922 447.368 196.354 465.168C182.657 477.615 169.355 494.707 162.968 512.214C143.892 564.441 205.674 578.868 228.32 613.488C254.838 654.023 250.263 707.566 272.389 750.549C281.567 768.377 294.439 783.727 312.687 792.594C322.526 797.373 330.747 782.415 320.835 777.61L320.788 777.511Z" fill="url(#paint8_linear_2648_2510)" fill-opacity="0.5"/>
<path d="M1239.5 1073.89C1256.72 1080.74 1267.37 1093.2 1274.34 1109.97C1278.22 1119.28 1281.46 1129.87 1290.65 1135.21C1300.15 1140.74 1308.3 1125.75 1298.8 1120.21C1289.95 1115.07 1287.11 1094.29 1281.05 1085.6C1272.64 1073.55 1261.27 1064.3 1247.63 1058.88C1237.57 1054.88 1229.27 1069.81 1239.48 1073.87L1239.5 1073.89Z" fill="url(#paint9_linear_2648_2510)" fill-opacity="0.5"/>
<path d="M211.57 -848.916C235.393 -848.918 254.057 -839.46 274.472 -828.352C299.115 -814.95 323.84 -799.683 338.962 -775.243C353.087 -752.417 349.232 -727.534 356.588 -702.949C359.866 -691.975 365.353 -681.693 367.749 -670.427C371.152 -654.381 367.076 -641.289 360.669 -626.664C356.461 -617.035 352.06 -607.765 349.551 -597.494C346.937 -586.741 348.278 -573.04 344.374 -562.849C340.757 -553.446 329.719 -548.564 322.605 -541.949C316.137 -535.935 310.333 -528.964 306.043 -521.199C286.622 -486.044 295.459 -436.676 306.452 -400.153C334.796 -306.032 398.513 -223.928 461.774 -150.851C477.938 -132.183 491.964 -110.465 510.892 -94.4622C528.633 -79.4857 549.504 -69.1471 570.82 -60.2618C588.607 -52.8615 607.233 -43.7864 625.969 -39.0973C645.833 -34.1265 666.819 -37.0806 686.607 -40.9488C706.684 -44.8643 726.56 -51.1685 747.015 -52.962C774.294 -55.3528 800.949 -48.7084 827.401 -43.0883C848.803 -38.5345 869.467 -34.9441 889.102 -24.7652C910.217 -13.834 927.296 2.2901 946.797 15.5638C964.894 27.8844 986.272 33.8383 1004.97 45.0432C1029.44 59.6966 1046.95 83.3118 1070.84 99.0264C1090.07 111.687 1105.82 129.613 1125.51 141.37C1144.5 152.698 1166.71 154.584 1187.88 159.076C1207.18 163.177 1224.78 169.838 1244.77 170.615C1270.31 171.616 1296.8 171.289 1322.23 168.773C1347.61 166.27 1371.76 157.943 1397.04 155.07C1411.26 153.459 1425.07 153.17 1439.11 156.07C1449.29 158.172 1459.03 161.103 1469.49 161.452C1493.88 162.244 1517.16 154.267 1541.08 151.147C1565.6 147.953 1587.19 151.768 1610.98 156.898C1635.1 162.099 1659.35 159.883 1683.8 159.525C1710.97 159.115 1737.91 162.887 1764.11 170.094C1792.95 178.015 1818.85 193.738 1847.54 201.644C1858.46 204.653 1870.48 204.246 1881.15 208.046C1894.37 212.76 1907.05 222.783 1917.15 232.175C1937.15 250.766 1960.38 275.987 1969.91 301.772C1980.36 330.053 1988.5 360.913 1991.81 390.899C1994.81 417.973 1990.44 445.004 1991.51 472.095C1992.72 502.689 2000.95 532.61 2001.05 563.322C2001.09 577.748 2000.28 590.347 1992.65 602.577C1985.81 613.539 1978.9 623.452 1973.78 635.418C1967.55 650.021 1961.05 660.942 1950.3 672.769C1942.58 681.257 1936.73 689.266 1932.62 700.023C1928.69 710.268 1945.3 714.236 1949.18 704.1C1954.26 690.841 1965.69 682.719 1974.1 671.817C1980.77 663.188 1984.53 653.495 1988.77 643.584C1997.44 623.288 2013.94 607.707 2016.81 585.342C2020 560.432 2016.46 535.635 2012.96 510.975C2008.98 482.914 2008.65 456.387 2009.68 428.118C2011.35 381.908 2002.02 329.232 1982.43 287.048C1973.29 267.366 1956.52 249.794 1942.25 233.681C1927.97 217.568 1910.59 201.793 1890.58 193.34C1879.97 188.864 1868.25 188.997 1857.18 186.504C1843.33 183.396 1830.49 177.165 1817.55 171.531C1793.51 161.069 1768.92 152.62 1743.08 147.743C1721.18 143.614 1699.15 142.03 1676.87 142.677C1664.02 143.06 1651.18 143.955 1638.34 143.296C1622.2 142.463 1607.58 137.517 1591.83 134.884C1543.2 126.719 1496.36 151.876 1448.75 140.912C1398.03 129.224 1350.11 151.507 1299.53 153.175C1275.06 153.985 1247.69 156.537 1223.65 151.287C1201.31 146.414 1177.97 141.347 1155.89 135.343C1129.43 128.149 1113.59 108.016 1092.13 92.54C1081.09 84.5913 1069.38 78.3964 1059.12 69.2924C1047.53 59.0156 1037.43 47.2747 1024.96 37.9544C1008.21 25.4254 988.617 18.889 970.18 9.43472C948.532 -1.66279 931.031 -19.2688 910.433 -32.1769C872.558 -55.9223 822.678 -64.5901 778.799 -69.3311C734.992 -74.046 695.788 -54.8831 652.702 -53.6331C628.488 -52.9301 606.485 -64.0816 584.507 -72.9941C560.125 -82.8828 535.359 -94.0789 516.205 -112.606C497.33 -130.878 481.756 -153.809 464.438 -173.653C443.627 -197.479 422.699 -221.279 405.176 -247.7C378.079 -288.501 351.194 -331.271 332.806 -376.804C313.383 -424.903 293.884 -498.007 341.385 -535.588C347.921 -540.762 354.84 -544.818 358.71 -552.548C363.948 -563.005 362.776 -576.5 364.957 -587.675C369.494 -611.013 385.323 -630.868 386.228 -655.056C387.227 -682.115 371.508 -706.842 368.79 -733.68C366.155 -759.638 358.303 -781.315 340.711 -801.072C322.044 -822.034 297.29 -835.655 272.814 -848.642C252.985 -859.162 234 -865.941 211.334 -865.939C200.323 -865.943 200.613 -848.877 211.586 -848.876L211.57 -848.916Z" fill="url(#paint10_linear_2648_2510)" fill-opacity="0.5"/>
<path d="M593.315 -93.3352C631.666 -75.5696 673.724 -80.9956 714.008 -87.6576C764.405 -95.9763 823.2 -104.889 870.63 -80.9789C896.736 -67.8123 922.819 -55.7472 947.19 -39.3971C971.74 -22.9347 994.988 -3.45463 1021.59 9.6475C1070.07 33.5089 1104.24 81.2041 1156.04 99.0629C1175.5 105.776 1191.67 98.67 1208.91 89.4345C1223.8 81.4635 1237.08 75.3996 1254.07 74.1365C1268.42 73.0687 1282.89 74.1344 1297.25 74.5828C1327.08 75.5139 1355.67 70.674 1385.13 66.8689C1416.83 62.7715 1450.9 59.1173 1479.55 75.3017C1499.43 86.5275 1514.82 86.3195 1534.77 75.7777C1563.44 60.6179 1589.66 58.0466 1621.84 58.0153C1653.64 57.9845 1685.4 59.9205 1717.16 61.5713C1731.37 62.3089 1745.65 62.446 1759.84 63.2194C1777.36 64.1681 1787.25 69.7107 1801.73 78.5665C1819.93 89.7027 1843.61 97.0777 1864.08 102.98C1884.59 108.905 1906.24 111.323 1927.19 106.224C1957.83 98.7822 1980.19 73.6947 2013.55 86.4586C2042.24 97.4352 2063.71 118.218 2087.64 136.572C2112.72 155.796 2138.09 172.529 2156.94 198.436C2175.08 223.364 2191.76 250.478 2203.51 279.06C2214.02 304.618 2220.01 332.632 2227.35 359.262C2235.28 388.035 2225.09 414.701 2220.6 443.026C2216.23 470.625 2224.87 498.368 2219.12 525.547C2213.48 552.225 2203.4 579.659 2195.06 605.654C2184.56 638.334 2167.42 669.147 2152.54 699.993C2147.61 710.196 2143.51 720.481 2139.56 731.084C2132.7 749.586 2126.13 760.897 2110.54 772.912C2092.35 786.943 2086.36 806.291 2086.51 826.773L2103.52 816.472C2104.08 811.959 2105.11 807.57 2106.79 803.415C2111.35 792.019 2121.2 786.849 2130.24 779.382C2139.52 771.712 2145.3 762.484 2149.96 751.401C2161.12 724.794 2172.24 698.713 2184.65 672.589C2196.94 646.718 2208.56 621.368 2216.32 593.725C2223.1 569.585 2234.2 544.962 2237.41 520.073C2240.97 492.696 2233.33 466.132 2238.72 438.539C2243.13 415.966 2250.13 393.137 2247.08 369.923C2245.47 357.731 2241.05 346.228 2237.47 334.523C2233.57 321.782 2231.49 308.633 2227.61 295.894C2212.59 246.561 2182.32 192.94 2143.72 158.301C2121.73 138.566 2096.79 121.8 2073.82 103.2C2055.97 88.7621 2035.66 75.2193 2013.54 68.3018C1989.99 60.9398 1970.07 68.2256 1948.91 78.9512C1922.82 92.1668 1899.04 94.941 1870.65 87.1393C1848.87 81.1653 1824.37 73.2548 1805.6 60.6218C1785.23 46.9215 1765.32 46.5317 1741.35 45.6673C1684.92 43.6504 1623.34 33.2223 1567.43 44.1819C1544.49 48.6683 1518.58 74.0876 1495.63 64.6622C1484.37 60.0468 1475.37 52.3185 1463.31 49.3858C1450.98 46.4084 1437.88 46.5962 1425.29 46.7382C1395.88 47.062 1367.24 53.0523 1338.1 56.2452C1309.96 59.3279 1281.94 55.3165 1253.8 57.0723C1226.91 58.7438 1209.47 73.2474 1185.17 82.1478C1161.71 90.7336 1134.75 70.831 1116.65 57.3544C1094.49 40.8622 1075.42 20.1637 1051.65 5.80581C1041.13 -0.537203 1029.57 -4.8988 1018.93 -11.0446C1005.38 -18.8808 992.642 -28.304 979.849 -37.3349C955.858 -54.2729 931.781 -70.7266 905.022 -83.0478C882.636 -93.3842 862.421 -105.951 837.604 -109.325C791.936 -115.531 749.566 -110.591 704.559 -103.314C654.854 -95.2873 610.433 -95.4955 570.045 -129.324C546.604 -148.956 526.316 -171.935 506.463 -195.098C485.912 -219.069 462.594 -241.873 444.482 -267.707C427.819 -291.504 415.153 -317.787 400.526 -342.823C387.067 -365.868 373.754 -388.861 365.25 -414.298C357.183 -438.403 353.942 -463.208 357.716 -488.232C361.579 -491.471 362.374 -497.419 358.414 -501.088C358.215 -501.183 358.016 -501.279 357.838 -501.391C354.117 -507.481 343.757 -506.398 342.252 -499.004C332.363 -450.003 347.733 -402.891 370.944 -359.952C384.725 -334.412 399.381 -309.089 414.006 -284.034C429.072 -258.253 447.546 -236.874 467.246 -214.655C504.444 -172.688 540.902 -117.641 593.3 -93.3745L593.315 -93.3352Z" fill="url(#paint11_linear_2648_2510)" fill-opacity="0.5"/>
<path d="M721.98 -137.787C754.69 -140.856 787.799 -146.444 820.554 -148.427C836.416 -149.385 854.428 -150.813 869.967 -147.14C885.025 -143.59 898.115 -134.303 913.35 -131.209C925.575 -128.716 937.116 -131.028 948.81 -134.689C968.602 -140.907 982.898 -141.166 1001.11 -130.597C1032.65 -112.309 1058.72 -85.1778 1087.92 -63.595C1112.85 -45.1626 1142.18 -36.2831 1167.54 -18.3956C1178.26 -10.8199 1189.24 -4.16608 1201.63 0.29569C1218.14 6.2247 1235.37 7.75184 1251.17 15.8663C1261.9 21.3777 1271.99 27.8302 1283.64 31.3096C1299.92 36.173 1317.57 33.9706 1334.28 33.4755C1370.26 32.4159 1407.04 28.5927 1443 30.8285C1472.54 32.6589 1501.6 38.3277 1530.96 31.6889C1602.52 15.5441 1671.55 18.3666 1743.69 30.0425C1757.81 32.3249 1771.96 35.6712 1786.27 36.3994C1805.64 37.398 1824.85 33.9285 1843.08 42.4899C1854.5 47.8614 1864.67 56.0646 1876.99 59.5337C1890.01 63.2045 1903.67 61.4433 1916.66 58.5158C1950.58 50.8664 1981.03 41.7 2016.35 47.266C2045.17 51.811 2076.22 62.8124 2099.77 79.8768C2129.36 101.346 2161.13 118.9 2186.46 145.805C2210.22 171.04 2228.98 204.463 2244.77 235.223C2261.73 268.279 2266.19 303.419 2267.91 340.088C2269.45 373.273 2275.32 407.7 2274.22 440.776C2273.69 457.21 2270.96 473.506 2270.46 489.944C2269.96 506.534 2272.59 523.49 2269.96 539.966C2267.5 555.358 2260.13 569.528 2255.59 584.336C2250.14 602.087 2248.61 620.357 2242.57 638.108C2231.13 671.775 2214.14 701.447 2198.19 732.927C2192.8 743.54 2189.76 754.042 2188.83 764.81L2209.69 752.178C2212.41 743.425 2216.69 734.599 2222.21 724.757C2238.69 695.414 2252.19 664.546 2262.33 632.436C2267.23 616.924 2268.12 600.808 2273.11 585.343C2278.16 569.693 2285.33 554.974 2287.24 538.484C2288.88 524.337 2287.4 510.167 2287.43 495.994C2287.47 479.453 2290.03 463.123 2290.99 446.635C2292.92 413.565 2286.66 379.385 2285.25 346.194C2283.96 315.27 2282.16 283.311 2271.6 253.938C2261.04 224.546 2243.38 198.187 2227.07 171.772C2208.88 142.31 2185.44 118.585 2157.38 98.309C2145.51 89.7291 2132.95 82.1617 2120.84 73.9556C2108.01 65.2626 2096.59 55.3439 2082.13 49.4457C2056.22 38.8761 2028.45 30.1127 2000.4 28.5241C1970.17 26.8149 1943.82 34.6035 1914.85 41.4331C1894.97 46.1253 1881.35 44.3284 1863.52 34.2707C1852.05 27.7958 1841.46 22.1848 1828.25 20.3909C1812.6 18.261 1796.81 20.4006 1781.14 18.8186C1762.51 16.9256 1744 12.6754 1725.46 10.0335C1662.31 1.02447 1597.92 -2.19321 1535.45 12.9327C1502.83 20.8241 1472.76 15.1887 1439.85 13.5377C1402.38 11.6644 1364.19 15.5384 1326.69 16.5814C1309.67 17.0451 1293.58 18.2074 1277.8 10.7779C1264.76 4.62242 1253.08 -3.3704 1239.14 -7.51089C1223.81 -12.0735 1208.48 -14.0013 1194.11 -21.6524C1180.73 -28.7701 1169.5 -39.1244 1156.46 -46.7399C1142.98 -54.5875 1127.64 -58.5439 1114.09 -66.2844C1097.19 -75.9287 1082.12 -89.5241 1067.15 -101.858C1044.66 -120.373 1021 -143.229 993.125 -153.405C963.087 -164.363 936.998 -140.402 907.699 -150.794C894.496 -155.468 882.492 -162.507 868.492 -164.872C854.829 -167.185 840.378 -166.316 826.59 -165.837C793.957 -164.694 761.935 -157.066 729.306 -155.392C701.458 -153.967 673.272 -142.379 645.434 -148.742C634.72 -151.181 630.625 -134.623 641.357 -132.182C668.751 -125.92 694.825 -135.309 722.005 -137.842L721.98 -137.787Z" fill="url(#paint12_linear_2648_2510)" fill-opacity="0.5"/>
<path d="M692.513 7.58678C701.067 7.14094 709.779 5.27046 718.335 5.37448C724.166 5.4374 730.194 8.49522 735.94 8.07595C749.877 7.04247 756.95 -5.69722 772.127 -5.28183C779.783 -5.07704 791.264 -3.69916 797.481 1.29133C802.085 4.96672 803.471 11.092 807.504 15.3556C818.129 26.5797 834.918 27.9499 845.785 39.9937C856.138 51.4752 863.705 64.6911 876.168 74.1823C888.863 83.8288 903.722 90.1637 917.546 97.9695C949.593 116.043 973.539 146.906 1002.19 169.799C1012.42 177.97 1024.21 182.96 1036.01 188.331C1049.65 194.546 1061.6 203.342 1074.83 210.274C1101.37 224.222 1131.92 225.717 1161.32 227.762C1176.61 228.813 1191.48 227.493 1206.43 231.373C1221.33 235.229 1234.21 236.612 1249.66 234.61C1280.38 230.625 1310.97 223.708 1341.41 218.029C1374.56 211.857 1408.19 206.34 1442.02 207.892C1475.94 209.454 1510.01 212.963 1543.92 215.205C1558.12 216.149 1572.53 217.853 1586.74 215.956C1602.27 213.886 1610.7 203.175 1624.98 199.049C1639.26 194.922 1660.87 198.927 1675.44 200.098C1694.43 201.61 1713.32 204.703 1731.8 209.367C1749.85 213.912 1767.54 219.92 1784.46 227.708C1799.39 234.6 1811.88 244.208 1826 252.289C1837.32 258.749 1847.09 256.926 1859.49 257.711C1878.38 258.928 1895.91 270.435 1908.57 283.888C1920.15 296.173 1923.54 311.403 1927.75 327.339C1932.85 346.584 1936.58 366.169 1938.86 385.952C1941.83 411.735 1943.43 438.974 1942.69 464.978C1942.37 475.92 1941.99 490.892 1934.53 499.709C1927.43 508.087 1922.37 510.204 1918.18 521.958C1913.15 536.017 1910.55 550.732 1908.6 565.474C1906.55 581.078 1902.6 594.883 1898.57 610.007C1894.58 624.889 1898.63 633.76 1899.52 648.232C1900.37 661.941 1893.73 677.321 1892.84 691.636C1891.45 713.73 1885.05 725.095 1866.37 736.748C1851.91 745.765 1838.79 755.653 1826.98 767.983C1800.4 795.781 1771.59 818.471 1740.65 841.253C1714.76 860.306 1684.49 875.213 1662.67 899.274C1628.5 936.974 1629.54 994.954 1661.74 1033.59C1671.24 1045 1682.81 1054.39 1693.6 1064.55L1708.33 1055.63C1704.84 1052.01 1701.32 1048.44 1697.66 1045.07C1684.65 1033.17 1671.53 1021.48 1663.46 1005.52C1648.5 975.995 1651.34 938.676 1673.01 913.236C1695.56 886.765 1729.94 870.16 1757.73 849.758C1786.21 828.818 1812.85 807.887 1837.11 782.077C1849.27 769.137 1862.74 759.17 1877.7 749.785C1889.84 742.188 1900.42 733.944 1905.53 720.12C1909.61 709.094 1909.27 697.216 1910.23 685.675C1911.41 671.596 1919.86 657.059 1917 642.924C1915.29 634.378 1912.2 629.184 1913.82 619.414C1915.02 612.14 1918.02 605.102 1920.12 598.069C1924.59 583.026 1924.96 567.2 1927.91 551.837C1929.51 543.504 1931.5 535.039 1934.54 527.095C1937.16 520.266 1937.87 520.203 1941.1 516.901C1947.84 510.004 1952.59 504.71 1955.6 495.133C1962.18 474.082 1959.66 451.072 1958.74 429.415C1957.44 398.737 1954.85 368.538 1948.08 338.515C1941.5 309.155 1935.34 283.209 1911.51 263.274C1901.51 254.917 1890.23 247.873 1877.73 243.968C1863.68 239.571 1846.85 244.223 1834.17 237.288C1820.88 230.028 1809.35 220.648 1795.49 214.07C1780.39 206.896 1764.65 200.987 1748.63 196.262C1716 186.64 1682.72 183.115 1648.89 181.846C1637.01 181.396 1625.5 179.921 1614.37 185.021C1607.28 188.265 1601.52 194.235 1594.2 196.982C1585.74 200.147 1575.96 199.885 1567.06 199.614C1532.54 198.6 1497.63 195.955 1463.24 192.719C1400.98 186.848 1341.51 201.418 1280.52 211.914C1264.28 214.711 1247.84 219.288 1231.25 218.79C1216.05 218.335 1202.14 211.828 1186.76 211.336C1153.4 210.247 1115.87 211.665 1085.28 196.484C1072.83 190.311 1061.77 181.754 1049.28 175.69C1032.58 167.601 1017.91 160.924 1003.92 148.421C978.927 126.078 955.087 99.5275 925.751 82.9725C911.55 74.9589 895.451 68.7102 883.122 57.849C870.88 47.072 863.342 32.0207 851.164 21.1742C841.408 12.4805 826.047 10.6636 818.016 1.00276C809.545 -9.1941 806.152 -15.1571 792.298 -19.1945C782.202 -22.1225 770.288 -23.5429 759.868 -21.6512C753.461 -20.4822 750.432 -18.2033 744.881 -15.339C736.656 -11.1084 734.093 -11.6452 725.74 -11.8809C693.818 -12.7713 664.432 -7.27166 632.386 -13.6324C600.451 -19.9634 570.814 -33.2694 546.491 -55.1107C538.344 -62.433 526.57 -50.0807 534.771 -42.7153C577.515 -4.33335 635.977 10.5057 692.553 7.57168L692.513 7.58678Z" fill="url(#paint13_linear_2648_2510)" fill-opacity="0.5"/>
<path d="M1339.68 862.17C1353.27 866.182 1366.94 864.212 1379.76 870.404C1390 875.355 1401.7 879.369 1411.44 885.143C1427.12 894.458 1423.06 910.887 1431.14 924.817C1444.46 947.753 1470.31 963.339 1486.66 984.111C1503.31 1005.25 1501.91 1033.69 1517.06 1055.45C1533.14 1078.5 1560.7 1069.18 1582.37 1082.39C1595.26 1090.23 1603.58 1102.01 1611.62 1114.21L1626.58 1105.17C1623.71 1101.17 1620.83 1097.13 1617.84 1093.03C1605.15 1075.61 1587.57 1061.88 1565.94 1057.97C1557.47 1056.43 1547.02 1057.79 1539.25 1053.6C1527.19 1047.08 1523.61 1030.34 1520.17 1018.34C1513.95 996.692 1506.35 979.551 1490.81 962.972C1473.43 944.41 1448.38 927.748 1441.66 902.561C1435.99 881.365 1427.38 873.334 1406.95 864.725C1397.22 860.62 1388.3 854.549 1378.45 850.83C1371.11 848.041 1366.54 849.202 1358.78 848.665C1331.15 846.794 1302.16 829.023 1281.53 811.62C1240.06 776.642 1222.47 729.766 1205.18 680.038C1189.49 634.961 1171.44 589.555 1185.83 541.15C1200.11 493.169 1246.29 461.124 1287.63 437.793C1331.42 413.075 1382.6 388.193 1434.32 397.915C1474.14 405.402 1552.59 434.321 1544.91 485.321C1543.28 496.096 1559.84 500.266 1561.47 489.398C1568.49 442.805 1528.88 416.102 1490.92 399.607C1446.92 380.489 1405.23 372.913 1358.42 387.138C1312.2 401.193 1265.6 426.697 1228.09 456.999C1189.13 488.448 1164.03 528.54 1163.88 579.486C1163.81 603.68 1167.79 628.292 1176.2 650.992C1186.34 678.315 1195.18 706.268 1206.11 733.271C1226 782.382 1259.87 825.064 1307.69 849.429C1317.9 854.643 1328.66 858.943 1339.66 862.187L1339.68 862.17Z" fill="url(#paint14_linear_2648_2510)" fill-opacity="0.5"/>
<path d="M1299.34 893.273C1330.77 906.776 1370.83 911.292 1394.88 937.181C1421.24 965.552 1442.25 995.387 1458.64 1030.47C1474.74 1064.98 1488.19 1100.77 1506.38 1134.29C1512.35 1145.27 1518.84 1155.89 1525.99 1166.02L1540.44 1157.26C1498.93 1098.33 1486.36 1022.8 1441.74 966.133C1422.4 941.58 1402.53 914.434 1373 902.106C1341.35 888.904 1307.37 881.974 1278.52 862.605C1244.3 839.656 1216.61 811.191 1192.95 777.627C1182.02 762.128 1174.14 746.967 1168.93 728.695C1163.94 711.242 1155.9 695.308 1150.06 678.188C1126.99 610.531 1130.66 530.064 1178.17 473.361C1199.24 448.204 1228.38 433.659 1254.08 414.587C1261.54 409.05 1269.44 404.086 1275.93 397.523C1283.82 389.526 1288.13 382.939 1298.12 377.139C1313.66 368.133 1327.57 365.012 1345.52 361.929C1374.32 356.96 1401.66 352.452 1431.11 354.994C1447.32 356.402 1463.52 358.415 1479.46 361.104C1489.67 362.831 1498.56 360.712 1507.58 368.234C1515.13 374.531 1520.02 383.106 1527.87 389.432C1553.19 409.874 1579.02 447.366 1584.31 480.011C1589.41 511.518 1576.9 543.109 1555.53 566.077C1546.14 576.162 1535.29 584.531 1523.21 591.167C1512.23 597.192 1495.04 607.571 1482.08 603.943C1450.28 595.011 1492.61 545.34 1492.67 526.205C1492.75 505.044 1474.2 493.664 1455.29 490.74C1431.12 486.993 1405.81 493.217 1388.03 510.226C1381.71 516.256 1376.52 523.552 1369.53 528.871C1359.96 536.135 1351.04 536.544 1339.59 537.727C1326.43 539.103 1315.21 542.167 1304.77 550.633C1284.13 567.38 1274.19 596.344 1276.15 622.406C1278.45 652.88 1301.23 682.528 1318.49 706.422C1337.85 733.213 1361.83 761.237 1391.61 776.699C1416.12 789.423 1445.07 791.746 1472.15 788.747C1541.93 781.012 1597.07 736.281 1654.18 699.477C1688 677.679 1720.09 655.863 1751.48 630.624C1775.81 611.075 1786.72 593.01 1794.06 562.993C1797.74 547.967 1801.5 533.575 1813.41 522.808C1825.7 511.683 1842.99 506.658 1852.18 492.061C1859.91 479.784 1859.62 465.182 1858.8 451.247C1857.68 432.167 1858.68 413.181 1858.04 394.128C1856.92 361.213 1849.5 328.112 1828.74 301.846C1808.11 275.745 1780.15 259.533 1749.65 247.431C1718.48 235.073 1684.49 228.464 1651.06 227.14C1640.05 226.7 1640.38 243.77 1651.31 244.203C1726.43 247.151 1819.81 278.926 1837.26 361.285C1841.12 379.498 1841.16 397.885 1840.91 416.376C1840.68 434.49 1846.2 457.871 1840.99 475.381C1835.35 494.326 1811.68 500.37 1798.66 513.396C1789.3 522.783 1784.21 534.467 1780.53 547.01C1776.41 561.084 1774.82 576.296 1767.81 589.383C1758.77 606.251 1740.54 617.587 1725.92 629.167C1694.35 654.198 1660.64 674.528 1627.17 696.852C1568.3 736.137 1503.18 784.035 1427.97 770.9C1391.24 764.495 1363.23 736.416 1341.01 708.129C1319.94 681.321 1289.4 643.516 1293.57 607.596C1295.62 589.87 1303.98 570.757 1319.53 560.805C1333.92 551.591 1352.26 556.26 1367.75 549.979C1380.82 544.69 1388.41 533.461 1398.24 524.063C1411.28 511.608 1426.53 506.213 1444.53 506.812C1458.85 507.294 1477.46 511.914 1475.02 529.735C1473.13 543.535 1461.61 556.196 1456.75 569.229C1449.43 588.825 1453.36 613.375 1476 620.401C1496.28 626.702 1521.62 612.445 1538.31 602.132C1561.22 587.977 1580.65 566.998 1591.77 542.377C1617.89 484.609 1588.52 429.066 1549.96 384.956C1544.73 378.983 1537.1 375.786 1531.54 370.102C1525.48 363.896 1522 357.299 1514.55 352.338C1502.92 344.597 1487.69 344.48 1474.37 342.371C1444.99 337.714 1413.41 335.871 1383.6 337.994C1363.26 339.438 1339.18 344.911 1318.32 350.399C1304.63 353.995 1286.34 360.134 1274.75 371.253C1269.03 376.736 1264.95 383.706 1259.07 389.001C1250.54 396.689 1240.49 404.777 1231.37 411.231C1219.02 419.982 1205.18 426.161 1193.09 435.639C1180.05 445.839 1168.51 457.38 1158.68 470.739C1121.08 521.937 1112.14 587.216 1124.45 648.506C1127.73 664.824 1132.42 680.883 1138.67 696.319C1145.68 713.612 1150.77 731.056 1157.11 748.549C1168.42 779.644 1192.84 809.928 1215.97 833.244C1239.66 857.127 1268.26 879.958 1299.33 893.311L1299.34 893.273Z" fill="url(#paint15_linear_2648_2510)" fill-opacity="0.5"/>
<path d="M355.858 -215.734C374.68 -182.305 402.275 -156.541 426.693 -127.394C439.342 -112.294 453.058 -95.7048 464.475 -79.6269C475.542 -64.0384 477.695 -43.9649 487.858 -27.6694C504.307 -1.31651 535.15 16.4862 562.575 29.5365C587.973 41.6288 615.066 48.8281 643.069 51.2086C658.047 52.4951 672.895 51.0587 687.826 51.6584C702.795 52.2617 709.292 61.1459 720.869 69.0525C731.701 76.4498 743.609 79.4615 756.045 83.075C776.737 89.0749 788.739 102.481 803.449 117.254C828.161 142.071 854.014 165.693 878.586 190.781C903.33 216.037 929.401 239.756 961.243 255.686C998.069 274.117 1038.54 285.193 1078.31 295.234C1095.25 299.499 1113.04 302.123 1130.47 299.672C1149.57 296.987 1160.39 286.796 1175.16 275.573C1183.81 268.996 1175.07 254.339 1166.33 260.981C1151.92 271.938 1141.2 282.271 1122.12 283.422C1103.04 284.574 1084.81 279.329 1066.61 274.408C1031.31 264.884 995.835 254.869 963.422 237.613C931.622 220.682 906.226 194.926 881.465 169.251C858.647 145.606 833.954 124.051 811.042 100.586C801.384 90.7077 791.7 80.126 779.325 73.5812C766.141 66.5964 750.685 65.7366 737.404 59.1592C717.057 49.0808 709.385 34.4332 684.762 34.6789C623.489 35.2738 556.532 22.5921 512.038 -24.1873C497.132 -39.8511 494.678 -58.9877 485.692 -77.612C477.43 -94.7434 461.904 -109.691 450.504 -124.782C424.671 -158.996 391.678 -186.903 370.451 -224.586C365.065 -234.157 350.473 -225.323 355.86 -215.752L355.858 -215.734Z" fill="url(#paint16_linear_2648_2510)" fill-opacity="0.5"/>
<path d="M1376.18 984.65C1419.75 1029.27 1430.71 1090.58 1460.93 1143.36C1469.69 1158.67 1478.52 1174.09 1488.11 1188.95L1503.87 1179.41C1490.72 1158.41 1476.76 1137.95 1465.33 1115.81C1450.07 1086.23 1442.25 1053.49 1426.62 1024.21C1414.13 1000.78 1395.77 977.597 1375.33 960.573C1354.93 943.591 1331.41 933.806 1306.52 925.421C1272.32 913.921 1248.94 894.428 1224.37 868.564C1176.93 818.594 1136.77 766.898 1115.53 700.141C1105.66 669.13 1103.63 637.072 1103.42 604.758C1103.23 575.1 1100.7 543.125 1111.35 514.819C1116.87 500.163 1128.42 478.597 1109.37 468.04C1100.45 463.106 1091.63 468.85 1082.82 465.897C1072.27 462.375 1062.05 453.029 1052.42 447.248C1038.63 438.952 1016.34 426.882 1002.02 441.182C988.966 454.223 1000.07 475.197 1002.25 490.157C1003.84 501.002 1020.25 496.232 1018.67 485.52C1017.53 477.79 1012.9 468.862 1013.26 461.128C1014.09 443.887 1033.6 455.911 1042.29 461.032C1055.56 468.859 1071.15 486.409 1087.37 485.677C1089.83 485.559 1094.75 482.746 1096.77 483.381C1106.42 486.435 1100.34 497.321 1098.13 502.504C1094.13 511.89 1091.24 521.213 1089.47 531.31C1085 556.682 1086.22 582.52 1086.37 608.138C1086.68 665.555 1099.58 716.801 1125.95 767.878C1153.07 820.393 1193.84 866.502 1237.64 905.879C1278.77 942.89 1337.08 944.542 1376.19 984.612L1376.18 984.65Z" fill="url(#paint17_linear_2648_2510)" fill-opacity="0.5"/>
<path d="M1207.99 966.181C1219.9 969.478 1223.25 973.029 1230.39 982.545C1240.99 996.666 1256.31 1004.66 1272.24 1011.51C1290.45 1019.37 1307.83 1027.51 1324.61 1038.2C1333.68 1043.99 1344.32 1050.08 1352.15 1057.52C1362.67 1067.52 1367.2 1081.18 1371.66 1094.56C1379.2 1117.08 1389.44 1134.54 1403.15 1153.89C1413.86 1169.01 1419.19 1184.6 1426.17 1201.49C1429.15 1208.72 1432.63 1214.94 1436.69 1220.1L1451.38 1211.2C1442.78 1201.78 1438.87 1185.99 1433.44 1172.87C1421.58 1144.19 1399.06 1123.13 1389.14 1093.17C1384.33 1078.68 1379.66 1063.95 1370 1051.85C1361.61 1041.36 1349.31 1034.06 1338.22 1026.77C1325.44 1018.35 1312.28 1010.53 1298.35 1004.2C1282.85 997.133 1264.85 992.044 1251.71 980.78C1242.31 972.728 1238.23 959.533 1226.9 953.641C1216.65 948.291 1204.85 949.346 1194.52 943.571C1167.13 928.287 1147.55 899.674 1132.47 873.021C1100.45 816.44 1084.21 752.015 1066.64 689.904C1055.83 651.694 1048.21 612.642 1036.59 574.654C1031.52 558.141 1021.23 540.316 1030.74 523.42C1038.05 510.4 1050.91 511.403 1052.06 529.179C1052.51 536.33 1050.73 543.774 1050.3 550.913C1049.61 561.894 1066.66 561.547 1067.36 550.661C1068.61 530.848 1072.27 492.339 1040.07 496.651C1018.73 499.513 1007.37 526.158 1009.53 545.361C1011.57 563.471 1021.32 582.303 1026.13 600.023C1032.46 623.294 1037.74 646.84 1043.71 670.209C1053.42 708.102 1064.34 745.926 1076.44 783.108C1096.83 845.819 1127.19 928.749 1190.23 960.944C1196.04 963.904 1201.84 964.476 1208.06 966.207L1207.99 966.181Z" fill="url(#paint18_linear_2648_2510)" fill-opacity="0.5"/>
<path d="M1507.15 582.727C1520.74 573.51 1532.14 557.046 1538.2 541.932C1545.69 523.226 1537.18 512.665 1527.3 497.345C1506.47 465.008 1478.98 432.431 1435.58 441.098C1423.98 443.423 1414.11 450.088 1403.43 454.853C1387.85 461.771 1370.9 465.35 1355.13 472.078C1332.56 481.698 1312.16 492.689 1294.53 509.94C1276.22 527.846 1258.77 545.116 1242.98 565.26C1233.03 577.944 1222.66 591.135 1220.45 607.576C1219.3 616.199 1221.19 623.284 1223.21 631.537C1225.62 641.459 1225.45 651.089 1228.87 660.977C1235.99 681.597 1244.93 702.605 1255.73 721.521C1269.06 744.895 1287.22 767.929 1307.44 785.822C1314.74 792.284 1323.25 794.601 1332.02 798.914C1343.66 804.648 1353.97 812.922 1366.11 817.416C1384.34 824.159 1402.1 832.03 1420.58 838.381C1437.42 844.172 1451.28 854.294 1468.48 843.992C1473.76 840.836 1477.03 835.908 1481 831.733C1492.03 820.198 1506.28 818.475 1520.67 813.316C1530.96 809.63 1541 808.895 1551.42 806.264C1564.36 803.01 1577.05 796.737 1589.18 791.204C1648.87 763.959 1699.35 722.673 1748.67 680.116C1771.8 660.147 1789.53 635.21 1809.97 612.625C1827.71 593.014 1836.02 569.443 1842.34 544.215C1845 533.542 1828.44 529.466 1825.78 540.138C1820.74 560.318 1814.84 580.166 1801.42 596.507C1787.25 613.759 1772.5 631.295 1757.68 648.029C1726.47 683.272 1684.3 714.178 1645.31 740.203C1625.64 753.331 1605.07 765.12 1583.6 775.077C1572.66 780.157 1560.86 786.007 1549.09 789.074C1539.87 791.482 1530.9 791.753 1521.81 794.799C1505.05 800.388 1487.61 803.141 1474.15 814.911C1461.48 825.981 1460.96 834.76 1441.78 828.208C1408.47 816.814 1377.43 802.366 1346.18 786.911C1326.88 777.372 1313.25 768.258 1298.64 751.828C1279.52 730.328 1265.85 706.486 1254.89 679.992C1249.26 666.379 1243.44 653.544 1241.98 638.902C1241.19 630.922 1237.48 623.601 1237.08 615.563C1236.6 605.813 1241 597.074 1246.26 589.159C1254.98 575.994 1265.86 561.583 1277.07 550.539C1292.94 534.895 1309.48 516.303 1328.29 504.284C1353.59 488.129 1382.34 482.7 1409.33 470.956C1432.91 460.677 1451.74 450.423 1476.57 464.601C1496.27 475.847 1506.14 496.131 1518.38 514.167C1530.41 531.897 1514.64 557.122 1498.4 568.124C1489.34 574.262 1498.11 588.886 1507.23 582.715L1507.15 582.727Z" fill="url(#paint19_linear_2648_2510)" fill-opacity="0.5"/>
<path d="M1238.28 532.389C1257.94 502.961 1288.78 480.396 1318 461.197C1327.8 454.754 1337.94 448.058 1348.7 443.281C1369.36 434.06 1392.74 432.744 1414.38 426.822C1424.99 423.907 1420.32 407.49 1409.74 410.408C1387.21 416.583 1363.4 418.197 1341.87 427.788C1329 433.532 1317 441.332 1305.35 449.148C1274.85 469.624 1243.9 493.41 1223.3 524.26C1217.2 533.382 1232.23 541.496 1238.3 532.41L1238.28 532.389Z" fill="url(#paint20_linear_2648_2510)" fill-opacity="0.5"/>
<path d="M1222.18 328.72C1193.73 344.678 1161.55 367.755 1127.57 367.211C1098.01 366.743 1076.02 353.034 1054.51 334.749C1046.85 328.233 1038.88 323.922 1028.92 321.88C1017 319.435 1003.91 321.614 992.62 316.388C982.145 311.528 973.909 301.449 965.279 294.022C953.242 283.663 940.471 274.218 927.851 264.579C904.145 246.475 879.113 228.373 857.784 207.49C838.134 188.232 823.831 164.327 806.642 142.98C791.818 124.557 774.964 107.887 752.804 98.71C727.894 88.4092 700.502 86.1648 675.594 76.0348C665.536 71.9356 657.259 86.8876 667.446 91.0185C694.048 101.846 723.689 103.763 749.766 115.884C777.473 128.772 795.438 155.711 812.952 179.534C830.264 203.091 848.377 223.335 871.319 241.686C896.757 262.026 923.2 281.196 948.273 301.974C965.39 316.169 978.712 332.719 1001.62 336.208C1019.99 339.004 1031.96 338.137 1046.88 350.997C1054.39 357.479 1061.52 364.171 1070.27 369.013C1090.67 380.29 1117.69 386.687 1140.8 383.335C1173.55 378.565 1202.75 359.193 1230.97 343.345C1240.56 337.96 1231.71 323.386 1222.14 328.753L1222.18 328.72Z" fill="url(#paint21_linear_2648_2510)" fill-opacity="0.5"/>
<path d="M1074.06 336.072C1094.17 346.241 1118.23 349.597 1140.5 346.542C1166.36 342.988 1184.34 325.561 1204.76 310.954C1229.19 293.481 1261.29 288.551 1289.95 281.388C1322.01 273.366 1355.76 267.216 1388.73 264.969C1417.62 263.002 1446.45 266.337 1475.22 268.527C1504.07 270.726 1532.6 267.207 1561.25 268.78C1592.24 270.488 1622.62 279.907 1653.17 284.851C1683.3 289.734 1716.91 293.084 1744.32 307.478C1773.69 322.899 1793.16 354.78 1800.99 386.31C1805.42 404.202 1803.71 421.411 1801.94 439.507C1800.77 451.425 1801.81 465.212 1797.82 476.549C1794.18 486.917 1810.77 490.902 1814.38 480.625C1817.43 471.962 1817.23 461.898 1817.89 452.848C1818.9 439.169 1821.13 425.517 1821.1 411.793C1821.02 384.589 1811.63 357.7 1797.03 334.903C1761.96 280.164 1700.08 276.226 1641.56 265.626C1612.83 260.426 1584.37 251.917 1554.98 251.465C1523.93 250.983 1493.74 253.012 1462.58 250.433C1431.43 247.856 1400.63 245.713 1369.52 249.924C1335.83 254.469 1302.68 260.488 1269.77 269.033C1237.58 277.384 1210.57 284.937 1183.94 305.491C1169.07 316.969 1154.38 328.181 1135.05 330.067C1117.28 331.802 1098.19 329.144 1082.19 321.067C1072.41 316.123 1064.21 331.083 1074.04 336.07L1074.06 336.072Z" fill="url(#paint22_linear_2648_2510)" fill-opacity="0.5"/>
<path d="M1685.89 557.565C1679.88 570.637 1663.84 578.778 1652.18 586.139C1638.34 594.876 1625.01 603.892 1611.52 613.156C1591.39 626.978 1569.86 638.521 1548.03 649.35C1528.86 658.87 1509.66 670.794 1488.88 676.403C1445.78 688.056 1403.63 661.16 1388.32 620.535C1381.5 602.428 1381.37 584.297 1395.41 569.572C1402.91 561.707 1422.13 545.711 1433.69 549.939C1431.53 547.225 1429.35 544.509 1427.2 541.794C1423.62 573.281 1401.31 610.255 1426.56 638.271C1453.57 668.223 1494.67 667.156 1527.17 648.281C1573.55 621.353 1613.74 584.019 1657.47 553.229C1666.37 546.961 1672.87 538.847 1680.88 531.619C1692.32 521.319 1703.71 525.114 1716.67 520.8C1735.52 514.527 1735.2 495.051 1739.86 478.871C1745.61 458.989 1750.66 438.905 1743.48 418.696C1736.87 400.041 1724.52 382.108 1708.54 370.319C1688.78 355.712 1662.68 353.253 1639.08 349.393C1626.47 347.336 1613.48 346.264 1601.08 343.146C1588.8 340.06 1570.95 336.899 1561.59 328.281C1553.8 321.128 1549.01 312.62 1539.08 307.851C1529.7 303.345 1519.03 302.028 1508.84 300.853C1480.58 297.576 1451.93 295.435 1423.49 295.19C1370.66 294.741 1316.54 303.243 1270.63 330.842C1245.07 346.194 1225.16 368.452 1200.47 385.123C1181.61 397.857 1162.01 410.954 1140.04 417.582C1109.98 426.654 1085.7 414.008 1059.83 398.952C1046.89 391.422 1037.08 380.601 1024.93 372.145C1013.33 364.066 1000.06 358.948 987.252 353.138C977.31 348.633 969.072 363.57 979.102 368.14C989.369 372.81 1000.19 376.852 1009.87 382.676C1019.64 388.547 1027.09 396.786 1036.07 403.679C1052.92 416.597 1075.19 428.93 1095.45 435.248C1126.76 445.004 1159.29 430.699 1185.91 414.844C1199.82 406.549 1213.49 397.435 1226.73 388.089C1248.26 372.908 1264.43 353.238 1288.1 340.542C1334.86 315.471 1388.72 310.697 1440.87 312.69C1465.84 313.654 1492.38 314.393 1516.93 319.086C1529.45 321.476 1537.71 327.237 1546.29 336.591C1552.64 343.527 1558.44 348.875 1567.57 351.594C1588.84 357.916 1609.82 361.917 1631.72 365.44C1656.16 369.364 1684.79 371.219 1703.83 388.56C1721.01 404.201 1732.87 427.525 1729.27 450.992C1727.89 460.028 1724.87 468.695 1722.45 477.459C1721.16 482.126 1720.67 487.896 1718.97 492.372C1714.69 503.738 1708.48 504.623 1698.08 505.721C1681.52 507.462 1671.79 516.927 1660.47 528.186C1640.69 547.862 1614.11 563.379 1592.11 580.845C1572.91 596.085 1553.02 610.442 1532.83 624.315C1513.72 637.442 1492.36 650.005 1468.29 643.786C1444.1 637.555 1428.38 620.541 1432.44 595.546C1435.39 577.283 1442.08 560.033 1444.18 541.535C1444.63 537.524 1440.94 534.583 1437.69 533.391C1422.42 527.792 1403.66 540.991 1392.34 549.73C1378.29 560.57 1367.8 575.228 1366.45 593.383C1363.35 635.378 1399.21 678.237 1437.24 691.611C1461.42 700.115 1486.87 696.616 1510.08 686.869C1537.03 675.557 1563.65 661.371 1589.11 647.069C1612.6 633.863 1634 617.532 1656.86 603.296C1672.08 593.804 1692.94 582.878 1700.83 565.709C1705.39 555.791 1690.43 547.552 1685.83 557.559L1685.89 557.565Z" fill="url(#paint23_linear_2648_2510)" fill-opacity="0.5"/>
<path d="M1138.05 853.293C1154.31 879.097 1178.32 911.994 1207.69 924.137C1217.73 928.29 1226 913.338 1215.84 909.153C1189.36 898.205 1167.16 867.533 1152.64 844.459C1146.79 835.184 1132.19 843.978 1138.05 853.293Z" fill="url(#paint24_linear_2648_2510)" fill-opacity="0.5"/>
<path d="M1256.3 962.473C1290.45 976.698 1328.5 984.75 1357.49 1008.93C1365.88 1015.91 1377.69 1003.58 1369.21 996.531C1338.75 971.148 1300.27 962.409 1264.42 947.487C1254.39 943.315 1246.12 958.248 1256.27 962.49L1256.3 962.473Z" fill="url(#paint25_linear_2648_2510)" fill-opacity="0.5"/>
<defs>
<linearGradient id="paint0_linear_2648_2510" x1="419.452" y1="-27.3073" x2="314.031" y2="-31.2378" gradientUnits="userSpaceOnUse">
<stop stop-color="#BDC0C0" stop-opacity="0.8"/>
<stop offset="1" stop-color="#DBDEDE" stop-opacity="0"/>
</linearGradient>
<linearGradient id="paint1_linear_2648_2510" x1="1461.09" y1="111.821" x2="1245.07" y2="164.221" gradientUnits="userSpaceOnUse">
<stop stop-color="#BDC0C0" stop-opacity="0.8"/>
<stop offset="1" stop-color="#DBDEDE" stop-opacity="0"/>
</linearGradient>
<linearGradient id="paint2_linear_2648_2510" x1="1184.77" y1="-21.7452" x2="931.47" y2="-7.93952" gradientUnits="userSpaceOnUse">
<stop stop-color="#BDC0C0" stop-opacity="0.8"/>
<stop offset="1" stop-color="#DBDEDE" stop-opacity="0"/>
</linearGradient>
<linearGradient id="paint3_linear_2648_2510" x1="1147.4" y1="92.3164" x2="821.028" y2="105.385" gradientUnits="userSpaceOnUse">
<stop stop-color="#BDC0C0" stop-opacity="0.8"/>
<stop offset="1" stop-color="#DBDEDE" stop-opacity="0"/>
</linearGradient>
<linearGradient id="paint4_linear_2648_2510" x1="1095.31" y1="151.589" x2="742.53" y2="163.131" gradientUnits="userSpaceOnUse">
<stop stop-color="#BDC0C0" stop-opacity="0.8"/>
<stop offset="1" stop-color="#DBDEDE" stop-opacity="0"/>
</linearGradient>
<linearGradient id="paint5_linear_2648_2510" x1="731.87" y1="112.319" x2="599.695" y2="121.148" gradientUnits="userSpaceOnUse">
<stop stop-color="#BDC0C0" stop-opacity="0.8"/>
<stop offset="1" stop-color="#DBDEDE" stop-opacity="0"/>
</linearGradient>
<linearGradient id="paint6_linear_2648_2510" x1="1306.25" y1="587.041" x2="185.761" y2="555.535" gradientUnits="userSpaceOnUse">
<stop stop-color="#BDC0C0" stop-opacity="0.8"/>
<stop offset="1" stop-color="#DBDEDE" stop-opacity="0"/>
</linearGradient>
<linearGradient id="paint7_linear_2648_2510" x1="1324.75" y1="721.837" x2="699.551" y2="689.45" gradientUnits="userSpaceOnUse">
<stop stop-color="#BDC0C0" stop-opacity="0.8"/>
<stop offset="1" stop-color="#DBDEDE" stop-opacity="0"/>
</linearGradient>
<linearGradient id="paint8_linear_2648_2510" x1="1204.01" y1="642.083" x2="152.329" y2="606.424" gradientUnits="userSpaceOnUse">
<stop stop-color="#BDC0C0" stop-opacity="0.8"/>
<stop offset="1" stop-color="#DBDEDE" stop-opacity="0"/>
</linearGradient>
<linearGradient id="paint9_linear_2648_2510" x1="1297.07" y1="1096.55" x2="1232.18" y2="1094.49" gradientUnits="userSpaceOnUse">
<stop stop-color="#BDC0C0" stop-opacity="0.8"/>
<stop offset="1" stop-color="#DBDEDE" stop-opacity="0"/>
</linearGradient>
<linearGradient id="paint10_linear_2648_2510" x1="1843.06" y1="-69.2484" x2="134.883" y2="-80.9358" gradientUnits="userSpaceOnUse">
<stop stop-color="#BDC0C0" stop-opacity="0.8"/>
<stop offset="1" stop-color="#DBDEDE" stop-opacity="0"/>
</linearGradient>
<linearGradient id="paint11_linear_2648_2510" x1="2027.19" y1="185.366" x2="287.586" y2="210.72" gradientUnits="userSpaceOnUse">
<stop stop-color="#BDC0C0" stop-opacity="0.8"/>
<stop offset="1" stop-color="#DBDEDE" stop-opacity="0"/>
</linearGradient>
<linearGradient id="paint12_linear_2648_2510" x1="2099.61" y1="317.065" x2="608.058" y2="379.867" gradientUnits="userSpaceOnUse">
<stop stop-color="#BDC0C0" stop-opacity="0.8"/>
<stop offset="1" stop-color="#DBDEDE" stop-opacity="0"/>
</linearGradient>
<linearGradient id="paint13_linear_2648_2510" x1="1774.72" y1="520.583" x2="483.557" y2="518.143" gradientUnits="userSpaceOnUse">
<stop stop-color="#BDC0C0" stop-opacity="0.8"/>
<stop offset="1" stop-color="#DBDEDE" stop-opacity="0"/>
</linearGradient>
<linearGradient id="paint14_linear_2648_2510" x1="1601.58" y1="721.813" x2="1150.83" y2="698.897" gradientUnits="userSpaceOnUse">
<stop stop-color="#BDC0C0" stop-opacity="0.8"/>
<stop offset="1" stop-color="#DBDEDE" stop-opacity="0"/>
</linearGradient>
<linearGradient id="paint15_linear_2648_2510" x1="1750.75" y1="667.188" x2="1113.55" y2="636.671" gradientUnits="userSpaceOnUse">
<stop stop-color="#BDC0C0" stop-opacity="0.8"/>
<stop offset="1" stop-color="#DBDEDE" stop-opacity="0"/>
</linearGradient>
<linearGradient id="paint16_linear_2648_2510" x1="1094.07" y1="49.4983" x2="335.364" y2="70.141" gradientUnits="userSpaceOnUse">
<stop stop-color="#BDC0C0" stop-opacity="0.8"/>
<stop offset="1" stop-color="#DBDEDE" stop-opacity="0"/>
</linearGradient>
<linearGradient id="paint17_linear_2648_2510" x1="1470.7" y1="799.537" x2="963.806" y2="777.023" gradientUnits="userSpaceOnUse">
<stop stop-color="#BDC0C0" stop-opacity="0.8"/>
<stop offset="1" stop-color="#DBDEDE" stop-opacity="0"/>
</linearGradient>
<linearGradient id="paint18_linear_2648_2510" x1="1425.63" y1="843.88" x2="980.792" y2="821.892" gradientUnits="userSpaceOnUse">
<stop stop-color="#BDC0C0" stop-opacity="0.8"/>
<stop offset="1" stop-color="#DBDEDE" stop-opacity="0"/>
</linearGradient>
<linearGradient id="paint19_linear_2648_2510" x1="1756.53" y1="654.667" x2="1219.12" y2="655.032" gradientUnits="userSpaceOnUse">
<stop stop-color="#BDC0C0" stop-opacity="0.8"/>
<stop offset="1" stop-color="#DBDEDE" stop-opacity="0"/>
</linearGradient>
<linearGradient id="paint20_linear_2648_2510" x1="1392.19" y1="473.347" x2="1228.11" y2="471.267" gradientUnits="userSpaceOnUse">
<stop stop-color="#BDC0C0" stop-opacity="0.8"/>
<stop offset="1" stop-color="#DBDEDE" stop-opacity="0"/>
</linearGradient>
<linearGradient id="paint21_linear_2648_2510" x1="1171.48" y1="244.22" x2="654.035" y2="269.824" gradientUnits="userSpaceOnUse">
<stop stop-color="#BDC0C0" stop-opacity="0.8"/>
<stop offset="1" stop-color="#DBDEDE" stop-opacity="0"/>
</linearGradient>
<linearGradient id="paint22_linear_2648_2510" x1="1734.43" y1="364.091" x2="1090.96" y2="451.482" gradientUnits="userSpaceOnUse">
<stop stop-color="#BDC0C0" stop-opacity="0.8"/>
<stop offset="1" stop-color="#DBDEDE" stop-opacity="0"/>
</linearGradient>
<linearGradient id="paint23_linear_2648_2510" x1="1646.81" y1="495.521" x2="968.053" y2="515.566" gradientUnits="userSpaceOnUse">
<stop stop-color="#BDC0C0" stop-opacity="0.8"/>
<stop offset="1" stop-color="#DBDEDE" stop-opacity="0"/>
</linearGradient>
<linearGradient id="paint24_linear_2648_2510" x1="1212.77" y1="882.37" x2="1133.71" y2="880.633" gradientUnits="userSpaceOnUse">
<stop stop-color="#BDC0C0" stop-opacity="0.8"/>
<stop offset="1" stop-color="#DBDEDE" stop-opacity="0"/>
</linearGradient>
<linearGradient id="paint25_linear_2648_2510" x1="1359.02" y1="980.948" x2="1250.68" y2="986.644" gradientUnits="userSpaceOnUse">
<stop stop-color="#BDC0C0" stop-opacity="0.8"/>
<stop offset="1" stop-color="#DBDEDE" stop-opacity="0"/>
</linearGradient>
</defs>
</svg>
