<svg width="14" height="15" viewBox="0 0 14 15" fill="none" xmlns="http://www.w3.org/2000/svg">
<path d="M6.97904 11.0937L3.74988 7.86458L4.27071 7.34374L6.61446 9.6875V0.520828H7.34363V9.6875L9.68738 7.34374L10.2082 7.86458L6.97904 11.0937ZM1.56238 14.4792C1.11099 14.4792 0.737725 14.3316 0.442586 14.0365C0.147447 13.7413 -0.00012207 13.3681 -0.00012207 12.9167V10.5729H0.729045V12.9167C0.729045 13.125 0.81585 13.316 0.989461 13.4896C1.16307 13.6632 1.35404 13.75 1.56238 13.75H12.3957C12.604 13.75 12.795 13.6632 12.9686 13.4896C13.1422 13.316 13.229 13.125 13.229 12.9167V10.5729H13.9582V12.9167C13.9582 13.3681 13.8106 13.7413 13.5155 14.0365C13.2204 14.3316 12.8471 14.4792 12.3957 14.4792H1.56238Z" fill="#222F33"/>
</svg>
