<svg width="390" height="306" viewBox="0 0 390 306" fill="none" xmlns="http://www.w3.org/2000/svg">
<mask id="mask0_2906_875" style="mask-type:alpha" maskUnits="userSpaceOnUse" x="0" y="0" width="390" height="306">
<rect width="390" height="306" fill="#21654E"/>
</mask>
<g mask="url(#mask0_2906_875)">
<path d="M350.033 -145.44C351.185 -139.77 352.168 -136.939 353.251 -132.487C353.981 -129.479 356.004 -126.91 356.769 -123.912C357.657 -120.435 357.194 -115.024 356.202 -111.571C354.373 -105.228 353.161 -99.8473 353.402 -93.246C353.575 -88.5169 353.586 -84.6621 354.194 -79.9725C355.703 -68.2923 351.998 -56.6441 350.831 -44.9227C349.753 -34.0771 348.879 -23.759 352.124 -13.3518C352.492 -12.1644 354.896 -10.2257 355.631 -9.22477C356.455 -8.09909 357.676 -7.25568 358.233 -5.97616C358.79 -4.69664 358.103 -2.7485 356.712 -2.85386" stroke="url(#paint0_linear_2906_875)" stroke-width="6" stroke-miterlimit="10" stroke-linecap="round"/>
<path d="M333.112 20.9428C337.868 26.2849 340.816 30.4187 342.62 36.7994C343.848 41.1578 345.347 45.3998 346.903 49.6485C348.515 54.0417 351.203 57.4318 354.077 61.0196C360.377 68.8826 364.584 73.9379 371.908 80.7844C375.193 83.8555 380.091 90.3025 382.916 93.7882C385.797 97.3412 387.653 100.883 387.871 105.347C388.108 110.296 388.059 115.628 389.683 120.375C390.476 122.702 391.575 127.172 394.422 127.398" stroke="url(#paint1_linear_2906_875)" stroke-width="6" stroke-miterlimit="10" stroke-linecap="round"/>
<path d="M290.614 -170.318C292.413 -165.656 296.281 -161.208 296.921 -155.967C297.529 -151.014 295.578 -145.496 294.1 -140.962C290.226 -129.087 290.778 -117.161 290.685 -104.733C290.582 -90.8622 284.242 -77.4031 283.441 -63.4719C283.094 -57.4439 283.498 -51.793 282.149 -45.7109C280.389 -37.7599 279.36 -30.8127 280.729 -22.6285C282.041 -14.7756 282.673 -6.94346 285.415 0.48237C287.214 5.34759 288.18 11.7655 291.199 16.0565" stroke="url(#paint2_linear_2906_875)" stroke-width="6" stroke-linecap="round" stroke-linejoin="round"/>
<path d="M282.396 -397.582C271.389 -375.657 264.63 -349.814 255.217 -326.349C247.693 -307.588 253.407 -281.956 257.773 -262.237C260.374 -250.498 267.924 -243.239 276.152 -234.706C284.132 -226.436 292.473 -217.191 297.314 -206.546C306.662 -185.998 315.227 -165.19 313.605 -142.202C312.857 -131.599 309.17 -119.087 309.66 -107.475C310.054 -98.15 310.966 -91.8767 311.089 -82.5565C311.234 -71.7199 304.032 -61.3932 304.866 -50.6313C305.829 -38.2002 300.413 -23.0325 300.568 -11.3192C300.871 11.1419 311.093 26.2576 318.401 46.314C326.026 67.242 351.136 84.6606 361.148 104.614C371.023 124.301 367.948 131.736 384.296 146.93C407.284 168.303 402.729 190.802 419.266 211.831C432.442 228.579 435.539 247.071 438.999 268.779C440.712 279.52 440.155 292.556 446.373 304.546C452.592 316.536 449.256 321.007 446.34 336.621C441.438 362.873 420.286 385.658 399.332 400.363C378.063 415.288 356.174 422.093 335.921 441.753C318.018 459.129 304.649 448.204 285.42 453.043C276.421 455.306 257.139 445.898 248.586 451.509" stroke="url(#paint3_linear_2906_875)" stroke-width="6" stroke-linecap="round" stroke-linejoin="round"/>
<path d="M364.026 954.669C364.052 932.125 369.718 920.128 374.514 898.097C379.508 875.162 392.711 860.161 386.086 839.311C383.418 830.915 359.616 789.889 355.056 782.346C340.36 758.02 347.983 753.241 327.795 733.234C317.426 722.961 302.668 720.903 290.483 714.7C274.856 706.753 261.905 694.759 251.308 679.331C232.058 651.297 234.417 625.029 262.011 600.445C269.118 594.112 278.833 572.593 287.733 569.219C300.224 564.482 316.714 566.487 330.06 565.901C358.126 564.673 361.676 554.132 398.255 551.409C412.334 550.363 435.723 532.582 448.665 526.862C464.91 519.684 473.178 508.989 486.931 500.369C517.662 481.111 543.781 441.464 548.13 406.711C552.294 373.458 556.927 342.903 539.091 313.089C532.065 301.348 512.184 287.244 508.625 274.041C506.659 266.748 507 260.82 506.696 253.945C506.369 246.652 499.303 235.971 496.421 229.38C484.034 201.095 476.4 179.658 465.104 159.159C457.662 145.662 444.424 132.7 434.719 120.622C425.179 108.748 422.542 94.331 414.867 80.72C406.581 66.0198 401.274 58.3744 391.372 45.3984C380.352 30.9527 380.595 20.8036 379.996 3.35122C379.37 -14.7368 370.318 -24.3575 374.379 -43.9047C378.267 -62.6198 373.443 -78.1818 376.519 -97.4265C379.195 -114.201 389.649 -123.24 382.165 -138.578C374.7 -153.866 372.209 -147.412 366.977 -157.177C363.526 -163.616 359.905 -165.048 360.14 -175.986C360.603 -197.68 349.71 -205.949 337.689 -222.408C329.645 -233.414 319.357 -244.758 312.723 -256.472C309.508 -262.156 301.015 -272.481 298.561 -278.44" stroke="url(#paint4_linear_2906_875)" stroke-width="6" stroke-miterlimit="10" stroke-linecap="round"/>
<path d="M709.776 535.69C704.096 527.067 698.854 518.679 695.894 508.454C693.345 499.657 691.441 490.787 685.891 483.305C670.804 462.97 636.88 425.107 626.898 398.09C620.88 381.804 602.966 381.686 595.222 366.197C580.852 337.465 592.523 340.619 578.408 321.205C571 311.012 567.997 300.42 561.441 289.427C556.69 281.462 551.24 273.756 545.612 267.087C540.457 260.972 532.098 257.546 526.934 251.934C522.319 246.912 521.615 235.796 518.253 229.503C508.768 211.761 497.937 174.931 487.044 157.248C463.624 119.23 450.253 116.416 439.598 88.0349C432.328 68.677 404.389 37.0689 405.778 15.2425C407.053 -4.79474 407.043 -20.399 400.384 -40.0415C393.828 -59.3817 404.087 -75.1987 402.879 -96.0106C402.182 -108.024 398.893 -138.615 416.981 -138.483C425.575 -138.422 427.561 -132.261 436.484 -134.729C446.24 -137.431 449.016 -145.55 459.894 -141.337C472.758 -136.354 477.082 -128.769 491.545 -133.859C501.846 -137.482 507.589 -138.79 518.39 -138.497C527.879 -138.236 535.761 -139.788 543.892 -144.247" stroke="url(#paint5_linear_2906_875)" stroke-width="6" stroke-miterlimit="10" stroke-linecap="round"/>
<path d="M528.852 278.228C550.376 293.255 562.205 324.009 572.658 347.515C585.15 375.596 578.88 400.247 564.322 436.67C552.192 467.018 520.503 483.725 501.994 510.424C493.774 522.282 484.825 531.462 472.257 539.236C459.826 546.925 447.801 555.945 435.186 562.826C423.674 569.103 406.166 566.892 396.988 576.671C387.608 586.664 368.423 586.743 352.38 588.256C338.471 589.565 323.26 582.617 309.955 585.544C296.093 588.594 284.154 602.816 270.473 616.116C244.482 641.391 265.946 672.767 290.587 688.064C302.347 695.365 316.533 704.621 330.598 705.43" stroke="url(#paint6_linear_2906_875)" stroke-width="6" stroke-miterlimit="10" stroke-linecap="round"/>
<path d="M307.17 -228.088C321.754 -205.837 332.873 -180.339 332.851 -152.037C332.83 -127.874 326.165 -133.243 331.373 -86.6744C334.26 -60.8447 322.352 -51.263 323.854 -28.7166C324.993 -11.6286 322.141 -5.72069 336.02 2.12298C347.787 8.77378 361.051 24.9482 366.711 36.9449C372.183 48.5469 376.277 55.1929 384.281 65.0062C390.646 72.8025 399.735 81.8689 404.424 91.0814C410.039 102.112 406.549 112.076 409.104 122.679C412.274 135.821 424.421 137.941 434.015 146.778C452.689 163.987 456.74 189.604 471.255 210.571C485.71 231.46 481.719 251.675 488.927 287.168C493.722 310.788 530.177 313.918 530.648 339.384C531.077 362.685 527.143 400.773 516.205 421.932C503.679 446.165 499.158 459.626 477.985 478.109C466.936 487.758 457.587 498.682 442.83 503.23C428.658 507.599 419.702 514.373 408.291 521.788C398.95 527.863 380.718 532.259 369.754 532.361C356.643 532.489 340.636 538.482 325.815 538.749C307.494 539.08 308.401 539.838 289.719 542.761C284.192 543.626 273.456 542.815 268.451 540.749C258.749 536.738 255.289 536.973 249.992 537.447C242.043 538.154 226.599 553.365 220.502 558.955C209.464 569.074 207.133 584.986 205.589 599.364C204.23 611.972 193.188 622.036 192.184 633.587C190.982 647.478 197.538 661.669 205.372 671.566C213.665 682.049 227.366 686.544 240.553 691.518" stroke="url(#paint7_linear_2906_875)" stroke-width="6" stroke-miterlimit="10" stroke-linecap="round"/>
<path d="M67.8088 471.973C67.608 468.229 64.9756 462.301 65.7969 458.619C66.8125 454.083 71.7407 449.751 74.0148 445.707C78.8272 437.169 82.1461 427.877 89.0408 420.199C96.417 411.979 106.453 414.016 115.725 415.005C126.728 416.178 142.402 420.815 153.184 423.79C198.191 436.218 227.49 464.775 276.688 471.881C302.287 475.579 333.011 469.445 355.698 457.288C377.309 445.711 395.672 431.591 415.404 416.632C435.922 401.078 450.096 382.953 459.28 357.857C466.8 337.311 476.533 310.837 466.591 290.881C451.951 261.491 466.608 242.583 453.068 225.273C436.865 204.572 430.34 184.262 421.672 163.663C419.975 159.628 419.038 153.916 409.73 150.332" stroke="url(#paint8_linear_2906_875)" stroke-width="6" stroke-miterlimit="10" stroke-linecap="round"/>
<path d="M240.114 -299.346C237.931 -273.163 236.999 -244.749 254.529 -224.343C258.979 -219.161 259.054 -215.802 262.561 -210.284C266.114 -204.691 272.676 -204.465 276.788 -199.682C284.933 -190.203 272.652 -176.048 274.176 -165.108C276.233 -150.376 269.302 -142.403 268.702 -128.542C268.093 -114.552 269.762 -100.2 267.14 -86.1547C264.964 -74.5039 257.828 -62.9307 257.462 -51.1275C257.26 -44.4788 260.514 -40.1466 261.555 -33.842C262.633 -27.3165 260.135 -23.1027 259.946 -17.04C259.547 -3.90875 271.027 9.28152 275.838 22.1488C280.649 35.016 282.378 45.6753 290.76 55.6458C309.915 78.4245 328.845 100.181 343.83 125.423C358.878 150.776 366.943 177.306 387.031 199.302C403.46 217.299 415.016 248.389 417.103 271.95C417.624 277.85 419.598 283.783 419.14 289.764C418.692 295.66 414.705 301.905 415.734 308.103C417.846 320.847 424.538 326.05 420.749 340.583C414.175 365.761 384.874 383.032 363.566 395.473C351.581 402.471 342.871 403.7 329.68 404.536C317.258 405.326 309.113 409.712 297.286 413.095C290.61 415.005 282.294 414.013 276.117 417.152C269.741 420.388 266.102 425.1 258.989 427.923C246.541 432.864 238.44 438.562 225.612 433.059C213.15 427.715 200.157 426.558 187.653 422.429C173.36 417.714 158.984 407.767 145.579 401.077C132.942 394.769 120.483 386.336 106.444 385.767C91.9418 385.174 69.5563 384.836 59.1705 396.775C49.2469 408.182 49.6588 423.789 49.209 437.697C48.5627 457.599 48.8387 467.346 58.1732 484.381C66.7837 500.088 61.5233 517.967 67.3685 534.47C72.719 549.577 85.8802 559.789 89.7007 576.488C97.4759 610.51 64.213 651.142 104.638 673.624C110.71 677.003 118.164 679.968 123.636 684.228C130.006 689.193 132.336 694.443 140.839 695.803C148.401 697.013 155.146 692.634 162.547 693.426C171.135 694.346 180.449 701.379 187.136 706.336C200.334 716.131 210.366 728.264 223.48 737.747C239.457 749.298 257.971 755.614 275.135 765.468C295.276 777.036 301.879 794.929 315.436 812.525C321.504 820.406 329.01 829.243 332.561 838.354C333.878 841.727 332.338 844.535 334.483 848.253C337.271 853.078 343.41 855.522 347.038 859.688C357.05 871.172 350.479 887.419 356.405 900.839C360.036 895.833 358.74 890.421 359.587 884.803C360.85 876.391 368.097 868.388 368.665 860.334C369.674 846.011 350.76 836.539 343.363 826.491C333.158 812.624 328.861 790.947 322.703 775.023C317.405 761.319 314.741 744.057 299.347 739.417C287.067 735.712 271.783 734.416 262.631 723.663" stroke="url(#paint9_linear_2906_875)" stroke-width="6" stroke-miterlimit="10" stroke-linecap="round"/>
</g>
<defs>
<linearGradient id="paint0_linear_2906_875" x1="333.995" y1="-144.888" x2="371.045" y2="-6.61451" gradientUnits="userSpaceOnUse">
<stop stop-color="#BDC0C0" stop-opacity="0.5"/>
<stop offset="1" stop-color="#BDC0C0" stop-opacity="0"/>
</linearGradient>
<linearGradient id="paint1_linear_2906_875" x1="347.61" y1="13.8717" x2="379.127" y2="131.496" gradientUnits="userSpaceOnUse">
<stop stop-color="#BDC0C0" stop-opacity="0.5"/>
<stop offset="1" stop-color="#BDC0C0" stop-opacity="0"/>
</linearGradient>
<linearGradient id="paint2_linear_2906_875" x1="266.744" y1="-168.759" x2="314.586" y2="9.78978" gradientUnits="userSpaceOnUse">
<stop stop-color="#BDC0C0" stop-opacity="0.5"/>
<stop offset="1" stop-color="#BDC0C0" stop-opacity="0"/>
</linearGradient>
<linearGradient id="paint3_linear_2906_875" x1="154.92" y1="-385.693" x2="375.187" y2="436.354" gradientUnits="userSpaceOnUse">
<stop stop-color="#BDC0C0" stop-opacity="0.5"/>
<stop offset="1" stop-color="#BDC0C0" stop-opacity="0"/>
</linearGradient>
<linearGradient id="paint4_linear_2906_875" x1="186.337" y1="-280.798" x2="507.107" y2="916.331" gradientUnits="userSpaceOnUse">
<stop stop-color="#BDC0C0" stop-opacity="0.5"/>
<stop offset="1" stop-color="#BDC0C0" stop-opacity="0"/>
</linearGradient>
<linearGradient id="paint5_linear_2906_875" x1="446.701" y1="-166.504" x2="639.872" y2="554.421" gradientUnits="userSpaceOnUse">
<stop stop-color="#BDC0C0" stop-opacity="0.5"/>
<stop offset="1" stop-color="#BDC0C0" stop-opacity="0"/>
</linearGradient>
<linearGradient id="paint6_linear_2906_875" x1="366.639" y1="311.993" x2="462.584" y2="670.064" gradientUnits="userSpaceOnUse">
<stop stop-color="#BDC0C0" stop-opacity="0.5"/>
<stop offset="1" stop-color="#BDC0C0" stop-opacity="0"/>
</linearGradient>
<linearGradient id="paint7_linear_2906_875" x1="122.6" y1="-407.048" x2="405.143" y2="647.416" gradientUnits="userSpaceOnUse">
<stop stop-color="#BDC0C0" stop-opacity="0.5"/>
<stop offset="1" stop-color="#BDC0C0" stop-opacity="0"/>
</linearGradient>
<linearGradient id="paint8_linear_2906_875" x1="220.046" y1="193.487" x2="295.927" y2="476.678" gradientUnits="userSpaceOnUse">
<stop stop-color="#BDC0C0" stop-opacity="0.5"/>
<stop offset="1" stop-color="#BDC0C0" stop-opacity="0"/>
</linearGradient>
<linearGradient id="paint9_linear_2906_875" x1="53.1893" y1="-281.187" x2="369.008" y2="897.462" gradientUnits="userSpaceOnUse">
<stop stop-color="#BDC0C0" stop-opacity="0.5"/>
<stop offset="1" stop-color="#BDC0C0" stop-opacity="0"/>
</linearGradient>
</defs>
</svg>
