<svg width="715" height="451" viewBox="0 0 715 451" fill="none" xmlns="http://www.w3.org/2000/svg">
<g clip-path="url(#clip0_2782_716)">
<path d="M1381.37 2012.35C1458.02 1921.84 1435.68 1789.2 1390.51 1682.34C1363.91 1619.41 1304.7 1550.65 1253.69 1488.51C1218.09 1445.14 1196.78 1400.51 1165.74 1371.88C1121.4 1331 1102.27 1334.1 1105.99 1271.39C1106.67 1259.82 1097.54 1246.24 1087.37 1239.66C1080.45 1235.19 1076.31 1224.33 1077.79 1216.22C1080.57 1200.9 1089.22 1201.1 1087.99 1184.22C1086.96 1170.08 1070.18 1159.41 1059.58 1149.74C1032.73 1125.24 1040.2 1113.23 1012.96 1087.94C968.152 1046.37 943.026 997.173 932.146 937.215C921.924 880.868 937.185 850.8 908.423 814.408C899.507 803.121 886.25 799.371 878.076 787.526C861.573 763.63 855.371 743.299 855.41 714.253C855.424 699.756 858.579 673.377 865.472 660.626C878.142 637.194 916.74 626.134 927.049 619.572C957.02 600.476 949.866 567.912 982.051 540.958C1010.54 517.085 1018.19 489.627 1026.9 459.235C1038.35 419.284 1030.2 381.925 1060.69 353.681C1084.66 331.464 1085.27 330.027 1106.51 322.156C1110.32 320.741 1109.71 315.149 1105.69 314.616C1061.85 308.75 1033.99 319.856 1005.42 353.848C984.888 378.286 976.406 405.015 952.005 441.851C935.639 466.547 924.164 471.391 916.513 526.995C915.2 536.506 912.684 545.868 908.415 554.463C879.308 613.044 825.84 546.897 770.401 601.11C761.34 609.974 744.22 629.178 741.668 641.595C732.285 687.316 763.75 681.558 768.648 718.589C771.794 742.388 783.252 779.789 824.01 800.813C856.092 817.353 860.227 863.735 869.74 884.318C897.686 944.827 899.68 1006.45 939.21 1060.12C969.827 1101.68 1021.93 1141.84 1029.62 1192.88" stroke="url(#paint0_linear_2782_716)" stroke-width="9" stroke-miterlimit="10" stroke-linecap="round"/>
<path d="M317.982 -152.378C351.853 -88.0974 351.832 -44.1546 396.302 -7.98685C425.897 16.0891 450.951 37.2112 471.493 70.5945C489.394 99.7101 497.406 134.136 511.061 165.466C524.707 196.811 551.674 227.384 584.937 219.511C593.842 217.409 602.11 212.743 611.21 211.691C623.745 210.251 635.646 216.654 647.983 219.276C701.984 230.736 755.111 213.345 809.068 220.299C826.949 222.599 840.277 221.714 858.144 219.34C875.678 217.018 898.501 206.67 916.116 205.205C952.424 202.184 997.741 187.517 1020.99 197.438C1072.65 219.49 1092.65 215.589 1109.68 209.987C1147.79 197.436 1176.31 178.087 1212.63 160.792C1225.73 154.546 1237.55 127.134 1241.9 117.268C1252.17 93.9831 1270.34 61.2796 1273.69 55.1711C1321.42 -32.113 1332.46 -66.6831 1365 -94.5591" stroke="url(#paint1_linear_2782_716)" stroke-width="9" stroke-linecap="round" stroke-linejoin="round"/>
<path d="M455.894 1.05666C488.098 17.4533 513.459 46.8349 524.956 81.1069C528.358 91.2603 530.6 101.799 534.566 111.751C548.884 147.681 586.109 172.287 624.708 174.766C651.797 176.506 679.741 168.598 705.77 176.314C716.888 179.61 727.384 185.709 738.969 186.219C755.212 186.929 769.76 176.557 781.602 165.414C793.443 154.27 804.567 141.512 819.625 135.398C844.035 125.479 873.23 135.218 897.383 124.712" stroke="url(#paint2_linear_2782_716)" stroke-width="9" stroke-linecap="round" stroke-linejoin="round"/>
<path d="M566.536 98.9222C580.543 104.266 594.552 109.621 608.289 115.619C623.179 122.137 637.758 129.432 652.988 135.091C668.229 140.748 686.702 147.655 702.956 147.298C715.615 147.012 731.45 144.353 744.1 144.912" stroke="url(#paint3_linear_2782_716)" stroke-width="9" stroke-linecap="round" stroke-linejoin="round"/>
<path d="M771.766 116.702C761.942 113.529 751.295 114.81 741.119 113.094C717.595 109.137 691.516 109.961 668.282 101.681C663.876 100.114 659.9 97.5159 655.789 95.2883C647.775 90.9254 639.762 86.5624 631.749 82.1994C601.261 65.6028 563.372 49.7891 531.93 32.1732" stroke="url(#paint4_linear_2782_716)" stroke-width="9" stroke-linecap="round" stroke-linejoin="round"/>
<path d="M431.49 253.104C434.083 265.875 436.299 272.25 438.738 282.277C440.38 289.053 444.938 294.837 446.661 301.591C448.66 309.422 447.618 321.607 445.382 329.385C441.264 343.669 438.533 355.788 439.076 370.655C439.467 381.306 439.491 389.988 440.861 400.549C444.258 426.855 435.916 453.089 433.286 479.488C430.858 503.914 428.891 527.152 436.199 550.591C437.027 553.265 442.442 557.631 444.098 559.886C445.953 562.421 448.702 564.321 449.957 567.202C451.212 570.084 449.665 574.472 446.532 574.234" stroke="url(#paint5_linear_2782_716)" stroke-width="9" stroke-miterlimit="10" stroke-linecap="round"/>
<path d="M297.671 197.075C301.722 207.574 310.433 217.592 311.876 229.397C313.244 240.553 308.851 252.98 305.522 263.192C296.797 289.936 298.04 316.795 297.83 344.785C297.598 376.024 283.319 406.337 281.515 437.712C280.734 451.288 281.644 464.015 278.607 477.713C274.642 495.62 272.324 511.266 275.407 529.699C278.363 547.385 279.785 565.024 285.962 581.748C290.012 592.706 292.19 607.16 298.987 616.824" stroke="url(#paint6_linear_2782_716)" stroke-width="9" stroke-linecap="round" stroke-linejoin="round"/>
<path d="M279.161 -314.763C254.371 -265.384 239.148 -207.182 217.949 -154.334C201.002 -112.081 213.871 -54.3515 223.704 -9.94236C229.563 16.4962 246.567 32.844 265.096 52.0632C283.07 70.6885 301.855 91.5101 312.759 115.483C333.811 161.762 353.101 208.625 349.448 260.398C347.764 284.278 339.46 312.457 340.564 338.61C341.451 359.611 343.504 373.739 343.782 394.73C344.109 419.136 327.889 442.394 329.767 466.631C331.935 494.628 319.738 528.789 320.086 555.169C320.769 605.755 343.79 639.799 360.25 684.969C377.421 732.103 433.974 771.333 456.523 816.27C478.763 860.61 471.839 877.354 508.657 911.575C560.43 959.709 550.17 1010.38 587.416 1057.74C617.09 1095.46 624.066 1137.11 631.857 1186C635.715 1210.19 634.46 1239.55 648.466 1266.55C662.471 1293.56 654.959 1303.63 648.39 1338.79C637.35 1397.91 589.713 1449.23 542.52 1482.35C494.619 1515.96 445.32 1531.29 399.707 1575.57C359.387 1614.7 329.278 1590.1 285.971 1600.99C265.702 1606.09 222.276 1584.9 203.013 1597.54" stroke="url(#paint7_linear_2782_716)" stroke-width="9" stroke-linecap="round" stroke-linejoin="round"/>
<path d="M1011.45 235.243C975.297 221.673 922.361 228.506 915.172 280.521C911.061 310.262 885.829 311.985 877.968 340.157C873.809 355.071 880.403 363.837 869.928 377.634C858.013 393.352 842.283 406.057 833.497 424.216C821.511 449.001 829.781 483.234 813.547 507.548C796.406 533.23 756.604 542.707 735.99 566.375C711.466 594.531 699.229 632.972 703.769 669.641C705.409 682.828 705.991 699.319 710.917 711.836C715.76 724.14 722.953 742.115 727.617 754.764C738.712 784.899 740.435 799.413 761.4 826.061C771.514 838.909 793.278 852.372 804.124 863.984C814.138 874.704 821.474 891.688 828.126 904.782C841.548 931.224 845.052 957.328 859.127 982.741C875.621 1012.52 878.526 1033.2 892.549 1063.78C907.317 1095.98 942.619 1118.63 965.011 1141.69C988.375 1165.74 1000.71 1203.02 1017.42 1232.65C1034.61 1263.14 1044.19 1279.96 1059.6 1318.05C1071.47 1347.42 1063.08 1365.41 1089.62 1383.86C1119.55 1404.67 1142.11 1425.63 1160.84 1456.16C1180.83 1488.74 1206.83 1527.9 1234.33 1552.32C1259.19 1574.39 1278.27 1598.61 1297.45 1625C1313.9 1647.62 1341.91 1698.62 1348.81 1727.5C1353.87 1748.71 1358.46 1767.78 1362.48 1788.69C1366.48 1809.54 1364.17 1816.01 1373.29 1833.41C1380.94 1848.01 1379.54 1867.18 1378.42 1881.13" stroke="url(#paint8_linear_2782_716)" stroke-width="9" stroke-miterlimit="10" stroke-linecap="round"/>
<path d="M463.003 2730.75C463.062 2679.97 475.822 2652.95 486.625 2603.34C497.872 2551.68 527.608 2517.9 512.687 2470.94C506.679 2452.03 453.071 2359.63 442.801 2342.64C409.705 2287.86 426.871 2277.09 381.405 2232.03C358.051 2208.9 324.816 2204.26 297.371 2190.29C262.178 2172.39 233.009 2145.38 209.144 2110.64C165.789 2047.5 171.101 1988.34 233.249 1932.97C249.254 1918.71 271.134 1870.24 291.178 1862.64C319.31 1851.98 356.45 1856.49 386.505 1855.17C449.715 1852.41 457.711 1828.67 540.093 1822.53C571.801 1820.18 624.477 1780.13 653.625 1767.25C690.211 1751.08 708.832 1727 739.807 1707.58C809.018 1664.21 867.843 1574.92 877.638 1496.65C887.016 1421.75 897.452 1352.94 857.281 1285.79C841.458 1259.35 796.682 1227.59 788.665 1197.85C784.239 1181.43 785.006 1168.08 784.323 1152.59C783.585 1136.17 767.672 1112.11 761.181 1097.27C733.283 1033.56 716.089 985.285 690.648 939.117C673.889 908.718 644.074 879.527 622.218 852.325C600.732 825.581 594.792 793.112 577.506 762.458C558.845 729.35 546.892 712.132 524.593 682.907C499.773 650.373 500.32 627.516 498.971 588.21C497.561 547.472 477.175 525.805 486.32 481.781C495.077 439.631 484.213 404.583 491.139 361.24C497.168 323.46 520.712 303.104 503.857 268.56C487.044 234.128 481.433 248.664 469.649 226.672C461.877 212.17 453.723 208.946 454.251 184.311C455.294 135.453 430.761 116.828 403.687 79.7612C385.572 54.973 362.401 29.4231 347.461 3.04158C340.219 -9.75861 321.091 -33.0131 315.564 -46.4338" stroke="url(#paint9_linear_2782_716)" stroke-width="9" stroke-miterlimit="10" stroke-linecap="round"/>
<path d="M1381.37 2012.35C1458.02 1921.84 1435.68 1789.2 1390.51 1682.34C1363.91 1619.41 1304.7 1550.65 1253.69 1488.51C1218.09 1445.14 1196.78 1400.51 1165.74 1371.88C1121.4 1331 1102.27 1334.1 1105.99 1271.39C1106.67 1259.82 1097.54 1246.24 1087.37 1239.66C1080.45 1235.19 1076.31 1224.33 1077.79 1216.22C1080.57 1200.9 1089.22 1201.1 1087.99 1184.22C1086.96 1170.08 1070.18 1159.41 1059.58 1149.74C1032.73 1125.24 1040.2 1113.23 1012.96 1087.94C968.152 1046.37 943.026 997.173 932.146 937.215C921.924 880.868 937.185 850.8 908.423 814.408C899.507 803.121 886.25 799.371 878.076 787.526C861.573 763.63 855.371 743.299 855.41 714.253C855.424 699.756 858.579 673.377 865.472 660.626C878.142 637.194 916.74 626.134 927.049 619.572C957.02 600.476 949.866 567.912 982.051 540.958C1010.54 517.085 1018.19 489.627 1026.9 459.235C1038.35 419.284 1030.2 381.925 1060.69 353.681C1084.66 331.464 1085.27 330.027 1106.51 322.156C1110.32 320.741 1109.71 315.149 1105.69 314.616C1061.85 308.75 1033.99 319.856 1005.42 353.848C984.888 378.286 976.406 405.015 952.005 441.851C935.639 466.547 924.164 471.391 916.513 526.995C915.2 536.506 912.684 545.868 908.415 554.463C879.308 613.044 825.84 546.897 770.401 601.11C761.34 609.974 744.22 629.178 741.668 641.595C732.285 687.316 763.75 681.558 768.648 718.589C771.794 742.388 783.252 779.789 824.01 800.813C856.092 817.353 860.227 863.735 869.74 884.318C897.686 944.827 899.68 1006.45 939.21 1060.12C969.827 1101.68 1021.93 1141.84 1029.62 1192.88" stroke="url(#paint10_linear_2782_716)" stroke-width="9" stroke-miterlimit="10" stroke-linecap="round"/>
<path d="M1011.45 235.243C975.297 221.673 922.361 228.506 915.172 280.521C911.061 310.262 885.829 311.985 877.968 340.157C873.809 355.071 880.403 363.837 869.928 377.634C858.013 393.352 842.283 406.057 833.497 424.216C821.511 449.001 829.781 483.234 813.547 507.548C796.406 533.23 756.604 542.707 735.99 566.375C711.466 594.531 699.229 632.972 703.769 669.641C705.409 682.828 705.991 699.319 710.917 711.836C715.76 724.14 722.953 742.115 727.617 754.764C738.712 784.899 740.435 799.413 761.4 826.061C771.514 838.909 793.278 852.372 804.124 863.984C814.138 874.704 821.474 891.688 828.126 904.782C841.548 931.224 845.052 957.328 859.127 982.741C875.621 1012.52 878.526 1033.2 892.549 1063.78C907.317 1095.98 942.619 1118.63 965.011 1141.69C988.375 1165.74 1000.71 1203.02 1017.42 1232.65C1034.61 1263.14 1044.19 1279.96 1059.6 1318.05C1071.47 1347.42 1063.08 1365.41 1089.62 1383.86C1119.55 1404.67 1142.11 1425.63 1160.84 1456.16C1180.83 1488.74 1206.83 1527.9 1234.33 1552.32C1259.19 1574.39 1278.27 1598.61 1297.45 1625C1313.9 1647.62 1341.91 1698.62 1348.81 1727.5C1353.87 1748.71 1358.46 1767.78 1362.48 1788.69C1366.48 1809.54 1364.17 1816.01 1373.29 1833.41C1380.94 1848.01 1379.54 1867.18 1378.42 1881.13" stroke="url(#paint11_linear_2782_716)" stroke-width="9" stroke-miterlimit="10" stroke-linecap="round"/>
<path d="M1241.69 1787.13C1228.9 1767.71 1217.09 1748.82 1210.43 1725.79C1204.69 1705.98 1200.4 1686 1187.9 1669.15C1153.92 1623.35 1077.52 1538.08 1055.04 1477.23C1041.48 1440.55 1001.14 1440.29 983.697 1405.4C951.333 1340.69 977.619 1347.8 945.828 1304.07C929.144 1281.12 922.381 1257.26 907.615 1232.5C896.917 1214.56 884.643 1197.21 871.967 1182.19C860.356 1168.42 841.531 1160.7 829.901 1148.06C819.506 1136.75 817.922 1111.72 810.35 1097.54C788.987 1057.59 764.595 974.638 740.062 934.812C687.316 849.189 657.201 842.852 633.205 778.932C616.832 735.335 553.907 664.148 557.036 614.991C559.907 569.864 559.884 534.72 544.887 490.482C530.122 446.924 553.226 411.301 550.507 364.43C548.938 337.374 541.529 268.477 582.267 268.775C601.623 268.911 606.096 282.787 626.192 277.229C648.163 271.144 654.415 252.859 678.914 262.347C707.887 273.57 717.626 290.652 750.199 279.188C773.397 271.029 786.333 268.083 810.657 268.744C832.028 269.33 849.78 265.835 868.093 255.792" stroke="url(#paint12_linear_2782_716)" stroke-width="9" stroke-miterlimit="10" stroke-linecap="round"/>
<path d="M334.957 66.9686C367.803 117.08 392.845 174.507 392.795 238.248C392.747 292.668 377.737 280.576 389.465 385.457C395.968 443.63 369.15 465.209 372.533 515.988C375.098 554.473 368.675 567.779 399.931 585.444C426.433 600.423 456.306 636.85 469.054 663.869C481.377 689.999 490.598 704.967 508.625 727.068C522.958 744.627 543.43 765.046 553.99 785.794C566.637 810.636 558.776 833.077 564.53 856.957C571.669 886.555 599.026 891.329 620.635 911.233C662.692 949.991 671.814 1007.69 704.504 1054.91C737.061 1101.95 728.072 1147.48 744.305 1227.42C755.106 1280.61 837.208 1287.66 838.268 1345.02C839.235 1397.49 830.375 1483.27 805.741 1530.93C777.53 1585.51 767.348 1615.82 719.663 1657.45C694.779 1679.18 673.722 1703.78 640.488 1714.02C608.568 1723.86 588.398 1739.12 562.699 1755.82C541.661 1769.5 500.599 1779.4 475.908 1779.63C446.38 1779.92 410.329 1793.42 376.949 1794.02C335.687 1794.77 337.729 1796.47 295.654 1803.06C283.206 1805.01 259.028 1803.18 247.756 1798.53C225.904 1789.49 218.112 1790.02 206.182 1791.09C188.279 1792.68 153.497 1826.94 139.766 1839.53C114.905 1862.32 109.656 1898.16 106.178 1930.54C103.118 1958.93 78.2501 1981.6 75.9879 2007.61C73.2808 2038.9 88.0453 2070.86 105.689 2093.15C124.367 2116.76 155.225 2126.88 184.923 2138.08" stroke="url(#paint13_linear_2782_716)" stroke-width="9" stroke-miterlimit="10" stroke-linecap="round"/>
<path d="M183.932 -93.5176C179.014 -34.5492 176.915 29.4436 216.396 75.4013C226.417 87.0731 226.588 94.639 234.485 107.066C242.489 119.662 257.267 120.17 266.528 130.944C284.872 152.292 257.212 184.172 260.646 208.81C265.278 241.988 249.668 259.946 248.317 291.163C246.945 322.671 250.705 354.994 244.799 386.627C239.899 412.866 223.825 438.931 223.002 465.514C222.547 480.488 229.876 490.245 232.221 504.444C234.649 519.141 229.023 528.631 228.597 542.285C227.697 571.859 253.553 601.566 264.388 630.545C275.222 659.524 279.118 683.531 297.994 705.987C341.135 757.288 383.77 806.287 417.519 863.138C451.408 920.235 469.572 979.987 514.814 1029.52C551.815 1070.06 577.842 1140.08 582.542 1193.14C583.714 1206.43 588.161 1219.79 587.129 1233.26C586.12 1246.54 577.141 1260.61 579.458 1274.56C584.215 1303.27 599.286 1314.98 590.754 1347.72C575.947 1404.42 509.955 1443.32 461.966 1471.34C434.975 1487.1 415.357 1489.87 385.65 1491.75C357.673 1493.53 339.329 1503.41 312.694 1511.03C297.657 1515.33 278.927 1513.09 265.016 1520.16C250.656 1527.45 242.46 1538.06 226.44 1544.42C198.406 1555.55 180.161 1568.38 151.269 1555.99C123.204 1543.95 93.9409 1541.35 65.7799 1532.05C33.5891 1521.43 1.21166 1499.03 -28.9776 1483.96C-57.4386 1469.75 -85.4987 1450.76 -117.118 1449.48C-149.779 1448.14 -200.195 1447.38 -223.586 1474.27C-245.935 1499.96 -245.008 1535.11 -246.021 1566.43C-247.476 1611.26 -246.855 1633.21 -225.832 1671.57C-206.439 1706.95 -218.287 1747.22 -205.122 1784.38C-193.072 1818.41 -163.431 1841.41 -154.826 1879.02C-137.315 1955.64 -212.229 2047.15 -121.184 2097.78C-107.51 2105.39 -90.7208 2112.07 -78.3971 2121.67C-64.0516 2132.85 -58.8039 2144.67 -39.6536 2147.73C-22.6229 2150.46 -7.43083 2140.6 9.23601 2142.38C28.5785 2144.45 49.5561 2160.29 64.6146 2171.45C94.3387 2193.52 116.933 2220.84 146.469 2242.2C182.451 2268.21 224.147 2282.44 262.805 2304.63C308.166 2330.68 323.036 2370.98 353.569 2410.61C367.236 2428.36 384.141 2448.26 392.139 2468.78C395.103 2476.38 391.637 2482.71 396.467 2491.08C402.745 2501.94 416.572 2507.45 424.742 2516.83C447.292 2542.7 432.492 2579.29 445.838 2609.51C454.018 2598.24 451.098 2586.05 453.005 2573.39C455.85 2554.45 472.172 2536.43 473.45 2518.29C475.724 2486.03 433.125 2464.69 416.467 2442.07C393.482 2410.83 383.804 2362.01 369.936 2326.15C358.003 2295.29 352.005 2256.41 317.334 2245.96C289.677 2237.61 255.255 2234.7 234.644 2210.48" stroke="url(#paint14_linear_2782_716)" stroke-width="9" stroke-miterlimit="10" stroke-linecap="round"/>
</g>
<defs>
<linearGradient id="paint0_linear_2782_716" x1="878.421" y1="318.449" x2="1335.59" y2="2024.61" gradientUnits="userSpaceOnUse">
<stop stop-color="#BDC0C0" stop-opacity="0.5"/>
<stop offset="1" stop-color="#BDC0C0" stop-opacity="0"/>
</linearGradient>
<linearGradient id="paint1_linear_2782_716" x1="795.468" y1="-295.222" x2="942.872" y2="254.895" gradientUnits="userSpaceOnUse">
<stop stop-color="#BDC0C0" stop-opacity="0.5"/>
<stop offset="1" stop-color="#BDC0C0" stop-opacity="0"/>
</linearGradient>
<linearGradient id="paint2_linear_2782_716" x1="605.534" y1="-119.283" x2="691.296" y2="200.784" gradientUnits="userSpaceOnUse">
<stop stop-color="#BDC0C0" stop-opacity="0.5"/>
<stop offset="1" stop-color="#BDC0C0" stop-opacity="0"/>
</linearGradient>
<linearGradient id="paint3_linear_2782_716" x1="643.015" y1="76.0035" x2="667.014" y2="165.567" gradientUnits="userSpaceOnUse">
<stop stop-color="#BDC0C0" stop-opacity="0.5"/>
<stop offset="1" stop-color="#BDC0C0" stop-opacity="0"/>
</linearGradient>
<linearGradient id="paint4_linear_2782_716" x1="632.284" y1="1.42533" x2="670.447" y2="143.85" gradientUnits="userSpaceOnUse">
<stop stop-color="#BDC0C0" stop-opacity="0.5"/>
<stop offset="1" stop-color="#BDC0C0" stop-opacity="0"/>
</linearGradient>
<linearGradient id="paint5_linear_2782_716" x1="395.368" y1="254.347" x2="478.812" y2="565.765" gradientUnits="userSpaceOnUse">
<stop stop-color="#BDC0C0" stop-opacity="0.5"/>
<stop offset="1" stop-color="#BDC0C0" stop-opacity="0"/>
</linearGradient>
<linearGradient id="paint6_linear_2782_716" x1="243.912" y1="200.587" x2="351.66" y2="602.71" gradientUnits="userSpaceOnUse">
<stop stop-color="#BDC0C0" stop-opacity="0.5"/>
<stop offset="1" stop-color="#BDC0C0" stop-opacity="0"/>
</linearGradient>
<linearGradient id="paint7_linear_2782_716" x1="-7.93832" y1="-287.987" x2="488.142" y2="1563.41" gradientUnits="userSpaceOnUse">
<stop stop-color="#BDC0C0" stop-opacity="0.5"/>
<stop offset="1" stop-color="#BDC0C0" stop-opacity="0"/>
</linearGradient>
<linearGradient id="paint8_linear_2782_716" x1="795.589" y1="229.435" x2="1247.56" y2="1916.2" gradientUnits="userSpaceOnUse">
<stop stop-color="#BDC0C0" stop-opacity="0.5"/>
<stop offset="1" stop-color="#BDC0C0" stop-opacity="0"/>
</linearGradient>
<linearGradient id="paint9_linear_2782_716" x1="62.8163" y1="-51.7447" x2="785.246" y2="2644.4" gradientUnits="userSpaceOnUse">
<stop stop-color="#BDC0C0" stop-opacity="0.5"/>
<stop offset="1" stop-color="#BDC0C0" stop-opacity="0"/>
</linearGradient>
<linearGradient id="paint10_linear_2782_716" x1="878.421" y1="318.449" x2="1335.59" y2="2024.61" gradientUnits="userSpaceOnUse">
<stop stop-color="#BDC0C0" stop-opacity="0.5"/>
<stop offset="1" stop-color="#BDC0C0" stop-opacity="0"/>
</linearGradient>
<linearGradient id="paint11_linear_2782_716" x1="795.589" y1="229.435" x2="1247.56" y2="1916.2" gradientUnits="userSpaceOnUse">
<stop stop-color="#BDC0C0" stop-opacity="0.5"/>
<stop offset="1" stop-color="#BDC0C0" stop-opacity="0"/>
</linearGradient>
<linearGradient id="paint12_linear_2782_716" x1="649.202" y1="205.665" x2="1084.26" y2="1829.32" gradientUnits="userSpaceOnUse">
<stop stop-color="#BDC0C0" stop-opacity="0.5"/>
<stop offset="1" stop-color="#BDC0C0" stop-opacity="0"/>
</linearGradient>
<linearGradient id="paint13_linear_2782_716" x1="-80.7268" y1="-336.082" x2="555.61" y2="2038.76" gradientUnits="userSpaceOnUse">
<stop stop-color="#BDC0C0" stop-opacity="0.5"/>
<stop offset="1" stop-color="#BDC0C0" stop-opacity="0"/>
</linearGradient>
<linearGradient id="paint14_linear_2782_716" x1="-237.056" y1="-52.6214" x2="474.222" y2="2601.91" gradientUnits="userSpaceOnUse">
<stop stop-color="#BDC0C0" stop-opacity="0.5"/>
<stop offset="1" stop-color="#BDC0C0" stop-opacity="0"/>
</linearGradient>
<clipPath id="clip0_2782_716">
<rect width="715" height="451.002" fill="white"/>
</clipPath>
</defs>
</svg>
