<svg width="390" height="1190" viewBox="0 0 390 1190" fill="none" xmlns="http://www.w3.org/2000/svg">
<g clip-path="url(#clip0_3206_5685)">
<path d="M483.855 1099.1C532.389 1079.12 550.587 1022.43 554.566 971.244C556.908 941.1 547.621 902.027 540.209 867.227C535.034 842.938 535.737 821.064 529.354 803.497C520.242 778.411 512.092 775.736 526.307 751.844C528.93 747.436 528.102 740.24 525.444 735.585C523.635 732.421 524.213 727.31 526.443 724.424C530.656 718.966 534.011 720.806 536.961 713.918C539.433 708.15 535.006 700.544 532.807 694.587C527.236 679.495 532.616 676.297 527.049 660.816C517.893 635.362 518.023 610.913 525.941 585.133C533.383 560.905 545.497 552.19 541.593 532.036C540.384 525.786 535.935 521.615 535.132 515.297C533.505 502.548 535.202 493.295 541.125 481.885C544.079 476.19 550.684 466.463 555.987 462.853C565.733 456.219 583.154 459.721 588.541 459.239C604.205 457.829 608.016 443.573 626.149 439.524C642.204 435.936 650.793 426.697 660.4 416.523C673.025 403.148 677.418 386.805 695.148 381.904C709.09 378.047 709.62 377.605 719.572 378.833C721.355 379.05 722.254 376.728 720.783 375.702C704.745 364.48 691.532 363.178 673.39 370.729C660.349 376.159 651.579 384.941 634.496 394.457C623.04 400.836 617.544 400.406 603.228 420.707C600.777 424.178 597.884 427.346 594.458 429.857C571.103 446.963 563.539 410.088 530.721 420.122C525.357 421.764 514.722 425.83 511.193 430.192C498.206 446.256 511.745 450.392 506.139 465.944C502.536 475.938 499.432 492.97 511.178 509.523C520.424 522.55 512.616 541.622 512.169 551.648C510.848 581.116 499.098 605.743 503.721 634.878C507.303 657.443 519.614 683.826 512.26 705.451" stroke="url(#paint0_linear_3206_5685)" stroke-width="6" stroke-miterlimit="10" stroke-linecap="round"/>
<path d="M377.091 353.946C378.855 360.854 379.572 365.864 378.245 372.339C377.336 376.76 376.72 381.202 376.152 385.676C375.566 390.303 376.394 394.536 377.294 399.028C379.27 408.875 380.678 415.277 384.026 424.693C385.527 428.916 386.911 436.867 387.814 441.247C388.737 445.712 388.758 449.697 386.906 453.749C384.85 458.239 382.363 462.937 381.626 467.883C381.263 470.306 380.189 474.767 382.605 476.271" stroke="url(#paint1_linear_3206_5685)" stroke-width="6" stroke-miterlimit="10" stroke-linecap="round"/>
<path d="M379.176 60.1078C380.921 64.0595 377.521 69.7385 375.304 72.7626C373.246 75.5779 370.846 78.1016 368.786 80.9273C367.137 83.1876 365.913 85.7088 364.742 88.2363C362.641 92.7809 359.953 96.9421 358.15 101.66C356.092 107.048 357.226 111.96 357.206 117.464C357.196 120.208 355.874 123.694 354.226 125.825" stroke="url(#paint2_linear_3206_5685)" stroke-width="6" stroke-linecap="round" stroke-linejoin="round"/>
<path d="M404.634 131.14C398.65 141.54 397.389 155.503 388.358 164.412C378.27 174.361 367.729 184.553 359.555 196.097C349.971 209.635 338.593 222.357 331.296 237.538C325.765 249.039 316.809 258.321 314.256 271.509C312.779 279.115 311.551 286.402 309.44 293.858C308.187 298.296 306.566 303.173 306.159 307.65" stroke="url(#paint3_linear_3206_5685)" stroke-width="6" stroke-linecap="round" stroke-linejoin="round"/>
<path d="M427.081 165.163C426.538 170.114 427.925 175.824 426.091 180.757C424.36 185.421 420.105 189.412 416.72 192.749C407.851 201.487 402.877 212.297 397.102 223.257C390.657 235.489 378.879 244.5 371.789 256.466C368.721 261.643 366.49 266.831 362.51 271.597C357.31 277.83 353.217 283.509 350.68 291.381C348.245 298.934 345.216 306.157 344.243 313.987C343.606 319.118 341.522 325.242 342.229 330.423" stroke="url(#paint4_linear_3206_5685)" stroke-width="6" stroke-linecap="round" stroke-linejoin="round"/>
<path d="M379.177 90.8155C375.266 99.6701 375.578 110.284 373.412 119.7C370.33 133.102 364.494 141.346 355.326 150.186C351.323 154.043 346.094 158.255 341.938 161.948C337.202 166.159 328.834 170.977 324.405 175.596C316.283 184.059 311.324 192.457 303.976 201.447C296.627 210.437 291.411 217.977 285.292 227.29C282.716 231.211 280.122 235.04 277.158 238.659C274.829 241.502 271.949 245.399 270.97 248.927C268.52 257.712 273.415 265.555 264.638 275.234C256.818 283.855 254.558 292.368 252.297 303.994C248.712 322.437 258.267 339.318 268.089 354.144C268.972 355.475 269.768 356.96 270.938 357.899" stroke="url(#paint5_linear_3206_5685)" stroke-width="6" stroke-linecap="round" stroke-linejoin="round"/>
<path d="M484.407 -31.4578C472.515 -20.3434 463.353 -8.58761 448.121 -1.66069C441.114 1.52175 433.154 5.46517 426.657 9.97808C420.254 14.4304 415.157 20.9834 412.132 27.9416C405.468 43.2779 400.14 58.127 397.723 74.6484C396.575 82.4836 397.968 90.0686 398.27 97.7612C398.567 105.382 393.352 109.185 389.708 115.086C381.7 128.054 387.655 136.151 376.846 148.131C363.77 162.62 345.3 181.485 332.641 196.223C321.814 208.827 312.741 218.469 306.775 234.278C304.182 241.146 301.168 248.053 298.589 254.908C294.758 265.075 292.493 278.228 290.924 289.075C288.963 302.647 288.96 311.513 296.425 323.104C298.215 325.884 300.268 328.382 302.784 329.827" stroke="url(#paint6_linear_3206_5685)" stroke-width="6" stroke-linecap="round" stroke-linejoin="round"/>
<path d="M523.901 -39.791C504.114 -25.4233 486.293 -5.64165 467.212 10.8198C451.957 23.9815 445.274 49.2909 440.107 68.7467C437.033 80.3305 440.392 90.2149 443.767 101.538C447.044 112.515 450.193 124.52 449.603 136.16C448.465 158.633 446.517 180.977 434.551 200.584C429.033 209.628 420.037 219.016 415.152 229.521C411.23 237.956 409.163 243.927 405.003 252.234C400.168 261.894 389.062 267.737 384.871 277.646C380.029 289.092 368.287 300.039 363.058 310.479C353.038 330.502 355.163 348.566 352.446 369.669C349.61 391.688 363.861 418.61 363.584 440.86C363.309 462.812 357.181 467.985 364.694 488.925C375.254 518.375 360.916 536.206 365.924 562.397C369.916 583.259 364.188 601.048 357.307 621.851C353.903 632.144 347.439 643.429 347.452 656.892C347.465 670.354 342.464 672.785 332.73 685.271C316.366 706.266 287.204 716.749 261.918 720.168C236.253 723.639 213.758 719.636 186.823 727.764C163.015 734.946 156.185 719.15 136.946 714.626C127.942 712.507 115.181 695.347 105.039 696.396" stroke="url(#paint7_linear_3206_5685)" stroke-width="6" stroke-linecap="round" stroke-linejoin="round"/>
<path d="M378.029 688.422C376.86 695.808 369.938 700.602 364.369 705.6C354.417 714.534 348.49 727.914 339.102 737.438C314.508 762.398 275.11 763.976 240.706 769.508C209.475 774.527 181.44 769.528 149.857 762.955C124.903 757.764 107.883 744.074 92.0177 724.127C78.2635 706.83 74.4432 705.132 67.7288 699.165C62.3694 694.405 58.7947 691.537 52.9413 687.4C44.9118 681.725 38.3301 674.287 31.5685 667.15C23.4437 658.573 15.3584 648.059 6.53333 640.205C0.0426703 634.429 -7.37225 628.915 -15.8213 626.885C-24.2715 624.86 -36.4313 635.911 -43.2861 643.118" stroke="url(#paint8_linear_3206_5685)" stroke-width="6" stroke-linecap="round" stroke-linejoin="round"/>
<path d="M406.388 0.117676C398.672 7.25056 395.708 11.2863 390.144 20.4398C385.455 28.1438 385.619 36.4452 380.059 43.0809C374.435 49.7892 367.393 47.8131 362.038 54.8293C356.984 61.4567 349.02 70.6368 345.627 78.4082C342.077 86.5513 339.462 94.9263 337.532 103.636C336.671 107.52 335.758 113.587 336.076 117.649C336.408 121.919 338.838 126.627 338.008 130.611C334.639 146.831 312.465 166.976 301.447 179.289C289.123 193.066 284.007 201.413 267.868 213.79C261.566 218.622 256.476 219.43 249.848 222.219C240.271 226.252 240.065 230.551 227.602 235.176C218.617 238.51 213.328 233.971 198.633 238.692C191.245 241.065 175.066 243.316 167.553 244.801C147.795 248.705 137.178 252.017 117.217 255.216C98.2657 258.252 85.9171 265.837 68.3226 273.016C47.4029 281.551 45.9456 286.67 24.9936 290.681C4.95173 294.517 -11.3299 313.775 -25.514 327.068C-42.7581 343.228 -58.1183 383.769 -63.3854 398.192C-68.6514 412.611 -82.3253 416.456 -82.3253 416.456C-86.5775 418.287 -92.7079 421.347 -96.178 423.885C-104.217 429.772 -108.049 435.595 -117.084 440.516C-123.106 443.8 -129.238 445.333 -136.089 445.75C-139.191 445.942 -144.735 446.672 -147.687 447.639C-155.418 450.165 -161.905 454.609 -164.96 460.813C-168.395 467.79 -167.029 476.956 -164.266 484.05C-162.238 489.256 -160.521 494.94 -160.079 500.513" stroke="url(#paint9_linear_3206_5685)" stroke-width="6" stroke-linecap="round" stroke-linejoin="round"/>
<path d="M699.885 325.335C688.435 312.649 666.238 304.568 652.833 323.552C645.168 334.406 634.9 329.952 626.08 339.426C621.412 344.443 622.221 349.23 615.298 352.522C607.417 356.277 598.65 358.072 591.504 363.423C581.751 370.728 578.039 385.866 566.714 392.121C554.752 398.73 537.18 394.36 524.263 399.471C508.897 405.55 496.269 418.172 490.596 433.508C488.558 439.025 485.433 445.626 484.823 451.548C484.225 457.369 483.397 465.898 482.657 471.818C480.889 485.92 478.615 491.975 481.436 506.714C482.798 513.821 488.615 523.54 490.517 530.31C492.272 536.561 491.702 544.728 491.653 551.228C491.551 564.352 487.62 575.325 487.983 588.177C488.411 603.236 485.346 611.957 484.639 626.827C483.894 642.491 493.164 658.572 497.276 672.19C501.568 686.396 498.837 703.558 499.376 718.604C499.932 734.086 500.278 742.644 498.586 760.749C497.282 774.709 490.322 780.074 497.003 792.722C504.536 806.993 509.14 819.821 510.292 835.629C511.524 852.5 513.78 873.182 519.622 888.371C524.905 902.105 527.478 915.506 529.654 929.779C531.517 942.016 532.154 967.759 528.991 980.515C526.669 989.881 524.594 998.309 521.921 1007.35C519.254 1016.36 517.028 1018.43 517.074 1027.12C517.111 1034.42 512.662 1041.67 509.387 1046.93" stroke="url(#paint10_linear_3206_5685)" stroke-width="6" stroke-miterlimit="10" stroke-linecap="round"/>
<path d="M-23.2462 1194.7C-12.8966 1174.76 -2.38519 1166.73 11.9522 1149.43C26.8786 1131.41 45.4384 1124.18 49.1234 1102.69C50.6081 1094.03 48.3283 1046.81 47.7466 1038.04C45.8798 1009.78 54.8165 1009.04 46.1094 982.079C41.6354 968.235 29.514 959.653 21.5676 948.58C11.3744 934.387 5.40259 917.837 3.08855 899.326C-1.11163 865.69 13.0086 843.516 48.6978 834.393C57.8901 832.041 76.3469 817.441 85.7711 818.531C98.9991 820.059 112.679 829.388 124.762 834.982C150.17 846.75 158.141 839.045 191.771 853.39C204.714 858.912 233.564 853.885 247.641 854.749C265.31 855.836 277.528 850.155 293.652 848.824C329.678 845.852 370.961 822.717 390.731 793.943C409.648 766.413 427.746 741.486 425.612 706.922C424.771 693.311 413.631 671.718 416.528 658.399C418.129 651.043 421.145 645.951 424.026 639.725C427.077 633.119 425.714 620.428 426.182 613.272C428.172 582.558 431.232 560.084 430.622 536.763C430.217 521.405 424.434 503.867 421.376 488.73C418.37 473.848 422.638 459.877 422.078 444.312C421.477 427.503 420.28 418.304 417.459 402.281C414.32 384.445 419.183 375.571 426.648 359.847C434.378 343.547 430.772 330.884 443.321 315.44C455.335 300.653 458.193 284.667 469.731 269.039C479.784 255.414 493.179 252.201 493.579 235.195C493.973 218.241 488.812 222.814 488.653 211.773C488.547 204.491 485.998 201.566 491.216 191.99C501.562 172.997 495.707 160.687 492.604 140.61C490.525 127.183 486.613 112.427 486.106 99.0185C485.863 92.5142 483.074 79.4832 483.631 73.0839" stroke="url(#paint11_linear_3206_5685)" stroke-width="6" stroke-miterlimit="10" stroke-linecap="round"/>
<path d="M483.855 1099.1C532.389 1079.12 550.587 1022.43 554.566 971.244C556.908 941.1 547.621 902.027 540.209 867.227C535.034 842.938 535.737 821.064 529.354 803.497C520.242 778.411 512.092 775.736 526.307 751.844C528.93 747.436 528.102 740.24 525.444 735.585C523.635 732.421 524.213 727.31 526.443 724.424C530.656 718.966 534.011 720.806 536.961 713.918C539.433 708.15 535.006 700.544 532.807 694.587C527.236 679.495 532.616 676.297 527.049 660.816C517.893 635.362 518.023 610.913 525.941 585.133C533.383 560.905 545.497 552.19 541.593 532.036C540.384 525.786 535.935 521.615 535.132 515.297C533.505 502.548 535.202 493.295 541.125 481.885C544.079 476.19 550.684 466.463 555.987 462.853C565.733 456.219 583.154 459.721 588.541 459.239C604.205 457.829 608.016 443.573 626.149 439.524C642.204 435.936 650.793 426.697 660.4 416.523C673.025 403.148 677.418 386.805 695.148 381.904C709.09 378.047 709.62 377.605 719.572 378.833C721.355 379.05 722.254 376.728 720.783 375.702C704.745 364.48 691.532 363.178 673.39 370.729C660.349 376.159 651.579 384.941 634.496 394.457C623.04 400.836 617.544 400.406 603.228 420.707C600.777 424.178 597.884 427.346 594.458 429.857C571.103 446.963 563.539 410.088 530.721 420.122C525.357 421.764 514.722 425.83 511.193 430.192C498.206 446.256 511.745 450.392 506.139 465.944C502.536 475.938 499.432 492.97 511.178 509.523C520.424 522.55 512.616 541.622 512.169 551.648C510.848 581.116 499.098 605.743 503.721 634.878C507.303 657.443 519.614 683.826 512.26 705.451" stroke="url(#paint12_linear_3206_5685)" stroke-width="6" stroke-miterlimit="10" stroke-linecap="round"/>
<path d="M699.885 325.335C688.435 312.649 666.238 304.568 652.833 323.552C645.168 334.406 634.9 329.952 626.08 339.426C621.412 344.443 622.221 349.23 615.298 352.522C607.417 356.277 598.65 358.072 591.504 363.423C581.751 370.728 578.039 385.866 566.714 392.121C554.752 398.73 537.18 394.36 524.263 399.471C508.897 405.55 496.269 418.172 490.596 433.508C488.558 439.025 485.433 445.626 484.823 451.548C484.225 457.369 483.397 465.898 482.657 471.818C480.889 485.92 478.615 491.975 481.436 506.714C482.798 513.821 488.615 523.54 490.517 530.31C492.272 536.561 491.702 544.728 491.653 551.228C491.551 564.352 487.62 575.325 487.983 588.177C488.411 603.236 485.346 611.957 484.639 626.827C483.894 642.491 493.164 658.572 497.276 672.19C501.568 686.396 498.837 703.558 499.376 718.604C499.932 734.086 500.278 742.644 498.586 760.749C497.282 774.709 490.322 780.074 497.003 792.722C504.536 806.993 509.14 819.821 510.292 835.629C511.524 852.5 513.78 873.182 519.622 888.371C524.905 902.105 527.478 915.506 529.654 929.779C531.517 942.016 532.154 967.759 528.991 980.515C526.669 989.881 524.594 998.309 521.921 1007.35C519.254 1016.36 517.028 1018.43 517.074 1027.12C517.111 1034.42 512.662 1041.67 509.387 1046.93" stroke="url(#paint13_linear_3206_5685)" stroke-width="6" stroke-miterlimit="10" stroke-linecap="round"/>
<path d="M474.754 982.17C473.676 971.935 472.878 962.108 474.941 951.7C476.714 942.745 479.091 934.02 477.605 924.855C473.563 899.942 460.875 850.884 464.414 822.395C466.546 805.22 450.742 796.91 450.981 779.651C451.42 747.634 460.307 755.772 456.704 732.119C454.815 719.703 457.009 708.95 456.24 696.215C455.683 686.988 454.388 677.67 452.461 669.188C450.697 661.413 444.867 654.552 442.866 647.218C441.081 640.658 445.55 630.495 445.456 623.384C445.185 603.333 452.468 565.768 450.924 545.123C447.606 500.74 437.057 492.124 440.625 462.118C443.057 441.652 432.801 400.872 444.028 382.186C454.335 365.032 461.474 351.213 464.576 330.774C467.631 310.65 483.958 301.347 492.422 282.369C497.308 271.415 508.408 242.827 524.36 251.23C531.941 255.22 530.877 261.584 539.906 263.486C549.781 265.563 555.957 259.647 563.657 268.359C572.763 278.663 573.117 287.358 588.252 289.477C599.03 290.988 604.714 292.461 614.141 297.668C622.422 302.245 630.11 304.482 639.351 304.258" stroke="url(#paint14_linear_3206_5685)" stroke-width="6" stroke-miterlimit="10" stroke-linecap="round"/>
<path d="M432.519 671.394C444.691 694.556 441.075 727.2 439.562 752.797C437.758 783.378 420.916 802.329 391.344 827.905C366.705 849.215 330.999 849.49 302.384 864.648C289.675 871.38 277.548 875.407 262.861 876.533C248.334 877.646 233.557 880.122 219.238 880.435C206.171 880.719 191.685 870.743 179.08 875.196C166.2 879.745 149.179 871.028 134.284 865.018C121.371 859.806 111.088 846.688 97.9681 843.185C84.3005 839.535 67.2165 846.657 49.0132 852.164C14.4265 862.634 19.0564 900.242 33.8632 925.07C40.9298 936.921 49.2479 951.613 61.3289 958.771" stroke="url(#paint15_linear_3206_5685)" stroke-width="6" stroke-miterlimit="10" stroke-linecap="round"/>
<path d="M-36.8355 672.306C-33.9002 665.139 -26.8915 657.575 -18.9674 655.622C-10.081 653.431 -2.08457 661.087 3.35675 667.154C8.31497 672.682 12.2269 678.955 17.7324 684.013C21.8987 687.839 25.4945 692.17 29.3739 696.194C37.3998 704.506 46.5907 713.014 55.2808 720.643C60.3644 725.104 66.7331 730.573 73.1854 732.717" stroke="url(#paint16_linear_3206_5685)" stroke-width="6" stroke-miterlimit="10" stroke-linecap="round"/>
<path d="M453.464 430.442C464.15 413.214 468.388 377.901 473.684 362.427C481.146 340.609 490.482 318.838 503.285 299.858C518.153 277.805 531.067 271.643 554.981 287.439C563.361 292.974 568.41 303.131 577.586 307.357C586.372 311.405 602.898 309.647 608.445 317.557C617.759 330.843 598.028 335.116 586.773 340.406C575.548 345.681 578.236 346.243 567.884 351.932C558.007 357.362 540.692 354.982 530.428 359.531C519.894 364.199 509.644 368.042 499.723 374.583C489.283 381.466 485.694 390.825 481.193 402.074C477.613 411.023 473.591 421.793 470.648 431.022C463.493 453.466 457.998 469.724 460.573 493.568C462.915 515.265 467.556 509.977 470.605 537.966C473.446 564.013 472.979 589.379 465.692 614.827C459.621 636.035 461.722 644.939 471.565 670.522C480.686 694.229 474.454 724.626 471.81 749.65C468.938 776.851 466.331 776.561 481.121 810.242C491.485 833.843 498.623 875.602 498.627 905.399C498.628 935.579 508.833 970.877 499.263 999.281" stroke="url(#paint17_linear_3206_5685)" stroke-width="6" stroke-miterlimit="10" stroke-linecap="round"/>
<path d="M468.189 121.605C470.908 147.983 469.071 175.649 456.088 200.693C445.001 222.075 441.56 214.269 424.839 257.88C415.564 282.069 400.634 285.097 391.636 305.745C384.817 321.394 379.586 325.318 388.279 338.619C395.65 349.896 399.983 370.291 399.499 383.504C399.028 396.281 399.609 404.04 402.199 416.394C404.263 426.211 408.157 438.4 408.088 448.704C408.006 461.041 400.352 468.263 397.757 478.82C394.544 491.906 404.326 499.346 408.771 511.565C417.42 535.353 409.272 559.887 412.518 585.096C415.747 610.21 402.954 626.278 393.077 661C386.503 684.107 417.341 703.576 406.093 726.336C395.8 747.16 374.871 779.076 355.496 792.798C333.307 808.513 323.139 818.359 295.929 825.023C281.728 828.504 268.448 833.892 253.301 831.158C238.753 828.534 227.722 830.429 214.223 831.767C203.171 832.866 185.018 828.407 175.265 823.475C163.6 817.583 146.685 815.556 133.442 809.003C117.071 800.905 117.526 801.991 99.6491 796.021C94.3595 794.255 85.2271 788.62 81.7428 784.499C74.9908 776.503 71.8205 775.126 66.9141 773.12C59.553 770.104 38.9135 776.496 30.9555 778.652C16.5489 782.554 7.19657 795.573 -0.756049 807.594C-7.73404 818.133 -22.119 821.985 -28.2993 831.751C-35.7259 843.497 -36.4227 859.063 -34.0209 871.413C-31.4809 884.492 -21.4107 894.747 -12.0154 905.19" stroke="url(#paint18_linear_3206_5685)" stroke-width="6" stroke-miterlimit="10" stroke-linecap="round"/>
<path d="M383.949 713.289C379.224 721.9 377.423 731.456 370.95 739.419C364.484 747.373 356.493 754.304 349.14 761.609C332.911 777.736 311.107 790.135 289.012 795.753C262.275 802.559 237.968 804.378 210.291 802.246C194.11 800.998 172.683 798.226 157.18 794.125C143.961 790.628 134.643 788.559 122.277 782.551C111.851 777.483 104.814 769.848 95.1565 764.211C83.0839 757.162 69.1687 753.431 56.1406 748.914C42.1917 744.076 32.6362 733.029 22.7859 721.82C15.0155 712.984 6.94027 701.411 -2.86503 694.718C-12.5248 688.128 -22.5622 692.705 -31.8489 699.813C-42.027 707.604 -39.3106 716.318 -40.8208 727.389C-42.4499 739.349 -46.9334 752.742 -52.4413 762.801C-55.0869 767.633 -54.3998 772.284 -57.3593 776.917C-61.2825 783.055 -61.896 788.451 -63.7851 795.219C-67.0597 806.927 -77.3804 818.483 -77.2537 830.958C-77.1206 844.22 -72.0129 851.784 -61.3992 858.199C-48.9585 865.718 -49.8483 884.465 -45.0209 896.523C-40.81 907.044 -34.8261 913.923 -28.4771 923.585C-26.0719 927.242 -20.5263 931.919 -20.8679 936.296" stroke="url(#paint19_linear_3206_5685)" stroke-width="6" stroke-miterlimit="10" stroke-linecap="round"/>
<path d="M-64.3756 631.728C-62.8385 628.322 -62.4538 621.869 -60.04 618.985C-57.063 615.434 -50.7159 613.857 -46.8503 611.318C-38.6793 605.964 -31.4849 599.259 -21.8643 595.62C-11.5695 591.722 -3.6176 598.123 4.13766 603.245C13.3408 609.324 25.0921 620.608 33.2747 628.18C67.4257 659.798 80.282 698.499 120.58 727.325C141.549 742.324 171.558 750.968 197.21 750.598C221.644 750.248 244.368 746.159 268.688 741.954C293.977 737.583 314.827 728.03 334.453 710.02C350.521 695.276 371.264 676.297 371.604 654.078C372.106 621.353 393.742 611.328 389.684 589.802C384.822 564.055 388.349 543.086 390.111 520.88C390.457 516.53 392.244 511.045 385.646 503.609" stroke="url(#paint20_linear_3206_5685)" stroke-width="6" stroke-miterlimit="10" stroke-linecap="round"/>
<path d="M441.47 27.8064C427.544 49.985 413.704 74.712 419.876 100.807C421.441 107.433 419.969 110.441 420.546 116.932C421.13 123.511 426.836 126.716 428.285 132.835C431.154 144.957 413.798 151.863 410.136 162.245C405.209 176.229 395.421 180.113 388.541 192.109C381.593 204.215 376.497 217.685 367.742 228.918C360.479 238.235 348.86 245.211 343.13 255.493C339.906 261.286 340.802 266.612 338.836 272.67C336.801 278.941 332.66 281.527 329.716 286.808C323.347 298.249 327.468 315.185 325.833 328.779C324.198 342.374 320.847 352.603 323.699 365.268C330.223 394.208 337.016 422.139 338.719 451.35C340.428 480.686 335.415 507.867 343.123 536.54C349.423 559.998 345.413 592.815 336.468 614.628C334.227 620.089 333.257 626.247 330.111 631.332C327.014 636.346 320.624 640.048 318.696 646.006C314.728 658.256 318.269 665.926 308.258 677.058C290.905 696.335 257.055 698.203 232.493 699.456C218.678 700.161 210.404 697.26 198.344 691.958C186.985 686.967 177.765 687.119 165.746 684.697C158.961 683.33 152.053 678.642 145.147 678.591C138.021 678.536 132.64 681.04 125.05 680.282C111.768 678.953 101.986 680.288 93.1502 669.539C84.5665 659.101 73.5936 652.125 64.4156 642.742C53.9223 632.021 45.7518 616.63 36.9497 604.567C28.6518 593.195 21.4849 580.022 9.31672 573.088C-3.24981 565.921 -22.9121 555.368 -37.5748 561.179C-51.5852 566.732 -58.3692 580.737 -65.1382 592.844C-74.8265 610.166 -79.0466 618.921 -78.586 638.277C-78.158 656.126 -91.0046 669.545 -93.3892 686.831C-95.5727 702.657 -88.5992 717.726 -92.866 734.259C-101.567 767.939 -149.625 788.673 -124.136 827.092C-120.309 832.865 -115.067 838.904 -112.175 845.182C-108.81 852.495 -109.152 858.21 -102.247 863.308C-96.1077 867.844 -88.1301 867.057 -81.9418 871.148C-74.7598 875.896 -69.7357 886.388 -66.0871 893.839C-58.8902 908.556 -55.5664 923.893 -48.3005 938.294C-39.4482 955.839 -25.9515 969.91 -15.2696 986.496C-2.73813 1005.96 -5.0893 1024.83 -1.1477 1046.61C0.614537 1056.37 3.21167 1067.63 2.18234 1077.32C1.80223 1080.91 -0.84668 1082.69 -0.650863 1086.97C-0.393278 1092.52 3.92228 1097.49 5.22547 1102.84C8.82872 1117.59 -4.43085 1128.97 -5.33192 1143.56C0.176582 1140.79 1.50798 1135.41 4.83087 1130.82C9.80205 1123.96 19.8837 1120.19 24.0756 1113.32C31.5295 1101.1 19.124 1084.05 17.1786 1071.77C14.4957 1054.82 20.6207 1033.66 22.4641 1016.74C24.0505 1002.18 29.5995 985.683 18.0971 974.524C8.92283 965.619 -4.01393 957.471 -7.18997 943.759" stroke="url(#paint21_linear_3206_5685)" stroke-width="6" stroke-miterlimit="10" stroke-linecap="round"/>
<path d="M320.894 132.717C310.96 139.316 307.468 147.813 296.989 154.903C287.215 161.515 280.212 169.524 272.269 177.566C255.633 194.412 238.596 206.734 214.95 211.942C192.652 216.855 182.877 222.263 160.958 228.857C148.937 232.474 124.516 235.237 112.824 238.168C101.791 240.934 91.876 247.055 81.2267 251.384C59.4931 260.223 32.2723 260.509 11.7823 272.844C-13.9596 288.333 -32.1133 304.689 -50.9415 327.733C-59.7197 338.479 -69.1721 348.519 -76.9164 360.158C-83.458 369.99 -90.5229 377.959 -100.983 384.144C-105.164 386.614 -112.297 388.588 -115.713 392.736C-118.458 396.067 -118.432 400.595 -118.122 404.844C-117.017 419.825 -134.141 423.992 -145.881 426.327C-169.527 431.037 -195.436 432.158 -195.666 461.291C-195.775 475.312 -186.613 485.98 -183.067 498.251C-180.207 508.14 -183.516 518.795 -185.401 528.879C-186.251 533.426 -185.035 538.459 -190.56 539.302" stroke="url(#paint22_linear_3206_5685)" stroke-width="6" stroke-linecap="round" stroke-linejoin="round"/>
</g>
<defs>
<linearGradient id="paint0_linear_3206_5685" x1="630.67" y1="330.986" x2="463.364" y2="1094.61" gradientUnits="userSpaceOnUse">
<stop stop-color="#BDC0C0" stop-opacity="0.5"/>
<stop offset="1" stop-color="#BDC0C0" stop-opacity="0"/>
</linearGradient>
<linearGradient id="paint1_linear_3206_5685" x1="393.165" y1="354.327" x2="367.188" y2="472.893" gradientUnits="userSpaceOnUse">
<stop stop-color="#BDC0C0" stop-opacity="0.5"/>
<stop offset="1" stop-color="#BDC0C0" stop-opacity="0"/>
</linearGradient>
<linearGradient id="paint2_linear_3206_5685" x1="374.361" y1="57.2071" x2="359.093" y2="126.891" gradientUnits="userSpaceOnUse">
<stop stop-color="#BDC0C0" stop-opacity="0.5"/>
<stop offset="1" stop-color="#BDC0C0" stop-opacity="0"/>
</linearGradient>
<linearGradient id="paint3_linear_3206_5685" x1="377.056" y1="119.962" x2="334.571" y2="313.875" gradientUnits="userSpaceOnUse">
<stop stop-color="#BDC0C0" stop-opacity="0.5"/>
<stop offset="1" stop-color="#BDC0C0" stop-opacity="0"/>
</linearGradient>
<linearGradient id="paint4_linear_3206_5685" x1="405.236" y1="155.61" x2="365.804" y2="335.588" gradientUnits="userSpaceOnUse">
<stop stop-color="#BDC0C0" stop-opacity="0.5"/>
<stop offset="1" stop-color="#BDC0C0" stop-opacity="0"/>
</linearGradient>
<linearGradient id="paint5_linear_3206_5685" x1="342.741" y1="75.2923" x2="280.371" y2="359.965" gradientUnits="userSpaceOnUse">
<stop stop-color="#BDC0C0" stop-opacity="0.5"/>
<stop offset="1" stop-color="#BDC0C0" stop-opacity="0"/>
</linearGradient>
<linearGradient id="paint6_linear_3206_5685" x1="448.072" y1="-85.916" x2="354.503" y2="341.157" gradientUnits="userSpaceOnUse">
<stop stop-color="#BDC0C0" stop-opacity="0.5"/>
<stop offset="1" stop-color="#BDC0C0" stop-opacity="0"/>
</linearGradient>
<linearGradient id="paint7_linear_3206_5685" x1="405.604" y1="-87.6571" x2="224.058" y2="740.97" gradientUnits="userSpaceOnUse">
<stop stop-color="#BDC0C0" stop-opacity="0.5"/>
<stop offset="1" stop-color="#BDC0C0" stop-opacity="0"/>
</linearGradient>
<linearGradient id="paint8_linear_3206_5685" x1="172.971" y1="640.266" x2="146.262" y2="762.173" gradientUnits="userSpaceOnUse">
<stop stop-color="#BDC0C0" stop-opacity="0.5"/>
<stop offset="1" stop-color="#BDC0C0" stop-opacity="0"/>
</linearGradient>
<linearGradient id="paint9_linear_3206_5685" x1="185.08" y1="-64.5624" x2="51.1369" y2="546.789" gradientUnits="userSpaceOnUse">
<stop stop-color="#BDC0C0" stop-opacity="0.5"/>
<stop offset="1" stop-color="#BDC0C0" stop-opacity="0"/>
</linearGradient>
<linearGradient id="paint10_linear_3206_5685" x1="616.218" y1="279.15" x2="450.815" y2="1034.09" gradientUnits="userSpaceOnUse">
<stop stop-color="#BDC0C0" stop-opacity="0.5"/>
<stop offset="1" stop-color="#BDC0C0" stop-opacity="0"/>
</linearGradient>
<linearGradient id="paint11_linear_3206_5685" x1="385.363" y1="19.5916" x2="120.98" y2="1226.3" gradientUnits="userSpaceOnUse">
<stop stop-color="#BDC0C0" stop-opacity="0.5"/>
<stop offset="1" stop-color="#BDC0C0" stop-opacity="0"/>
</linearGradient>
<linearGradient id="paint12_linear_3206_5685" x1="630.67" y1="330.986" x2="463.364" y2="1094.61" gradientUnits="userSpaceOnUse">
<stop stop-color="#BDC0C0" stop-opacity="0.5"/>
<stop offset="1" stop-color="#BDC0C0" stop-opacity="0"/>
</linearGradient>
<linearGradient id="paint13_linear_3206_5685" x1="616.218" y1="279.15" x2="450.815" y2="1034.09" gradientUnits="userSpaceOnUse">
<stop stop-color="#BDC0C0" stop-opacity="0.5"/>
<stop offset="1" stop-color="#BDC0C0" stop-opacity="0"/>
</linearGradient>
<linearGradient id="paint14_linear_3206_5685" x1="563.506" y1="240.036" x2="404.292" y2="966.732" gradientUnits="userSpaceOnUse">
<stop stop-color="#BDC0C0" stop-opacity="0.5"/>
<stop offset="1" stop-color="#BDC0C0" stop-opacity="0"/>
</linearGradient>
<linearGradient id="paint15_linear_3206_5685" x1="273.45" y1="626.983" x2="194.371" y2="987.92" gradientUnits="userSpaceOnUse">
<stop stop-color="#BDC0C0" stop-opacity="0.5"/>
<stop offset="1" stop-color="#BDC0C0" stop-opacity="0"/>
</linearGradient>
<linearGradient id="paint16_linear_3206_5685" x1="26.8846" y1="662.759" x2="14.3799" y2="719.834" gradientUnits="userSpaceOnUse">
<stop stop-color="#BDC0C0" stop-opacity="0.5"/>
<stop offset="1" stop-color="#BDC0C0" stop-opacity="0"/>
</linearGradient>
<linearGradient id="paint17_linear_3206_5685" x1="574.373" y1="268.459" x2="418.149" y2="981.509" gradientUnits="userSpaceOnUse">
<stop stop-color="#BDC0C0" stop-opacity="0.5"/>
<stop offset="1" stop-color="#BDC0C0" stop-opacity="0"/>
</linearGradient>
<linearGradient id="paint18_linear_3206_5685" x1="386.768" y1="-121.367" x2="153.893" y2="941.54" gradientUnits="userSpaceOnUse">
<stop stop-color="#BDC0C0" stop-opacity="0.5"/>
<stop offset="1" stop-color="#BDC0C0" stop-opacity="0"/>
</linearGradient>
<linearGradient id="paint19_linear_3206_5685" x1="177.6" y1="659.997" x2="110.747" y2="965.132" gradientUnits="userSpaceOnUse">
<stop stop-color="#BDC0C0" stop-opacity="0.5"/>
<stop offset="1" stop-color="#BDC0C0" stop-opacity="0"/>
</linearGradient>
<linearGradient id="paint20_linear_3206_5685" x1="197.957" y1="454.926" x2="135.415" y2="740.384" gradientUnits="userSpaceOnUse">
<stop stop-color="#BDC0C0" stop-opacity="0.5"/>
<stop offset="1" stop-color="#BDC0C0" stop-opacity="0"/>
</linearGradient>
<linearGradient id="paint21_linear_3206_5685" x1="267.674" y1="-41.7403" x2="7.37211" y2="1146.35" gradientUnits="userSpaceOnUse">
<stop stop-color="#BDC0C0" stop-opacity="0.5"/>
<stop offset="1" stop-color="#BDC0C0" stop-opacity="0"/>
</linearGradient>
<linearGradient id="paint22_linear_3206_5685" x1="111.159" y1="73.3178" x2="-0.0786528" y2="581.035" gradientUnits="userSpaceOnUse">
<stop stop-color="#BDC0C0" stop-opacity="0.5"/>
<stop offset="1" stop-color="#BDC0C0" stop-opacity="0"/>
</linearGradient>
<clipPath id="clip0_3206_5685">
<rect width="390" height="1190" fill="white"/>
</clipPath>
</defs>
</svg>
