<svg width="1440" height="1726" viewBox="0 0 1440 1726" fill="none" xmlns="http://www.w3.org/2000/svg">
<g clip-path="url(#clip0_3055_7761)">
<path d="M1665.96 2531.37C1708.54 2561.65 1744.99 2600.52 1772.47 2644.95C1785.55 2666.07 1797.28 2694.65 1816.31 2710.61C1829.88 2721.99 1873.62 2718.2 1890.35 2723.99C1955.31 2746.44 2000.09 2726.4 2028.09 2669.69C2043.49 2638.48 2051.19 2606.57 2049.89 2573.99C2048.88 2548.58 2038.81 2522.76 2046.07 2496.61C2060.2 2445.68 2074.88 2453.7 2101 2407.76C2109.1 2393.51 2154.05 2317.62 2165.25 2305.66C2193.07 2275.97 2229.41 2283.76 2271.17 2271.04C2311.27 2258.81 2335.89 2257.1 2372.5 2236.67C2395.77 2223.68 2420.53 2208.27 2445.32 2198.48C2487.02 2182 2523.04 2187.5 2569.34 2192.84C2613.89 2197.98 2677.79 2223.14 2691.67 2237.97C2702.62 2249.67 2739.35 2272.34 2754.22 2266.38C2773.16 2258.79 2781.04 2250.59 2780.13 2230.2C2779.48 2215.64 2773.14 2183.78 2772.5 2169.22C2772.09 2159.99 2771.6 2150.44 2767.41 2142.21C2761.16 2129.92 2747.99 2122.97 2735.42 2117.32C2673.1 2089.33 2611.12 2068.61 2542.82 2068.05C2488.88 2067.6 2400.99 2087.82 2361.5 2106.54C2299.04 2136.14 2284.71 2139.33 2235.64 2147.95C2188.13 2156.31 2162.42 2146.57 2155.69 2142.37C2146.35 2136.55 2139.63 2116.01 2134.04 2106.52C2123.35 2088.36 2102.81 2079.3 2093.32 2062.58C2086.8 2051.08 2051.65 2052.83 2030.96 2067.28C2003.9 2086.17 1986.99 2091.77 1961.45 2092.27C1916.37 2093.16 1899.17 2079.4 1869.69 2054.78C1835.18 2025.97 1798.23 1975.57 1778.69 1939.02C1752.33 1889.73 1705.26 1842.99 1658.24 1809.49C1645.39 1800.34 1645.73 1786.93 1633.94 1775.44C1622.29 1764.08 1608.24 1752.27 1593.27 1746.33C1574.5 1738.9 1554.8 1737.45 1536.12 1730.81C1518.19 1724.44 1502.65 1716.97 1483.37 1712.54C1443.22 1703.32 1395.54 1701.32 1353.77 1703.93C1307.86 1706.79 1275.16 1724.86 1240.39 1754.2C1201.98 1786.6 1162.07 1813.33 1126.73 1851.72C1109.82 1870.1 1094.08 1887.11 1075.94 1904.64C1062.61 1917.53 1046.69 1934.31 1040.58 1952.74C1022.8 2006.36 1016.99 2035.35 1010.41 2081.42C1008.81 2092.63 994.414 2115.43 992.131 2126.62C989.554 2139.24 981.068 2151.51 977.563 2164.06C970.613 2188.94 971.968 2221.59 959.51 2243.24C937.239 2281.94 881.399 2337.67 845.174 2361.88C810.351 2385.15 824.531 2386.11 798.373 2412.77C788.559 2422.77 766.982 2434.1 759.204 2455.01" stroke="url(#paint0_linear_3055_7761)" stroke-opacity="0.5" stroke-width="9" stroke-miterlimit="10" stroke-linecap="round"/>
<path d="M338.409 1102.67C341.38 1094.92 334.691 1086.9 327.827 1082.24C320.964 1077.57 312.699 1073.28 310.302 1065.33C309.241 1061.81 309.521 1058.02 308.693 1054.43C307.425 1048.95 303.686 1044.42 299.994 1040.16C296.309 1035.91 292.45 1031.52 290.855 1026.13C289.259 1020.73 290.661 1013.99 295.555 1011.22C298.732 1009.41 302.605 1009.61 306.257 1009.53C314.675 1009.33 323.041 1007.35 330.651 1003.75" stroke="url(#paint1_linear_3055_7761)" stroke-opacity="0.5" stroke-width="9" stroke-linecap="round" stroke-linejoin="round"/>
<path d="M410.893 1121.31C396.766 1116.51 381.577 1110.9 373.526 1098.34C368.712 1090.84 367.123 1081.8 364.513 1073.28C362.05 1065.25 358.605 1057.5 357.103 1049.24C355.6 1040.98 356.315 1031.82 361.462 1025.2C365.795 1019.61 372.878 1016.3 376.076 1009.99C377.919 1006.36 378.266 1002.07 380.376 998.584" stroke="url(#paint2_linear_3055_7761)" stroke-opacity="0.5" stroke-width="9" stroke-linecap="round" stroke-linejoin="round"/>
<path d="M580.315 933.878C581.65 925.927 592.793 920.579 599.342 918.136C605.438 915.866 611.767 914.39 617.875 912.114C622.769 910.285 627.262 907.621 631.682 904.877C639.626 899.95 648.085 896.238 655.743 890.737C664.482 884.461 667.76 875.642 673.441 867.089C676.272 862.823 681.914 858.751 686.667 857.128" stroke="url(#paint3_linear_3055_7761)" stroke-opacity="0.5" stroke-width="9" stroke-linecap="round" stroke-linejoin="round"/>
<path d="M613.596 797.103C633.591 787.048 649.908 766.592 673.121 761.999C699.051 756.865 725.943 751.818 750.532 742.231C779.373 730.988 810.15 722.856 837.115 706.707C857.538 694.476 881.025 689.215 898.55 671.303C908.664 660.968 918.058 650.887 929.007 641.433C935.523 635.812 943.053 629.877 948.288 623.321" stroke="url(#paint4_linear_3055_7761)" stroke-opacity="0.5" stroke-width="9" stroke-linecap="round" stroke-linejoin="round"/>
<path d="M613.596 721.041C619.531 713.89 623.229 703.569 631.147 697.767C638.631 692.28 649.36 690.43 658.066 688.715C680.852 684.215 699.712 672.485 719.954 661.342C742.553 648.911 770.153 646.968 793.493 635.612C803.587 630.698 812.393 624.91 823.489 621.572C837.99 617.212 850.201 612.559 862.231 602.905C873.781 593.639 885.918 585.507 895.485 574.304C901.748 566.967 911.281 559.563 915.507 550.771" stroke="url(#paint5_linear_3055_7761)" stroke-opacity="0.5" stroke-width="9" stroke-linecap="round" stroke-linejoin="round"/>
<path d="M611.84 886.036C627.028 876.262 637.436 859.405 650.488 846.967C669.062 829.262 686.613 822.412 709.967 818.059C720.161 816.157 732.633 814.975 742.901 813.486C754.604 811.79 772.59 812.878 784.233 810.241C805.577 805.401 821.927 797.416 842.603 790.96C862.238 784.825 879.149 778.122 898.249 769.897C906.288 766.432 914.259 763.134 922.597 760.544C929.14 758.507 937.632 755.39 942.786 750.903C955.625 739.734 956.052 722.489 979.666 716.434C1000.7 711.04 1012.97 700.097 1028.43 684.308C1052.96 659.265 1055.42 623.154 1055.34 589.973C1055.34 586.995 1055.61 583.864 1054.75 581.194" stroke="url(#paint6_linear_3055_7761)" stroke-opacity="0.5" stroke-width="9" stroke-linecap="round" stroke-linejoin="round"/>
<path d="M241.384 977.194C270.058 977.194 294.974 973.081 322.353 968.414C352.296 963.314 378.633 954.421 409.477 959.275C423.664 961.511 440.115 963.547 454.869 963.187C469.417 962.833 484.084 957.853 495.941 950.122C522.072 933.084 545.619 915.425 566.362 892.165C576.196 881.136 581.817 867.891 589.248 855.606C596.612 843.429 608.642 842.862 620.379 837.414C646.169 825.437 645.208 806.71 674.35 799.152C709.6 790.006 757.742 779.604 792.605 769.643C822.415 761.131 846.442 755.43 871.979 736.937C883.075 728.899 894.858 721.234 905.921 713.209C922.331 701.306 939.369 683.146 952.948 667.858C969.939 648.731 979.052 634.931 979.326 609.207C979.393 603.039 978.758 597.043 976.328 592.21" stroke="url(#paint7_linear_3055_7761)" stroke-opacity="0.5" stroke-width="9" stroke-linecap="round" stroke-linejoin="round"/>
<path d="M977.009 697.12C994.02 681.557 1016.23 661.081 1020.54 635.905C1025.03 609.648 1014.24 590.367 1020.54 564.864C1028.68 531.903 1036.23 509.965 1045.07 479.796C1055.39 444.492 1065.73 428.816 1079.23 405.022C1092.09 382.35 1109.85 356.533 1126.74 336.571C1144.94 315.053 1143.64 292.454 1169.35 273.554C1190.89 257.725 1209.51 230.479 1226.38 210.257C1241.61 191.991 1264.19 174.799 1288.6 166.748C1312.27 158.95 1345.14 159.898 1365.95 172.67C1376.62 179.219 1426.92 209.709 1424.28 218.141" stroke="url(#paint8_linear_3055_7761)" stroke-opacity="0.5" stroke-width="9" stroke-linecap="round" stroke-linejoin="round"/>
<path d="M1227.42 -43.5995C1236.83 -53.9075 1252.53 -54.2614 1266.34 -56.3243C1291.01 -60.023 1313.99 -74.7707 1338.39 -79.9648C1402.34 -93.5843 1465.33 -55.5766 1524.6 -28.8517C1578.41 -4.59035 1616.92 31.9886 1659.38 74.6763C1692.91 108.391 1705.37 147.2 1709.59 194.561C1713.25 235.627 1717.45 242.203 1721.79 258.392C1725.25 271.311 1727.87 279.456 1732.74 291.907C1739.42 308.991 1742.02 327.338 1745.23 345.403C1749.07 367.108 1750.87 391.79 1756.55 413.087C1760.73 428.756 1766.61 444.953 1777.69 456.796C1788.78 468.633 1819.07 463.9 1837.15 459.714" stroke="url(#paint9_linear_3055_7761)" stroke-opacity="0.5" stroke-width="9" stroke-linecap="round" stroke-linejoin="round"/>
<path d="M1550.53 259.961C1558.03 265.295 1558.63 271.518 1560.55 278.514C1562.17 284.383 1562.08 290.298 1563.31 296.213C1567.03 314.052 1580.17 332.865 1585.63 350.317C1589.86 363.87 1589.58 379.626 1589.58 393.879C1589.58 405.95 1590.97 424.149 1590.51 436.253C1589.39 465.402 1589.63 484.235 1589.63 513.364C1589.63 523.478 1589.63 535.288 1590.61 545.243C1591.48 554.075 1588.49 560.625 1584.03 568.543C1580.44 574.925 1572.49 580.513 1571.72 588.07C1571.13 593.825 1573.31 603.993 1576.81 608.667C1584.97 619.542 1601.56 615.49 1610.56 609.434C1623.26 600.882 1624.33 591.155 1623.59 576.24C1623.25 569.47 1623.59 563.308 1627.76 557.507C1632.07 551.505 1636.77 549.328 1638.67 542.018C1640.68 534.327 1639.53 526.342 1635.3 520.474C1630.68 514.045 1630.36 509.618 1629.6 501.66C1627.61 481.064 1627.22 459.74 1627.87 439.131C1628.52 418.441 1626.49 398.192 1624.49 377.73C1623.29 365.552 1620.34 353.248 1619.08 340.99C1617.58 326.443 1610.75 313.625 1607.53 296.6C1604.54 280.738 1603.22 266.584 1593.4 253.692C1584.38 241.869 1574.7 230.259 1557.46 230.706C1550.66 230.886 1542.98 235.399 1536.5 231.948C1527.29 227.034 1522.31 218.308 1515.93 210.938C1503.73 196.871 1495.7 182.484 1483.67 168.517C1475.72 159.297 1464.53 150.438 1454.6 142.827C1446.34 136.498 1440.16 128.927 1431.91 122.618C1416.8 111.075 1397.76 100.707 1379.22 95.3925C1371.33 93.1293 1367.34 91.1064 1359.4 88.2957C1352.13 85.7187 1345.83 83.135 1338.21 82.7745C1330.84 82.4273 1322.22 82.6076 1315.57 83.0015" stroke="url(#paint10_linear_3055_7761)" stroke-opacity="0.5" stroke-width="9" stroke-linecap="round" stroke-linejoin="round"/>
<path d="M1479.95 218.075C1485.27 222.187 1493.65 230.299 1498.57 237.309C1502.91 243.478 1506.69 249.293 1510.65 255.528C1520.56 271.137 1525.85 294.584 1531.11 312.723C1537 333.093 1545.36 353.542 1548.15 373.951C1552.04 402.358 1552.92 431.293 1554.28 459.8C1556.1 497.962 1553.55 534.26 1540.23 568.896C1533.93 585.287 1528.82 606.457 1534.03 622.867C1540.11 641.974 1525.11 651.121 1511.06 662.43C1498.22 672.758 1483.49 682.445 1470.21 692.066C1457.1 701.559 1439.8 711.367 1425.06 717.956C1406.17 726.395 1394.42 726.569 1373.62 727.61C1353.17 728.631 1326.31 727.39 1306.4 722.509C1291.49 718.858 1276.78 715.473 1263.75 707.288C1245.36 695.745 1236.76 674.888 1230.81 655.888C1225.62 639.317 1225.28 623.748 1219.89 600.148C1214.73 577.555 1220.43 555.27 1225.22 534.995C1233.31 500.792 1223.74 466.036 1261.55 447.743C1278.83 439.385 1302.91 435.392 1321.23 438.129C1339.29 440.833 1347.23 444.545 1352.96 461.903C1356.57 472.852 1359.48 481.178 1359.72 490.391" stroke="url(#paint11_linear_3055_7761)" stroke-opacity="0.5" stroke-width="9" stroke-linecap="round" stroke-linejoin="round"/>
<path d="M1363.21 322.591C1358 319.68 1355.34 313.211 1349.72 311.215C1337.2 306.762 1338.83 307.256 1333.77 306.394C1330.15 305.78 1327.35 303.25 1323.81 304.645C1322.86 305.019 1319.27 308.384 1321.48 308.738" stroke="url(#paint12_linear_3055_7761)" stroke-opacity="0.5" stroke-width="9" stroke-linecap="round" stroke-linejoin="round"/>
<path d="M1380.05 377.783C1380.65 359.27 1360.61 350.157 1346.36 345.757C1330.87 340.97 1326.37 338.494 1310.02 337.692C1304.92 337.445 1295.23 337.058 1290.04 337.566C1285.79 337.979 1281.2 339.315 1271.08 338.948C1268.84 338.867 1263.9 336.951 1261.99 335.723C1259.14 333.894 1258.8 329.921 1260.44 326.837C1264.66 318.879 1271.94 312.296 1278.73 307.756C1288.06 301.514 1294.84 291.139 1304.49 285.484C1315.62 278.968 1327.86 275.517 1339.77 278.101C1349.9 280.297 1361.79 285.738 1370.11 292.161C1371.15 292.962 1374.72 295.285 1378.17 297.128" stroke="url(#paint13_linear_3055_7761)" stroke-opacity="0.5" stroke-width="9" stroke-linecap="round" stroke-linejoin="round"/>
<path d="M1282.16 606.877C1284.75 615.884 1296.7 623.167 1304.32 627.327C1313.64 632.414 1326.68 635.231 1337.56 635.191C1348.96 635.151 1360.06 636.566 1371.44 634.437C1381.49 632.554 1391.11 629.263 1400.96 626.706C1425.13 620.43 1443.18 603.606 1457.74 584.132C1472.75 564.043 1476.15 531.082 1478.51 507.141C1479.98 492.36 1479.75 477.265 1479.75 462.177C1479.75 444.545 1475.03 427.835 1474.21 410.503C1473.63 398.299 1472.29 385.841 1471.13 373.584C1470.52 367.161 1469.08 360.839 1468.67 354.49C1468.31 349.042 1469.91 343.901 1469.31 338.467C1467.34 320.334 1462.14 297.148 1447.84 283.942C1438.48 275.296 1431.51 262.505 1422.63 253.519C1414.1 244.886 1406.63 236.421 1398.39 228.069C1385.47 214.984 1366.7 207.54 1348.62 203.233C1328.66 198.473 1311.52 202.539 1291.35 207.306C1271.78 211.926 1256.44 225.619 1242.92 240.186C1233.44 250.401 1226.2 256.55 1218.89 268.38C1214.75 275.083 1213.07 279.643 1208.53 285.925C1206 289.41 1199.05 300.793 1196.66 304.231" stroke="url(#paint14_linear_3055_7761)" stroke-opacity="0.5" stroke-width="9" stroke-linecap="round" stroke-linejoin="round"/>
<path d="M1199.35 669.327C1199.83 664.099 1196.98 657.556 1195.5 652.596C1193.63 646.334 1191.56 640.098 1190.13 633.689C1186.52 617.619 1183.85 600.361 1182.69 583.918C1181.91 572.842 1182.02 561.319 1182.02 550.23C1182.02 539.14 1185.21 528.258 1189.17 517.603C1193.12 506.948 1198.19 494.944 1199.35 483.494" stroke="url(#paint15_linear_3055_7761)" stroke-opacity="0.5" stroke-width="9" stroke-linecap="round" stroke-linejoin="round"/>
<path d="M960.045 777.127C967.883 772.461 974.459 765.504 982.757 761.278C993.406 755.85 1005.48 752.986 1016.79 748.974C1028.9 744.688 1036.04 740.802 1046.34 732.811C1055.15 725.974 1066.42 721.027 1072.22 711.52C1096.91 671.049 1085.9 611.217 1078.77 568.369C1074.91 545.216 1077.35 519.693 1084.75 496.379C1092.32 472.512 1102.3 450.814 1114.53 429.564C1128.89 404.595 1141.41 390.341 1155.97 365.265C1160.23 357.914 1166.45 351.265 1173.64 346.084C1178.65 342.479 1183.76 339.001 1189.69 338.22C1208.22 335.769 1212.69 330.836 1222.4 322.591C1256.97 293.222 1269.57 246.736 1318.84 238.671C1342.09 234.865 1365.53 243.391 1381.41 262.204C1394.89 278.16 1406.98 283.128 1406.23 293.583C1405.3 306.594 1395.09 313.104 1398.24 328.472C1401.08 342.279 1404.95 356.412 1406.05 369.992C1407.34 385.895 1408.38 400.722 1411.15 416.271C1414.27 433.79 1413.16 451.508 1414.87 469.461C1416.31 484.636 1418.55 502.061 1414.21 516.555C1410.21 529.874 1402.33 544.922 1391.52 553.467C1383.66 559.676 1365.46 564.63 1354.6 561.699C1341.44 558.154 1335.49 549.862 1324.86 541.764C1321.8 539.434 1306.23 520.587 1302.52 520.667C1295.3 520.834 1294.89 536.043 1294.9 541.764C1294.91 553.447 1295.6 561.619 1302.34 574.384C1309.7 588.337 1327.19 597.51 1340.63 598.846C1372.05 601.97 1401.45 596.99 1420.93 570.485C1433.26 553.714 1438.48 533.432 1439.68 512.409C1440.65 495.505 1441.47 478.827 1444.38 461.917C1447.51 443.677 1443.57 428.649 1442.02 410.056C1440.85 396.029 1443.28 377.149 1442.02 363.082C1441.05 352.113 1435.87 343.113 1433.5 332.932" stroke="url(#paint16_linear_3055_7761)" stroke-opacity="0.5" stroke-width="9" stroke-linecap="round" stroke-linejoin="round"/>
<path d="M1315.1 406.177C1302.95 377.049 1240.43 406.771 1225.52 419.242C1202.3 438.663 1179.61 460.161 1166.41 487.921C1159.45 502.541 1155.28 522.303 1153.01 538.092C1150 558.922 1147.97 581.461 1148.88 602.691C1149.82 624.676 1152.36 648.537 1157.81 669.333C1163.71 691.812 1175.57 708.71 1193.26 724.499C1220.99 749.241 1268.64 754.355 1303.52 763.174C1341.54 772.781 1384.23 781.634 1423.25 770.571C1441.64 765.357 1465.11 756.111 1479.76 744.274C1492.51 733.972 1499.98 726.682 1509.94 713.283C1515.05 706.406 1521.97 703.909 1527.74 699.537C1534.35 694.529 1545.16 684.795 1553.11 683.5C1572.61 680.329 1584.73 691.805 1601.93 688.434C1620.24 684.842 1629.69 678.039 1648.36 673.279C1667.04 668.519 1682.38 678.847 1699.74 681.731C1717.37 684.662 1733.5 686.925 1746.45 671.51C1760.76 654.472 1764.6 647.883 1787.9 643.183C1799.67 640.806 1843.39 637.735 1834.72 638.362" stroke="url(#paint17_linear_3055_7761)" stroke-opacity="0.5" stroke-width="9" stroke-linecap="round" stroke-linejoin="round"/>
<path d="M1166.53 226.233C1171.48 219.41 1183.46 205.583 1187.58 198.193C1190.08 193.72 1194.33 189.066 1198.09 185.655C1206 178.491 1210.08 171.815 1215.34 166.641C1245.73 136.772 1284.15 125.963 1323.78 124.307C1346.1 123.372 1355.3 130.423 1375.85 140.777C1382.81 144.289 1392.85 150.578 1399.53 154.424C1405.67 157.962 1412.89 162.048 1419.29 164.932C1426.18 168.043 1441.93 177.677 1445.57 183.438C1448.33 187.818 1448.63 202.492 1449.4 207.746C1451.27 220.425 1451.48 229.571 1455.7 241.875C1459.98 254.353 1469.47 257.811 1477.6 266.724C1487.69 277.787 1493.28 288.161 1498.65 301.955C1510.65 332.812 1506.71 363.489 1511.71 395.749C1516.92 429.383 1513.24 461.403 1514.66 496.212C1516.88 550.797 1507.3 633.429 1449.4 657.216C1434.46 663.351 1415 668.305 1398.83 671.129C1380.23 674.38 1364.82 677.305 1345.92 677.305C1311.51 677.305 1274.5 674.14 1260.22 635.672C1254.2 619.449 1253.2 608.146 1262.3 593.411C1268.71 583.01 1273.93 570.639 1271.18 558.094C1269.23 549.228 1263.03 542.806 1263.06 533.439C1263.1 519.179 1265.51 501.086 1274.45 489.449C1286.76 473.446 1305.29 465.575 1318.97 481.198C1329.67 493.408 1339.33 521.549 1357.06 525.962C1375.28 530.501 1385.13 506.18 1386.32 492.233C1387.73 475.71 1385.94 459.613 1383.61 443.858C1380.79 424.83 1372.48 409.962 1358.58 396.243C1342.14 380.013 1323.91 370.973 1299.82 367.555C1279.24 364.631 1259.49 363.823 1240.65 370.746C1233.25 373.464 1223.54 376.828 1216.04 379.152C1208.11 381.608 1201.76 379.098 1194.62 384.032C1188.23 388.445 1182.47 398.893 1177.74 404.788C1169.06 415.61 1161.73 424.57 1154 436.207C1132.52 468.526 1111.08 507.909 1109.01 547.713C1108.1 565.211 1115.11 576.107 1118.52 592.497C1120.43 601.656 1120.2 614.842 1119.29 624.242C1118.59 631.386 1119.79 656.528 1121.46 663.819C1130.84 704.704 1141.8 720.253 1167.21 746.484C1190.77 770.812 1215.01 782.562 1245.93 795.981C1267.56 805.368 1290.4 806.509 1313.63 810.308C1330.79 813.112 1355.48 820.329 1373.33 816.804C1409.79 809.601 1447.89 807.704 1480.21 787.723C1497.77 776.867 1512.03 767.42 1526.84 753.674C1540.76 740.749 1567.32 725.367 1585.28 720.92C1614.57 713.663 1643.17 715.306 1673.34 720.513C1704.44 725.881 1738.46 724.459 1769.99 726.949C1808.77 730.013 1840.36 729.72 1874.75 710.112C1890.9 700.898 1908.1 694.356 1923.34 683.927C1938.08 673.826 1948.42 656.755 1957.01 641.133C1973.54 611.043 1973.33 575.666 1987.83 543.847C2000.53 516.007 2024.21 500.986 2038.83 475.997C2051.39 454.553 2056.97 419.796 2085.24 413.013C2100.57 409.335 2117.71 415.33 2133.01 414.262C2146.03 413.354 2152.69 402.225 2162.28 394.454C2180.76 379.492 2214.45 364.764 2205.78 335.422C2201.97 322.537 2193.28 312.77 2190.43 299.344C2187.78 286.853 2185.88 274.362 2187.75 261.443C2188.63 255.381 2190.56 250.247 2191.69 244.325" stroke="url(#paint18_linear_3055_7761)" stroke-opacity="0.5" stroke-width="9" stroke-linecap="round" stroke-linejoin="round"/>
<path d="M1400.31 878.339C1414.11 878.813 1430.86 874.246 1443.87 870.327C1453.86 867.316 1474.25 866.315 1481 857.629" stroke="url(#paint19_linear_3055_7761)" stroke-opacity="0.5" stroke-width="9" stroke-linecap="round" stroke-linejoin="round"/>
<path d="M1139.92 806.583C1133.06 798.678 1121.22 791.207 1110.25 792.095C1099.6 792.957 1089.87 803.492 1094.94 814.988C1106.93 842.154 1133.57 839.657 1157.53 846.767C1172.81 851.3 1187.05 852.475 1201.95 857.309C1214.4 861.341 1245.33 871.442 1258.31 873.992C1293.11 880.829 1310.23 886.984 1344.95 894.869C1373.16 901.278 1401.76 905.411 1431.17 905.411C1450.16 905.411 1459.49 904.062 1477.93 898.02C1492.67 893.187 1506.47 885.182 1516.63 873.438C1524.1 864.793 1530.97 869.206 1543.69 866.502C1554.77 864.145 1568.97 855.126 1578.98 848.71C1590.74 841.179 1601.26 833.515 1613.13 826.545C1616.77 824.408 1621.04 821.938 1625.58 819.535C1638.17 812.865 1652.22 809.36 1666.48 809.066C1673.45 808.919 1680.4 809.554 1687.22 810.976C1693.06 812.191 1698.92 813.633 1704.26 814.374C1732.32 818.286 1748.69 811.109 1775.67 815.903C1779.32 816.55 1792.24 818.42 1795.91 818.96C1804.25 820.189 1815.46 819.374 1821.42 815.048C1828.24 810.094 1833.55 804.393 1836.24 796.408" stroke="url(#paint20_linear_3055_7761)" stroke-opacity="0.3" stroke-width="9" stroke-linecap="round" stroke-linejoin="round"/>
<path d="M1001 1745.94C1002.04 1743.12 1005.4 1740.43 1007.29 1737.96C1009.32 1735.31 1011.7 1733.09 1013.87 1730.61C1020.04 1723.53 1024.89 1715.66 1030.33 1708.04C1034.85 1701.7 1041.8 1697.68 1048.24 1693.1C1055.56 1687.89 1061.55 1681.18 1070.02 1678.34C1076.74 1676.08 1083.01 1672.81 1089.58 1670.18C1093.3 1668.69 1105.17 1660.86 1107.88 1657.97" stroke="url(#paint21_linear_3055_7761)" stroke-opacity="0.5" stroke-width="9" stroke-miterlimit="10" stroke-linecap="round"/>
<path d="M1172.11 1628.38C1199.83 1618.77 1217.05 1595.3 1241.52 1581.16C1252.86 1574.61 1260.49 1568.37 1269.91 1558.75C1280.12 1548.32 1286.12 1534.78 1301.1 1531.05C1319.55 1526.46 1345.26 1526.99 1364.16 1527.9C1386.04 1528.96 1404.3 1531.33 1425.8 1533.96C1459.74 1538.12 1494.59 1546.55 1528.02 1551.39C1547.09 1554.15 1564.59 1560.31 1582.19 1568.13C1589.42 1571.35 1597.02 1574.7 1604.56 1576.81C1611.69 1578.81 1632.17 1582.68 1640.14 1582.35" stroke="url(#paint22_linear_3055_7761)" stroke-opacity="0.5" stroke-width="9" stroke-miterlimit="10" stroke-linecap="round"/>
<path d="M640.768 1376.85C641.429 1358.72 624.972 1354.53 614.337 1341.73C590.603 1313.17 592.499 1255.59 581.73 1224.81C570.087 1191.53 552.575 1175.26 526.164 1154.57C498.571 1132.96 485.873 1113.6 457.86 1109.62C423.905 1104.8 400.538 1072.35 399.009 1045.36C396.779 1005.93 445.909 1004.37 476.313 999.365C495.654 996.181 504.42 992.93 522.492 984.397C537.707 977.214 545.979 964.108 561.461 959.488C577.11 954.815 586.05 965.13 601.599 959.702C616.28 954.575 638.111 948.459 651.377 939.827C665.27 930.787 677.941 920.433 689.898 908.843C695.233 903.669 702.884 895.163 706.562 888.507C710.428 881.517 711.489 871.689 716.863 866.335C738.768 844.531 794.007 835.925 823.81 828.06C857.157 819.255 873.695 811.517 911.555 808.813C926.336 807.758 935.096 811.73 948.281 814.187C967.342 817.739 972.075 811.25 996.236 816.858C1013.65 820.897 1017.23 833.401 1044.97 841.132C1058.92 845.025 1086.43 858.137 1099.66 863.545C1134.45 877.758 1154.39 883.5 1188.77 899.029C1221.41 913.763 1248.44 914.638 1283.21 921.521C1324.57 929.706 1332.09 923.237 1368.85 938.512C1404.01 953.119 1449.15 939.847 1484.9 933.712C1528.36 926.254 1593.92 878.88 1616.94 861.829C1639.95 844.778 1665.2 852.836 1665.2 852.836C1673.7 854.351 1686.39 855.88 1694.41 855.486C1712.97 854.572 1724.93 849.444 1744.05 851.053C1756.81 852.128 1767.93 856.04 1779.03 862.416C1784.06 865.307 1793.44 869.86 1799.04 871.389C1813.67 875.388 1828.34 875.134 1839.48 868.612C1851.99 861.275 1859.28 845.586 1862.26 831.712C1864.45 821.524 1867.62 810.903 1872.64 801.77" stroke="url(#paint23_linear_3055_7761)" stroke-opacity="0.5" stroke-width="9" stroke-linecap="round" stroke-linejoin="round"/>
<path d="M930.356 1945.2C940.116 1930.34 947.573 1919.01 976.829 1899.67C991.656 1889.86 995.729 1864.33 1011.69 1847.63C1045.26 1812.47 1060.8 1788.92 1096.75 1765.69C1120.3 1750.47 1150.84 1694.03 1195.5 1704.94C1231.47 1713.73 1244.62 1703.35 1265.82 1694.06C1356.26 1654.47 1372.75 1662.18 1429.14 1670.9C1498.94 1681.69 1544.68 1676.83 1605.62 1717.3C1677.59 1765.1 1748.52 1824.41 1804.53 1882.15C1830.56 1909 1824.88 1933.47 1850.5 1962.61C1865.87 1980.09 1887.21 1993.69 1903.49 2008.06C1953.59 2052.3 1971.28 2050.51 2013.82 2030.22C2068.78 2004.01 2086.76 2014.85 2106.62 2008.52C2175.17 1986.67 2215.57 2031.61 2272.82 1996.52C2296.14 1982.22 2325.36 1995.41 2346.33 1976.64C2347.26 1975.8 2346.59 1974.25 2345.35 1974.31C2301.55 1976.42 2266.48 1972.84 2243.73 1963.28C2221.92 1954.1 2177.95 1968.5 2158.01 1963.88C2058.56 1940.9 2051.31 1984.62 2005.09 1952.64C1952.17 1916.03 1911.13 1890.92 1881.65 1832.45C1864.18 1797.82 1817.76 1773.91 1792.94 1743.5C1774.6 1721.02 1761.86 1697.62 1740.19 1678.98C1667.01 1616.05 1566.61 1604.31 1469.19 1589.96C1422.74 1583.13 1357.99 1576.86 1312.91 1587.86C1279.16 1596.09 1246.37 1618.64 1199.5 1651.43C1167.79 1673.61 1131.96 1680.39 1107.54 1699.53C1069.47 1729.37 1039.32 1754.33 1015.6 1770.8C966.347 1804.99 994.788 1798.55 946.806 1854.25C924.12 1880.58 903.117 1903.05 891.447 1932.4C877.039 1968.65 889.21 2012.09 879.236 2043.53C859.915 2104.41 875.203 2104.43 850.334 2158.72C839.138 2183.16 804.889 2232.24 765.573 2250.43C760.165 2252.93 762.609 2261.06 756.393 2264.67C744.844 2271.4 738.822 2279.46 728.927 2285.5C699.746 2303.34 706.462 2307.86 692.609 2322.28C672.554 2343.16 692.495 2352.81 680.792 2382.18C666.779 2417.35 668.214 2423.4 674.944 2448.48C682.821 2477.85 703.024 2521.19 685.873 2546.3C665.443 2576.21 580.001 2548.85 531.218 2541.38C458.835 2530.28 422.93 2585.53 356.348 2622.8C312.031 2647.6 263.388 2638.68 213.17 2671.44C157.003 2708.08 113.467 2704.01 34.4743 2698.21C-47.4962 2692.21 -135.896 2628.14 -174.845 2573.24C-207.091 2527.79 -237.294 2522.26 -252.076 2488.51C-276.07 2433.7 -311.594 2342.56 -253.524 2304.76C-202.024 2271.23 -134.127 2276.81 -75.8234 2312.62C-11.0775 2352.39 91.6695 2372.86 151.956 2326.62C209.571 2282.43 207.422 2195.96 179.321 2120.36C154.025 2052.3 76.1072 2013.8 8.87104 1991.24C-29.7709 1978.27 -64.574 1999.83 -100.692 2001.5C-145.176 2003.55 -172.942 1999.24 -208.166 2008.02C-268.953 2023.18 -299.27 2037.72 -319.098 2047.91C-357.333 2067.57 -373.636 2050.05 -409.113 2074.32C-427.733 2087.06 -454.438 2087.16 -465 2087.96" stroke="url(#paint24_linear_3055_7761)" stroke-opacity="0.5" stroke-width="9" stroke-miterlimit="10" stroke-linecap="round"/>
<path d="M1243.76 -88.4038C1259.97 -96.9627 1272.58 -109.995 1290.84 -115.756C1309.08 -121.511 1328.65 -124.095 1347.61 -127.927C1389.45 -136.379 1436.15 -133.288 1476.33 -119.355C1524.97 -102.491 1564.7 -80.3589 1605.62 -48.6069C1629.55 -30.0403 1660.08 -3.716 1680.01 18.5959C1697 37.6231 1709.4 50.4148 1722.49 72.473C1733.53 91.0796 1736.64 110.2 1745.9 128.894C1757.46 152.267 1775.31 172.376 1790.96 192.792C1807.72 214.656 1811.26 241.675 1815.09 269.254C1818.11 290.999 1818.8 317.323 1827.2 337.819C1835.48 358.008 1855.81 361.186 1877.58 359.657C1901.44 357.981 1906.16 341.611 1919.88 325.922C1934.7 308.965 1955.44 292.715 1974.35 282.7C1983.43 277.887 1987.15 269.942 1996.51 265.763C2008.93 260.228 2015.43 252.457 2025.32 243.858C2042.45 228.983 2070.39 221.593 2083.01 202.025C2096.42 181.228 2096.24 164.204 2086.29 143.308C2074.63 118.819 2095.27 90.5254 2100.13 66.7915C2104.38 46.0819 2102.13 29.2178 2102.16 7.6469C2102.16 -0.518108 2098.33 -13.5033 2103.36 -19.9659" stroke="url(#paint25_linear_3055_7761)" stroke-opacity="0.5" stroke-width="9" stroke-miterlimit="10" stroke-linecap="round"/>
<path d="M450.102 920.199C494.579 899.956 541.533 875.655 558.717 828.674C563.084 816.744 568.471 813.573 574.24 802.871C580.008 792.169 574.493 781.173 578.526 770.151C586.504 748.32 620.639 755.396 637.003 742.979C659.041 726.261 678.282 730.26 701.315 718.644C724.568 706.92 746.339 691.178 771.515 682.672C792.398 675.616 817.668 676.684 837.149 666.556C848.125 660.848 852.197 651.628 861.484 644.211C871.097 636.533 880.204 636.76 890.211 631.553C911.882 620.276 922.858 589.659 939.368 570.158C955.305 551.331 971.608 538.172 980.167 515.513C999.728 463.739 1017.83 413.254 1045.19 366.006C1072.65 318.558 1108.38 281.365 1125.84 228.783C1140.11 185.775 1180.07 138.781 1216.4 113.992C1225.5 107.784 1233.34 99.1913 1243.46 94.4979C1253.44 89.8713 1267.19 90.6591 1276.32 83.3687C1295.08 68.3672 1297.44 52.7716 1324.47 45.7282C1371.29 33.5174 1425.94 65.3829 1465.49 88.6562C1487.73 101.748 1497.64 114.767 1510.98 135.41C1523.55 154.858 1538.07 164.084 1554.3 180.2C1563.47 189.3 1569.42 203.701 1580.11 210.871C1591.15 218.275 1602.11 219.904 1613.15 228.877C1632.48 244.586 1649.08 252.557 1651.81 278.374C1654.46 303.45 1664.38 325.588 1669.04 349.629C1674.37 377.102 1671.29 409.475 1672.61 437.301C1673.85 463.539 1671.49 491.419 1683.31 514.719C1695.53 538.787 1715.32 575.426 1744.12 581.434C1771.65 587.176 1796.59 572.328 1819.58 560.424C1852.47 543.4 1868.04 534.093 1887.2 503.463C1904.87 475.222 1938.65 467.518 1960.13 443.043C1979.79 420.638 1984.4 390.001 2008.03 368.63C2056.17 325.108 2152.32 342.172 2152.09 256.149C2152.06 243.231 2150.1 228.436 2152.04 215.691C2154.31 200.843 2160.71 192.291 2155.19 177.263C2150.29 163.897 2137.05 156.927 2131.62 144.202C2125.31 129.435 2128.26 107.924 2130.24 92.5685C2134.14 62.2518 2144.72 34.9461 2148.19 5.05001C2152.42 -31.3687 2145.85 -67.1533 2146.25 -103.959C2146.72 -147.154 2169.76 -174.12 2186 -212.107C2193.27 -229.118 2200.8 -249.32 2212.36 -263.361C2216.64 -268.561 2222.59 -268.608 2226.68 -275.478C2231.98 -284.384 2230.37 -296.561 2233.83 -306.242C2243.38 -332.92 2275.71 -337.019 2292.1 -358.83C2280.68 -360.179 2273.07 -353.156 2263.19 -349.424C2248.39 -343.836 2228.83 -348.322 2215.24 -341.926C2191.09 -330.557 2192.89 -291.247 2183.31 -270.124C2170.08 -240.962 2138.8 -214.297 2118.55 -189.842C2101.13 -168.799 2075.54 -148.783 2081.99 -119.595C2087.14 -96.3016 2098.91 -70.3245 2089.78 -45.6959" stroke="url(#paint26_linear_3055_7761)" stroke-opacity="0.5" stroke-width="9" stroke-miterlimit="10" stroke-linecap="round"/>
<path d="M1070.36 815.496C1056.92 805.622 1023.62 808.9 1043.58 781.614C1055.98 764.676 1081 771.139 1092.88 755.984C1099.28 747.812 1093.76 738.826 1106.59 736.736C1118.95 734.727 1122.84 746.01 1128.65 754.061C1140.08 769.937 1159.64 780.025 1174.97 792.022C1193.34 806.396 1215.24 815.282 1235.79 826.218C1257.86 837.955 1274.63 838.428 1299.12 842.274C1344.82 849.458 1395.86 848.95 1440.5 837.153C1461.38 831.632 1484.39 826.351 1503.58 817.418C1522.6 808.559 1544.79 786.501 1562.92 775.685C1601.99 752.379 1626.83 750.529 1673.02 751.978C1700.35 752.833 1731.2 771.106 1757.95 769.029C1786.27 766.826 1814.87 769.657 1843.45 768.275C1866.8 767.153 1882.01 755.423 1902.65 744.474C1912.15 739.434 1928.8 736.456 1936.94 730.007C1944.92 723.684 1963.51 710.759 1971.92 704.223C1992.81 687.987 1996.23 684.115 2004.87 657.897C2012.39 635.038 2007.52 626.586 2024.83 589.613C2036.19 565.345 2038.03 545.116 2046.8 519.953C2054.16 498.83 2057.94 472.151 2078.95 461.009C2086.49 457.01 2097.56 447.429 2106.86 448.464" stroke="url(#paint27_linear_3055_7761)" stroke-opacity="0.5" stroke-width="9" stroke-linecap="round" stroke-linejoin="round"/>
<path d="M745.685 880.642C767.936 880.562 782.097 870.915 805.71 870.641C827.722 870.381 846.863 865.093 867.492 860.727C910.707 851.581 949.903 849.878 992.084 866.055C1031.86 881.31 1052.64 882.919 1093.56 895.163C1116 901.879 1156.88 922.656 1178.1 930.1C1198.13 937.123 1219.85 937.777 1240.89 941.97C1283.82 950.522 1326.52 978.035 1371.1 979.878C1427.11 982.188 1472.18 975.364 1525.18 958.807C1549.89 951.083 1574.92 945.155 1598.94 934.98C1619.23 926.381 1638.42 921.22 1661.07 922.342C1670.11 922.789 1683.26 927.042 1692.84 924.091C1700.53 921.721 1705.15 914.638 1709.02 907.708C1722.7 883.239 1753.64 894.335 1774.33 902.754C1816 919.711 1857.5 944.574 1887.78 899.422C1902.36 877.698 1899.05 851.668 1906.12 828.915C1911.83 810.575 1927.93 797.376 1941.21 783.603C1947.21 777.388 1950.49 768.308 1959.95 772.674" stroke="url(#paint28_linear_3055_7761)" stroke-opacity="0.5" stroke-width="9" stroke-linecap="round" stroke-linejoin="round"/>
<path d="M979.032 1467.2C960.091 1474.02 948.114 1482.5 926.397 1481.37C906.475 1480.34 892.521 1471.56 874.603 1465.38C856.937 1459.28 836.548 1453.25 817.528 1450.56C797.252 1447.69 783.719 1458.19 764.886 1463.6C715.689 1477.7 691.661 1453.32 686.667 1404.7C684.764 1386.15 687.381 1366.67 676.886 1350.23C666.084 1333.32 650.575 1323.23 642.424 1303.67C626.247 1264.86 640.434 1217.43 610.351 1182.07C596.124 1165.35 582.057 1163.76 571.663 1143.29C558.751 1117.86 537.187 1102.01 513.499 1085.82C496.789 1074.41 471.239 1068.88 454.315 1058.4C431.736 1044.4 457.239 1037.37 478.983 1036C528.094 1032.91 571.162 1021.83 613.776 997.509C631.962 987.128 652.472 982.735 668.494 969.242C683.296 956.778 694.385 947.905 710.267 935.28C737.019 914.017 770.066 896.371 836.301 894.542C877.006 893.414 925.375 872.377 964.898 889.789C999.247 904.924 1031.77 915.772 1064.67 932.029C1108.15 953.513 1152.27 961.671 1199.69 974.757C1241.02 986.166 1306.51 1011.33 1350.75 1014.41C1392.82 1017.34 1409.17 1006.7 1450.72 1005.63C1481.84 1004.83 1518.3 998.371 1548.64 990.099C1569.48 984.424 1585.61 976.659 1606.05 971.212C1632.78 964.075 1645.62 962.366 1674.65 965.363C1699.38 967.92 1731.48 972.867 1755.4 975.258C1777.67 977.481 1796.62 985.112 1818.16 989.678C1839.7 994.245 1856.11 998.504 1875.05 988.483C1892.52 979.237 1885.64 954.214 1897.09 943.679C1905.24 936.182 1921 933.171 1927.74 923.958C1934.39 914.865 1939.02 895.824 1940.35 885.262C1943.02 863.918 1938.19 857.235 1950.86 838.422C1961.33 822.886 1976.57 815.229 1986.89 799.199C1992.58 790.366 1992.45 775.011 1995.29 764.71C1997.96 755.016 1993.56 746.01 1999.35 738.392" stroke="url(#paint29_linear_3055_7761)" stroke-opacity="0.5" stroke-width="9" stroke-linecap="round" stroke-linejoin="round"/>
<path d="M1786.09 1542.98C1754.41 1548.09 1753.36 1521.02 1736.54 1504.03C1718.87 1486.2 1685.62 1482.3 1662.84 1472.26C1615.98 1451.61 1561.04 1429.54 1510.7 1421.7C1455.89 1413.17 1402.2 1403.66 1345.1 1404.32C1280.46 1405.08 1207.02 1405.02 1153.29 1443.3C1138.06 1454.16 1129.11 1454.32 1113.89 1460.07C1104.32 1463.68 1089.62 1474.47 1082.11 1481.48C1067.86 1494.79 1043.4 1523.9 1023.48 1521.8" stroke="url(#paint30_linear_3055_7761)" stroke-opacity="0.5" stroke-width="9" stroke-linecap="round" stroke-linejoin="round"/>
<path d="M750.986 1563.77C779.24 1559.47 797.86 1543.26 830.032 1547.42C855.389 1550.71 876.732 1565.33 900.306 1572.55C957.862 1590.15 998.727 1559.36 1053.55 1545.29C1088.42 1536.33 1088.7 1532.17 1111.46 1507.06C1127.34 1489.55 1151.64 1481.31 1172.12 1472.46C1197.96 1461.31 1222.24 1467.32 1248.44 1460.29C1277.01 1452.63 1295.97 1438.4 1327.48 1438.38C1385.84 1438.35 1438.24 1455.7 1496.49 1460.18C1552.12 1464.47 1603.08 1498.32 1655.87 1516.03C1686.1 1526.17 1703.31 1544.55 1731.73 1564.51C1739.36 1569.87 1747.81 1578.69 1756.78 1581.51C1768.89 1585.32 1785.17 1578.79 1797.08 1583.46C1809.46 1588.32 1812.9 1600.71 1822.12 1608.84C1833.23 1618.63 1850.1 1624.61 1862.97 1631.92C1885.47 1644.72 1900.28 1665.92 1923.68 1677.58C1949.73 1690.55 1971.87 1675.9 1999.36 1684.68C2021.6 1691.78 2048.37 1707.71 2071.25 1713.83C2094.89 1720.15 2132.55 1727.05 2149.31 1746.4C2164.77 1764.25 2148.68 1787.41 2145.69 1809.08C2144.57 1817.13 2154.91 1835.44 2153.89 1844.31C2152.82 1853.55 2158.39 1862.25 2167.17 1865.33C2183.56 1871.09 2198.52 1867.57 2218.93 1871.68C2232.48 1874.41 2283.44 1898.36 2252.83 1866.87C2236.34 1849.9 2213.46 1846.03 2196.21 1822.11C2177.44 1796.07 2194.48 1773.28 2225.32 1778.98C2249.52 1783.45 2272.76 1811.63 2291.06 1814.54" stroke="url(#paint31_linear_3055_7761)" stroke-opacity="0.5" stroke-width="9" stroke-linecap="round" stroke-linejoin="round"/>
<path d="M942.673 1802.72C948.495 1796.59 957.528 1783.53 958.95 1775.28C960.786 1764.66 954.136 1760.21 954.456 1750.61C955.251 1726.99 981.402 1723.79 991.409 1706.28C1002.21 1687.38 994.974 1669.91 1017.31 1656.16C1031.39 1647.49 1058.06 1637.36 1073.2 1632.27C1142.61 1608.93 1167.15 1581.89 1228.21 1546.01C1246.83 1535.06 1240.77 1506.08 1262.99 1498.99C1284.41 1492.15 1324.29 1475.08 1346.52 1473.94C1369.22 1472.78 1399.93 1492.16 1421.44 1494.7C1441.12 1497.03 1486.8 1506.61 1506.22 1508.75C1544.53 1512.95 1553.47 1512.79 1587.93 1531.24C1605.25 1540.51 1621.42 1547.1 1640.08 1552.69C1665.31 1560.24 1669.71 1575.43 1687.77 1592.27C1702.42 1605.94 1725.15 1609.52 1741.36 1622.18C1755.09 1632.89 1769.93 1648.23 1780.93 1661.84C1805.56 1692.32 1832.9 1721.24 1862.37 1747.63C1865.19 1750.15 1868.22 1752.33 1871.41 1754.24C1878.16 1758.28 1883.89 1763.75 1888.36 1770.21C1900.38 1787.59 1921.11 1800.57 1930.76 1819.98C1940.21 1838.98 1948.74 1859.38 1964.1 1875.1C1979.6 1890.99 2058.62 1905.23 2056.13 1922.71" stroke="url(#paint32_linear_3055_7761)" stroke-opacity="0.5" stroke-width="9" stroke-linecap="round" stroke-linejoin="round"/>
<path d="M2018.81 1999.2C1998.54 1994.19 1975.94 2013.48 1961.49 1996.42C1954.91 1988.64 1949.89 1971.28 1941.79 1964.22C1931.63 1955.37 1913.11 1953.56 1901.59 1947.02C1872.27 1930.37 1868.79 1901.82 1852.54 1874.48C1834.2 1843.63 1808.86 1814.8 1781.21 1792.5C1756.89 1772.88 1743.3 1740.65 1717.85 1720.5C1692.02 1700.05 1654.04 1681.44 1625.44 1668.67C1586.77 1651.4 1557.33 1644.65 1514.95 1638.08C1473.72 1631.68 1434.03 1618.41 1392.69 1620.27C1359.06 1621.78 1325.72 1624.2 1293.84 1636.4C1272.92 1644.41 1252.97 1656.51 1232.09 1664.2" stroke="url(#paint33_linear_3055_7761)" stroke-opacity="0.5" stroke-width="9" stroke-linecap="round" stroke-linejoin="round"/>
<path d="M524.908 1448.13C534.962 1484.47 559.844 1511.38 584.506 1539.83C611.966 1571.5 625.011 1632.78 659.013 1655.96C693.649 1679.57 717.664 1709.07 756.519 1693.34C770.446 1687.7 777.316 1680.76 792.33 1680.1C822.607 1678.76 843.123 1705.37 868.593 1721.8C878.727 1728.33 900.118 1747.47 903.843 1768.98C905.846 1780.54 885.337 1800.62 893.281 1818.36C909.738 1855.12 856.455 1877.25 840.065 1941.25C831.8 1973.52 839.598 2032.04 833.563 2064.79C819.042 2143.59 766.393 2210.6 705.446 2262.61C685.004 2280.05 659.968 2291.47 647.964 2324.69C635.733 2358.55 623.849 2364.79 620.044 2381.21C611.966 2416.06 603.761 2451.51 577.824 2460.59C528.994 2477.67 510.995 2474.53 476.986 2493.76C446.396 2511.06 449.68 2512.96 401.678 2537.64C383.693 2546.88 357.776 2565.11 342.414 2573.34C249.608 2623.04 190.036 2649.32 94.3655 2656.91C52.2854 2660.25 14.972 2662.36 -0.229741 2655.73C-23.5364 2645.55 -46.7963 2635.4 -67.3658 2620.46C-125.282 2578.39 -175.454 2525.69 -214.643 2465.78C-227.922 2445.48 -240.173 2423.75 -243.945 2399.79C-247.717 2375.83 -241.562 2349.07 -223.068 2333.37C-193.005 2307.86 -147.5 2320.95 -110.761 2335.27C-69.0482 2351.53 -27.3285 2367.8 14.3845 2384.07" stroke="url(#paint34_linear_3055_7761)" stroke-opacity="0.5" stroke-width="9" stroke-miterlimit="10" stroke-linecap="round"/>
<path d="M465.251 1776.48C462.841 1755.13 441.45 1742.21 426.702 1726.58C393.782 1691.7 391.893 1637.66 366.77 1596.79C346.207 1563.35 311.01 1540.32 292.998 1505.44C286.589 1493.02 282.583 1479.51 276.608 1466.88C264.47 1441.25 244.555 1419.99 231.937 1394.6C206.554 1343.51 213.544 1282.76 200.859 1227.14" stroke="url(#paint35_linear_3055_7761)" stroke-opacity="0.5" stroke-width="9" stroke-linecap="round" stroke-linejoin="round"/>
<path d="M536.625 1889.1C531.885 1831.88 511.663 1776.02 478.676 1729.03C471.506 1718.81 463.694 1708.92 458.42 1697.61C450.716 1681.09 448.873 1662.53 444.187 1644.9C431.582 1597.51 399.022 1558.47 368.538 1520.06C333.421 1475.81 299.48 1429.43 280.119 1376.35C271.56 1352.9 265.912 1328.28 254.782 1305.94C247.979 1292.28 238.873 1277.92 241.977 1262.97C243.092 1257.61 250.797 1252.42 252.94 1257.46" stroke="url(#paint36_linear_3055_7761)" stroke-opacity="0.5" stroke-width="9" stroke-linecap="round" stroke-linejoin="round"/>
<path d="M467.282 1972.76C459.497 1930.53 479.806 1911.28 468.403 1883C457.628 1856.27 435.129 1835.32 411.121 1819.38C372.606 1793.81 355.575 1758.72 333.597 1705.63C319.837 1672.39 297.679 1637.28 273.958 1610.23C261.701 1596.25 244.77 1579.31 232.94 1564.96C196.254 1520.47 167.486 1477.58 165.55 1429.37C164.896 1413.06 141.215 1364.8 141.836 1315.86C142.524 1261.71 122.175 1238.85 123.71 1216.31C125.233 1194 119.558 1185.84 116.467 1178.12C108.148 1157.38 92.4389 1140.02 85.6492 1118.73C77.8047 1094.14 82.7717 1067.6 85.1618 1041.91C86.8042 1024.21 80.9491 998.844 69.3125 968.374" stroke="url(#paint37_linear_3055_7761)" stroke-opacity="0.5" stroke-width="9" stroke-linecap="round" stroke-linejoin="round"/>
<path d="M518.359 2044.71C518.359 2019.14 531.471 1993.45 533.381 1965.97C535.11 1941.01 548.355 1924.15 562.142 1903.53C575.174 1884.02 563.677 1830.91 557.702 1810.73C545.691 1770.16 542.053 1759.31 524.007 1727.63C508.772 1700.88 509.867 1688.38 501.241 1658.68C492.268 1627.78 480.912 1593.74 460.129 1570.32C437.851 1545.22 419.338 1527.73 399.863 1499.96C392.86 1489.97 386.718 1472.15 381.59 1461.35C376.53 1450.7 366.862 1444.46 360.7 1434.83C353.543 1423.65 345.445 1414.01 337.941 1402.53C332.654 1394.44 326.538 1378.45 323.32 1369.32C317.305 1352.26 312.845 1331.93 312.358 1319.74C311.477 1297.76 318.133 1284.84 300.601 1279.32C295.56 1277.73 287.536 1276.05 282.168 1275.73" stroke="url(#paint38_linear_3055_7761)" stroke-opacity="0.5" stroke-width="9" stroke-linecap="round" stroke-linejoin="round"/>
<path d="M325.523 2366.51C326.819 2358.98 341.4 2347.81 346.927 2341.33C353.163 2334.01 360.24 2327.24 366.268 2319.71C372.244 2312.26 381.27 2306.54 385.89 2298.5C391.545 2288.66 389.896 2282.55 391.925 2273.45C396.739 2251.83 421.127 2239.09 437.417 2226.89C453.72 2214.68 466.559 2196.22 476.9 2178.91C486.594 2162.68 500.741 2152.17 512.257 2137.67C527.012 2119.11 537.547 2100.16 546.573 2078.56C555.132 2058.09 559.799 2037.85 564.732 2016.35C569.946 1993.64 581.289 1969.34 586.61 1946.5C591.117 1927.16 593.146 1906.5 596.084 1887.65C599.923 1863.02 600.423 1835.77 595.383 1811.27C589.194 1781.16 583.152 1752.84 564.726 1727.71C559.164 1720.12 554.965 1707.91 552.074 1698.53C548.663 1687.44 550.739 1675.19 549.637 1663.62C546.92 1635.14 538.254 1610.57 522.292 1589.05C506.329 1567.54 494.879 1537.39 471.973 1519.2C449.134 1501.06 432.022 1487.3 417.094 1462C410.505 1450.83 406.806 1438.18 402.207 1425.91C395.176 1407.16 382.598 1380.93 370.194 1365.25C361.709 1354.54 338.335 1326.23 341.987 1310.95C343.956 1302.72 354.084 1301.36 361.395 1301.01C372.764 1300.47 379.754 1309.4 386.845 1317.23C399.93 1331.7 408.602 1349.43 419.338 1365.52C430.073 1381.6 437.163 1402.55 441.897 1421.36C443.906 1429.35 446.657 1435.46 452.665 1451.69" stroke="url(#paint39_linear_3055_7761)" stroke-opacity="0.5" stroke-width="9" stroke-linecap="round" stroke-linejoin="round"/>
<path d="M429.812 2277.69C434.259 2276.1 437.297 2271.53 441.329 2269.36C445.622 2267.06 450.709 2265.22 455.149 2263.27C464.562 2259.15 473.675 2255.81 481.914 2249.38C489.898 2243.14 493.25 2234.84 496.975 2225.61C501.034 2215.55 505.314 2208.79 512.578 2200.62C526.784 2184.64 550.325 2157.27 560.653 2138.13C572.67 2115.86 572.096 2105.75 580.461 2082.08C587.972 2060.83 590.182 2038.58 594.174 2016.82C598.961 1990.75 614.704 1966.29 622.715 1940.95C626.093 1930.26 631.354 1918.64 636.762 1908.81C643.304 1896.92 646.262 1883.97 647.704 1869.92C650.835 1839.41 643.919 1824.23 640 1803.1C636.047 1781.79 630.586 1771.13 622.181 1754.06C618.088 1745.77 613.782 1740.05 609.196 1732.45C603.394 1722.85 600.336 1712.83 594.969 1702.92C592.852 1699.02 590.609 1688.08 590.135 1683.59" stroke="url(#paint40_linear_3055_7761)" stroke-opacity="0.5" stroke-width="9" stroke-linecap="round" stroke-linejoin="round"/>
<path d="M926.91 1656.16C908.023 1636.48 895.859 1619.93 864.547 1610.55C835.359 1601.81 827.748 1591.47 798.533 1596.19C784.907 1598.4 766.621 1603.77 752.066 1601.38C737.659 1599.01 724.654 1591.17 713.778 1583.43C699.832 1573.51 691.6 1572.38 679.075 1560.9C661.13 1544.44 655.001 1531.46 650.161 1518.81C638.397 1488.1 634.131 1474.14 617.254 1450.21C599.835 1425.51 581.462 1404.21 564.004 1381.2C552.788 1366.43 539.469 1353.65 533.093 1335.93C524.12 1311 523.319 1306.62 510.161 1287.87C493.276 1263.82 498.043 1245.06 471.966 1226.05C462.132 1218.88 445.274 1210.3 433.578 1203.32C416.6 1193.18 395.737 1187.68 376.77 1180.42C355.9 1172.44 337.974 1170.8 317.605 1159.9C299.279 1150.09 293.898 1151.02 285.426 1141.04" stroke="url(#paint41_linear_3055_7761)" stroke-opacity="0.5" stroke-width="9" stroke-miterlimit="10" stroke-linecap="round"/>
<path d="M1203.63 1509.17C1175.55 1512.18 1152.22 1526.19 1138.71 1547.68C1125.77 1568.29 1104.25 1577.34 1082.53 1586.37C1039.7 1604.18 982.102 1594.06 968.196 1636.02C960.311 1659.8 956.385 1688.16 933.079 1694.67C905.145 1702.48 889.93 1685.43 870.543 1669.84C850.294 1653.57 826.967 1648.65 799.314 1642.82C772.956 1637.26 753.001 1652.82 716.716 1638.66C670.256 1620.53 643.064 1582.64 619.938 1532.13C608.895 1508.01 588.646 1489.62 579.98 1463.73C569.666 1432.93 552.334 1425.2 529.662 1404.12C509.106 1385 509.206 1369.9 505.761 1343.62C501.595 1311.82 480.692 1300.96 462.285 1279.35C454.314 1270 443.619 1265.39 432.703 1257.76C422.181 1250.41 405.524 1243.41 393.847 1239.32C372.183 1231.72 359.345 1230.04 339.129 1218.51C315.155 1204.84 283.089 1203.98 261.051 1182.54C242.418 1164.42 232.443 1149.69 235.668 1125.49C239.594 1096.05 224.272 1071.16 215.559 1053.1C202.614 1026.29 173.265 1035.11 149.705 1026.18C140.946 1022.86 127.433 1019.43 120.27 1014.4" stroke="url(#paint42_linear_3055_7761)" stroke-opacity="0.5" stroke-width="9" stroke-miterlimit="10" stroke-linecap="round"/>
<path d="M2723.47 2396.69C2751.58 2395.43 2768.6 2384.74 2805.68 2378.04C2817.66 2375.88 2830.49 2369.47 2841.7 2364.52C2856.85 2357.83 2856.28 2347.47 2861.6 2333.1C2871.06 2307.58 2890.46 2284.23 2895.65 2256.76C2900.93 2228.74 2905.28 2204.5 2897.69 2175.79C2889.49 2144.78 2896.7 2108.54 2877.89 2087.82C2868.52 2077.51 2860.27 2072.53 2851.24 2062.71C2829.99 2039.61 2825.39 2033.9 2817.37 2023.81C2799.21 2000.94 2775.9 1996.35 2750.02 1985.56C2737.31 1980.26 2725.1 1977.14 2711.48 1975.2C2691.36 1972.34 2682.2 1963.89 2667.13 1950.56C2648.23 1933.83 2622.96 1935.92 2598.01 1932.19C2565.11 1927.27 2532.79 1919.16 2500.29 1911.01C2441.9 1896.36 2376.93 1869 2331.79 1827.28C2310.54 1807.64 2305.2 1783.36 2279.61 1767.36C2249.56 1748.57 2211.51 1725.32 2179.08 1711.95C2149.87 1699.91 2110.51 1677.98 2087.11 1657.71C2059.57 1633.87 2048.44 1661.85 2015.36 1658.2C1980.28 1654.33 1966.62 1645.76 1938.8 1633.55C1906.66 1619.45 1868.2 1607.5 1852.95 1575.8C1835.92 1540.35 1796.79 1510.32 1769.23 1483.46C1748.28 1463.03 1725.34 1455.4 1701.28 1442.84C1688.68 1436.26 1676.54 1428.05 1663.48 1421.93C1640.75 1411.28 1608.46 1409.17 1586.77 1394.96C1554.81 1374.01 1501.06 1373.35 1468.69 1366.92C1393.59 1352.02 1348.53 1355.53 1273.81 1366.6C1238.5 1371.82 1210.92 1378.27 1178.89 1390.69C1151.22 1401.43 1119.29 1415.91 1091.58 1427C1070.44 1435.46 1042.39 1449.46 1026.69 1466.22C1006.16 1488.14 988.532 1520.96 955.792 1524.09C927.177 1526.83 900.212 1531.55 874.268 1518.57C840.794 1501.8 810.51 1489.39 776.208 1502.16C752.013 1511.16 721.149 1545.05 696.314 1525.64C685.058 1516.85 683.235 1501.12 680.211 1488.54C675.911 1470.63 662.218 1454.5 652.958 1438.37C637.763 1411.92 623.403 1395.38 601.758 1375.34C575.728 1351.24 563.05 1335.82 559.819 1301.14C553.289 1231.08 499.132 1193.15 441.002 1163.21C426.121 1155.54 419.264 1153.8 401.285 1152.96C381.65 1152.06 374.574 1145.92 357.589 1138.2C325.517 1123.6 301.589 1127.24 280.099 1095.49C263.361 1070.76 252.639 1030.16 229.186 1011.28C222.282 1005.72 201.72 996.948 192.52 993.357C179.935 988.443 165.414 993.23 151.969 989.351C138.736 985.532 134.544 973.421 118 976.466" stroke="url(#paint43_linear_3055_7761)" stroke-opacity="0.5" stroke-width="9" stroke-miterlimit="10" stroke-linecap="round"/>
<path d="M101.395 2485.74C75.9455 2485.74 35.4409 2476.89 12.7084 2481.64C-18.8501 2488.22 -0.770904 2513.13 23.871 2526.78C70.7914 2552.77 137.58 2528.06 184.387 2514.02C205.357 2507.73 239.833 2501.07 257.572 2486.3C268.447 2477.25 267.286 2464.36 274.643 2453.24C281.606 2442.71 288.656 2434.02 297.522 2426.36C325.409 2402.26 342.994 2391.94 356.914 2370.63C370.54 2349.76 396.077 2332.13 416.392 2317.48C438.497 2301.55 470.416 2304.91 493.463 2293.01C515.501 2281.63 524.868 2249.89 539.221 2229.52C556.807 2204.59 578.684 2173 597.672 2149.2C616.091 2126.12 615.223 2111.72 616.245 2083.39C617.38 2052 628.496 2031.11 642.376 2004.24C647.883 1993.57 644.085 1982.64 649.693 1971.89C655.928 1959.93 667.138 1953.26 673.954 1942.54C681.879 1930.08 679.896 1919.3 681.111 1905.02C682.453 1889.2 697.748 1880.65 702.769 1866.95C711.441 1843.27 697.127 1812.13 693.322 1788.43C691.412 1776.52 689.697 1757.36 684.716 1745.86C678.941 1732.51 668.84 1734.3 660.902 1725.13C636.908 1697.42 642.589 1678.32 622.774 1660.72C612.954 1651.99 600.622 1649.61 592.491 1639.94C584.192 1630.09 580.908 1614.06 575.366 1602.2C561.974 1573.51 544.022 1556.87 526.563 1533.58C505.226 1505.12 484.77 1498.05 482.48 1460.11C480.404 1425.74 489.751 1404.24 468.4 1375.96C452.244 1354.57 442.683 1333.67 427.295 1312.15C403.594 1279 374.573 1265.76 337.787 1254.48C306.315 1244.84 254.027 1242.11 236.615 1212.52C215.432 1176.54 178.445 1166.7 188.466 1139.86C199.736 1109.66 203.401 1078.16 162.175 1067.7C129.135 1059.32 119.247 1080.9 124.956 1111.02C130.55 1140.57 157.268 1182.6 166.388 1212.72C174.32 1238.9 171.883 1266.71 179.901 1292.34C186.61 1313.77 189.835 1329.62 188.573 1354.3C187.886 1367.75 184.721 1381.5 186.544 1395.26C191.598 1433.35 223.517 1456.8 240.768 1489.01C254.541 1514.72 251.844 1545.39 271.625 1569.12C288.716 1589.63 308.825 1598.78 324.935 1622.98C332.806 1634.81 345.13 1642.87 353.155 1654.6C365.78 1673.07 365.513 1687.23 372.156 1708.25C381.963 1739.28 417.995 1779.68 443.705 1796.23C473.14 1815.18 485.765 1840.11 499.197 1869.46C511.836 1897.07 498.143 1939.16 494.798 1968.8C491.567 1997.41 471.111 2010.85 482.48 2049.95C490.225 2076.61 515.134 2077.58 490.739 2103.7C486.64 2108.08 473.981 2112.82 470.042 2118.89C466.25 2124.75 465.89 2133.17 462.665 2138.43C453.826 2152.83 453.659 2159.78 445.734 2168.96" stroke="url(#paint44_linear_3055_7761)" stroke-opacity="0.5" stroke-width="9" stroke-linecap="round" stroke-linejoin="round"/>
</g>
<defs>
<linearGradient id="paint0_linear_3055_7761" x1="1769.7" y1="1702.87" x2="1769.7" y2="2732.99" gradientUnits="userSpaceOnUse">
<stop stop-color="#BDC0C0"/>
<stop offset="1" stop-color="#BDC0C0" stop-opacity="0"/>
</linearGradient>
<linearGradient id="paint1_linear_3055_7761" x1="314.68" y1="1003.75" x2="314.68" y2="1102.67" gradientUnits="userSpaceOnUse">
<stop stop-color="#BDC0C0"/>
<stop offset="1" stop-color="#BDC0C0" stop-opacity="0"/>
</linearGradient>
<linearGradient id="paint2_linear_3055_7761" x1="383.651" y1="994.442" x2="383.651" y2="1121.31" gradientUnits="userSpaceOnUse">
<stop stop-color="#BDC0C0"/>
<stop offset="1" stop-color="#BDC0C0" stop-opacity="0"/>
</linearGradient>
<linearGradient id="paint3_linear_3055_7761" x1="633.491" y1="857.128" x2="633.491" y2="933.878" gradientUnits="userSpaceOnUse">
<stop stop-color="#BDC0C0"/>
<stop offset="1" stop-color="#BDC0C0" stop-opacity="0"/>
</linearGradient>
<linearGradient id="paint4_linear_3055_7761" x1="780.942" y1="623.321" x2="780.942" y2="797.103" gradientUnits="userSpaceOnUse">
<stop stop-color="#BDC0C0"/>
<stop offset="1" stop-color="#BDC0C0" stop-opacity="0"/>
</linearGradient>
<linearGradient id="paint5_linear_3055_7761" x1="764.552" y1="550.771" x2="764.552" y2="721.041" gradientUnits="userSpaceOnUse">
<stop stop-color="#BDC0C0"/>
<stop offset="1" stop-color="#BDC0C0" stop-opacity="0"/>
</linearGradient>
<linearGradient id="paint6_linear_3055_7761" x1="833.611" y1="581.194" x2="833.611" y2="886.036" gradientUnits="userSpaceOnUse">
<stop stop-color="#BDC0C0"/>
<stop offset="1" stop-color="#BDC0C0" stop-opacity="0"/>
</linearGradient>
<linearGradient id="paint7_linear_3055_7761" x1="610.357" y1="592.21" x2="610.357" y2="977.194" gradientUnits="userSpaceOnUse">
<stop stop-color="#BDC0C0"/>
<stop offset="1" stop-color="#BDC0C0" stop-opacity="0"/>
</linearGradient>
<linearGradient id="paint8_linear_3055_7761" x1="1200.69" y1="161.778" x2="1200.69" y2="697.12" gradientUnits="userSpaceOnUse">
<stop stop-color="#BDC0C0"/>
<stop offset="1" stop-color="#BDC0C0" stop-opacity="0"/>
</linearGradient>
<linearGradient id="paint9_linear_3055_7761" x1="1532.29" y1="-82.8247" x2="1532.29" y2="464.282" gradientUnits="userSpaceOnUse">
<stop stop-color="#BDC0C0"/>
<stop offset="1" stop-color="#BDC0C0" stop-opacity="0"/>
</linearGradient>
<linearGradient id="paint10_linear_3055_7761" x1="1477.6" y1="82.5898" x2="1477.6" y2="615.458" gradientUnits="userSpaceOnUse">
<stop stop-color="#BDC0C0"/>
<stop offset="1" stop-color="#BDC0C0" stop-opacity="0"/>
</linearGradient>
<linearGradient id="paint11_linear_3055_7761" x1="1386.33" y1="218.075" x2="1386.33" y2="727.941" gradientUnits="userSpaceOnUse">
<stop stop-color="#BDC0C0"/>
<stop offset="1" stop-color="#BDC0C0" stop-opacity="0"/>
</linearGradient>
<linearGradient id="paint12_linear_3055_7761" x1="1341.99" y1="304.231" x2="1341.99" y2="322.591" gradientUnits="userSpaceOnUse">
<stop stop-color="#BDC0C0"/>
<stop offset="1" stop-color="#BDC0C0" stop-opacity="0"/>
</linearGradient>
<linearGradient id="paint13_linear_3055_7761" x1="1319.76" y1="277.239" x2="1319.76" y2="377.783" gradientUnits="userSpaceOnUse">
<stop stop-color="#BDC0C0"/>
<stop offset="1" stop-color="#BDC0C0" stop-opacity="0"/>
</linearGradient>
<linearGradient id="paint14_linear_3055_7761" x1="1338.21" y1="201.108" x2="1338.21" y2="635.615" gradientUnits="userSpaceOnUse">
<stop stop-color="#BDC0C0"/>
<stop offset="1" stop-color="#BDC0C0" stop-opacity="0"/>
</linearGradient>
<linearGradient id="paint15_linear_3055_7761" x1="1190.71" y1="483.494" x2="1190.71" y2="669.327" gradientUnits="userSpaceOnUse">
<stop stop-color="#BDC0C0"/>
<stop offset="1" stop-color="#BDC0C0" stop-opacity="0"/>
</linearGradient>
<linearGradient id="paint16_linear_3055_7761" x1="1202.8" y1="237.782" x2="1202.8" y2="777.127" gradientUnits="userSpaceOnUse">
<stop stop-color="#BDC0C0"/>
<stop offset="1" stop-color="#BDC0C0" stop-opacity="0"/>
</linearGradient>
<linearGradient id="paint17_linear_3055_7761" x1="1492.26" y1="393.787" x2="1492.26" y2="775.706" gradientUnits="userSpaceOnUse">
<stop stop-color="#BDC0C0"/>
<stop offset="1" stop-color="#BDC0C0" stop-opacity="0"/>
</linearGradient>
<linearGradient id="paint18_linear_3055_7761" x1="1658.06" y1="124.224" x2="1658.06" y2="817.754" gradientUnits="userSpaceOnUse">
<stop stop-color="#BDC0C0"/>
<stop offset="1" stop-color="#BDC0C0" stop-opacity="0"/>
</linearGradient>
<linearGradient id="paint19_linear_3055_7761" x1="1440.66" y1="857.629" x2="1440.66" y2="878.373" gradientUnits="userSpaceOnUse">
<stop stop-color="#BDC0C0"/>
<stop offset="1" stop-color="#BDC0C0" stop-opacity="0"/>
</linearGradient>
<linearGradient id="paint20_linear_3055_7761" x1="1464.9" y1="792.023" x2="1464.9" y2="905.411" gradientUnits="userSpaceOnUse">
<stop stop-color="#BDC0C0" stop-opacity="0.67"/>
<stop offset="1" stop-color="#BDC0C0" stop-opacity="0"/>
</linearGradient>
<linearGradient id="paint21_linear_3055_7761" x1="1054.44" y1="1657.97" x2="1054.44" y2="1745.94" gradientUnits="userSpaceOnUse">
<stop stop-color="#BDC0C0"/>
<stop offset="1" stop-color="#BDC0C0" stop-opacity="0"/>
</linearGradient>
<linearGradient id="paint22_linear_3055_7761" x1="1406.13" y1="1527.28" x2="1406.13" y2="1628.38" gradientUnits="userSpaceOnUse">
<stop stop-color="#BDC0C0"/>
<stop offset="1" stop-color="#BDC0C0" stop-opacity="0"/>
</linearGradient>
<linearGradient id="paint23_linear_3055_7761" x1="1135.79" y1="801.77" x2="1135.79" y2="1376.85" gradientUnits="userSpaceOnUse">
<stop stop-color="#BDC0C0"/>
<stop offset="1" stop-color="#BDC0C0" stop-opacity="0"/>
</linearGradient>
<linearGradient id="paint24_linear_3055_7761" x1="940.883" y1="1581.88" x2="940.883" y2="2701.99" gradientUnits="userSpaceOnUse">
<stop stop-color="#BDC0C0"/>
<stop offset="1" stop-color="#BDC0C0" stop-opacity="0"/>
</linearGradient>
<linearGradient id="paint25_linear_3055_7761" x1="1673.56" y1="-132.604" x2="1673.56" y2="359.989" gradientUnits="userSpaceOnUse">
<stop stop-color="#BDC0C0"/>
<stop offset="1" stop-color="#BDC0C0" stop-opacity="0"/>
</linearGradient>
<linearGradient id="paint26_linear_3055_7761" x1="1371.1" y1="-359" x2="1371.1" y2="920.199" gradientUnits="userSpaceOnUse">
<stop stop-color="#BDC0C0"/>
<stop offset="1" stop-color="#BDC0C0" stop-opacity="0"/>
</linearGradient>
<linearGradient id="paint27_linear_3055_7761" x1="1572.11" y1="448.386" x2="1572.11" y2="846.989" gradientUnits="userSpaceOnUse">
<stop stop-color="#BDC0C0"/>
<stop offset="1" stop-color="#BDC0C0" stop-opacity="0"/>
</linearGradient>
<linearGradient id="paint28_linear_3055_7761" x1="1352.82" y1="771.528" x2="1352.82" y2="980.315" gradientUnits="userSpaceOnUse">
<stop stop-color="#BDC0C0"/>
<stop offset="1" stop-color="#BDC0C0" stop-opacity="0"/>
</linearGradient>
<linearGradient id="paint29_linear_3055_7761" x1="1222.43" y1="738.392" x2="1222.43" y2="1481.48" gradientUnits="userSpaceOnUse">
<stop stop-color="#BDC0C0"/>
<stop offset="1" stop-color="#BDC0C0" stop-opacity="0"/>
</linearGradient>
<linearGradient id="paint30_linear_3055_7761" x1="1404.78" y1="1404.29" x2="1404.78" y2="1543.61" gradientUnits="userSpaceOnUse">
<stop stop-color="#BDC0C0"/>
<stop offset="1" stop-color="#BDC0C0" stop-opacity="0"/>
</linearGradient>
<linearGradient id="paint31_linear_3055_7761" x1="1521.02" y1="1438.38" x2="1521.02" y2="1882.96" gradientUnits="userSpaceOnUse">
<stop stop-color="#BDC0C0"/>
<stop offset="1" stop-color="#BDC0C0" stop-opacity="0"/>
</linearGradient>
<linearGradient id="paint32_linear_3055_7761" x1="1499.43" y1="1473.89" x2="1499.43" y2="1922.71" gradientUnits="userSpaceOnUse">
<stop stop-color="#BDC0C0"/>
<stop offset="1" stop-color="#BDC0C0" stop-opacity="0"/>
</linearGradient>
<linearGradient id="paint33_linear_3055_7761" x1="1625.45" y1="1620.09" x2="1625.45" y2="2003.62" gradientUnits="userSpaceOnUse">
<stop stop-color="#BDC0C0"/>
<stop offset="1" stop-color="#BDC0C0" stop-opacity="0"/>
</linearGradient>
<linearGradient id="paint34_linear_3055_7761" x1="329.489" y1="1448.13" x2="329.489" y2="2660.07" gradientUnits="userSpaceOnUse">
<stop stop-color="#BDC0C0" stop-opacity="0.6"/>
<stop offset="1" stop-color="#BDC0C0" stop-opacity="0"/>
</linearGradient>
<linearGradient id="paint35_linear_3055_7761" x1="333.055" y1="1227.14" x2="333.055" y2="1776.48" gradientUnits="userSpaceOnUse">
<stop stop-color="#BDC0C0" stop-opacity="0.6"/>
<stop offset="1" stop-color="#BDC0C0" stop-opacity="0"/>
</linearGradient>
<linearGradient id="paint36_linear_3055_7761" x1="388.988" y1="1255.41" x2="388.988" y2="1889.1" gradientUnits="userSpaceOnUse">
<stop stop-color="#BDC0C0" stop-opacity="0.6"/>
<stop offset="1" stop-color="#BDC0C0" stop-opacity="0"/>
</linearGradient>
<linearGradient id="paint37_linear_3055_7761" x1="270.639" y1="968.374" x2="270.639" y2="1972.76" gradientUnits="userSpaceOnUse">
<stop stop-color="#BDC0C0" stop-opacity="0.4"/>
<stop offset="0.6875" stop-color="#BDC0C0" stop-opacity="0"/>
</linearGradient>
<linearGradient id="paint38_linear_3055_7761" x1="425.139" y1="1275.73" x2="425.139" y2="2044.71" gradientUnits="userSpaceOnUse">
<stop stop-color="#BDC0C0" stop-opacity="0.6"/>
<stop offset="1" stop-color="#BDC0C0" stop-opacity="0"/>
</linearGradient>
<linearGradient id="paint39_linear_3055_7761" x1="462.293" y1="1300.99" x2="462.293" y2="2366.51" gradientUnits="userSpaceOnUse">
<stop stop-color="#BDC0C0" stop-opacity="0.6"/>
<stop offset="1" stop-color="#BDC0C0" stop-opacity="0"/>
</linearGradient>
<linearGradient id="paint40_linear_3055_7761" x1="539.154" y1="1683.59" x2="539.154" y2="2277.69" gradientUnits="userSpaceOnUse">
<stop stop-color="#BDC0C0" stop-opacity="0.6"/>
<stop offset="1" stop-color="#BDC0C0" stop-opacity="0"/>
</linearGradient>
<linearGradient id="paint41_linear_3055_7761" x1="599.83" y1="1135.93" x2="599.83" y2="1656.16" gradientUnits="userSpaceOnUse">
<stop stop-color="#BDC0C0" stop-opacity="0.6"/>
<stop offset="1" stop-color="#BDC0C0" stop-opacity="0"/>
</linearGradient>
<linearGradient id="paint42_linear_3055_7761" x1="661.951" y1="1014.4" x2="661.951" y2="1696.63" gradientUnits="userSpaceOnUse">
<stop stop-color="#BDC0C0" stop-opacity="0.3"/>
<stop offset="1" stop-color="#BDC0C0" stop-opacity="0"/>
</linearGradient>
<linearGradient id="paint43_linear_3055_7761" x1="1509.89" y1="975.98" x2="1509.89" y2="2396.69" gradientUnits="userSpaceOnUse">
<stop stop-color="#BDC0C0" stop-opacity="0.38"/>
<stop offset="1" stop-color="#BDC0C0" stop-opacity="0"/>
</linearGradient>
<linearGradient id="paint44_linear_3055_7761" x1="350.692" y1="1065.88" x2="350.692" y2="2538.17" gradientUnits="userSpaceOnUse">
<stop stop-color="#BDC0C0" stop-opacity="0.34"/>
<stop offset="0.34375" stop-color="#BDC0C0" stop-opacity="0"/>
</linearGradient>
<clipPath id="clip0_3055_7761">
<rect width="1440" height="1726" fill="white"/>
</clipPath>
</defs>
</svg>
