<svg width="498" height="922" viewBox="0 0 498 922" fill="none" xmlns="http://www.w3.org/2000/svg">
<g clip-path="url(#clip0_3055_1031)">
<mask id="mask0_3055_1031" style="mask-type:luminance" maskUnits="userSpaceOnUse" x="0" y="0" width="498" height="922">
<path d="M498 0H0V922H498V0Z" fill="white"/>
</mask>
<g mask="url(#mask0_3055_1031)">
<path d="M162.448 -71.7666C196.212 -7.67514 196.212 36.0825 240.534 72.1651C270.016 96.1869 294.916 117.218 315.433 150.51C333.262 179.516 341.23 213.804 354.875 245.102C368.421 276.301 395.313 306.802 428.479 298.927C437.344 296.834 445.611 292.149 454.674 291.153C467.124 289.757 478.977 296.136 491.327 298.728C545.111 310.191 597.999 292.847 651.783 299.725C669.611 302.017 682.858 301.12 700.686 298.728C718.116 296.435 740.925 286.069 758.454 284.674C794.609 281.683 839.728 267.031 862.935 276.899C914.428 298.927 934.348 295.04 951.28 289.358C989.227 276.799 1017.61 257.562 1053.87 240.318C1066.92 234.138 1078.67 206.727 1083.05 196.959C1093.31 173.735 1111.34 141.141 1114.72 135.06C1162.23 48.0436 1173.29 13.5558 1205.66 -14.1541" stroke="url(#paint0_linear_3055_1031)" stroke-width="9" stroke-linecap="round" stroke-linejoin="round"/>
<path d="M299.796 81.2356C331.867 97.5824 357.166 126.887 368.62 160.976C372.006 171.143 374.197 181.609 378.181 191.477C392.424 227.26 429.475 251.781 467.921 254.273C494.912 255.967 522.701 248.093 548.696 255.768C559.752 259.057 570.21 265.137 581.763 265.636C597.899 266.333 612.44 255.967 624.193 244.903C635.946 233.839 647.101 221.081 662.041 215C686.344 205.132 715.427 214.801 739.53 204.335" stroke="url(#paint1_linear_3055_1031)" stroke-width="9" stroke-linecap="round" stroke-linejoin="round"/>
<path d="M410.053 178.719C423.997 184.001 437.941 189.384 451.686 195.364C466.526 201.843 481.068 209.12 496.207 214.801C511.346 220.483 529.772 227.36 546.007 226.962C558.656 226.662 574.393 224.071 586.943 224.569" stroke="url(#paint2_linear_3055_1031)" stroke-width="9" stroke-linecap="round" stroke-linejoin="round"/>
<path d="M614.433 196.461C604.672 193.271 594.015 194.567 583.855 192.872C560.449 188.885 534.454 189.783 511.347 181.509C506.964 179.915 502.98 177.323 498.897 175.13C490.929 170.744 482.961 166.458 474.993 162.073C444.615 145.527 406.866 129.778 375.592 112.235" stroke="url(#paint3_linear_3055_1031)" stroke-width="9" stroke-linecap="round" stroke-linejoin="round"/>
<path d="M275.493 332.418C278.083 345.177 280.274 351.457 282.665 361.524C284.258 368.302 288.84 374.083 290.533 380.761C292.525 388.536 291.529 400.696 289.238 408.471C285.155 422.725 282.465 434.785 282.963 449.637C283.362 460.302 283.362 468.874 284.756 479.44C288.143 505.655 279.876 531.77 277.187 558.084C274.796 582.405 272.804 605.629 280.075 628.954C280.872 631.645 286.25 635.931 287.943 638.223C289.736 640.715 292.525 642.609 293.82 645.5C295.015 648.39 293.521 652.776 290.433 652.477" stroke="url(#paint4_linear_3055_1031)" stroke-width="9" stroke-miterlimit="10" stroke-linecap="round"/>
<path d="M237.546 705.903C248.203 717.864 254.777 727.134 258.86 741.487C261.649 751.256 264.936 760.824 268.422 770.294C272.008 780.161 278.083 787.737 284.557 795.811C298.7 813.453 308.162 824.816 324.596 840.166C331.967 847.044 342.923 861.497 349.297 869.371C355.771 877.345 359.954 885.319 360.452 895.287C360.95 906.351 360.851 918.412 364.536 928.977C366.329 934.16 368.819 944.228 375.193 944.726" stroke="url(#paint5_linear_3055_1031)" stroke-width="9" stroke-miterlimit="10" stroke-linecap="round"/>
<path d="M142.228 276.6C146.212 287.066 154.977 297.034 156.372 308.795C157.766 319.959 153.384 332.319 149.997 342.486C141.332 369.099 142.527 395.912 142.328 423.821C142.129 454.92 127.886 485.221 126.093 516.42C125.296 529.976 126.193 542.634 123.205 556.29C119.221 574.132 116.93 589.781 120.018 608.121C123.006 625.764 124.4 643.307 130.575 660.052C134.559 671.017 136.75 685.37 143.523 695.039" stroke="url(#paint6_linear_3055_1031)" stroke-width="9" stroke-linecap="round" stroke-linejoin="round"/>
<path d="M123.803 -233.64C99.1021 -184.4 83.9629 -126.389 62.8477 -73.6603C46.0153 -31.5972 58.7641 25.9157 68.6245 70.2714C74.5009 96.5857 91.4329 112.933 109.859 132.07C127.787 150.61 146.512 171.342 157.368 195.265C178.384 241.414 197.507 288.063 193.921 339.695C192.228 363.517 183.961 391.626 185.057 417.641C185.953 438.573 187.945 452.627 188.244 473.559C188.543 497.88 172.408 521.104 174.3 545.226C176.491 573.135 164.34 607.224 164.639 633.439C165.336 683.875 188.244 717.764 204.678 762.818C221.809 809.765 278.083 848.938 300.593 893.692C322.704 937.848 315.832 954.594 352.485 988.683C404.077 1036.63 393.819 1087.16 430.969 1134.41C460.551 1171.99 467.423 1213.55 475.192 1262.29C478.977 1286.41 477.781 1315.72 491.725 1342.63C505.669 1369.54 498.199 1379.61 491.626 1414.6C480.67 1473.51 433.161 1524.64 386.149 1557.73C338.441 1591.22 289.338 1606.47 243.921 1650.63C203.782 1689.6 173.802 1665.08 130.675 1675.95C110.457 1681.03 67.2301 1659.9 48.0073 1672.56" stroke="url(#paint7_linear_3055_1031)" stroke-width="9" stroke-linecap="round" stroke-linejoin="round"/>
<path d="M306.867 2801.98C306.967 2751.35 319.616 2724.44 330.373 2675C341.528 2623.46 371.209 2589.87 356.369 2543.03C350.393 2524.19 297.007 2432.09 286.748 2415.14C253.781 2360.52 270.912 2349.85 225.594 2304.9C202.387 2281.88 169.22 2277.19 141.93 2263.34C106.871 2245.49 77.7874 2218.58 54.0826 2183.89C10.8562 2121 16.2346 2061.99 78.0862 2006.77C94.0222 1992.52 115.835 1944.27 135.755 1936.7C163.742 1926.03 200.793 1930.62 230.673 1929.22C293.621 1926.43 301.589 1902.81 383.659 1896.73C415.232 1894.34 467.721 1854.47 496.705 1841.61C533.159 1825.46 551.684 1801.54 582.56 1782.1C651.483 1738.84 710.048 1649.83 719.809 1571.89C729.171 1497.23 739.53 1428.65 699.491 1361.67C683.754 1335.36 639.133 1303.66 631.165 1274.05C626.783 1257.71 627.48 1244.35 626.783 1228.9C626.085 1212.55 610.249 1188.53 603.775 1173.78C575.987 1110.29 558.855 1062.14 533.557 1016.19C516.824 985.892 487.143 956.787 465.431 929.675C444.017 902.962 438.14 870.667 420.909 840.067C402.284 807.074 390.432 789.93 368.221 760.824C343.52 728.43 344.018 705.604 342.723 666.432C341.329 625.864 321.011 604.234 330.074 560.377C338.839 518.314 327.983 483.427 334.855 440.267C340.831 402.59 364.337 382.356 347.504 347.868C330.771 313.58 325.194 328.033 313.441 306.104C305.672 291.651 297.605 288.461 298.103 263.842C299.099 215.1 274.697 196.56 247.705 159.581C229.677 134.861 206.57 109.444 191.73 83.1295C184.559 70.371 165.435 47.1466 159.957 33.79" stroke="url(#paint8_linear_3055_1031)" stroke-width="9" stroke-miterlimit="10" stroke-linecap="round"/>
<path d="M1082.45 1861.44C1069.7 1842.11 1057.95 1823.27 1051.28 1800.34C1045.6 1780.61 1041.32 1760.67 1028.87 1743.93C995.004 1698.27 918.909 1613.25 896.499 1552.65C882.954 1516.07 842.815 1515.87 825.485 1481.08C793.214 1416.59 819.409 1423.67 787.736 1380.11C771.103 1357.28 764.43 1333.46 749.689 1308.74C739.032 1290.9 726.781 1273.56 714.132 1258.6C702.578 1244.85 683.853 1237.17 672.2 1224.62C661.842 1213.35 660.248 1188.43 652.679 1174.28C631.364 1134.41 607.062 1051.78 582.66 1012.11C530.171 926.785 500.091 920.405 476.187 856.713C459.853 813.254 397.205 742.285 400.292 693.344C403.181 648.39 403.081 613.305 388.141 569.248C373.4 525.789 396.408 490.305 393.719 443.657C392.125 416.644 384.755 347.968 425.391 348.267C444.614 348.367 449.096 362.222 469.116 356.739C491.028 350.659 497.203 332.418 521.605 341.888C550.489 353.051 560.15 370.096 592.62 358.633C615.727 350.46 628.575 347.569 652.878 348.267C674.192 348.865 691.821 345.376 710.048 335.309" stroke="url(#paint9_linear_3055_1031)" stroke-width="9" stroke-miterlimit="10" stroke-linecap="round"/>
<path d="M179.379 146.922C212.048 196.859 237.048 254.073 236.948 317.666C236.948 371.89 221.909 359.829 233.661 464.389C240.135 522.4 213.443 543.93 216.829 594.466C219.419 632.841 212.945 646.098 244.119 663.641C270.513 678.592 300.294 714.874 312.943 741.786C325.194 767.802 334.357 782.753 352.385 804.781C366.627 822.324 387.045 842.658 397.603 863.291C410.252 888.01 402.384 910.438 408.061 934.26C415.133 963.764 442.423 968.548 463.937 988.384C505.868 1027.06 514.932 1084.57 547.501 1131.62C579.971 1178.47 571.007 1223.92 587.142 1303.56C597.899 1356.59 679.67 1363.56 680.766 1420.78C681.762 1473.11 672.897 1558.53 648.396 1606.07C620.309 1660.5 610.149 1690.7 562.64 1732.16C537.84 1753.79 516.924 1778.31 483.757 1788.58C451.985 1798.35 431.865 1813.6 406.268 1830.24C385.352 1843.9 344.417 1853.77 319.815 1853.97C290.433 1854.27 254.478 1867.72 221.211 1868.32C180.077 1869.12 182.168 1870.71 140.237 1877.29C127.886 1879.19 103.783 1877.39 92.5282 1872.81C70.7158 1863.84 63.0466 1864.33 51.0946 1865.43C33.2662 1867.02 -1.39459 1901.11 -15.0398 1913.67C-39.8402 1936.4 -45.0194 1972.08 -48.5054 2004.38C-51.593 2032.69 -76.2938 2055.31 -78.5846 2081.23C-81.2738 2112.43 -66.533 2144.22 -49.0034 2166.45C-30.3782 2189.97 0.298612 2200.04 29.8798 2211.21" stroke="url(#paint10_linear_3055_1031)" stroke-width="9" stroke-miterlimit="10" stroke-linecap="round"/>
<path d="M28.9835 -13.0576C24.1031 45.751 22.0115 109.543 61.3535 155.295C71.3135 166.957 71.5127 174.432 79.3811 186.892C87.3491 199.451 102.09 199.949 111.253 210.714C129.48 231.945 101.99 263.742 105.377 288.362C109.958 321.454 94.4207 339.296 93.1259 370.494C91.7315 401.892 95.5163 434.087 89.6399 465.685C84.7595 491.8 68.7239 517.815 67.9271 544.329C67.4291 559.28 74.7995 568.949 77.0903 583.103C79.4807 597.755 73.9031 607.224 73.5047 620.88C72.6083 650.384 98.4047 679.987 109.161 708.893C119.918 737.799 123.803 761.721 142.627 784.049C185.555 835.182 228.084 884.023 261.649 940.739C295.414 997.654 313.441 1057.16 358.56 1106.6C395.412 1146.97 421.308 1216.84 425.989 1269.67C427.184 1282.93 431.567 1296.28 430.571 1309.64C429.575 1322.9 420.611 1336.85 422.901 1350.8C427.682 1379.41 442.622 1391.07 434.156 1423.77C419.415 1480.28 353.679 1519.06 305.871 1546.97C278.979 1562.72 259.458 1565.41 229.877 1567.3C201.989 1569.09 183.762 1578.96 157.169 1586.54C142.229 1590.82 123.504 1588.63 109.659 1595.61C95.3171 1602.88 87.1499 1613.45 71.2139 1619.83C43.3259 1630.89 25.0991 1643.75 -3.68529 1631.39C-31.6729 1619.43 -60.7561 1616.84 -88.8433 1607.57C-120.914 1597 -153.185 1574.68 -183.264 1559.63C-211.65 1545.47 -239.538 1526.53 -271.012 1525.24C-303.581 1523.94 -353.779 1523.14 -377.086 1549.96C-399.296 1575.57 -398.4 1610.56 -399.396 1641.86C-400.89 1686.51 -400.193 1708.44 -379.277 1746.62C-359.954 1781.9 -371.807 1821.97 -358.66 1859.05C-346.708 1892.94 -317.126 1915.87 -308.561 1953.34C-291.131 2029.7 -365.731 2120.9 -275.095 2171.43C-261.45 2179.01 -244.717 2185.69 -232.466 2195.26C-218.224 2206.42 -212.945 2218.18 -193.921 2221.27C-176.989 2223.96 -161.85 2214.2 -145.217 2215.89C-125.994 2217.98 -105.078 2233.73 -90.0385 2244.9C-60.4573 2266.92 -37.9477 2294.14 -8.46608 2315.47C27.3899 2341.38 68.9231 2355.54 107.369 2377.66C152.587 2403.68 167.328 2443.85 197.805 2483.32C211.451 2501.06 228.283 2520.8 236.251 2541.33C239.239 2548.91 235.753 2555.19 240.534 2563.56C246.809 2574.42 260.554 2579.91 268.721 2589.28C291.23 2615.09 276.489 2651.57 289.736 2681.67C297.903 2670.41 295.015 2658.25 296.907 2645.69C299.696 2626.85 316.031 2608.81 317.226 2590.77C319.517 2558.57 277.087 2537.34 260.454 2514.82C237.546 2483.72 227.885 2434.98 214.14 2399.29C202.288 2368.49 196.311 2329.82 161.75 2319.35C134.261 2311.08 99.8987 2308.09 79.3811 2283.97" stroke="url(#paint11_linear_3055_1031)" stroke-width="9" stroke-miterlimit="10" stroke-linecap="round"/>
</g>
</g>
<defs>
<linearGradient id="paint0_linear_3055_1031" x1="638.057" y1="-214.128" x2="785.076" y2="334.149" gradientUnits="userSpaceOnUse">
<stop stop-color="#BDC0C0" stop-opacity="0.5"/>
<stop offset="1" stop-color="#BDC0C0" stop-opacity="0"/>
</linearGradient>
<linearGradient id="paint1_linear_3055_1031" x1="469.589" y1="-44.3144" x2="555.137" y2="274.682" gradientUnits="userSpaceOnUse">
<stop stop-color="#BDC0C0" stop-opacity="0.5"/>
<stop offset="1" stop-color="#BDC0C0" stop-opacity="0"/>
</linearGradient>
<linearGradient id="paint2_linear_3055_1031" x1="486.219" y1="155.893" x2="510.147" y2="245.157" gradientUnits="userSpaceOnUse">
<stop stop-color="#BDC0C0" stop-opacity="0.5"/>
<stop offset="1" stop-color="#BDC0C0" stop-opacity="0"/>
</linearGradient>
<linearGradient id="paint3_linear_3055_1031" x1="475.523" y1="81.556" x2="513.594" y2="223.505" gradientUnits="userSpaceOnUse">
<stop stop-color="#BDC0C0" stop-opacity="0.5"/>
<stop offset="1" stop-color="#BDC0C0" stop-opacity="0"/>
</linearGradient>
<linearGradient id="paint4_linear_3055_1031" x1="239.558" y1="333.658" x2="322.782" y2="644.03" gradientUnits="userSpaceOnUse">
<stop stop-color="#BDC0C0" stop-opacity="0.5"/>
<stop offset="1" stop-color="#BDC0C0" stop-opacity="0"/>
</linearGradient>
<linearGradient id="paint5_linear_3055_1031" x1="270.091" y1="690.053" x2="340.898" y2="954.077" gradientUnits="userSpaceOnUse">
<stop stop-color="#BDC0C0" stop-opacity="0.5"/>
<stop offset="1" stop-color="#BDC0C0" stop-opacity="0"/>
</linearGradient>
<linearGradient id="paint6_linear_3055_1031" x1="88.7059" y1="280.072" x2="196.176" y2="680.85" gradientUnits="userSpaceOnUse">
<stop stop-color="#BDC0C0" stop-opacity="0.5"/>
<stop offset="1" stop-color="#BDC0C0" stop-opacity="0"/>
</linearGradient>
<linearGradient id="paint7_linear_3055_1031" x1="-162.136" y1="-206.917" x2="332.658" y2="1638.29" gradientUnits="userSpaceOnUse">
<stop stop-color="#BDC0C0" stop-opacity="0.5"/>
<stop offset="1" stop-color="#BDC0C0" stop-opacity="0"/>
</linearGradient>
<linearGradient id="paint8_linear_3055_1031" x1="-91.6685" y1="28.5597" x2="628.897" y2="2715.69" gradientUnits="userSpaceOnUse">
<stop stop-color="#BDC0C0" stop-opacity="0.5"/>
<stop offset="1" stop-color="#BDC0C0" stop-opacity="0"/>
</linearGradient>
<linearGradient id="paint9_linear_3055_1031" x1="492.374" y1="285.134" x2="926.309" y2="1903.36" gradientUnits="userSpaceOnUse">
<stop stop-color="#BDC0C0" stop-opacity="0.5"/>
<stop offset="1" stop-color="#BDC0C0" stop-opacity="0"/>
</linearGradient>
<linearGradient id="paint10_linear_3055_1031" x1="-237.806" y1="-254.005" x2="396.884" y2="2112.89" gradientUnits="userSpaceOnUse">
<stop stop-color="#BDC0C0" stop-opacity="0.5"/>
<stop offset="1" stop-color="#BDC0C0" stop-opacity="0"/>
</linearGradient>
<linearGradient id="paint11_linear_3055_1031" x1="-390.338" y1="27.6856" x2="319.098" y2="2673.34" gradientUnits="userSpaceOnUse">
<stop stop-color="#BDC0C0" stop-opacity="0.5"/>
<stop offset="1" stop-color="#BDC0C0" stop-opacity="0"/>
</linearGradient>
<clipPath id="clip0_3055_1031">
<rect width="498" height="922" fill="white"/>
</clipPath>
</defs>
</svg>
