<svg width="832" height="1157" viewBox="0 0 832 1157" fill="none" xmlns="http://www.w3.org/2000/svg">
<g clip-path="url(#clip0_2782_1010)">
<path d="M-672.683 2158.88C-674.573 2220.53 -688.92 2281.77 -714.593 2337.84C-726.795 2364.51 -747.203 2394.73 -750.435 2423.88C-752.737 2444.65 -720.399 2485.16 -715.134 2505.38C-694.689 2583.9 -645.711 2614.78 -571.672 2605.19C-530.924 2599.91 -494.532 2586.6 -463.371 2564C-439.068 2546.38 -420.284 2519.61 -389.834 2509.62C-330.553 2490.18 -328.826 2509.85 -266.596 2505.47C-247.299 2504.1 -143.317 2498.62 -124.238 2501.8C-76.8653 2509.71 -60.7457 2550.51 -20.9252 2583.21C17.3244 2614.62 35.113 2637.69 79.1424 2660.29C107.135 2674.66 138.465 2688.91 164.306 2706.86C207.79 2737.05 225.949 2776.04 250.994 2825.03C275.09 2872.16 292.183 2951.41 286.688 2974.76C282.354 2993.16 284.11 3044.09 299.695 3054.8C319.55 3068.45 332.755 3070.82 352.195 3056.58C366.072 3046.43 393.237 3019.35 407.12 3009.19C415.92 3002.75 424.977 2996.02 430.327 2986.52C438.315 2972.34 436.537 2954.85 433.857 2938.8C420.585 2859.26 400.394 2784.8 356.261 2717.32C321.411 2664.03 244.039 2590.89 199.813 2564.35C129.853 2522.34 117.346 2510.34 76.7659 2467.77C37.4769 2426.56 30.2266 2394.92 29.9476 2385.57C29.557 2372.59 45.3432 2352.54 51.0087 2340.84C61.854 2318.45 57.3155 2292.34 67.541 2272.08C74.5761 2258.14 49.8578 2224.76 22.1214 2213.88C-14.1464 2199.65 -30.7077 2186.7 -47.9073 2161.93C-78.2768 2118.21 -76.0111 2092.33 -71.1117 2047.24C-65.3775 1994.48 -40.0363 1925.21 -16.9062 1882.09C14.287 1823.94 29.4073 1747.11 31.561 1678.99C32.1439 1660.39 45.5476 1651.94 49.1276 1632.84C52.6638 1613.96 55.0737 1592.43 51.1123 1573.84C46.1416 1550.53 34.6752 1530.23 28.9741 1507.53C23.5063 1485.74 20.678 1465.58 12.4124 1443.74C-4.79749 1398.26 -34.0213 1350.1 -63.9124 1310.77C-96.7696 1267.53 -135.922 1247.22 -187.49 1232.26C-244.46 1215.72 -296.831 1193.99 -357.681 1184.38C-386.798 1179.79 -413.808 1175.45 -442.902 1169.1C-464.292 1164.44 -491.194 1159.77 -513.296 1165.82C-577.617 1183.44 -609.907 1196.7 -659.477 1220.37C-671.539 1226.13 -703.365 1226.91 -715.846 1231.98C-729.937 1237.71 -747.546 1237.4 -762.165 1242.16C-791.161 1251.61 -822.358 1274.31 -851.783 1276.23C-904.375 1279.67 -995.671 1261.26 -1043.16 1241.51C-1088.8 1222.51 -1080.47 1237.08 -1123.78 1228.82C-1140.03 1225.72 -1165.27 1211.93 -1190.91 1217.97" stroke="url(#paint0_linear_2782_1010)" stroke-opacity="0.5" stroke-width="9" stroke-miterlimit="10" stroke-linecap="round"/>
<path d="M-108.344 3.13965C-112.864 -13.886 -117.291 -32.4787 -110.22 -48.6061C-105.996 -58.2454 -98.1597 -65.7165 -91.4906 -73.8593C-85.2175 -81.5303 -79.8488 -89.9907 -72.717 -96.8699C-65.5853 -103.749 -56.1178 -109.04 -46.2427 -108.315C-37.9238 -107.71 -30.0291 -102.921 -21.7378 -103.906C-16.9636 -104.472 -12.525 -106.935 -7.7205 -107.142C-2.91597 -107.349 2.70822 -103.652 1.68703 -98.9577" stroke="url(#paint1_linear_2782_1010)" stroke-opacity="0.5" stroke-width="9" stroke-linecap="round" stroke-linejoin="round"/>
<path d="M186.671 46.9776C195.357 43.0873 207.902 50.5369 214.588 55.3735C220.806 59.8775 226.397 65.131 232.63 69.6438C237.629 73.2553 243.187 75.9273 248.774 78.4747C258.813 83.0573 267.995 88.94 278.41 92.865C290.294 97.3459 301.104 94.7967 313.225 94.7837C319.269 94.7739 326.961 97.6526 331.665 101.262" stroke="url(#paint2_linear_2782_1010)" stroke-opacity="0.5" stroke-width="9" stroke-linecap="round" stroke-linejoin="round"/>
<path d="M342.837 -9.80802C365.798 3.26057 396.573 5.90924 416.273 25.7127C438.283 47.8322 460.837 70.9532 486.344 88.8407C516.261 109.824 544.387 134.744 577.898 150.673C603.277 162.738 623.813 182.373 652.879 187.874C669.651 191.05 685.702 193.684 702.154 198.257C711.941 200.982 722.7 204.498 732.566 205.352" stroke="url(#paint3_linear_2782_1010)" stroke-opacity="0.5" stroke-width="9" stroke-linecap="round" stroke-linejoin="round"/>
<path d="M417.573 -59.5729C428.482 -58.4193 441.043 -61.5381 451.924 -57.5539C462.213 -53.7908 471.05 -44.4589 478.431 -37.0274C497.761 -17.5827 521.626 -6.72565 545.818 5.87366C572.818 19.9456 592.784 45.793 619.213 61.2963C630.646 67.9999 642.094 72.8653 652.634 81.5838C666.405 92.9795 678.966 101.933 696.323 107.438C712.984 112.724 728.915 119.329 746.182 121.4C757.489 122.753 771.001 127.276 782.405 125.676" stroke="url(#paint4_linear_2782_1010)" stroke-opacity="0.5" stroke-width="9" stroke-linecap="round" stroke-linejoin="round"/>
<path d="M254.303 46.6524C273.844 55.1814 297.217 54.3789 317.978 59.0659C347.526 65.7315 365.74 78.4959 385.296 98.5944C393.836 107.366 403.157 118.847 411.337 127.962C420.661 138.352 431.359 156.736 441.568 166.451C460.288 184.256 478.831 195.097 498.702 211.189C517.577 226.468 535.227 238.698 555.805 252.085C564.469 257.716 572.925 263.391 580.926 269.889C587.207 274.985 595.827 281.29 603.607 283.419C622.981 288.726 640.205 277.863 661.604 297.103C680.668 314.244 699.444 319.135 725.074 323.998C765.728 331.714 802.822 310.509 835.372 288.721C838.298 286.773 841.554 284.993 843.614 282.4" stroke="url(#paint5_linear_2782_1010)" stroke-opacity="0.5" stroke-width="9" stroke-linecap="round" stroke-linejoin="round"/>
<path d="M-77.6405 -257.707C-58.8799 -229.533 -38.5377 -207.742 -16.0393 -183.893C8.5629 -157.809 34.5324 -137.749 49.9435 -104.267C57.0279 -88.8639 65.7899 -71.368 75.7974 -57.1066C85.6629 -43.0442 100.153 -31.8908 115.507 -25.2986C149.344 -10.7704 182.101 0.812945 218.527 5.97635C235.798 8.4231 252.49 5.28034 269.422 4.54436C286.205 3.81267 294.634 15.2623 307.665 23.2302C336.307 40.7348 354.079 27.538 380.571 51.2272C412.621 79.8791 454.339 120.377 486.936 148.115C514.802 171.836 536.125 191.715 571.003 204.707C586.161 210.35 601.401 216.914 616.524 222.533C638.957 230.869 667.947 235.729 691.853 239.069C721.764 243.25 741.285 243.175 766.74 226.614C772.845 222.644 778.32 218.098 781.48 212.548" stroke="url(#paint6_linear_2782_1010)" stroke-opacity="0.5" stroke-width="9" stroke-linecap="round" stroke-linejoin="round"/>
<path d="M678.844 281.856C705.265 288.389 739.916 296.817 767.471 284.576C796.211 271.812 808.092 248.59 837.274 238.096C874.989 224.535 901.485 217.601 936.908 206.54C978.354 193.591 1000.52 193.489 1032.73 191.186C1063.42 188.993 1100.41 189.551 1131.07 193.08C1164.12 196.885 1185.48 180.826 1220.87 193.723C1250.51 204.528 1289.47 205.004 1320.38 208.344C1348.29 211.363 1379.95 222.294 1403.84 241.016C1426.98 259.169 1447.55 292.083 1448.62 320.886C1449.17 335.66 1452.12 405.031 1442.1 407.95" stroke="url(#paint7_linear_2782_1010)" stroke-opacity="0.5" stroke-width="9" stroke-linecap="round" stroke-linejoin="round"/>
<path d="M1478.59 462.61C1478.03 470.529 1475.55 484.068 1471.88 493.496C1468.66 501.796 1465.41 509.307 1461.88 517.276C1453.03 537.23 1433.45 557.772 1419.07 574.803C1402.91 593.922 1388.28 615.507 1370.06 631.609C1344.69 654.019 1316.83 673.809 1289.71 693.799C1253.41 720.557 1216.07 741.794 1173.33 751.368C1153.1 755.899 1128.95 764.731 1116.24 780.591C1101.44 799.062 1082.65 790.312 1062.34 783.903C1043.79 778.046 1024.63 769.906 1006.49 763.153C988.589 756.487 967.631 745.901 951.511 735.728C930.863 722.691 923.005 711.259 908.375 691.507C893.988 672.076 877.635 644.873 869.405 622.118C863.24 605.081 856.943 588.415 856.455 570.248C855.767 544.63 870.634 522.536 885.412 504.259C898.295 488.315 913.374 477.8 933.034 457.059C951.856 437.207 977.483 428.229 1000.54 419.673C1039.44 405.24 1067.32 373.093 1110.04 398.28C1129.56 409.788 1149.23 430.838 1158.53 450.629C1167.69 470.142 1169.24 480.377 1155.93 497.362C1147.54 508.075 1141.26 516.382 1132.36 522.639" stroke="url(#paint8_linear_2782_1010)" stroke-opacity="0.5" stroke-width="9" stroke-linecap="round" stroke-linejoin="round"/>
<path d="M589.132 317.533C598.845 322.182 609.983 324.092 619.565 329.481C631.865 336.392 642.577 346.379 653.923 354.872C666.058 363.968 674.545 368.438 689.137 373.331C701.616 377.511 713.854 385.354 726.987 384.828C782.905 382.608 834.496 332.651 871.928 297.605C892.153 278.665 918.83 264.367 946.577 256.382C974.982 248.206 1002.83 243.817 1031.71 241.924C1065.64 239.705 1087.84 242.679 1122 240.573C1132.01 239.956 1142.61 241.713 1152.41 245.395C1159.23 247.956 1165.99 250.705 1170.64 256.012C1185.17 272.62 1192.94 273.787 1207.4 277.93C1258.87 292.682 1312.79 274.653 1352.95 317.782C1371.9 338.14 1378.86 366.75 1370.77 394.664C1363.9 418.342 1366.94 433.478 1356.17 439.577C1342.77 447.172 1329.7 441.407 1316.67 454.559C1304.95 466.373 1293.6 479.425 1280.98 489.392C1266.2 501.069 1252.3 511.787 1238.84 524.682C1223.67 539.207 1205.53 549.711 1189.01 563.136C1175.04 574.481 1159.39 588.086 1142.3 593.298C1126.6 598.083 1106.66 600.188 1091.19 595.152C1079.95 591.493 1063.17 576.852 1058.95 564.268C1053.82 549.019 1058.07 537.743 1059.08 522.001C1059.37 517.472 1067.7 489.844 1065.19 486.249C1060.31 479.267 1045.09 488.811 1039.47 492.561C1028 500.218 1020.43 506.246 1012.29 521.217C1003.4 537.581 1005.83 560.763 1013.31 574.842C1030.79 607.757 1054.92 633.388 1093.71 635.189C1118.25 636.326 1141.6 628.192 1163.05 615.618C1180.29 605.51 1197.21 595.405 1215.73 587.195C1235.7 578.338 1247.89 564.635 1265.14 550.948C1278.16 540.623 1298.3 530.652 1311.3 520.215C1321.44 512.081 1326.9 501.109 1335.35 492.112" stroke="url(#paint9_linear_2782_1010)" stroke-opacity="0.5" stroke-width="9" stroke-linecap="round" stroke-linejoin="round"/>
<path d="M1185.92 423.701C1206.59 392.704 1136.48 350.724 1114.47 344.235C1080.19 334.12 1044.23 325.894 1008.31 331.081C989.395 333.812 967.252 342.647 950.249 350.741C927.812 361.41 904.342 374.169 884.076 388.952C863.09 404.26 841.305 422.364 824.44 441.33C806.21 461.829 797.364 484.535 793.425 512.249C787.259 555.686 813.409 605.85 827.562 645.889C842.998 689.533 862.233 737.275 898.629 768.373C915.786 783.034 940.229 800.049 961.443 806.697C979.908 812.486 991.955 815.05 1011.64 816.071C1021.74 816.597 1028.72 821.759 1036.79 824.566C1046.04 827.791 1062.67 832.043 1069.15 839.008C1085.02 856.088 1081.67 875.509 1096.24 890.202C1111.75 905.845 1124.62 910.677 1141.51 925.904C1158.4 941.144 1158.3 962.982 1166.82 981.925C1175.48 1001.17 1183.8 1018.49 1207.42 1021.13C1233.53 1024.05 1242.51 1023.51 1262.37 1043.32C1272.41 1053.34 1304.03 1094.28 1297.75 1086.18" stroke="url(#paint10_linear_2782_1010)" stroke-opacity="0.5" stroke-width="9" stroke-linecap="round" stroke-linejoin="round"/>
<path d="M1265.52 159.994C1275.46 160.391 1296.89 163.12 1306.85 162.332C1312.88 161.859 1320.23 162.987 1326.04 164.454C1338.26 167.541 1347.48 167.174 1356.01 168.965C1405.24 179.276 1441 209.957 1468.55 247.813C1484.07 269.131 1483.17 282.789 1486.43 309.749C1487.54 318.888 1487.93 332.869 1488.52 341.945C1489.06 350.295 1489.77 360.066 1491.12 368.237C1492.58 377.049 1493.42 398.827 1490.13 406.165C1487.64 411.746 1473.41 421.642 1468.76 425.841C1457.52 435.972 1448.67 442.16 1439.34 454.356C1429.88 466.724 1432.69 478.309 1429.25 492.13C1424.99 509.286 1418.45 521.564 1408.41 535.863C1385.94 567.84 1353.22 584.04 1324.8 610.06C1295.16 637.189 1261.29 654.517 1228.01 678.689C1175.83 716.586 1088.37 761.235 1027.12 719.905C1011.31 709.238 993.714 693.357 980.364 679.323C964.996 663.168 952.046 649.948 939.676 631.37C917.163 597.561 896.061 559.129 924.516 519.929C936.516 503.398 946.971 495.025 967.398 494.32C981.816 493.818 997.383 490.848 1007.91 479.938C1015.35 472.228 1017.6 461.932 1026.82 455.83C1040.86 446.539 1060.22 437.07 1077.5 438.247C1101.28 439.867 1121.14 452.927 1114.74 476.589C1109.74 495.087 1088.41 522.99 1095.67 543.301C1103.13 564.173 1133.48 557.942 1147.96 549.985C1165.11 540.559 1179.76 528.269 1193.72 515.672C1210.57 500.455 1219.74 482.56 1224.13 459.926C1229.31 433.151 1226.27 409.328 1213.87 383.424C1203.28 361.286 1191.15 341.354 1172.02 327.365C1164.51 321.874 1154.85 314.538 1147.66 308.691C1140.06 302.505 1138.37 294.625 1128.85 290.834C1120.33 287.443 1106.3 288.618 1097.41 287.83C1081.1 286.377 1067.5 285.036 1051.01 285.053C1005.2 285.102 952.475 289.798 912.011 313.807C894.224 324.363 888.104 338.379 874.232 352.455C866.481 360.324 853.373 368.721 843.538 373.972C836.065 377.964 812.142 395.588 806.071 401.998C772.035 437.964 763.929 458.908 754.78 501.037C746.295 540.11 750.606 571.61 757.648 610.769C762.578 638.164 776.403 661.359 787.867 686.666C796.342 705.366 805.399 734.339 820.543 749.574C851.479 780.691 878.265 816.881 919.045 835.564C941.199 845.714 959.811 853.545 983.006 859.101C1004.81 864.322 1037.31 880.36 1053.43 895.097C1079.72 919.127 1096.82 948.31 1111.44 981.361C1126.51 1015.42 1150.17 1047.92 1168.35 1080.53C1190.71 1120.64 1211.67 1151.49 1253.43 1172.45C1273.06 1182.29 1290.74 1194.91 1310.95 1203.06C1330.53 1210.94 1354.07 1209.93 1375.03 1208.15C1415.41 1204.7 1450.03 1181.35 1490.79 1174.78C1526.45 1169.05 1556.7 1182.48 1590.82 1180.5C1620.11 1178.81 1657.91 1161.55 1683.07 1184.89C1696.72 1197.55 1702.04 1218.32 1713.1 1232.65C1722.51 1244.85 1737.8 1244.11 1751.72 1248.45C1778.5 1256.81 1815.02 1280.29 1838.18 1252.57C1848.35 1240.4 1852.26 1225.47 1863.58 1213.88C1874.12 1203.1 1885.15 1193.06 1899.07 1186.45C1905.6 1183.35 1911.91 1181.89 1918.46 1179.12" stroke="url(#paint11_linear_2782_1010)" stroke-opacity="0.5" stroke-width="9" stroke-linecap="round" stroke-linejoin="round"/>
<path d="M777.736 816.348C786.299 830.217 801.745 843.688 814.105 853.903C823.602 861.753 837.926 881.131 850.877 882.081" stroke="url(#paint12_linear_2782_1010)" stroke-opacity="0.5" stroke-width="9" stroke-linecap="round" stroke-linejoin="round"/>
<path d="M640.19 474.853C621.339 504.401 641.22 528.941 649.915 557.143C655.455 575.118 663.617 589.879 668.617 607.683C672.802 622.555 683.113 659.556 689.099 673.977C705.148 712.639 710.303 733.493 725.27 772.763C737.431 804.678 752.079 835.478 771.324 864.38C783.747 883.037 791.178 891.325 809.175 905.484C823.573 916.812 840.467 925.134 858.65 927.428C872.037 929.119 872.195 938.756 883.169 949.477C892.735 958.824 910.888 966.876 923.744 972.518C938.836 979.143 953.251 984.467 967.865 991.57C972.345 993.747 977.563 996.323 982.895 999.211C997.691 1007.23 1010.33 1018.73 1019.94 1032.55C1024.64 1039.3 1028.57 1046.55 1031.64 1054.19C1034.26 1060.71 1036.68 1067.42 1039.44 1073.14C1053.96 1103.27 1071.72 1114.67 1084.66 1144.31C1086.42 1148.33 1093.03 1162.24 1094.9 1166.2C1099.15 1175.19 1107.29 1185.68 1115.43 1188.7C1124.77 1192.17 1133.84 1193.65 1143.45 1191.08" stroke="url(#paint13_linear_2782_1010)" stroke-opacity="0.5" stroke-width="9" stroke-linecap="round" stroke-linejoin="round"/>
<path d="M-209.025 396.193C-190.783 384.984 -197.437 366.075 -191.813 347.247C-179.285 305.245 -121.466 269.434 -98.2638 238.712C-73.1807 205.497 -68.6581 177.651 -65.6089 138.163C-62.4275 96.9123 -51.7052 71.7639 -66.1236 41.6354C-83.603 5.11823 -67.0101 -39.0697 -41.4954 -58.2274C-4.20525 -86.2201 29.4738 -38.9682 54.279 -12.3662C70.0621 4.55419 78.992 11.04 99.1996 23.2153C116.213 33.4652 134.502 33.0185 149.17 45.2082C164.001 57.5269 159.715 73.0591 175.221 84.7858C189.864 95.8563 210.156 113.306 227.317 120.693C245.289 128.429 263.754 134.105 282.965 138.271C291.539 140.127 304.902 142.08 313.849 141.34C323.246 140.565 333.597 135.178 342.374 136.955C378.13 144.213 422.726 192.859 449.952 216.996C480.423 244.001 498.845 255.188 526.273 290.62C536.98 304.453 538.808 315.658 545.021 330.222C554.001 351.274 563.474 351.679 573.772 379.088C581.199 398.845 571.25 410.536 581.807 442.857C587.107 459.107 592.224 494.719 595.568 511.259C604.363 554.742 611.765 578.086 619.002 622.029C625.875 663.734 642.702 690.867 658.691 729.541C677.704 775.528 688.983 778.688 698.025 824.801C706.678 868.909 749.251 904.576 778.67 935.69C814.428 973.509 903.875 1006.94 935.686 1018.39C967.496 1029.85 976.098 1059.93 976.098 1059.93C980.169 1069.27 986.971 1082.74 992.604 1090.37C1005.65 1108.01 1018.51 1116.4 1029.44 1136.24C1036.73 1149.48 1040.16 1162.97 1041.16 1178.05C1041.61 1184.88 1043.27 1197.08 1045.43 1203.58C1051.08 1220.57 1060.92 1234.82 1074.62 1241.49C1090.02 1248.99 1110.2 1245.88 1125.78 1239.74C1137.23 1235.22 1149.73 1231.38 1162 1230.35" stroke="url(#paint14_linear_2782_1010)" stroke-opacity="0.5" stroke-width="9" stroke-linecap="round" stroke-linejoin="round"/>
<path d="M-578.005 1052.58C-557.017 1052.45 -541.013 1052.37 -502.862 1068.46C-483.524 1076.61 -455.774 1063.91 -428.922 1068.66C-372.411 1078.65 -339.106 1078.51 -292.756 1098.64C-262.394 1111.81 -186.957 1104.89 -168.461 1155.92C-153.57 1197.01 -134.753 1203.14 -111.76 1217.89C-13.6872 1280.86 -10.4793 1302.1 17.8499 1363.22C52.91 1438.86 87.6173 1480.62 87.7224 1566.98C87.8408 1668.97 75.9686 1777.46 55.8755 1870.27C46.5334 1913.42 18.7679 1923.85 6.90062 1968.08C-0.217968 1994.62 0.383964 2024.49 -3.09025 2049.89C-13.7785 2128.05 -0.445192 2144.27 47.3274 2172.8C109.039 2209.65 110.144 2234.4 129.358 2249.78C195.679 2302.84 177.959 2371.94 249.889 2405.22C279.202 2418.79 285.359 2456.13 317.525 2464.45C318.952 2464.82 320.033 2463.14 319.161 2461.96C288.434 2420.31 269.005 2383.51 263.524 2354.9C258.267 2327.47 215.356 2293.68 206.842 2271.07C164.362 2158.32 116.658 2179.8 117.835 2113.45C119.189 2037.51 117.01 1980.76 155.173 1913.53C177.772 1873.72 170.892 1812.46 184.539 1768.17C194.627 1735.45 209.278 1707.62 213.415 1674.14C227.366 1561.05 173.219 1454.72 123.574 1349.61C99.9036 1299.5 63.6958 1231.78 23.3947 1194.68C-6.7738 1166.9 -50.3842 1149.44 -113.267 1124.84C-155.807 1108.19 -185.908 1077.42 -220.689 1065.95C-274.923 1048.06 -319.171 1034.78 -350.878 1022.24C-416.694 996.217 -391.763 1019.95 -477.878 1009.24C-518.592 1004.18 -554.414 998.246 -590.887 1005.98C-635.933 1015.54 -670.649 1055.92 -708.065 1066.69C-780.532 1087.54 -770.542 1102.57 -840.157 1113.66C-871.505 1118.65 -942.128 1117.1 -985.726 1090.37C-991.724 1086.7 -998.109 1094.42 -1005.73 1090.68C-1019.89 1083.73 -1031.75 1083.08 -1044.17 1077.32C-1080.78 1060.31 -1080.83 1069.87 -1104.06 1065.69C-1137.7 1059.65 -1134.14 1085.56 -1170.65 1093.27C-1214.37 1102.51 -1219.38 1107.88 -1239.62 1130.9C-1263.32 1157.86 -1292.69 1206.06 -1328.58 1205.64C-1371.34 1205.13 -1400.36 1103.29 -1424.93 1050.46C-1461.39 972.079 -1539.17 972.95 -1619.35 931.911C-1672.71 904.593 -1695.78 850.963 -1760.81 823.049C-1833.56 791.832 -1858.05 746.395 -1904.04 664.988C-1951.77 580.514 -1946.65 451.74 -1918.19 377.552C-1894.63 316.13 -1908.96 282.837 -1885.47 246.229C-1847.31 186.792 -1781 92.259 -1705.87 124.585C-1639.23 153.252 -1600.29 223.617 -1597.33 304.334C-1594.04 393.968 -1546.94 508.321 -1462.05 537.299C-1380.94 564.999 -1297.38 506.312 -1241.49 429.243C-1191.17 359.861 -1204.32 258.11 -1226.13 177.282C-1238.68 130.831 -1282.63 110.739 -1307.9 76.3418C-1339.02 33.9788 -1352.95 3.87025 -1384.62 -24.9913C-1439.29 -74.7991 -1473.41 -95.0783 -1496.4 -107.891C-1540.73 -132.6 -1534.18 -160.081 -1581.24 -179.058C-1605.94 -189.019 -1623.51 -215.193 -1631.2 -225.051" stroke="url(#paint15_linear_2782_1010)" stroke-opacity="0.5" stroke-width="9" stroke-miterlimit="10" stroke-linecap="round"/>
<path d="M114.918 -89.916C163.907 -59.458 218.505 -29.2221 275.91 -43.0746C290.489 -46.59 297.13 -43.371 311.419 -44.7051C325.709 -46.0393 332.905 -58.6518 346.374 -61.9012C373.044 -68.3455 388.424 -30.1749 411.331 -22.2212C442.176 -11.5045 450.835 10.0174 477.319 25.0486C504.052 40.2264 533.764 51.3184 558.593 70.4908C579.19 86.3931 594.673 111.921 617.37 124.436C630.16 131.486 641.883 129.456 655.247 133.727C669.081 138.15 674.816 147.247 686.48 153.673C711.738 167.589 749.003 158.341 778.966 161.805C807.891 165.146 831.487 172.555 859.351 166.14C923.021 151.487 984.473 136.246 1048.79 132.21C1113.38 128.154 1173.3 138.922 1236.39 121.673C1287.99 107.56 1360.3 116.074 1408.44 135.561C1420.49 140.44 1434.06 142.52 1445.29 149.394C1456.37 156.174 1464.59 170.196 1477.72 174.393C1504.74 183.012 1521.61 175.13 1546.21 197.076C1588.85 235.098 1593.29 309.639 1596.3 363.726C1597.98 394.143 1591.68 412.402 1580.12 439.014C1569.24 464.09 1569.67 484.395 1564.45 510.886C1561.51 525.846 1551.25 541.113 1551.21 556.313C1551.15 572.007 1556.72 583.838 1555.13 600.558C1552.34 629.827 1555.37 651.35 1531.79 670.924C1508.88 689.935 1493.62 714.167 1473.05 734.475C1449.54 757.684 1415.72 775.84 1389.24 795.345C1364.27 813.731 1335.33 829.65 1320.17 856.511C1304.52 884.263 1281.46 927.677 1294.4 959.908C1306.77 990.711 1337.68 1005.51 1364.42 1020.31C1402.66 1041.48 1421.99 1050.69 1464.63 1049.48C1503.94 1048.37 1533.61 1076.52 1571.71 1081.61C1606.59 1086.27 1639.71 1070.75 1676.17 1079.99C1750.43 1098.82 1796.57 1204.46 1880.94 1147.95C1893.61 1139.46 1906.87 1127.86 1920.66 1121.43C1936.73 1113.94 1949.32 1114.64 1960.48 1099.38C1970.4 1085.82 1968.59 1068.25 1977.54 1054.59C1987.93 1038.73 2010.99 1027.55 2027.37 1019.45C2059.72 1003.45 2093.46 995.979 2125.11 979.831C2163.66 960.156 2194.52 930.288 2230.95 906.601C2273.7 878.806 2315.27 883.802 2363.22 874.908C2384.7 870.922 2409.47 865.097 2430.83 867.273C2438.74 868.075 2442.68 873.89 2452.1 873.416C2464.32 872.798 2475.24 863.25 2487.01 860.314C2519.47 852.24 2544.65 881.321 2576.81 883.162C2570.66 871.056 2558.78 868.173 2548.65 860.912C2533.48 850.025 2525.08 827.863 2509.91 818.698C2482.93 802.403 2445.49 829.9 2418.46 834.3C2381.16 840.384 2334.49 827.097 2297.22 823.201C2265.14 819.848 2228.73 807.799 2204.27 833.233C2184.75 853.53 2166.93 882.098 2136.76 889.237" stroke="url(#paint16_linear_2782_1010)" stroke-opacity="0.5" stroke-width="9" stroke-miterlimit="10" stroke-linecap="round"/>
<path d="M623.608 451.031C624.513 431.359 599.505 400.783 639.38 402.552C664.129 403.645 674.155 432.466 696.816 434.221C709.034 435.166 714.252 423.861 724.7 435.102C734.756 445.923 726.22 457.136 722.105 468.104C713.988 489.728 716.874 515.549 715.115 538.46C713.008 565.91 718.604 593.24 721.308 620.593C724.212 649.952 734.723 666.747 746.962 693.318C769.807 742.927 803.698 792.745 844.494 828.886C863.582 845.793 883.823 864.943 905.154 877.952C926.308 890.851 962.496 898.218 984.987 908.958C1033.45 932.098 1051.52 955.297 1080.32 1001.63C1097.36 1029.04 1099.59 1071.31 1119.12 1096.23C1139.82 1122.62 1155.75 1152.57 1175.81 1179.75C1192.19 1201.96 1213.66 1209.23 1237.92 1222.34C1249.09 1228.38 1262.92 1242.8 1274.58 1246.58C1286.01 1250.28 1310.87 1260.08 1322.8 1264.07C1352.42 1273.98 1358.46 1274.81 1389.87 1266.14C1417.25 1258.57 1422.37 1248.25 1470.02 1241.07C1501.3 1236.36 1522.39 1224.94 1552.85 1217.09C1578.41 1210.5 1607.1 1196.76 1631.8 1210.11C1640.66 1214.9 1657.32 1219.52 1662.39 1229.33" stroke="url(#paint17_linear_2782_1010)" stroke-opacity="0.5" stroke-width="9" stroke-linecap="round" stroke-linejoin="round"/>
<path d="M347.174 174.635C361.811 196.447 380.555 204.048 396.273 227.071C410.93 248.529 428.649 263.876 446.436 281.29C483.697 317.768 511.014 355.167 522.717 407.195C533.752 456.26 545.769 477.734 560.509 525.95C568.591 552.392 574.922 606.151 581.489 631.868C587.692 656.143 601.262 677.917 610.906 701.33C630.594 749.112 631.494 809.063 658.853 854.075C693.226 910.617 729.419 950.439 780.365 991.685C804.125 1010.92 826.325 1031.63 852.039 1048.58C873.762 1062.88 891.387 1078.36 905.101 1101.35C910.58 1110.53 915.002 1126.23 924.169 1133.71C931.53 1139.72 941.513 1139.62 950.855 1138.89C983.843 1136.32 993.186 1173.98 998.45 1199.82C1009.05 1251.85 1011.78 1308.9 1075.95 1309.12C1106.83 1309.22 1130.24 1288.94 1157.23 1281.01C1178.98 1274.61 1202.49 1281.8 1224.71 1285.84C1234.74 1287.66 1245.81 1284.94 1247.71 1297.1" stroke="url(#paint18_linear_2782_1010)" stroke-opacity="0.5" stroke-width="9" stroke-linecap="round" stroke-linejoin="round"/>
<path d="M-76.4925 787.678C-95.5886 773.532 -111.756 767.311 -124.856 745.234C-136.874 724.982 -137.376 705.528 -143.026 683.876C-148.588 662.527 -156.004 638.549 -165.805 618.099C-176.256 596.303 -195.429 589.877 -213.058 574.905C-259.106 535.795 -250.87 496.235 -206.362 459.516C-189.377 445.507 -168.53 435.337 -159.246 414.271C-149.697 392.593 -149.925 370.75 -136.045 349.947C-108.496 308.661 -52.6064 291.566 -37.5476 238.875C-30.4233 213.954 -38.0653 199.093 -24.7538 175.487C-8.21497 146.162 -6.74402 114.6 -6.34056 80.7377C-6.05628 56.8491 -17.3475 28.1322 -18.1149 4.64082C-19.1379 -26.6999 4.46193 -6.2451 20.0333 14.2249C55.2014 60.4569 94.2621 95.5279 146.041 121.487C168.14 132.564 185.874 149.842 209.615 156.758C231.546 163.146 247.519 168.237 270.316 175.583C308.711 187.956 347.671 208.883 392.803 272.766C420.543 312.023 472.859 345.786 481.61 396.012C489.212 439.665 499.833 478.722 505.385 521.685C512.72 578.459 533.572 627.151 551.736 682.301C567.567 730.378 585.689 811.186 611.611 856.672C636.254 899.923 657.406 909.037 685.644 949.155C706.79 979.207 736.987 1010.81 764.967 1035.21C784.176 1051.97 802.362 1062.74 821.086 1079.26C845.588 1100.86 855.667 1112.35 871.718 1142.84C885.384 1168.81 901.525 1203.59 914.827 1228.66C927.21 1251.99 932.112 1275.61 941.717 1299.76C951.321 1323.91 957.877 1342.82 980.11 1354.87C1000.63 1365.99 1020.71 1342.85 1038.56 1347.22C1051.26 1350.32 1064.52 1363.83 1077.99 1364.43C1091.27 1365.01 1113.01 1357.11 1124.26 1351.5C1146.97 1340.16 1150.38 1331.04 1177.16 1331.18C1199.27 1331.31 1216.77 1341.27 1239.27 1340.93C1251.67 1340.74 1266.68 1330.57 1278.66 1326.61C1289.93 1322.89 1295.9 1312.68 1307.17 1313.38" stroke="url(#paint19_linear_2782_1010)" stroke-opacity="0.5" stroke-width="9" stroke-linecap="round" stroke-linejoin="round"/>
<path d="M81.0628 2157.4C72.7324 2134.21 38.9908 2124.62 46.2989 2099.26C49.6343 2087.7 63.4161 2071.42 65.0472 2058.84C67.0953 2043.07 56.7628 2023.68 55.6457 2008.09C52.8218 1968.38 78.6027 1946.28 94.8336 1912.43C113.148 1874.22 124.886 1830.47 128.714 1788.71C132.081 1751.97 154.863 1717.54 158.006 1679.34C161.192 1640.59 154.632 1591.09 148.473 1554.64C140.144 1505.34 127.508 1471.99 106.24 1426.06C85.5473 1381.36 72.6207 1333.68 43.7505 1294.27C20.2554 1262.21 -3.92875 1231.04 -36.7773 1207.7C-58.3384 1192.39 -83.2698 1180.7 -104.492 1165.22" stroke="url(#paint20_linear_2782_1010)" stroke-opacity="0.5" stroke-width="9" stroke-linecap="round" stroke-linejoin="round"/>
<path d="M-908.06 615.617C-871.655 580.336 -839.456 587.699 -819.122 557.987C-799.913 529.914 -794.048 494.101 -794.097 460.085C-794.172 405.512 -770.836 365.82 -733.045 309.486C-709.386 274.218 -689.392 229.479 -678.331 188.473C-672.607 167.278 -667.042 139.56 -660.685 118.55C-640.972 53.3948 -617.653 -2.93164 -571.551 -36.3753C-555.954 -47.6891 -524.026 -102.533 -475.529 -133.945C-421.879 -168.694 -412.725 -203.648 -389.574 -216.886C-366.655 -229.988 -362.352 -240.902 -356.791 -248.988C-341.852 -270.733 -335.074 -297.525 -318.597 -318.126C-299.57 -341.921 -270.245 -354.404 -243.432 -368.868C-224.974 -378.829 -203.877 -401.18 -181.551 -432.55" stroke="url(#paint21_linear_2782_1010)" stroke-opacity="0.5" stroke-width="9" stroke-linecap="round" stroke-linejoin="round"/>
<path d="M-296.261 860.095C-289.279 828.661 -280.97 805.876 -292.246 768.978C-302.756 734.58 -297.567 720.332 -321.326 694.718C-332.412 682.775 -349.65 668.32 -356.824 652.456C-363.922 636.749 -364.729 618.842 -364.242 603.094C-363.612 582.895 -367.896 574.073 -364.8 554.249C-360.371 525.849 -351.629 511.336 -342.371 498.307C-319.892 466.656 -308.967 453.33 -296.492 421.088C-283.617 387.812 -274.712 355.825 -263.529 323.619C-256.35 302.932 -252.508 281.485 -239.27 263.627C-220.646 238.501 -216.86 234.844 -207.05 209.649C-194.468 177.326 -172.916 169.735 -171.294 131.673C-170.683 117.319 -173.283 95.1422 -174.074 79.0804C-175.224 55.7681 -183.469 31.6692 -188.748 8.28467C-194.556 -17.4456 -204.677 -36.1289 -207.292 -63.276C-209.646 -87.6994 -214.078 -92.3794 -209.814 -107.234C-205.254 -123.109 -216.915 -123.487 -223.259 -115.211" stroke="url(#paint22_linear_2782_1010)" stroke-opacity="0.5" stroke-width="9" stroke-miterlimit="10" stroke-linecap="round"/>
<path d="M29.2146 1035.83C7.88653 1010.19 -21.1378 996.438 -51.097 997.232C-79.8102 997.992 -102.784 982.773 -125.868 967.343C-171.391 936.916 -199.126 873.691 -249.453 887.48C-277.978 895.291 -308.413 909.989 -330.064 891.352C-356.015 869.016 -349.209 842.906 -346.583 813.661C-343.838 783.116 -354.265 756.977 -366.631 725.992C-378.418 696.46 -406.758 687.03 -416.585 642.113C-429.165 584.599 -409.728 533.092 -375.234 477.325C-358.758 450.694 -353.934 418.764 -334.164 393.31C-310.645 363.021 -314.395 340.938 -308.513 304.867C-303.174 272.159 -288.27 262.377 -264.711 241.804C-236.186 216.902 -239.195 189.26 -230.004 157.036C-226.029 143.083 -228.493 129.556 -228.144 113.843C-227.805 98.6951 -231.822 77.7463 -235.441 63.5956C-242.156 37.3424 -248.903 23.6271 -250.8 -3.77971C-253.051 -36.2818 -273.184 -68.3523 -266.539 -104.032C-260.927 -134.195 -252.975 -153.636 -227.086 -166.301C-195.595 -181.703 -181.158 -213.046 -169.12 -233.417C-151.245 -263.679 -179.113 -286.746 -185.75 -315.74C-188.221 -326.518 -193.696 -342.035 -193.437 -352.368" stroke="url(#paint23_linear_2782_1010)" stroke-opacity="0.5" stroke-width="9" stroke-miterlimit="10" stroke-linecap="round"/>
<path d="M-1651.49 591.731C-1668.14 566.725 -1685.94 521.134 -1705.48 501.904C-1732.59 475.202 -1745.24 509.263 -1742.53 542.408C-1737.37 605.515 -1669.39 654.97 -1624.97 691.775C-1605.07 708.265 -1575.97 737.781 -1549.85 745.548C-1533.84 750.311 -1521.94 740.74 -1506.2 740.692C-1491.3 740.645 -1478.15 741.889 -1464.82 745.587C-1422.9 757.223 -1401.24 767.744 -1371.2 767.479C-1341.78 767.213 -1307.75 780.773 -1280.07 791.152C-1249.95 802.445 -1232.36 836.005 -1205.59 850.866C-1180 865.077 -1142.68 853.51 -1113.28 854.292C-1077.27 855.256 -1031.92 856.088 -996.115 859.172C-961.386 862.17 -947.804 851.896 -919.296 834.362C-887.709 814.939 -859.917 812.198 -824.433 808.255C-810.346 806.686 -802.087 795.799 -787.856 794.277C-772.028 792.581 -758.141 799.231 -743.146 798.914C-725.72 798.55 -716.423 789.547 -701.597 781.398C-685.179 772.368 -666.762 781.797 -650.016 777.767C-621.081 770.8 -599.851 736.363 -579.046 717.113C-568.599 707.449 -550.895 693.227 -542.851 680.807C-533.516 666.401 -541.876 657.642 -538.063 643.846C-526.532 602.138 -504.054 595.228 -499.719 564.24C-497.571 548.881 -503.297 535.206 -499.118 520.891C-494.866 506.29 -481.271 492.579 -473.239 479.373C-453.814 447.445 -449.206 418.916 -437.741 386.522C-423.736 346.936 -430.173 322.211 -394.398 295.142C-361.979 270.611 -334.742 265.729 -320.929 226.253C-310.482 196.383 -296.198 173.313 -285.118 144.11C-268.054 99.1355 -274.034 61.958 -287.022 18.4356C-298.133 -18.7993 -329.667 -71.9583 -311.985 -108.425C-290.487 -152.783 -305.023 -195.559 -272.09 -203.276C-235.04 -211.964 -201.699 -228.966 -218.392 -276.318C-231.77 -314.269 -259.447 -309.862 -285.304 -284.55C-310.678 -259.72 -334.498 -205.967 -358.129 -177.297C-378.661 -152.377 -407.584 -136.575 -427.515 -111.932C-444.182 -91.3181 -457.645 -77.78 -482.723 -62.8714C-496.391 -54.7455 -511.968 -48.8612 -524.295 -38.0679C-558.419 -8.17832 -560.574 38.5247 -580.932 76.5465C-597.189 106.905 -629.084 124.317 -639.461 159.282C-648.431 189.494 -644.262 215.236 -657.508 246.903C-663.982 262.378 -663.83 279.755 -670.112 295.319C-679.997 319.805 -694.085 328.808 -710.396 349.089C-734.463 379.024 -750.589 440.863 -750.03 476.953C-749.388 518.272 -765.629 546.991 -785.671 579.386C-804.534 609.87 -854.847 623.952 -886.161 640.059C-916.384 655.601 -942.979 644.299 -973.961 681.054C-995.081 706.1 -979.742 731.213 -1021.36 724.33C-1028.36 723.173 -1041.29 713.832 -1049.84 713.936C-1058.07 714.041 -1066.58 719.195 -1073.86 719.469C-1093.79 720.205 -1100.73 724.588 -1114.94 722.812" stroke="url(#paint24_linear_2782_1010)" stroke-opacity="0.5" stroke-width="9" stroke-linecap="round" stroke-linejoin="round"/>
</g>
<defs>
<linearGradient id="paint0_linear_2782_1010" x1="209.249" y1="1718.76" x2="-802.92" y2="2392.73" gradientUnits="userSpaceOnUse">
<stop stop-color="#BDC0C0" stop-opacity="0.6"/>
<stop offset="1" stop-color="#BDC0C0" stop-opacity="0"/>
</linearGradient>
<linearGradient id="paint1_linear_2782_1010" x1="-1.50764" y1="-106.635" x2="-126.168" y2="-23.6276" gradientUnits="userSpaceOnUse">
<stop stop-color="#BDC0C0" stop-opacity="0.6"/>
<stop offset="1" stop-color="#BDC0C0" stop-opacity="0"/>
</linearGradient>
<linearGradient id="paint2_linear_2782_1010" x1="296.874" y1="49.0125" x2="221.462" y2="99.2269" gradientUnits="userSpaceOnUse">
<stop stop-color="#BDC0C0" stop-opacity="0.6"/>
<stop offset="1" stop-color="#BDC0C0" stop-opacity="0"/>
</linearGradient>
<linearGradient id="paint3_linear_2782_1010" x1="623.078" y1="40.9225" x2="452.325" y2="154.621" gradientUnits="userSpaceOnUse">
<stop stop-color="#BDC0C0" stop-opacity="0.6"/>
<stop offset="1" stop-color="#BDC0C0" stop-opacity="0"/>
</linearGradient>
<linearGradient id="paint4_linear_2782_1010" x1="683.641" y1="-22.6492" x2="516.338" y2="88.7521" gradientUnits="userSpaceOnUse">
<stop stop-color="#BDC0C0" stop-opacity="0.6"/>
<stop offset="1" stop-color="#BDC0C0" stop-opacity="0"/>
</linearGradient>
<linearGradient id="paint5_linear_2782_1010" x1="698.929" y1="65.1116" x2="399.4" y2="264.558" gradientUnits="userSpaceOnUse">
<stop stop-color="#BDC0C0" stop-opacity="0.6"/>
<stop offset="1" stop-color="#BDC0C0" stop-opacity="0"/>
</linearGradient>
<linearGradient id="paint6_linear_2782_1010" x1="542.039" y1="-147.045" x2="163.765" y2="104.836" gradientUnits="userSpaceOnUse">
<stop stop-color="#BDC0C0" stop-opacity="0.6"/>
<stop offset="1" stop-color="#BDC0C0" stop-opacity="0"/>
</linearGradient>
<linearGradient id="paint7_linear_2782_1010" x1="1351.2" y1="151.388" x2="825.192" y2="501.641" gradientUnits="userSpaceOnUse">
<stop stop-color="#BDC0C0" stop-opacity="0.6"/>
<stop offset="1" stop-color="#BDC0C0" stop-opacity="0"/>
</linearGradient>
<linearGradient id="paint8_linear_2782_1010" x1="1417.34" y1="370.62" x2="916.361" y2="704.206" gradientUnits="userSpaceOnUse">
<stop stop-color="#BDC0C0" stop-opacity="0.6"/>
<stop offset="1" stop-color="#BDC0C0" stop-opacity="0"/>
</linearGradient>
<linearGradient id="paint9_linear_2782_1010" x1="1277.9" y1="203.184" x2="747.957" y2="556.057" gradientUnits="userSpaceOnUse">
<stop stop-color="#BDC0C0" stop-opacity="0.6"/>
<stop offset="1" stop-color="#BDC0C0" stop-opacity="0"/>
</linearGradient>
<linearGradient id="paint10_linear_2782_1010" x1="1314" y1="589.664" x2="938.734" y2="839.539" gradientUnits="userSpaceOnUse">
<stop stop-color="#BDC0C0" stop-opacity="0.6"/>
<stop offset="1" stop-color="#BDC0C0" stop-opacity="0"/>
</linearGradient>
<linearGradient id="paint11_linear_2782_1010" x1="1687.34" y1="576.21" x2="1005.89" y2="1029.96" gradientUnits="userSpaceOnUse">
<stop stop-color="#BDC0C0" stop-opacity="0.6"/>
<stop offset="1" stop-color="#BDC0C0" stop-opacity="0"/>
</linearGradient>
<linearGradient id="paint12_linear_2782_1010" x1="824.481" y1="842.439" x2="804.099" y2="856.011" gradientUnits="userSpaceOnUse">
<stop stop-color="#BDC0C0" stop-opacity="0.6"/>
<stop offset="1" stop-color="#BDC0C0" stop-opacity="0"/>
</linearGradient>
<linearGradient id="paint13_linear_2782_1010" x1="904.804" y1="823.338" x2="793.393" y2="897.523" gradientUnits="userSpaceOnUse">
<stop stop-color="#BDC0C0" stop-opacity="0.5"/>
<stop offset="1" stop-color="#BDC0C0" stop-opacity="0"/>
</linearGradient>
<linearGradient id="paint14_linear_2782_1010" x1="679.901" y1="506.337" x2="114.848" y2="882.587" gradientUnits="userSpaceOnUse">
<stop stop-color="#BDC0C0" stop-opacity="0.6"/>
<stop offset="1" stop-color="#BDC0C0" stop-opacity="0"/>
</linearGradient>
<linearGradient id="paint15_linear_2782_1010" x1="-214.132" y1="825.224" x2="-1314.72" y2="1558.07" gradientUnits="userSpaceOnUse">
<stop stop-color="#BDC0C0" stop-opacity="0.6"/>
<stop offset="1" stop-color="#BDC0C0" stop-opacity="0"/>
</linearGradient>
<linearGradient id="paint16_linear_2782_1010" x1="1974.4" y1="-21.8977" x2="717.493" y2="815.033" gradientUnits="userSpaceOnUse">
<stop stop-color="#BDC0C0" stop-opacity="0.6"/>
<stop offset="1" stop-color="#BDC0C0" stop-opacity="0"/>
</linearGradient>
<linearGradient id="paint17_linear_2782_1010" x1="1312.6" y1="703.851" x2="920.94" y2="964.642" gradientUnits="userSpaceOnUse">
<stop stop-color="#BDC0C0" stop-opacity="0.6"/>
<stop offset="1" stop-color="#BDC0C0" stop-opacity="0"/>
</linearGradient>
<linearGradient id="paint18_linear_2782_1010" x1="851.611" y1="699.799" x2="646.464" y2="836.4" gradientUnits="userSpaceOnUse">
<stop stop-color="#BDC0C0" stop-opacity="0.6"/>
<stop offset="1" stop-color="#BDC0C0" stop-opacity="0"/>
</linearGradient>
<linearGradient id="paint19_linear_2782_1010" x1="798.864" y1="550.007" x2="68.7299" y2="1036.18" gradientUnits="userSpaceOnUse">
<stop stop-color="#BDC0C0" stop-opacity="0.6"/>
<stop offset="1" stop-color="#BDC0C0" stop-opacity="0"/>
</linearGradient>
<linearGradient id="paint20_linear_2782_1010" x1="196.209" y1="1522.86" x2="-180.632" y2="1773.79" gradientUnits="userSpaceOnUse">
<stop stop-color="#BDC0C0" stop-opacity="0.6"/>
<stop offset="1" stop-color="#BDC0C0" stop-opacity="0"/>
</linearGradient>
<linearGradient id="paint21_linear_2782_1010" x1="-49.8308" y1="-234.732" x2="-1036.72" y2="422.402" gradientUnits="userSpaceOnUse">
<stop stop-color="#BDC0C0" stop-opacity="0.4"/>
<stop offset="0.6875" stop-color="#BDC0C0" stop-opacity="0"/>
</linearGradient>
<linearGradient id="paint22_linear_2782_1010" x1="0.915228" y1="198.344" x2="-510.257" y2="538.716" gradientUnits="userSpaceOnUse">
<stop stop-color="#BDC0C0" stop-opacity="0.6"/>
<stop offset="1" stop-color="#BDC0C0" stop-opacity="0"/>
</linearGradient>
<linearGradient id="paint23_linear_2782_1010" x1="160.964" y1="179.873" x2="-509.376" y2="626.23" gradientUnits="userSpaceOnUse">
<stop stop-color="#BDC0C0" stop-opacity="0.3"/>
<stop offset="1" stop-color="#BDC0C0" stop-opacity="0"/>
</linearGradient>
<linearGradient id="paint24_linear_2782_1010" x1="-93.2615" y1="-92.28" x2="-1539.89" y2="870.983" gradientUnits="userSpaceOnUse">
<stop stop-color="#BDC0C0" stop-opacity="0.3"/>
<stop offset="0.34375" stop-color="#BDC0C0" stop-opacity="0"/>
</linearGradient>
<clipPath id="clip0_2782_1010">
<rect width="832" height="1157" fill="white"/>
</clipPath>
</defs>
</svg>
