<svg width="24" height="25" viewBox="0 0 24 25" fill="none" xmlns="http://www.w3.org/2000/svg">
<g clip-path="url(#clip0_2782_1981)">
<path d="M12 0.5C5.4 0.5 0 5.9 0 12.5C0 19.1 5.4 24.5 12 24.5C18.6 24.5 24 19.1 24 12.5C24 5.9 18.6 0.5 12 0.5ZM8 19.3V19.4C7 19.4 5.9 19.4 4.8 19.4C4.8 19.3 4.8 19.2 4.8 19.2V10.3C4.8 10.1 4.9 10 5.1 10H7.8C8 10.1 8 10.1 8 10.3V19.3ZM8.2 7.5C8 8.2 7.6 8.6 6.9 8.8C6.7 8.8 6.6 8.8 6.4 8.9C5.5 8.9 4.9 8.4 4.7 7.6C4.5 6.7 5.1 5.8 6 5.6C6.6 5.5 7.1 5.5 7.6 5.9C8.1 6.3 8.3 6.9 8.2 7.5ZM19.3 19.2C19.3 19.4 19.2 19.5 19 19.5H16.1C16.1 19.4 16.1 19.3 16.1 19.3C16.1 17.8 16.1 16.2 16.1 14.7C16.1 14.3 16.1 14 16 13.6C15.9 13 15.6 12.6 15 12.5C14.4 12.3 13.8 12.5 13.4 12.9C13 13.3 12.9 13.7 12.9 14.3V19.6H9.9C9.7 19.6 9.7 19.5 9.7 19.4C9.7 17.4 9.7 15.4 9.7 13.4C9.7 12.4 9.7 11.5 9.7 10.5C9.7 10.3 9.7 10.3 9.9 10.3H12.8V11.6L12.9 11.5C13.5 10.6 14.4 10.2 15.5 10.2C16.5 10.2 17.3 10.4 18.1 11.1C18.7 11.7 19.1 12.4 19.2 13.2C19.3 13.7 19.3 14.1 19.3 14.6V19.2Z" fill="#222F33"/>
</g>
<defs>
<clipPath id="clip0_2782_1981">
<rect width="24" height="24" fill="white" transform="translate(0 0.5)"/>
</clipPath>
</defs>
</svg>
