<svg width="24" height="24" viewBox="0 0 24 24" fill="none" xmlns="http://www.w3.org/2000/svg">
<g clip-path="url(#clip0_2648_2072)">
<path d="M24 23.8154H0V0H24V23.8154ZM16.7 19.9454H20.1C20.3 19.9454 20.4 19.8462 20.4 19.6477V13.9915C20.4 13.3962 20.3 12.9 20.3 12.4038C20.2 11.4115 19.8 10.6177 19.1 9.92308C18.3 9.12923 17.3 8.83154 16.1 8.93077C14.8 8.93077 13.8 9.42692 13.1 10.5185L13 10.7169V9.12923H9.5C9.3 9.12923 9.2 9.22846 9.2 9.42692C9.2 10.5185 9.3 11.7092 9.2 12.8008C9.2 15.0831 9.2 17.4646 9.2 19.7469C9.2 19.9454 9.3 20.0446 9.5 20.0446H12.9V13.8923C12.9 13.2969 13.1 12.8008 13.5 12.3046C14 11.8085 14.7 11.61 15.4 11.8085C16.1 12.0069 16.4 12.4038 16.6 13.0985C16.7 13.4954 16.7 13.8923 16.7 14.2892C16.7 16.0754 16.7 17.8615 16.7 19.6477C16.7 19.7469 16.7 19.8462 16.7 19.9454ZM7.3 19.9454C7.3 19.8462 7.3 19.8462 7.3 19.7469V9.42692C7.3 9.22846 7.2 9.22846 7.1 9.22846H3.9C3.7 9.22846 3.6 9.32769 3.6 9.52615V19.7469C3.6 19.8462 3.6 19.9454 3.6 20.0446C4.9 19.9454 6.1 19.9454 7.3 19.9454ZM5.4 7.74C5.6 7.74 5.8 7.74 5.9 7.64077C6.7 7.44231 7.2 7.04538 7.4 6.25154C7.6 5.45769 7.3 4.76308 6.7 4.26692C6.2 3.96923 5.6 3.87 5 3.96923C3.9 4.16769 3.2 5.25923 3.4 6.25154C3.7 7.14462 4.4 7.74 5.4 7.74Z" fill="white"/>
</g>
<defs>
<clipPath id="clip0_2648_2072">
<path d="M0 5.03516C0 2.27374 2.23858 0.0351562 5 0.0351562H19C21.7614 0.0351562 24 2.27373 24 5.03516V18.8505C24 21.612 21.7614 23.8505 19 23.8505H5C2.23858 23.8505 0 21.612 0 18.8505V5.03516Z" fill="white"/>
</clipPath>
</defs>
</svg>
