<svg width="144" height="656" viewBox="0 0 144 656" fill="none" xmlns="http://www.w3.org/2000/svg">
<g clip-path="url(#clip0_3055_7844)">
<path d="M81.3281 26.7988C94.2365 56.3652 92.7985 75.8234 111.315 93.2854C123.637 104.909 134.045 115.077 142.056 130.528C149.036 144.003 151.464 159.508 156.492 173.826C161.516 188.15 172.464 202.565 187.449 200.16C191.461 199.519 195.274 197.722 199.337 197.552C204.935 197.322 209.997 200.544 215.375 202.107C238.915 208.937 263.006 202.964 286.673 207.797C294.517 209.398 300.448 209.439 308.437 208.969C316.277 208.51 326.72 204.67 334.568 204.594C350.744 204.437 371.288 199.416 381.263 204.565C403.419 216.01 412.406 214.933 420.128 213.006C437.412 208.688 450.669 201.047 467.315 194.569C473.321 192.229 479.444 180.475 481.691 176.248C486.996 166.27 496.105 152.379 497.788 149.783C521.761 112.684 527.777 97.7347 543.09 86.4484" stroke="url(#paint0_linear_3055_7844)" stroke-width="6" stroke-linecap="round" stroke-linejoin="round"/>
<path d="M137.552 99.2009C151.279 107.509 161.554 121.344 165.531 136.895C166.707 141.501 167.358 146.241 168.79 150.777C173.962 167.153 189.647 179.26 206.658 181.613C218.597 183.264 231.229 180.671 242.504 184.934C247.32 186.755 251.77 189.797 256.883 190.4C264.053 191.242 270.833 187.123 276.439 182.573C282.045 178.024 287.385 172.736 294.252 170.518C305.384 166.919 317.995 172.181 329.033 168.314" stroke="url(#paint1_linear_3055_7844)" stroke-width="6" stroke-linecap="round" stroke-linejoin="round"/>
<path d="M118.549 210.02C119.282 215.76 120.056 218.654 120.81 223.174C121.317 226.228 123.147 228.937 123.69 231.984C124.321 235.517 123.463 240.879 122.221 244.25C119.932 250.442 118.329 255.72 118.086 262.321C117.913 267.05 117.641 270.895 117.904 275.617C118.553 287.376 114.006 298.722 111.983 310.326C110.114 321.064 108.487 331.29 110.961 341.907C111.241 343.118 113.497 345.228 114.157 346.28C114.896 347.463 116.051 348.393 116.513 349.71C116.975 351.027 116.147 352.92 114.768 352.713" stroke="url(#paint2_linear_3055_7844)" stroke-width="6" stroke-miterlimit="10" stroke-linecap="round"/>
<path d="M89.4881 374.717C93.8402 380.393 96.4782 384.732 97.8092 391.227C98.715 395.664 99.8996 400.004 101.14 404.356C102.426 408.855 104.859 412.433 107.462 416.222C113.169 424.525 116.995 429.875 123.798 437.239C126.849 440.543 131.262 447.331 133.824 451.014C136.437 454.769 138.028 458.437 137.919 462.905C137.793 467.857 137.354 473.172 138.625 478.026C139.246 480.404 140.015 484.942 142.838 485.377" stroke="url(#paint3_linear_3055_7844)" stroke-width="6" stroke-miterlimit="10" stroke-linecap="round"/>
<path d="M61.1121 180.857C62.5645 185.638 66.0965 190.358 66.3515 195.632C66.5945 200.616 64.245 205.977 62.4391 210.39C57.7056 221.95 57.3829 233.884 56.3795 246.272C55.2612 260.098 47.9522 273.056 46.1332 286.891C45.346 292.878 45.3352 298.543 43.5446 304.51C41.2067 312.311 39.6716 319.164 40.4372 327.426C41.1714 335.354 41.2274 343.212 43.4189 350.818C44.856 355.802 45.3502 362.274 48.046 366.774" stroke="url(#paint4_linear_3055_7844)" stroke-width="6" stroke-linecap="round" stroke-linejoin="round"/>
<path d="M69.5596 -46.3979C56.9763 -25.3378 48.3428 -0.0596002 37.2366 22.6533C28.3583 40.8127 32.18 66.7952 35.09 86.7803C36.8247 98.6784 43.8232 106.47 51.4033 115.584C58.7568 124.416 66.3982 134.247 70.4471 145.217C78.2645 166.395 85.2826 187.775 81.9815 210.582C80.4595 221.102 75.8661 233.31 75.5045 244.927C75.2144 254.256 75.6641 260.579 75.1045 269.883C74.4555 280.701 66.5168 290.473 66.5603 301.267C66.6097 313.735 60.098 328.465 59.3943 340.159C58.0518 362.582 67.139 378.405 72.959 398.943C79.0303 420.373 102.798 439.584 111.321 460.217C119.728 480.574 116.117 487.764 131.309 504.115C152.67 527.113 146.479 549.218 161.432 571.402C173.346 589.07 175.081 607.739 176.941 629.643C177.863 640.48 176.352 653.44 181.676 665.853C187 678.267 183.346 682.482 179.294 697.84C172.482 723.662 149.719 744.838 127.744 757.968C105.439 771.296 83.1101 776.479 61.4718 794.603C42.3445 810.622 29.8117 798.746 10.2801 802.164C1.13889 803.762 -17.4021 792.968 -26.3432 797.937" stroke="url(#paint5_linear_3055_7844)" stroke-width="6" stroke-linecap="round" stroke-linejoin="round"/>
<path d="M51.9384 1308.2C53.6157 1285.72 60.1449 1274.17 66.542 1252.55C73.202 1230.04 87.4683 1216.05 82.3878 1194.77C80.3423 1186.2 59.608 1143.54 55.6126 1135.68C42.7383 1110.35 50.69 1106.14 32.0218 1084.71C22.4326 1073.7 7.86581 1070.57 -3.83312 1063.49C-18.8353 1054.42 -30.8738 1041.51 -40.3119 1025.35C-57.4572 995.978 -53.1812 969.953 -23.8605 947.456C-16.3091 941.66 -5.04448 920.911 4.07854 918.198C16.8831 914.388 33.1826 917.596 46.5349 917.989C74.6153 918.819 78.9281 908.567 115.608 908.53C129.726 908.517 154.354 892.498 167.681 887.74C184.407 881.771 193.436 871.711 207.784 864.121C239.843 847.165 268.795 809.537 275.678 775.196C282.266 742.337 289.125 712.204 273.519 681.164C267.372 668.94 248.578 653.417 245.995 639.989C244.569 632.572 245.343 626.685 245.543 619.805C245.751 612.508 239.486 601.339 237.095 594.554C226.812 565.438 220.768 543.5 211.004 522.229C204.571 508.222 192.317 494.326 183.523 481.57C174.879 469.029 173.304 454.458 166.646 440.321C159.459 425.053 154.726 417.04 145.802 403.374C135.869 388.16 136.854 378.056 137.535 360.606C138.235 342.521 129.913 332.263 135.394 313.066C140.642 294.686 136.971 278.812 141.448 259.844C145.346 243.311 156.433 235.062 150.093 219.217C143.767 203.423 140.81 209.677 136.307 199.556C133.337 192.881 129.831 191.188 130.866 180.297C132.917 158.695 122.658 149.65 111.875 132.355C104.659 120.79 95.2291 108.722 89.471 96.5538C86.6803 90.6502 78.9664 79.7305 76.9554 73.6079" stroke="url(#paint6_linear_3055_7844)" stroke-width="6" stroke-miterlimit="10" stroke-linecap="round"/>
<path d="M427.444 915.667C422.411 906.651 417.797 897.902 415.594 887.487C413.696 878.528 412.446 869.542 407.46 861.674C393.902 840.288 362.842 800.043 354.866 772.367C350.057 755.684 332.2 754.254 325.611 738.24C313.383 708.533 324.792 712.533 312.136 692.137C305.495 681.429 303.275 670.645 297.542 659.202C293.388 650.91 288.517 642.826 283.392 635.762C278.698 629.287 270.613 625.258 265.874 619.282C261.639 613.935 261.751 602.798 258.859 596.276C250.698 577.887 242.594 540.363 233.025 521.929C212.453 482.298 199.323 478.513 190.776 449.427C184.943 429.589 159.393 396.02 162.377 374.354C165.116 354.464 166.249 338.9 161.046 318.823C155.924 299.055 167.314 284.031 167.633 263.187C167.818 251.155 166.778 220.405 184.808 221.862C193.375 222.551 194.904 228.841 203.984 227.034C213.911 225.053 217.275 217.16 227.815 222.158C240.28 228.07 244.036 235.951 258.833 231.934C269.371 229.075 275.196 228.191 285.945 229.275C295.39 230.229 303.365 229.259 311.8 225.407" stroke="url(#paint7_linear_3055_7844)" stroke-width="6" stroke-miterlimit="10" stroke-linecap="round"/>
<path d="M265.862 645.646C286.227 662.21 295.772 693.747 304.476 717.955C314.878 746.876 306.819 771.001 289.633 806.26C275.313 835.639 242.486 849.98 222.07 875.252C213.004 886.476 203.407 894.975 190.304 901.809C177.343 908.567 164.689 916.682 151.604 922.62C139.663 928.038 122.365 924.551 112.495 933.631C102.409 942.91 83.2691 941.584 67.1589 941.918C53.1905 942.205 38.53 934.161 25.0455 936.107C10.9982 938.132 -1.95027 951.443 -16.5686 963.704C-44.3411 987.008 -25.2323 1019.87 -1.77799 1036.93C9.41592 1045.07 22.8854 1055.35 36.8536 1057.18" stroke="url(#paint8_linear_3055_7844)" stroke-width="6" stroke-miterlimit="10" stroke-linecap="round"/>
<path d="M81.8545 124.455C94.7702 147.714 103.992 173.958 101.897 202.182C100.106 226.279 93.8525 220.437 95.6357 267.262C96.6237 293.233 84.0464 301.917 83.8933 324.513C83.7774 341.639 80.5006 347.322 93.7673 356.161C105.016 363.656 117.06 380.758 121.826 393.137C126.433 405.108 130.03 412.036 137.294 422.41C143.07 430.651 151.472 440.359 155.473 449.89C160.266 461.302 156.055 470.984 157.827 481.745C160.025 495.084 171.984 498.088 180.906 507.604C198.269 526.135 200.433 551.98 213.374 573.953C226.261 595.844 220.8 615.713 225.389 651.638C228.442 675.546 264.569 681.338 263.174 706.77C261.895 730.04 255.183 767.737 242.725 788.038C228.457 811.289 222.963 824.383 200.493 841.266C188.767 850.079 178.643 860.289 163.593 863.744C149.138 867.063 139.71 873.163 127.787 879.723C118.026 885.098 99.5211 888.147 88.5795 887.446C75.4945 886.613 59.0915 891.417 44.2908 890.599C25.9948 889.587 26.8433 890.409 7.99774 891.956C2.4219 892.415 -8.22539 890.82 -13.0655 888.393C-22.4484 883.682 -25.916 883.662 -31.2335 883.747C-39.2133 883.87 -55.7296 897.909 -62.2194 903.038C-73.9691 912.321 -77.459 928.02 -80.0518 942.246C-82.3303 954.721 -94.0795 963.949 -95.9272 975.396C-98.1432 989.161 -92.6445 1003.79 -85.5561 1014.24C-78.0527 1025.3 -64.7176 1030.79 -51.931 1036.71" stroke="url(#paint9_linear_3055_7844)" stroke-width="6" stroke-miterlimit="10" stroke-linecap="round"/>
<path d="M-208.132 805.106C-208.058 801.358 -210.25 795.254 -209.161 791.641C-207.816 787.191 -202.584 783.232 -200.019 779.365C-194.595 771.203 -190.604 762.179 -183.166 755.026C-175.207 747.369 -165.347 750.136 -156.172 751.801C-145.285 753.777 -129.993 759.549 -119.458 763.305C-75.4813 778.996 -48.353 809.622 0.19227 820.312C25.452 825.875 56.5433 822.008 80.0592 811.545C102.46 801.581 121.808 788.844 142.582 775.37C164.184 761.361 179.647 744.323 190.645 719.966C199.649 700.027 211.295 674.336 202.842 653.706C190.393 623.322 206.395 605.538 194.159 587.284C179.516 565.452 174.496 544.718 167.36 523.54C165.963 519.391 165.447 513.626 156.426 509.37" stroke="url(#paint10_linear_3055_7844)" stroke-width="6" stroke-miterlimit="10" stroke-linecap="round"/>
<path d="M20.1967 48.4778C16.1014 74.4304 13.091 102.7 29.0798 124.335C33.1379 129.829 32.9675 133.185 36.0603 138.944C39.195 144.782 45.7224 145.488 49.473 150.56C56.9022 160.61 43.6172 173.828 44.3364 184.85C45.3089 199.692 37.8126 207.137 36.1992 220.917C34.567 234.824 35.1809 249.26 31.5371 263.076C28.5139 274.536 20.5486 285.555 19.3197 297.3C18.631 303.916 21.5596 308.475 22.136 314.839C22.7332 321.426 19.9334 325.446 19.3009 331.478C17.9406 344.545 28.4245 358.54 32.2799 371.725C36.1353 384.91 37.0796 395.668 44.7083 406.225C62.1439 430.346 79.4304 453.43 92.5264 479.702C105.677 506.088 111.777 533.138 130.201 556.546C145.267 575.698 154.516 607.551 154.872 631.201C154.959 637.123 156.493 643.186 155.598 649.117C154.72 654.964 150.286 660.9 150.858 667.157C152.032 680.021 158.324 685.7 153.482 699.918C145.081 724.546 114.594 739.624 92.4318 750.472C79.967 756.573 71.1898 757.161 57.9737 757.029C45.5268 756.907 37.0824 760.685 25.04 763.193C18.2418 764.608 10.0202 763.01 3.63024 765.688C-2.9655 768.449 -6.94017 772.881 -14.2407 775.177C-27.017 779.192 -35.5136 784.282 -47.9044 777.854C-59.9408 771.611 -72.8146 769.506 -84.9825 764.473C-98.892 758.723 -112.501 747.75 -125.38 740.096C-137.521 732.88 -149.329 723.557 -163.289 721.962C-177.708 720.309 -200.009 718.332 -211.241 729.478C-221.974 740.128 -222.706 755.723 -224.173 769.561C-226.275 789.362 -226.714 799.103 -218.652 816.776C-211.215 833.071 -217.77 850.517 -213.149 867.404C-208.92 882.862 -196.542 894.011 -193.954 910.945C-188.692 945.444 -224.841 983.532 -186.17 1008.91C-180.363 1012.73 -173.145 1016.23 -168 1020.88C-162.011 1026.3 -160.072 1031.71 -151.691 1033.68C-144.238 1035.45 -137.19 1031.57 -129.868 1032.9C-121.37 1034.45 -112.595 1042.15 -106.29 1047.58C-93.8451 1058.31 -84.7282 1071.15 -72.3437 1081.57C-57.2561 1094.26 -39.2545 1101.91 -22.8574 1113C-3.61779 1126.01 1.65663 1144.34 13.8886 1162.88C19.3636 1171.18 26.2023 1180.55 29.0768 1189.89C30.1423 1193.35 28.4017 1196.04 30.2683 1199.91C32.6951 1204.92 38.6389 1207.81 41.9518 1212.23C51.0963 1224.42 43.3525 1240.14 48.2798 1253.96C52.2685 1249.23 51.3721 1243.74 52.628 1238.2C54.5038 1229.9 62.3177 1222.45 63.4736 1214.46C65.5291 1200.25 47.359 1189.42 40.7184 1178.85C31.5555 1164.28 28.8576 1142.34 23.8829 1126.01C19.6022 1111.95 18.21 1094.54 3.19707 1088.79C-8.77903 1084.19 -23.9269 1081.78 -32.2664 1070.39" stroke="url(#paint11_linear_3055_7844)" stroke-width="6" stroke-miterlimit="10" stroke-linecap="round"/>
<path d="M-625.458 -501.958C-624.621 -494.396 -618.491 -491.101 -615.682 -484.504C-613.02 -478.257 -611.213 -472.522 -610.404 -466.273C-607.855 -446.619 -608.435 -435.668 -602.992 -423.11C-597.668 -410.811 -597.323 -394.13 -596.772 -380.676C-596.174 -366.038 -607.136 -352.712 -608.629 -338.842C-610.056 -325.584 -598.586 -311.971 -593.705 -299.5C-587.727 -284.224 -580.037 -265.048 -574.986 -249.475C-570.089 -234.371 -563.368 -230.498 -550.957 -221.641C-537.208 -211.83 -531.132 -200.657 -523.188 -186.464C-520.032 -180.829 -514 -179.294 -510.838 -173.596C-507.321 -167.253 -507.649 -160.247 -504.86 -154.013C-501.618 -146.763 -496.191 -144.459 -490.146 -139.684C-483.447 -134.396 -484.14 -124.996 -479.477 -118.683C-471.425 -107.779 -453.209 -104.974 -441.445 -99.653C-435.537 -96.9812 -426.431 -92.0769 -419.797 -90.8998C-412.096 -89.5373 -409.9 -94.5981 -403.436 -95.4422C-383.891 -97.998 -377.008 -89.7894 -363.238 -93.4646C-356.414 -95.2851 -351.687 -100.11 -344.942 -100.9C-338.065 -101.704 -329.897 -98.4306 -322.934 -97.3974C-306.096 -94.9031 -293.306 -98.0291 -277.683 -98.9614C-258.587 -100.102 -249.358 -107.186 -231.657 -96.9716C-215.614 -87.7164 -208.74 -77.1499 -189.727 -78.356C-175.343 -79.2681 -163.129 -77.3615 -148.914 -77.8899C-127.021 -78.6997 -112.481 -87.8015 -96.5218 -100.967C-82.8691 -112.229 -66.1532 -134.882 -47.7172 -133.93C-25.2969 -132.771 -9.92255 -146.452 -0.84698 -134.004C9.36304 -119.999 22.4109 -109.022 39.3224 -124.417C52.8775 -136.757 46.1206 -147.589 30.9163 -153.951C15.9993 -160.195 -10.7747 -160.664 -26.9952 -165.497C-41.0902 -169.699 -52.8461 -179.031 -66.7233 -183.025C-78.3306 -186.366 -86.3959 -189.61 -97.0924 -197.496C-102.927 -201.793 -108.157 -207.285 -114.869 -210.544C-133.46 -219.562 -153.437 -212.189 -172.997 -213.992C-188.619 -215.432 -201.575 -225.73 -218.089 -223.887C-232.354 -222.295 -242.418 -215.988 -258.057 -215.928C-265.698 -215.902 -272.962 -212.76 -280.606 -212.637C-292.636 -212.444 -298.907 -216.76 -310.313 -220.009C-327.142 -224.802 -355.944 -220.61 -370.987 -213.974C-388.215 -206.381 -403.14 -208.105 -420.287 -210.773C-436.421 -213.283 -451.25 -231.897 -463.561 -242.183C-475.44 -252.108 -475.412 -265.272 -496.325 -271.76C-510.581 -276.179 -518.399 -265.296 -522.887 -283.98C-523.642 -287.116 -522.017 -294.203 -523.573 -297.77C-525.077 -301.206 -528.75 -303.861 -530.15 -306.869C-533.996 -315.1 -537.061 -317.234 -538.832 -323.516" stroke="url(#paint12_linear_3055_7844)" stroke-width="6" stroke-linecap="round" stroke-linejoin="round"/>
</g>
<defs>
<linearGradient id="paint0_linear_3055_7844" x1="297.415" y1="-20.9293" x2="344.8" y2="227.468" gradientUnits="userSpaceOnUse">
<stop stop-color="#BDC0C0" stop-opacity="0.5"/>
<stop offset="1" stop-color="#BDC0C0" stop-opacity="0"/>
</linearGradient>
<linearGradient id="paint1_linear_3055_7844" x1="207.729" y1="50.7775" x2="235.299" y2="195.299" gradientUnits="userSpaceOnUse">
<stop stop-color="#BDC0C0" stop-opacity="0.5"/>
<stop offset="1" stop-color="#BDC0C0" stop-opacity="0"/>
</linearGradient>
<linearGradient id="paint2_linear_3055_7844" x1="102.513" y1="209.396" x2="129.338" y2="350.012" gradientUnits="userSpaceOnUse">
<stop stop-color="#BDC0C0" stop-opacity="0.5"/>
<stop offset="1" stop-color="#BDC0C0" stop-opacity="0"/>
</linearGradient>
<linearGradient id="paint3_linear_3055_7844" x1="104.465" y1="368.727" x2="127.284" y2="488.344" gradientUnits="userSpaceOnUse">
<stop stop-color="#BDC0C0" stop-opacity="0.5"/>
<stop offset="1" stop-color="#BDC0C0" stop-opacity="0"/>
</linearGradient>
<linearGradient id="paint4_linear_3055_7844" x1="37.1922" y1="180.664" x2="71.8298" y2="362.237" gradientUnits="userSpaceOnUse">
<stop stop-color="#BDC0C0" stop-opacity="0.5"/>
<stop offset="1" stop-color="#BDC0C0" stop-opacity="0"/>
</linearGradient>
<linearGradient id="paint5_linear_3055_7844" x1="-58.4453" y1="-43.8764" x2="101.028" y2="792.094" gradientUnits="userSpaceOnUse">
<stop stop-color="#BDC0C0" stop-opacity="0.5"/>
<stop offset="1" stop-color="#BDC0C0" stop-opacity="0"/>
</linearGradient>
<linearGradient id="paint6_linear_3055_7844" x1="-34.7945" y1="63.0374" x2="197.443" y2="1280.44" gradientUnits="userSpaceOnUse">
<stop stop-color="#BDC0C0" stop-opacity="0.5"/>
<stop offset="1" stop-color="#BDC0C0" stop-opacity="0"/>
</linearGradient>
<linearGradient id="paint7_linear_3055_7844" x1="216.501" y1="196.092" x2="356.357" y2="929.228" gradientUnits="userSpaceOnUse">
<stop stop-color="#BDC0C0" stop-opacity="0.5"/>
<stop offset="1" stop-color="#BDC0C0" stop-opacity="0"/>
</linearGradient>
<linearGradient id="paint8_linear_3055_7844" x1="101.611" y1="667.441" x2="171.075" y2="1031.58" gradientUnits="userSpaceOnUse">
<stop stop-color="#BDC0C0" stop-opacity="0.5"/>
<stop offset="1" stop-color="#BDC0C0" stop-opacity="0"/>
</linearGradient>
<linearGradient id="paint9_linear_3055_7844" x1="-89.1136" y1="-67.5414" x2="115.448" y2="1004.78" gradientUnits="userSpaceOnUse">
<stop stop-color="#BDC0C0" stop-opacity="0.5"/>
<stop offset="1" stop-color="#BDC0C0" stop-opacity="0"/>
</linearGradient>
<linearGradient id="paint10_linear_3055_7844" x1="-35.9094" y1="538.518" x2="19.0283" y2="826.505" gradientUnits="userSpaceOnUse">
<stop stop-color="#BDC0C0" stop-opacity="0.5"/>
<stop offset="1" stop-color="#BDC0C0" stop-opacity="0"/>
</linearGradient>
<linearGradient id="paint11_linear_3055_7844" x1="-167.556" y1="52.8982" x2="61.0963" y2="1251.51" gradientUnits="userSpaceOnUse">
<stop stop-color="#BDC0C0" stop-opacity="0.5"/>
<stop offset="1" stop-color="#BDC0C0" stop-opacity="0"/>
</linearGradient>
<linearGradient id="paint12_linear_3055_7844" x1="-344.5" y1="-568.931" x2="-247.081" y2="-58.2529" gradientUnits="userSpaceOnUse">
<stop stop-color="#BDC0C0" stop-opacity="0.5"/>
<stop offset="1" stop-color="#BDC0C0" stop-opacity="0"/>
</linearGradient>
<clipPath id="clip0_3055_7844">
<rect width="144" height="656" fill="white"/>
</clipPath>
</defs>
</svg>
