<svg width="390" height="454" viewBox="0 0 390 454" fill="none" xmlns="http://www.w3.org/2000/svg">
<g clip-path="url(#clip0_3055_7832)">
<path d="M37.4428 -307.193C-15.0298 -331.473 -74.4691 -303.771 -118.83 -268.683C-144.95 -248.021 -169.588 -211.277 -192.174 -179.246C-207.937 -156.887 -226.146 -141.087 -235.571 -122.783C-249.033 -96.6455 -245.096 -88.0554 -275.047 -81.6693C-280.573 -80.4913 -285.771 -74.4374 -287.545 -68.8053C-288.75 -64.9751 -293.314 -61.6181 -297.316 -61.2615C-304.88 -60.5833 -305.903 -64.6731 -313.679 -61.9038C-320.192 -59.5855 -323.027 -50.3158 -326.198 -44.08C-334.23 -28.2835 -340.84 -30.2404 -349.19 -14.156C-362.916 12.2919 -382.777 30.4812 -409.543 43.3712C-434.697 55.4836 -450.807 52.2119 -464.179 70.4485C-468.327 76.1025 -468.369 82.8192 -472.875 88.197C-481.965 99.0517 -490.715 104.604 -504.37 108.353C-511.185 110.227 -523.99 112.165 -530.877 110.58C-543.532 107.665 -553.736 90.961 -558.157 86.9674C-571.018 75.3594 -585.394 82.9452 -602.236 71.3161C-617.15 61.0224 -631.045 60.9918 -646.458 60.8392C-666.718 60.6404 -683.217 69.318 -700.445 58.6528C-713.995 50.268 -714.749 50.17 -721.204 41.2066C-722.362 39.6025 -724.912 40.6133 -724.641 42.57C-721.712 63.9323 -712.878 75.5878 -693.198 84.6035C-679.051 91.0826 -665.389 91.6018 -644.913 98.2909C-631.185 102.779 -627.42 107.543 -600.296 103.926C-595.657 103.31 -590.93 103.278 -586.338 104.169C-555.032 110.25 -579.183 143.956 -546.515 162.978C-541.174 166.086 -529.928 171.641 -523.762 171.23C-501.058 169.709 -507.846 155.669 -491.079 148.564C-480.302 143.998 -464.212 133.763 -459.619 111.882C-456.007 94.6595 -434.746 86.7 -426.307 79.5597C-401.496 58.5778 -372.796 49.6482 -352.702 24.1103C-337.141 4.33067 -325.025 -25.3629 -302.04 -35.5994" stroke="url(#paint0_linear_3055_7832)" stroke-width="6" stroke-miterlimit="10" stroke-linecap="round"/>
<path d="M-913.289 512.492C-886.868 517.738 -857.542 517.342 -829.956 520.45C-807.902 522.934 -782.441 509.398 -762.847 499.017C-751.182 492.834 -745.705 482.722 -739.076 471.522C-732.655 460.659 -725.306 449.131 -715.455 440.897C-696.436 425.001 -676.915 409.857 -652.111 404.859C-640.671 402.552 -626.351 402.8 -614.204 398.889C-604.449 395.748 -598.076 392.95 -588.247 390.097C-576.82 386.778 -563.787 391.384 -552.64 387.357C-539.764 382.707 -522.128 384.008 -509.776 380.423C-486.092 373.541 -473.079 358.306 -453.987 344.712C-434.064 330.529 -422.963 298.864 -404.77 282.438C-386.817 266.235 -378.05 267.318 -366.744 245.576C-350.839 215.002 -325.695 213.251 -308.269 189.605C-294.392 170.767 -275.725 162.087 -253.759 152.084C-242.891 147.133 -228.931 143.915 -218.058 133.83C-207.184 123.746 -201.477 125.97 -184.1 124.496C-154.883 122.015 -124.588 137.746 -102.903 155.629C-80.8929 173.779 -67.2959 194.959 -40.5715 210.652C-16.9507 224.524 -24.6092 241.865 -13.8703 260.804C-8.84604 269.668 -13.1701 292.824 -4.7328 300.237" stroke="url(#paint1_linear_3055_7832)" stroke-width="6" stroke-linecap="round" stroke-linejoin="round"/>
<path d="M-215.469 85.527C-208.623 80.9447 -199.569 82.9533 -191.361 83.7155C-176.692 85.0757 -161.441 79.8551 -146.718 80.3182C-108.137 81.5234 -77.3808 112.192 -47.1653 135.865C-19.7382 157.357 -2.80252 183.76 15.5169 214.211C29.9925 238.268 31.661 262.271 27.4071 290.022C23.7163 314.084 25.202 318.443 25.4027 328.336C25.565 336.23 25.9209 341.266 26.9565 349.093C28.3768 359.831 27.2888 370.717 26.5794 381.523C25.7246 394.51 23.2755 408.913 23.53 421.924C23.7167 431.493 24.8079 441.613 29.4891 449.962C34.1753 458.309 52.2072 459.87 63.1632 460.018" stroke="url(#paint2_linear_3055_7832)" stroke-width="6" stroke-linecap="round" stroke-linejoin="round"/>
<path d="M-749.718 97.1552C-751.406 115.904 -741.329 139.894 -715.952 136.526C-701.442 134.601 -697.359 146.235 -683.1 146.275C-675.552 146.295 -672.288 142.059 -664.445 145.192C-655.513 148.753 -647.502 154.497 -637.829 156.27C-624.627 158.689 -609.612 150.362 -596.08 154.837C-581.787 159.562 -572.171 177.037 -558.374 183.655C-541.962 191.527 -522.309 192.292 -505.666 185.402C-499.681 182.921 -492.007 180.509 -486.764 176.57C-481.61 172.698 -474.095 166.986 -468.756 163.154C-456.033 154.031 -449.436 151.339 -439.632 138.03C-434.906 131.611 -431.402 119.636 -427.352 113.033C-423.613 106.936 -416.583 101.286 -411.292 96.4616C-400.607 86.7243 -388.794 81.6916 -378.677 71.781C-366.823 60.1674 -357.48 56.1193 -344.93 45.5637C-331.71 34.4457 -325.646 14.9184 -317.713 1.40407C-309.441 -12.6949 -293.524 -23.329 -281.764 -35.0225C-269.664 -47.0576 -263.004 -53.7408 -247.102 -65.9204C-234.842 -75.3121 -225.297 -73.6998 -220.071 -88.5648C-214.171 -105.333 -207.246 -118.654 -195.328 -131.413C-182.612 -145.034 -167.581 -162.332 -159.673 -178.421C-152.524 -192.969 -143.615 -205.076 -133.706 -217.514C-125.207 -228.178 -104.873 -247.956 -92.1941 -254.944C-82.8852 -260.074 -74.5196 -264.704 -65.2116 -269.306C-55.9338 -273.891 -52.5915 -273.644 -45.5984 -280.185C-39.7307 -285.673 -30.5384 -287.503 -23.8383 -288.789" stroke="url(#paint3_linear_3055_7832)" stroke-width="6" stroke-miterlimit="10" stroke-linecap="round"/>
<path d="M494.09 31.07C470.222 37.6277 455.868 35.1359 431.15 36.4949C405.417 37.9093 385.682 28.3174 365.551 41.4202C357.443 46.6964 320.975 83.8738 314.323 90.9039C292.87 113.563 285.585 106.892 270.307 134.103C262.463 148.079 264.596 164.299 261.59 179.009C257.743 197.869 248.833 215.081 235.6 230.803C211.551 259.367 183.06 264.544 148.98 242.52C140.2 236.848 114.587 232.852 108.417 224.418C99.7536 212.581 97.0588 194.542 92.5398 180.588C83.0414 151.242 70.8479 150.564 57.2801 112.644C52.0594 98.0486 26.4085 78.4877 16.5728 66.4611C4.23068 51.3644 -9.50401 45.7376 -22.6453 33.6991C-52.0051 6.79969 -101.598 -9.26289 -139.651 -3.71401C-176.063 1.59329 -209.755 5.61451 -236.1 33.2023C-246.474 44.068 -255.595 69.2304 -268.528 76.8546C-275.674 81.0652 -282.047 82.4362 -289.235 84.7662C-296.858 87.2431 -306.098 97.8416 -312.233 102.817C-338.551 124.191 -359.009 138.533 -377.406 156.477C-389.518 168.296 -399.369 186.094 -409.317 199.893C-419.099 213.459 -433.587 220.462 -445.751 232.562C-458.889 245.626 -465.43 253.477 -476.272 267.747C-488.342 283.63 -499.154 286.338 -517.451 292.07C-536.413 298.017 -543.951 310.408 -565.826 311.82C-586.77 313.172 -601.832 322.824 -623.099 325.191C-641.635 327.258 -654.255 318.834 -668.303 331.236C-682.303 343.603 -674.745 344.354 -683.551 352.744C-689.358 358.278 -689.816 362.528 -701.461 365.475C-724.557 371.322 -730.128 385.268 -744.035 402.798C-753.335 414.527 -762.337 428.73 -772.796 439.173C-777.873 444.237 -786.32 456.242 -791.91 460.58" stroke="url(#paint4_linear_3055_7832)" stroke-width="6" stroke-miterlimit="10" stroke-linecap="round"/>
<path d="M-784.521 -4.98511C-774.917 -6.46993 -766.177 -6.1016 -756.656 -6.27976C-746.583 -6.47176 -736.527 -5.10561 -726.857 -2.26865C-720.664 -0.458664 -716.886 -3.0833 -710.778 -4.59573C-698.067 -7.74289 -687.597 -17.7191 -676.378 -24.0518C-663.919 -31.0797 -652.614 -38.3692 -638.177 -40.5697C-621.049 -43.1819 -607.564 -33.0085 -594.217 -24.3827C-581.302 -16.0438 -567.588 -11.8916 -552.564 -8.98277C-540.218 -6.59567 -526.136 -2.0453 -513.511 -3.56695C-503.462 -4.77875 -494.579 -10.4626 -487.705 -17.4815C-479.737 -25.6088 -475.749 -34.8937 -471.664 -45.2013C-469.879 -49.7107 -468.348 -54.1247 -466.861 -58.8308C-465.886 -61.9114 -463.721 -64.947 -462.452 -67.9638C-460.614 -72.3149 -457.55 -76.0747 -453.713 -78.8288C-446.57 -83.964 -438.121 -86.5882 -433.144 -89.6675C-414.39 -101.272 -422.38 -103.817 -399.141 -112.25C-374.96 -121.026 -335.088 -145.102 -316.868 -164.152C-306.676 -174.81 -302.847 -193.721 -295.361 -207.007C-291.584 -213.707 -284.987 -219.542 -281.732 -226.415C-278.846 -232.504 -267.382 -243.55 -264.883 -249.756C-254.614 -275.242 -247.202 -291.046 -229.451 -319.284C-223.351 -328.991 -211.858 -336.364 -202.4 -341.872C-189.533 -349.369 -178.109 -356.904 -165.827 -365.051C-140.153 -382.079 -113.506 -391.776 -86.9182 -404.947C-62.8532 -416.866 -41.5615 -422.62 -14.8288 -417.787C9.48902 -413.395 36.5363 -405.531 58.2561 -394.584C68.6847 -389.327 76.5411 -382.856 85.9246 -376.674C95.7014 -370.237 106.792 -366.626 116.499 -359.721" stroke="url(#paint5_linear_3055_7832)" stroke-width="6" stroke-miterlimit="10" stroke-linecap="round"/>
<path d="M37.4428 -307.193C-15.0298 -331.473 -74.4691 -303.771 -118.83 -268.683C-144.95 -248.021 -169.588 -211.277 -192.174 -179.246C-207.937 -156.887 -226.146 -141.087 -235.571 -122.783C-249.033 -96.6455 -245.096 -88.0554 -275.047 -81.6693C-280.573 -80.4913 -285.771 -74.4374 -287.545 -68.8053C-288.75 -64.9751 -293.314 -61.6181 -297.316 -61.2615C-304.88 -60.5833 -305.903 -64.6731 -313.679 -61.9038C-320.192 -59.5855 -323.027 -50.3158 -326.198 -44.08C-334.23 -28.2835 -340.84 -30.2404 -349.19 -14.156C-362.916 12.2919 -382.777 30.4812 -409.543 43.3712C-434.697 55.4836 -450.807 52.2119 -464.179 70.4485C-468.327 76.1025 -468.369 82.8192 -472.875 88.197C-481.965 99.0517 -490.715 104.604 -504.37 108.353C-511.185 110.227 -523.99 112.165 -530.877 110.58C-543.532 107.665 -553.736 90.961 -558.157 86.9674C-571.018 75.3594 -585.394 82.9452 -602.236 71.3161C-617.15 61.0224 -631.045 60.9918 -646.458 60.8392C-666.718 60.6404 -683.217 69.318 -700.445 58.6528C-713.995 50.268 -714.749 50.17 -721.204 41.2066C-722.362 39.6025 -724.912 40.6133 -724.641 42.57C-721.712 63.9323 -712.878 75.5878 -693.198 84.6035C-679.051 91.0826 -665.389 91.6018 -644.913 98.2909C-631.185 102.779 -627.42 107.543 -600.296 103.926C-595.657 103.31 -590.93 103.278 -586.338 104.169C-555.032 110.25 -579.183 143.956 -546.515 162.978C-541.174 166.086 -529.928 171.641 -523.762 171.23C-501.058 169.709 -507.846 155.669 -491.079 148.564C-480.302 143.998 -464.212 133.763 -459.619 111.882C-456.007 94.6595 -434.746 86.7 -426.307 79.5597C-401.496 58.5778 -372.796 49.6482 -352.702 24.1103C-337.141 4.33067 -325.025 -25.3629 -302.04 -35.5994" stroke="url(#paint6_linear_3055_7832)" stroke-width="6" stroke-miterlimit="10" stroke-linecap="round"/>
<path d="M-749.718 97.1552C-751.406 115.904 -741.329 139.894 -715.952 136.526C-701.442 134.601 -697.359 146.235 -683.1 146.275C-675.552 146.295 -672.288 142.059 -664.445 145.192C-655.513 148.753 -647.502 154.497 -637.829 156.27C-624.627 158.689 -609.612 150.362 -596.08 154.837C-581.787 159.562 -572.171 177.037 -558.374 183.655C-541.962 191.527 -522.309 192.292 -505.666 185.402C-499.681 182.921 -492.007 180.509 -486.764 176.57C-481.61 172.698 -474.095 166.986 -468.756 163.154C-456.033 154.031 -449.436 151.339 -439.632 138.03C-434.906 131.611 -431.402 119.636 -427.352 113.033C-423.613 106.936 -416.583 101.286 -411.292 96.4616C-400.607 86.7243 -388.794 81.6916 -378.677 71.781C-366.823 60.1674 -357.48 56.1193 -344.93 45.5637C-331.71 34.4457 -325.646 14.9184 -317.713 1.40407C-309.441 -12.6949 -293.524 -23.329 -281.764 -35.0225C-269.664 -47.0576 -263.004 -53.7408 -247.102 -65.9204C-234.842 -75.3121 -225.297 -73.6998 -220.071 -88.5648C-214.171 -105.333 -207.246 -118.654 -195.328 -131.413C-182.612 -145.034 -167.581 -162.332 -159.673 -178.421C-152.524 -192.969 -143.615 -205.076 -133.706 -217.514C-125.207 -228.178 -104.873 -247.956 -92.1941 -254.944C-82.8852 -260.074 -74.5196 -264.704 -65.2116 -269.306C-55.9338 -273.891 -52.5915 -273.644 -45.5984 -280.185C-39.7307 -285.673 -30.5384 -287.503 -23.8383 -288.789" stroke="url(#paint7_linear_3055_7832)" stroke-width="6" stroke-miterlimit="10" stroke-linecap="round"/>
<path d="M-50.3591 -212.478C-57.8265 -203.948 -65.173 -195.949 -75.1309 -189.829C-83.6964 -184.561 -92.5286 -179.954 -98.8261 -171.896C-115.941 -149.986 -146.105 -103.02 -171.785 -84.5634C-187.264 -73.4364 -182.156 -54.4418 -196.287 -41.7209C-222.499 -18.1182 -222.57 -31.3922 -238.994 -10.781C-247.619 0.037014 -257.953 6.30999 -267.672 16.4601C-274.715 23.8144 -281.279 31.8338 -286.693 39.739C-291.659 46.9817 -292.843 56.8295 -297.274 63.9342C-301.242 70.2865 -312.801 74.2781 -318.479 79.6749C-334.486 94.8972 -370.304 117.119 -385.838 133.814C-419.234 169.708 -418.306 184.682 -445.232 204.25C-463.597 217.599 -488.889 256.404 -512.396 261.31C-533.976 265.814 -550.489 270.383 -569.333 283.169C-587.888 295.757 -607.625 289.52 -629.3 296.878C-641.811 301.124 -673.228 313.542 -678.372 294.359C-680.819 285.245 -674.878 281.343 -680.096 272.62C-685.806 263.084 -695.21 262.518 -693.928 249.774C-692.412 234.703 -685.648 227.91 -695.26 214.09C-702.103 204.246 -705.166 198.549 -708.01 187.032C-710.507 176.913 -714.452 169.024 -721.547 161.721" stroke="url(#paint8_linear_3055_7832)" stroke-width="6" stroke-miterlimit="10" stroke-linecap="round"/>
<path d="M-270.007 54.2227C-260.39 27.0518 -231.295 5.54812 -209.47 -12.3819C-183.399 -33.8068 -155.476 -34.3712 -112.673 -29.6032C-77.0095 -25.6304 -50.0699 3.0287 -16.404 14.8196C-1.45211 20.0558 10.8774 26.8459 22.7775 37.8762C34.5469 48.7873 47.6063 58.8798 58.574 70.2213C68.5813 80.5723 71.3553 99.748 84.3869 106.606C97.703 113.614 103.391 133.896 109.679 150.434C115.128 164.774 112.217 182.902 119.203 196.13C126.479 209.91 145.02 218.391 163.093 228.986C197.437 249.112 224.375 217.228 233.367 186.68C237.659 172.1 243.312 154.382 240.059 139.259" stroke="url(#paint9_linear_3055_7832)" stroke-width="6" stroke-miterlimit="10" stroke-linecap="round"/>
<path d="M81.9354 432.969C73.9448 435.959 62.5857 435.953 55.0779 431.008C46.6572 425.464 46.8627 413.271 47.6957 404.332C48.4543 396.188 50.5986 388.331 50.5674 380.096C50.5435 373.865 51.3534 367.718 51.7036 361.571C52.4178 348.863 52.4185 335.066 52.0833 322.333C51.8858 314.885 51.541 305.645 48.4469 298.824" stroke="url(#paint10_linear_3055_7832)" stroke-width="6" stroke-miterlimit="10" stroke-linecap="round"/>
<path d="M-741.132 436.759C-721.843 414.823 -698.104 395.606 -668.142 387.362C-642.562 380.325 -646.297 388.948 -598.53 369.832C-572.036 359.231 -558.416 369.035 -534.991 360.858C-517.238 354.662 -510.152 355.954 -505.905 338.974C-502.303 324.576 -489.059 305.813 -478.015 296.318C-467.334 287.137 -461.496 280.862 -453.447 269.524C-447.055 260.511 -440.114 248.241 -431.734 240.588C-421.699 231.422 -410.134 232.206 -399.658 226.404C-386.674 219.21 -387.979 205.734 -381.428 192.998C-368.669 168.206 -342.739 156.436 -324.789 134.948C-306.903 113.546 -284.34 111.865 -248.881 93.8682C-225.282 81.8923 -232.619 42.3946 -205.803 34.4569C-181.267 27.1957 -139.805 20.2332 -114.215 25.6285C-84.9071 31.8072 -69.3396 32.6599 -43.592 49.6698C-30.1524 58.5454 -15.8589 65.2498 -6.73496 79.5399C2.02941 93.2638 11.8153 100.764 22.9972 110.675C32.1557 118.787 42.1346 136.799 45.4453 148.373C49.4106 162.213 60.4293 177.404 65.0418 193.012C70.7446 212.307 71.2815 211.126 79.8325 230.045C82.3632 235.642 84.6411 247.241 83.9164 253.142C82.5053 264.583 83.7644 268.176 85.8135 273.644C88.8837 281.851 109.495 293.753 117.193 298.573C131.127 307.3 148.65 305.119 164.318 302.553C178.059 300.308 191.937 309.055 204.456 306.743C219.509 303.958 232.613 292.874 240.8 281.691C249.473 269.851 250.228 254.036 251.64 238.627" stroke="url(#paint11_linear_3055_7832)" stroke-width="6" stroke-miterlimit="10" stroke-linecap="round"/>
<path d="M-199.794 62.1404C-189.297 59.5163 -180.225 53.8223 -168.944 53.0968C-157.676 52.3721 -146.092 53.6456 -134.686 54.1237C-109.504 55.176 -83.1659 63.5251 -62.0911 77.1829C-36.5828 93.7047 -16.9246 111.993 2.06199 135.962C13.1607 149.978 26.9531 169.373 35.2381 184.974C42.3021 198.277 47.6022 207.358 51.9983 221.85C55.7028 234.071 54.7958 245.473 57.4656 257.498C60.801 272.532 68.197 286.573 74.2937 300.485C80.8201 315.381 79.0397 331.372 77.349 347.722C76.0204 360.615 72.7072 375.803 74.6338 388.738C76.5342 401.478 87.7447 406.168 100.44 408.356C114.354 410.755 119.366 402.038 129.446 394.975C140.333 387.343 154.515 380.946 166.768 377.871C172.654 376.395 175.9 372.359 181.859 371.285C189.757 369.863 194.578 366.321 201.463 362.784C213.378 356.671 230.443 356.367 240.433 346.93C251.054 336.899 253.347 327.11 250.591 313.73C247.361 298.046 263.181 284.738 269.317 271.813C274.671 260.536 275.755 250.552 278.815 238.189C279.972 233.508 279.602 225.526 283.397 222.527" stroke="url(#paint12_linear_3055_7832)" stroke-width="6" stroke-miterlimit="10" stroke-linecap="round"/>
<path d="M69.7359 485.593C65.8324 486.899 60.3276 491.417 56.1904 491.623C51.0922 491.874 45.0676 487.923 40.1231 486.698C29.6807 484.098 18.8766 483.3 8.736 478.246C-2.11804 472.84 -2.89409 461.622 -4.5562 451.52C-6.5286 439.532 -6.19944 421.588 -6.20094 409.307C-6.19495 358.041 15.4708 318.69 8.62054 264.542C5.05572 236.368 -10.4113 205.641 -29.9054 185.181C-48.4718 165.69 -68.7806 150.379 -90.3776 133.865C-112.834 116.692 -136.158 106.985 -165.403 104.595C-189.345 102.639 -220.209 100.071 -238.426 116.423C-265.256 140.503 -289.55 130.514 -303.914 149.902C-321.091 173.098 -340.682 185.937 -359.951 201.129C-363.726 204.104 -369.498 206.764 -370.572 217.662" stroke="url(#paint13_linear_3055_7832)" stroke-width="6" stroke-miterlimit="10" stroke-linecap="round"/>
<path d="M-796.963 528.547C-768.613 523.21 -738.267 515.896 -721.791 491.381C-717.605 485.157 -714.072 484.096 -709.256 478.773C-704.375 473.378 -706.053 466.367 -702.191 460.617C-694.538 449.228 -675.969 458.091 -664.835 453.282C-649.844 446.801 -639.38 451.808 -624.535 448.394C-609.55 444.952 -594.848 438.992 -579.216 437.665C-566.249 436.564 -551.915 440.737 -539.316 437.676C-532.219 435.947 -528.585 431.237 -522.216 428.294C-515.625 425.247 -510.435 426.659 -503.963 425.088C-489.948 421.676 -479.341 405.671 -467.128 396.821C-454.915 387.97 -444.138 383.026 -436.034 371.242C-417.52 344.314 -400.024 317.923 -377.684 294.689C-355.247 271.357 -329.523 255.07 -312.111 227.383C-297.862 204.738 -268.332 183.424 -244.006 174.332C-237.913 172.058 -232.21 168.235 -225.746 166.973C-219.375 165.725 -211.6 168.12 -205.341 165.221C-192.47 159.262 -188.918 150.66 -172.429 150.424C-143.86 150.027 -117.021 175.995 -97.6288 194.912C-86.7215 205.553 -82.8758 214.413 -78.1377 228.129C-73.673 241.046 -66.6513 248.386 -59.6157 259.915C-55.6441 266.423 -54.2645 275.515 -49.1381 281.135C-43.8504 286.938 -37.8 289.414 -32.7336 296.117C-23.8687 307.849 -15.4706 314.758 -17.5483 329.944C-19.564 344.694 -16.9925 358.784 -17.7098 373.224C-18.5253 389.729 -24.8535 407.851 -28.0187 423.992C-31.0033 439.21 -36.289 454.86 -32.7895 469.886C-29.1807 485.408 -22.9992 509.199 -7.32972 516.704C7.64314 523.875 24.0408 518.88 38.893 515.293C60.1459 510.163 70.3809 507.024 85.6839 492.168C99.7928 478.466 120.253 478.811 136.012 467.803C150.439 457.727 157.403 440.814 173.961 431.892C207.698 413.724 260.42 437.06 272.405 387.707C274.209 380.294 275.169 371.537 278.079 364.501C281.473 356.309 286.35 352.31 285.305 342.913C284.377 334.556 277.771 328.695 276.448 320.631C274.912 311.273 279.635 299.36 282.928 290.835C289.44 274.005 299.351 259.843 305.557 243.192C313.116 222.908 314.392 201.468 319.807 180.423C326.167 155.726 343.176 143.511 357.84 124.022C364.408 115.297 371.568 104.771 380.174 98.3509C383.36 95.9726 386.782 96.781 390.09 93.4253C394.382 89.0651 395.175 81.8536 398.525 76.7969C407.755 62.8448 426.871 65.0542 439.343 54.8617C432.983 52.4804 427.634 55.4333 421.441 56.1782C412.169 57.2983 401.581 51.9659 392.891 53.7181C377.437 56.8337 372.936 79.6201 364.463 90.3836C352.767 105.236 331.08 116.117 316.024 127.286C303.068 136.897 285.576 144.758 285.161 162.407C284.827 176.487 287.921 193.042 279.213 205.869" stroke="url(#paint14_linear_3055_7832)" stroke-width="6" stroke-miterlimit="10" stroke-linecap="round"/>
<path d="M36.678 -357.697C5.68864 -372.25 -45.0824 -371.032 -75.8024 -355.921C-88.3456 -349.75 -100.303 -344.375 -114.48 -346.153C-122.279 -347.128 -133.573 -351.695 -141.402 -351.077C-147.35 -350.605 -156.782 -343.509 -161.958 -340.537C-178.085 -331.273 -187.862 -321.819 -201.136 -308.79C-225.822 -284.557 -240.244 -250.906 -256.573 -220.408C-272.997 -189.739 -291.971 -161.513 -317.558 -137.94C-326.296 -129.893 -336.115 -121.166 -337.436 -109.365C-337.76 -106.464 -337.564 -103.403 -338.861 -100.789C-340.1 -98.2964 -342.511 -96.6236 -344.819 -95.0647C-365.609 -81.0215 -386.398 -66.9782 -407.187 -52.9349C-409.62 -51.2893 -413.314 -46.9905 -415.945 -45.6006C-418.576 -44.2107 -420.959 -42.4797 -423.567 -41.0286C-425.946 -39.7053 -428.654 -38.9059 -430.489 -36.7939C-436.411 -29.983 -435.418 -19.1903 -439.793 -11.5303C-445.681 -1.23152 -455.546 8.03764 -466.005 13.8097C-474.571 18.5369 -483.968 22.0897 -492.907 26.0897C-496.414 27.6564 -500.116 29.3981 -502.79 32.0711C-505.446 34.7192 -507.917 36.9213 -511.054 39.0611C-515.347 41.9949 -520.832 45.1294 -525.952 46.1022C-529.997 46.8692 -533.978 46.6391 -537.845 46.4772" stroke="url(#paint15_linear_3055_7832)" stroke-width="6" stroke-linecap="round" stroke-linejoin="round"/>
<path d="M-584.028 133.832C-593.19 131.582 -601.337 126.804 -611.013 126.728C-619.035 126.662 -626.959 128.166 -634.951 128.494C-643.806 128.863 -652.286 126.084 -660.676 123.469C-669.917 120.59 -679.451 118.41 -688.918 116.055C-709.648 110.901 -731.042 105.17 -740.111 80.4791C-740.703 78.8603 -741.05 77.1647 -741.337 75.4678C-743.264 64.1556 -747.491 55.7287 -751.298 46.1972C-756.112 34.1474 -763.142 25.0217 -774.781 19.1306L-772.984 19.5082C-761.563 21.8977 -749.807 21.3256 -738.463 18.5895C-728.027 16.0688 -717.79 16.4091 -706.169 20.6347C-691.875 25.8318 -682.256 36.512 -665.758 36.2569C-650.209 36.019 -638.339 31.5206 -622.592 36.2354C-615.918 38.2298 -608.69 40.96 -601.571 41.4012C-594.584 41.8332 -587.203 39.9238 -580.169 40.4831C-571.683 41.156 -566.324 44.9163 -559.545 49.2887C-551.935 54.2006 -551.802 60.0644 -545.791 65.5571C-534.618 75.764 -523.196 64.5532 -513.517 59.7194C-507.753 56.8404 -494.186 53.4813 -488.281 50.2557C-481.118 46.3391 -479.344 50.7859 -469.2 39.5072C-458.632 27.7506 -444.467 21.6942 -430.654 14.4051C-416.805 7.09525 -415.634 -6.42214 -407.141 -17.6362C-403.013 -23.0825 -395.802 -25.0534 -390.617 -29.3563C-386.919 -32.4275 -384.057 -35.3326 -380.751 -38.0586C-377.232 -40.9636 -374.117 -44.3481 -371.558 -48.1287C-370.361 -49.8998 -369.062 -51.6229 -367.712 -53.5585C-356.232 -70.0556 -333.663 -81.0006 -316.772 -91.2668C-298.532 -102.353 -277.581 -113.084 -261.655 -127.489C-244.894 -142.647 -231.368 -164.05 -221.88 -183.513C-213.042 -201.642 -203.09 -218.026 -192.325 -235.245C-185.834 -245.621 -177.02 -253.124 -169.521 -262.382C-161.482 -272.309 -155.975 -286.697 -144.797 -293.053C-133.496 -299.475 -121.928 -303.221 -112.313 -312.904C-105.565 -319.701 -92.402 -325.486 -84.7027 -331.664C-65.2381 -347.295 -34.1428 -351.089 -11.5305 -345.492C11.8896 -339.694 37.326 -338.967 54.3734 -321.971" stroke="url(#paint16_linear_3055_7832)" stroke-width="6" stroke-linecap="round" stroke-linejoin="round"/>
</g>
<defs>
<linearGradient id="paint0_linear_3055_7832" x1="-693.361" y1="148.877" x2="49.1462" y2="-287.269" gradientUnits="userSpaceOnUse">
<stop stop-color="#BDC0C0" stop-opacity="0.5"/>
<stop offset="1" stop-color="#BDC0C0" stop-opacity="0"/>
</linearGradient>
<linearGradient id="paint1_linear_3055_7832" x1="-863.467" y1="643.941" x2="-57.7566" y2="170.669" gradientUnits="userSpaceOnUse">
<stop stop-color="#BDC0C0" stop-opacity="0.5"/>
<stop offset="1" stop-color="#BDC0C0" stop-opacity="0"/>
</linearGradient>
<linearGradient id="paint2_linear_3055_7832" x1="-100.961" y1="287.329" x2="17.5744" y2="217.702" gradientUnits="userSpaceOnUse">
<stop stop-color="#BDC0C0" stop-opacity="0.5"/>
<stop offset="1" stop-color="#BDC0C0" stop-opacity="0"/>
</linearGradient>
<linearGradient id="paint3_linear_3055_7832" x1="-724.448" y1="199.35" x2="9.61531" y2="-231.837" gradientUnits="userSpaceOnUse">
<stop stop-color="#BDC0C0" stop-opacity="0.5"/>
<stop offset="1" stop-color="#BDC0C0" stop-opacity="0"/>
</linearGradient>
<linearGradient id="paint4_linear_3055_7832" x1="-761.622" y1="580.047" x2="411.715" y2="-109.167" gradientUnits="userSpaceOnUse">
<stop stop-color="#BDC0C0" stop-opacity="0.5"/>
<stop offset="1" stop-color="#BDC0C0" stop-opacity="0"/>
</linearGradient>
<linearGradient id="paint5_linear_3055_7832" x1="-767.8" y1="72.4528" x2="78.3908" y2="-424.597" gradientUnits="userSpaceOnUse">
<stop stop-color="#BDC0C0" stop-opacity="0.5"/>
<stop offset="1" stop-color="#BDC0C0" stop-opacity="0"/>
</linearGradient>
<linearGradient id="paint6_linear_3055_7832" x1="-693.361" y1="148.877" x2="49.1462" y2="-287.269" gradientUnits="userSpaceOnUse">
<stop stop-color="#BDC0C0" stop-opacity="0.5"/>
<stop offset="1" stop-color="#BDC0C0" stop-opacity="0"/>
</linearGradient>
<linearGradient id="paint7_linear_3055_7832" x1="-724.448" y1="199.35" x2="9.61531" y2="-231.837" gradientUnits="userSpaceOnUse">
<stop stop-color="#BDC0C0" stop-opacity="0.5"/>
<stop offset="1" stop-color="#BDC0C0" stop-opacity="0"/>
</linearGradient>
<linearGradient id="paint8_linear_3055_7832" x1="-716.712" y1="271.089" x2="-10.1144" y2="-143.964" gradientUnits="userSpaceOnUse">
<stop stop-color="#BDC0C0" stop-opacity="0.5"/>
<stop offset="1" stop-color="#BDC0C0" stop-opacity="0"/>
</linearGradient>
<linearGradient id="paint9_linear_3055_7832" x1="-186.883" y1="216.046" x2="164.072" y2="9.8963" gradientUnits="userSpaceOnUse">
<stop stop-color="#BDC0C0" stop-opacity="0.5"/>
<stop offset="1" stop-color="#BDC0C0" stop-opacity="0"/>
</linearGradient>
<linearGradient id="paint10_linear_3055_7832" x1="26.5377" y1="388.601" x2="82.0337" y2="356.003" gradientUnits="userSpaceOnUse">
<stop stop-color="#BDC0C0" stop-opacity="0.5"/>
<stop offset="1" stop-color="#BDC0C0" stop-opacity="0"/>
</linearGradient>
<linearGradient id="paint11_linear_3055_7832" x1="-876.627" y1="684.386" x2="156.881" y2="77.3073" gradientUnits="userSpaceOnUse">
<stop stop-color="#BDC0C0" stop-opacity="0.5"/>
<stop offset="1" stop-color="#BDC0C0" stop-opacity="0"/>
</linearGradient>
<linearGradient id="paint12_linear_3055_7832" x1="-88.471" y1="268.83" x2="208.225" y2="94.5523" gradientUnits="userSpaceOnUse">
<stop stop-color="#BDC0C0" stop-opacity="0.5"/>
<stop offset="1" stop-color="#BDC0C0" stop-opacity="0"/>
</linearGradient>
<linearGradient id="paint13_linear_3055_7832" x1="-269.486" y1="405.818" x2="8.07732" y2="242.779" gradientUnits="userSpaceOnUse">
<stop stop-color="#BDC0C0" stop-opacity="0.5"/>
<stop offset="1" stop-color="#BDC0C0" stop-opacity="0"/>
</linearGradient>
<linearGradient id="paint14_linear_3055_7832" x1="-723.138" y1="721.084" x2="432.087" y2="42.5092" gradientUnits="userSpaceOnUse">
<stop stop-color="#BDC0C0" stop-opacity="0.5"/>
<stop offset="1" stop-color="#BDC0C0" stop-opacity="0"/>
</linearGradient>
<linearGradient id="paint15_linear_3055_7832" x1="-587.78" y1="-2.69235" x2="31.5247" y2="-366.469" gradientUnits="userSpaceOnUse">
<stop stop-color="#BDC0C0" stop-opacity="0.5"/>
<stop offset="1" stop-color="#BDC0C0" stop-opacity="0"/>
</linearGradient>
<linearGradient id="paint16_linear_3055_7832" x1="-746.908" y1="116.133" x2="40.1509" y2="-346.183" gradientUnits="userSpaceOnUse">
<stop stop-color="#BDC0C0" stop-opacity="0.5"/>
<stop offset="1" stop-color="#BDC0C0" stop-opacity="0"/>
</linearGradient>
<clipPath id="clip0_3055_7832">
<rect width="390" height="454" fill="white"/>
</clipPath>
</defs>
</svg>
