<svg width="1440" height="1718" viewBox="0 0 1440 1718" fill="none" xmlns="http://www.w3.org/2000/svg">
<path d="M1256.38 539.813C1259.7 551.27 1253.23 564.858 1251.99 576.609C1250.22 593.459 1247.64 610.428 1246.06 627.256C1244.92 639.357 1246 652.228 1249.38 663.934C1252.62 675.148 1263.08 687.341 1260.95 699.13C1258.74 711.352 1278.06 712.544 1280.27 700.389C1282.49 688.072 1275.63 678.181 1271.17 667.212C1265.36 652.973 1264.06 638.278 1266.1 623.034C1268.32 606.483 1269.62 589.821 1271.76 573.297C1273.37 560.92 1279.02 548.634 1275.4 536.126C1271.96 524.258 1252.94 527.831 1256.42 539.799L1256.38 539.813Z" fill="url(#paint0_linear_2648_2012)" fill-opacity="0.5"/>
<path d="M739.697 285.948C748.29 292.698 763.21 288.852 773.017 287.688C797.458 284.792 823.378 283.804 847.388 290.159C871.193 296.449 890.739 311.984 913.29 321.245C934.257 329.857 958.388 336.169 980.982 338.578C1022.64 343.015 1060.96 324.408 1100.24 314.095C1118.08 309.415 1136.25 306.569 1152.62 297.531C1169.1 288.437 1180.55 271.1 1197.48 263.503C1212.66 256.711 1238.68 255.736 1254.88 258.962C1283.24 264.62 1294.2 295.522 1286.05 320.629C1280.52 337.675 1269.82 352.507 1262.39 368.718C1252.85 389.507 1245.76 411.646 1241.63 434.132C1238.16 453.067 1243.66 469.88 1241.89 488.381C1240.6 501.756 1229.89 506.178 1222.35 515.566C1215.84 523.669 1211.34 533.607 1208 543.416C1194.81 581.978 1195.86 625.219 1199.91 665.223C1201.68 682.787 1206 697.092 1215.45 712.057C1227.82 731.577 1232.48 741.935 1225.65 765.545C1211.37 814.855 1194.35 864.146 1177.27 912.551C1169.64 934.196 1160.84 955.727 1148.62 975.251C1135.99 995.464 1116.2 1007.95 1103.17 1027.42C1096.72 1037.09 1092.74 1049.47 1083.53 1057.04C1075.32 1063.79 1063.63 1066.9 1054.34 1071.82C1032.62 1083.35 1012.01 1097 991.596 1110.66C947.495 1140.19 903.637 1169.78 861.036 1201.42C818.851 1232.76 780.728 1266.53 744.971 1305.17C729.202 1322.21 717.36 1342.29 698.09 1355.77C677.513 1370.19 662.411 1384.92 648.166 1405.89C622.418 1443.82 598.904 1489.47 588.413 1534.3C577.222 1582.06 581.527 1630.97 580.755 1679.52C580.544 1692.87 581.265 1707.78 577.145 1720.69C573.293 1732.81 564.677 1741.05 556.166 1749.99C538.955 1768.03 527.614 1787.07 516.998 1809.5C509.578 1825.17 502.173 1840.35 488.014 1850.95C478.311 1858.21 466.961 1863.08 456.471 1869.06C445.531 1875.3 435.768 1882.59 428.045 1891.84L444.041 1902.63C446.98 1899.16 450.43 1895.92 454.458 1892.99C469.712 1881.82 488.087 1875.74 502.913 1863.8C520.604 1849.55 529.1 1828.51 538.617 1808.58C549.716 1785.33 565.502 1770.15 581.723 1750.89C593.94 1736.39 598.202 1720.24 599.361 1701.54C602.157 1655.81 596.758 1609.83 602.545 1564.23C609.06 1513.05 633.873 1462.52 662.091 1419.85C675.745 1399.19 690.462 1384.52 710.645 1370.47C732.45 1355.29 744.867 1331.92 763.582 1313.58C782.298 1295.24 799.903 1275.2 819.23 1257.57C837.908 1240.56 859.391 1226.67 879.595 1211.57C925.343 1177.39 972.895 1145.27 1020.86 1114.28C1040.35 1101.7 1060.08 1090.36 1081.04 1080.45C1101.09 1070.98 1107.35 1055.88 1119.15 1038.22C1130.76 1020.83 1149.09 1009.32 1160.96 991.681C1173.53 972.985 1182.97 952.095 1190.99 931.129C1209.07 883.847 1223.65 834.702 1239.19 786.539C1244.75 769.303 1252.23 751.536 1248.1 733.184C1244.88 718.885 1234.74 708.163 1227.88 695.648C1217.59 676.879 1217.56 653.389 1216.92 632.463C1216.15 606.899 1217.13 580.184 1224.41 555.514C1227.85 543.857 1232.29 532.986 1240.77 524.087C1246.05 518.543 1252.45 514.032 1256.34 507.314C1266.09 490.479 1257.66 471.017 1258.42 452.935C1259.37 430.623 1267.31 407.419 1275.54 386.856C1283.5 366.999 1296.26 349.436 1303.47 329.319C1314.47 298.69 1305.46 262.496 1275.46 245.928C1258.64 236.622 1238.92 238.966 1220.54 240.21C1202.8 241.413 1188.41 244.191 1174.38 255.675C1154.88 271.638 1140.33 284.415 1115.22 290.735C1090.44 296.964 1066.42 304.921 1041.85 311.891C982.158 328.797 933.658 309.552 880.618 282.648C859.047 271.71 836.498 266.886 812.405 266.356C801.046 266.113 789.485 266.528 778.163 267.63C772.036 268.241 754.942 273.454 750.461 269.938C740.679 262.242 729.889 278.306 739.637 285.969L739.697 285.948Z" fill="url(#paint1_linear_2648_2012)" fill-opacity="0.5"/>
<path d="M523.317 1592.16C515.917 1621.83 509.623 1652.34 493.315 1678.72C480.142 1700.05 460.535 1717.97 461.72 1745.05C462.173 1755.28 466.995 1764.47 468.142 1774.49C470.01 1790.75 454.176 1803.7 443.306 1813.93C424.127 1831.98 403.376 1846.02 382.441 1861.04L400.49 1873.24C402.316 1872.11 404.141 1870.98 405.953 1869.81C418.573 1861.62 429.702 1851.62 441.078 1841.8C457.546 1827.62 482.901 1808.58 487.403 1785.69C489.006 1777.52 486.907 1769.85 484.874 1761.98C480.078 1743.54 481.158 1729.83 492.103 1713.76C507.611 1691.01 521.335 1670.48 529.741 1643.9C538.322 1616.72 543.035 1588.5 552.165 1561.47C562.829 1529.92 574.957 1498.67 588.367 1468.18C615.219 1407.17 651.302 1338.97 706.399 1298.98C730.107 1281.78 756.872 1268.89 779.553 1250.23C803.989 1230.11 822.922 1204.24 847.117 1183.89C896.941 1141.95 955.233 1110.25 1003.56 1066.68C1016.42 1055.08 1028.91 1043.05 1042.37 1032.12C1054.95 1021.89 1069.53 1014.13 1081.61 1003.35C1103.4 983.873 1119.52 955.067 1132.67 929.444C1149.5 896.659 1161.46 861.69 1177.98 828.787C1184.57 815.65 1193.48 802.823 1197.66 788.601C1200.22 779.877 1198.55 765.404 1204.41 758.364C1212.36 748.788 1196.26 738.032 1188.38 747.539C1184.31 752.44 1183.41 759.046 1182.31 765.134C1179.46 780.726 1175.74 791.912 1168.06 806.354C1153.74 833.243 1142.45 861.366 1130.29 889.27C1116.94 919.874 1101.1 949.941 1080.37 976.295C1062.55 998.967 1034.43 1012.74 1012.98 1031.94C964.743 1075.11 911.907 1113.66 859.093 1151.22C831.747 1170.66 810.155 1193.69 786.616 1217.37C763.845 1240.27 737.011 1255.77 710.168 1273.2C657.769 1307.2 622.172 1359.07 593.366 1413.67C563.84 1469.66 538.699 1530.71 523.378 1592.21L523.317 1592.16Z" fill="url(#paint2_linear_2648_2012)" fill-opacity="0.5"/>
<path d="M1451.45 136.375C1425.98 171.642 1412.57 212.297 1394.17 251.291C1384.63 271.492 1374.07 293.498 1362.95 312.893C1352.16 331.696 1332.51 343.454 1320.57 361.663C1301.25 391.124 1297.59 431.339 1297.18 465.779C1296.81 497.674 1302.27 528.99 1313.13 558.952C1318.92 574.984 1327.46 589.588 1333.94 605.246C1340.43 620.944 1334.37 631.856 1331.74 647.533C1329.27 662.201 1331.83 675.892 1334.02 690.414C1337.68 714.569 1329.58 733.297 1321.36 755.463C1307.55 792.701 1295.52 830.546 1281.37 867.768C1267.13 905.248 1255.1 943.364 1253.83 983.718C1252.36 1030.39 1260.19 1077.32 1268.76 1123.05C1272.42 1142.51 1278.17 1162.07 1288.98 1178.85C1300.82 1197.24 1316.46 1203.54 1335.03 1213.41C1345.92 1219.19 1356.86 1203.23 1345.86 1197.38C1327.73 1187.76 1312 1181.63 1301.74 1162.53C1291.49 1143.43 1288.22 1122.17 1284.64 1101.1C1277.67 1060.23 1271.12 1018.94 1273.48 977.372C1275.79 936.584 1290.24 898.195 1304.91 860.5C1318.4 825.769 1328.86 790.101 1342.13 755.359C1347.71 740.72 1354 725.721 1354.86 709.869C1355.78 692.975 1349.32 676.654 1349.78 659.854C1350.49 634.116 1361.92 619.255 1349.96 594.021C1320.23 531.22 1301.46 456.256 1328.48 388.213C1337.52 365.421 1356.05 353.799 1370.96 335.695C1384.67 319.047 1392.68 295.957 1402.8 277.047C1425.74 234.189 1438.8 186.957 1467.5 147.192C1474.8 137.097 1458.77 126.273 1451.47 136.368L1451.45 136.375Z" fill="url(#paint3_linear_2648_2012)" fill-opacity="0.5"/>
<path d="M700.542 1757.4C675.308 1823.47 617.396 1863.89 577.416 1920.09C565.824 1936.38 554.139 1952.8 543.401 1969.73L560.707 1981.43C576.084 1957.91 590.513 1933.81 607.881 1911.52C631.073 1881.75 661.065 1858.14 683.787 1828.13C701.966 1804.13 717.114 1774.22 724.926 1745.08C732.712 1716 731.607 1687.13 728.409 1657.52C723.997 1616.85 732.954 1583.52 747.905 1545.93C776.804 1473.34 810.94 1407.41 869.573 1353.82C896.81 1328.92 928.849 1311.58 962.019 1296.01C992.467 1281.72 1024.18 1263.92 1058.39 1261.43C1076.1 1260.15 1103.79 1261.78 1105.61 1237.16C1106.45 1225.63 1096.34 1219.27 1095.19 1208.8C1093.81 1196.27 1098.57 1181.3 1099.95 1168.64C1101.93 1150.5 1103.76 1121.81 1082.24 1113.87C1062.61 1106.63 1046.29 1128.03 1031.92 1137.39C1021.51 1144.17 1034.22 1158.8 1044.5 1152.08C1051.92 1147.24 1058.91 1138.23 1067.04 1134.92C1085.19 1127.58 1082.08 1153.38 1080.94 1164.76C1079.19 1182.15 1068.53 1206.54 1076.99 1222.89C1078.28 1225.36 1083.52 1229.09 1083.82 1231.48C1085.27 1242.86 1071.17 1241.78 1064.78 1241.96C1053.22 1242.31 1042.25 1243.77 1031.01 1246.74C1002.76 1254.2 976.742 1267.74 950.436 1280.07C891.471 1307.68 844.84 1345.31 804.786 1396.74C763.608 1449.62 735.514 1513.51 715.791 1577.32C697.238 1637.26 723.249 1698.07 700.582 1757.39L700.542 1757.4Z" fill="url(#paint4_linear_2648_2012)" fill-opacity="0.5"/>
<path d="M639.614 1575.45C641.884 1589.29 639.818 1594.42 633.412 1606.29C623.914 1623.92 622.968 1643.49 623.478 1663.15C624.044 1685.64 623.924 1707.39 620.89 1729.75C619.249 1741.84 618.036 1755.69 614.096 1767.29C608.799 1782.87 596.892 1794.03 585.233 1804.98C565.633 1823.45 552.524 1842.29 539.113 1865.6C528.641 1883.82 515.119 1896.71 501.045 1911.92C495.019 1918.43 490.271 1924.97 486.891 1931.6L503.038 1942.5C508.64 1929.16 523.045 1917.64 533.969 1905.81C557.866 1879.96 568.84 1846.76 594.967 1822.32C607.609 1810.48 620.555 1798.67 628.414 1782.97C635.231 1769.35 636.896 1753.21 639.131 1738.33C641.73 1721.17 643.522 1703.91 643.427 1686.56C643.327 1667.23 640.014 1646.29 645.364 1627.4C649.186 1613.9 660.83 1603.42 661.515 1588.97C662.149 1575.86 655.456 1564.22 656.493 1550.84C659.207 1515.37 679.36 1481.61 699.636 1453.42C742.668 1393.56 801.278 1346.22 856.875 1298.61C891.077 1269.32 927.663 1242.92 961.248 1212.89C975.843 1199.83 989.3 1180.76 1011.22 1182.52C1028.1 1183.86 1033.18 1197.58 1015.42 1207.21C1008.27 1211.07 999.766 1212.78 992.207 1215.72C980.576 1220.24 989.038 1237.63 1000.58 1233.17C1021.57 1225.04 1062.96 1210.51 1043.21 1179.4C1030.12 1158.79 997.289 1159.76 978.547 1171.11C960.872 1181.82 946.115 1200.8 930.158 1214.18C909.207 1231.76 887.474 1248.38 866.256 1265.65C831.854 1293.65 798.104 1322.87 765.576 1353C710.702 1403.8 639.75 1474.47 636.567 1554.68C636.281 1562.07 638.449 1568.32 639.622 1575.54L639.614 1575.45Z" fill="url(#paint5_linear_2648_2012)" fill-opacity="0.5"/>
<path d="M1302.66 1287.08C1272.71 1265.38 1233.66 1243.21 1218.07 1207.97C1204.5 1177.32 1208.16 1148.15 1216.76 1117.32C1219.83 1106.33 1220.48 1096.08 1217.85 1084.86C1214.7 1071.42 1206.24 1058.98 1206.25 1044.87C1206.28 1031.78 1212.74 1018.51 1216.28 1006.09C1221.23 988.777 1224.88 971.139 1228.81 953.565C1236.18 920.553 1242.92 886.177 1254.28 854.293C1264.77 824.908 1282.58 798.821 1296.39 770.977C1308.31 746.959 1317.46 721.683 1316.38 694.507C1315.15 663.964 1304.44 634.696 1303.03 604.236C1302.47 591.934 1283.14 590.518 1283.73 602.97C1285.22 635.505 1297.34 666.933 1297.25 699.542C1297.15 734.194 1277.96 765.493 1261.75 794.847C1245.73 823.868 1233.5 852.138 1225.51 884.481C1216.66 920.338 1209.49 956.674 1200.01 992.363C1193.53 1016.73 1182.83 1038.31 1190.12 1063.56C1195.98 1083.81 1202.56 1095.71 1196.41 1117.19C1193.3 1128 1189.8 1138.52 1188.98 1149.83C1187.06 1176.19 1193.32 1207.05 1207.75 1229.25C1228.23 1260.7 1262.05 1281.55 1291.78 1303.08C1301.89 1310.4 1312.68 1294.35 1302.61 1287.05L1302.66 1287.08Z" fill="url(#paint6_linear_2648_2012)" fill-opacity="0.5"/>
<path d="M722.597 1449.8C703.758 1478.8 681.301 1519.16 682.759 1555.17C683.252 1567.47 702.58 1568.89 702.058 1556.43C700.746 1523.97 721.772 1486.53 738.627 1460.62C745.396 1450.19 729.399 1439.33 722.597 1449.8Z" fill="url(#paint7_linear_2648_2012)" fill-opacity="0.5"/>
<path d="M666.391 1623.43C667.978 1665.35 677.776 1708.36 666.66 1749.69C663.455 1761.65 681.762 1767.94 684.993 1755.86C696.651 1712.44 687.357 1668.67 685.684 1624.67C685.211 1612.36 665.904 1610.94 666.364 1623.41L666.391 1623.43Z" fill="url(#paint8_linear_2648_2012)" fill-opacity="0.5"/>
<defs>
<linearGradient id="paint0_linear_2648_2012" x1="1292.42" y1="679.426" x2="1220.51" y2="547.541" gradientUnits="userSpaceOnUse">
<stop stop-color="#BDC0C0" stop-opacity="0.8"/>
<stop offset="1" stop-color="#DBDEDE" stop-opacity="0"/>
</linearGradient>
<linearGradient id="paint1_linear_2648_2012" x1="1076.66" y1="1496.41" x2="576.538" y2="327.83" gradientUnits="userSpaceOnUse">
<stop stop-color="#BDC0C0" stop-opacity="0.8"/>
<stop offset="1" stop-color="#DBDEDE" stop-opacity="0"/>
</linearGradient>
<linearGradient id="paint2_linear_2648_2012" x1="946.679" y1="1579.53" x2="682.869" y2="920.455" gradientUnits="userSpaceOnUse">
<stop stop-color="#BDC0C0" stop-opacity="0.8"/>
<stop offset="1" stop-color="#DBDEDE" stop-opacity="0"/>
</linearGradient>
<linearGradient id="paint3_linear_2648_2012" x1="1529.25" y1="1022.47" x2="1147.39" y2="251.15" gradientUnits="userSpaceOnUse">
<stop stop-color="#BDC0C0" stop-opacity="0.8"/>
<stop offset="1" stop-color="#DBDEDE" stop-opacity="0"/>
</linearGradient>
<linearGradient id="paint4_linear_2648_2012" x1="936.051" y1="1766.73" x2="718.304" y2="1234.15" gradientUnits="userSpaceOnUse">
<stop stop-color="#BDC0C0" stop-opacity="0.8"/>
<stop offset="1" stop-color="#DBDEDE" stop-opacity="0"/>
</linearGradient>
<linearGradient id="paint5_linear_2648_2012" x1="868.974" y1="1741.4" x2="680.183" y2="1272.96" gradientUnits="userSpaceOnUse">
<stop stop-color="#BDC0C0" stop-opacity="0.8"/>
<stop offset="1" stop-color="#DBDEDE" stop-opacity="0"/>
</linearGradient>
<linearGradient id="paint6_linear_2648_2012" x1="1365.56" y1="1194.72" x2="1093.26" y2="674.148" gradientUnits="userSpaceOnUse">
<stop stop-color="#BDC0C0" stop-opacity="0.8"/>
<stop offset="1" stop-color="#DBDEDE" stop-opacity="0"/>
</linearGradient>
<linearGradient id="paint7_linear_2648_2012" x1="728.172" y1="1540.54" x2="692.383" y2="1458.32" gradientUnits="userSpaceOnUse">
<stop stop-color="#BDC0C0" stop-opacity="0.8"/>
<stop offset="1" stop-color="#DBDEDE" stop-opacity="0"/>
</linearGradient>
<linearGradient id="paint8_linear_2648_2012" x1="696.197" y1="1737.97" x2="638.839" y2="1629.14" gradientUnits="userSpaceOnUse">
<stop stop-color="#BDC0C0" stop-opacity="0.8"/>
<stop offset="1" stop-color="#DBDEDE" stop-opacity="0"/>
</linearGradient>
</defs>
</svg>
