<svg width="24" height="25" viewBox="0 0 24 25" fill="none" xmlns="http://www.w3.org/2000/svg">
<rect y="0.5" width="24" height="24" rx="12" fill="#222F33"/>
<mask id="mask0_2782_1974" style="mask-type:alpha" maskUnits="userSpaceOnUse" x="0" y="0" width="24" height="25">
<rect y="0.5" width="24" height="24" rx="12" fill="white"/>
</mask>
<g mask="url(#mask0_2782_1974)">
</g>
<mask id="mask1_2782_1974" style="mask-type:alpha" maskUnits="userSpaceOnUse" x="2" y="2" width="20" height="21">
<rect x="2" y="2.5" width="20" height="20" rx="10" fill="#D9D9D9"/>
</mask>
<g mask="url(#mask1_2782_1974)">
<path d="M10.6868 15.9795C10.6868 16.6583 10.1365 17.2087 9.45768 17.2087H7.99935C6.69671 17.2087 5.58633 16.7493 4.6682 15.8306C3.75008 14.9118 3.29102 13.8007 3.29102 12.4972C3.29102 11.1937 3.75008 10.0837 4.6682 9.16699C5.58633 8.25033 6.69671 7.79199 7.99935 7.79199H9.45768C10.1365 7.79199 10.6868 8.34231 10.6868 9.02116C10.6868 9.70001 10.1365 10.2503 9.45768 10.2503H8.00829C7.3808 10.2503 6.84744 10.4691 6.4082 10.9066C5.96897 11.3441 5.74935 11.8753 5.74935 12.5003C5.74935 13.1253 5.96897 13.6566 6.4082 14.0941C6.84744 14.5316 7.3808 14.7503 8.00829 14.7503H9.45768C10.1365 14.7503 10.6868 15.3006 10.6868 15.9795ZM9.43685 13.417C8.93059 13.417 8.52018 13.0066 8.52018 12.5003C8.52018 11.9941 8.93059 11.5837 9.43685 11.5837H14.5618C15.0681 11.5837 15.4785 11.9941 15.4785 12.5003C15.4785 13.0066 15.0681 13.417 14.5618 13.417H9.43685ZM14.541 17.2087C13.8622 17.2087 13.3118 16.6583 13.3118 15.9795C13.3118 15.3006 13.8622 14.7503 14.541 14.7503H15.9904C16.6179 14.7503 17.1513 14.5316 17.5905 14.0941C18.0297 13.6566 18.2493 13.1253 18.2493 12.5003C18.2493 11.8753 18.0297 11.3441 17.5905 10.9066C17.1513 10.4691 16.6179 10.2503 15.9904 10.2503H14.541C13.8622 10.2503 13.3118 9.70001 13.3118 9.02116C13.3118 8.34231 13.8622 7.79199 14.541 7.79199H15.9993C17.302 7.79199 18.4124 8.25135 19.3305 9.17008C20.2486 10.0888 20.7077 11.1999 20.7077 12.5034C20.7077 13.8069 20.2486 14.917 19.3305 15.8337C18.4124 16.7503 17.302 17.2087 15.9993 17.2087H14.541Z" fill="white"/>
</g>
</svg>
